<svg width="24" height="24" viewBox="0 0 24 24" fill="none" xmlns="http://www.w3.org/2000/svg">
<g clip-path="url(#clip0_3624_27250)">
<path d="M23.9178 17.2708C23.8551 17.0353 23.7538 16.8118 23.6178 16.6094C23.6469 16.5028 23.6692 16.3945 23.684 16.2851C23.7806 15.5906 23.5391 14.9549 23.0842 14.463C22.8377 14.1943 22.5736 14.0168 22.2938 13.908C22.4774 13.1244 22.5703 12.3224 22.5708 11.5178C22.5708 11.1503 22.5499 10.7903 22.5149 10.4356C22.4968 10.2585 22.4747 10.0819 22.4489 9.90571C22.3688 9.38592 22.25 8.87275 22.0933 8.37062C21.9907 8.04068 21.8719 7.71592 21.7375 7.39751C21.536 6.92597 21.3007 6.46949 21.0335 6.03163C20.8582 5.7403 20.6674 5.45859 20.4617 5.18774C20.3609 5.05096 20.2559 4.91742 20.1466 4.78729C19.8229 4.39498 19.4711 4.02657 19.094 3.68496C18.9687 3.57011 18.8399 3.45921 18.7077 3.35238C18.5775 3.24411 18.4444 3.13934 18.3087 3.03816C18.0354 2.83533 17.7531 2.64506 17.4625 2.46793C15.8566 1.49529 13.9733 0.9375 11.9605 0.9375C6.09999 0.9375 1.35025 5.67429 1.35025 11.5182C1.35001 12.333 1.44464 13.1451 1.63225 13.9381C1.38055 14.0471 1.13933 14.217 0.915592 14.4627C0.460777 14.9544 0.219211 15.5878 0.315814 16.2823C0.330497 16.3926 0.352521 16.5018 0.381886 16.6092C0.246025 16.8117 0.144714 17.0353 0.0820557 17.2708C-0.0577799 17.8009 -0.0117507 18.2788 0.165957 18.6976C-0.0272492 19.245 0.0209942 19.8278 0.272582 20.3346C0.455533 20.7047 0.717375 20.9911 1.04016 21.247C1.42389 21.5512 1.90423 21.8096 2.48361 22.0576C3.17487 22.3516 4.01866 22.6278 4.40239 22.7292C5.39359 22.9851 6.34401 23.1473 7.30724 23.1552C8.67961 23.1678 9.86146 22.8461 10.7076 22.0225C11.1232 22.0733 11.5417 22.0987 11.9605 22.0985C12.403 22.0976 12.845 22.0698 13.284 22.0154C14.1282 22.8442 15.3146 23.1689 16.692 23.1559C17.6551 23.1482 18.6055 22.986 19.5941 22.7297C19.9804 22.6284 20.8239 22.3522 21.5155 22.0582C22.0949 21.8099 22.5752 21.5514 22.9615 21.2477C23.2818 20.9917 23.5434 20.7054 23.7265 20.3353C23.9807 19.8284 24.0263 19.2455 23.8358 18.6982C24.0118 18.2794 24.0576 17.8004 23.9178 17.2708ZM22.9343 18.6622C23.1291 19.0307 23.1415 19.447 22.9698 19.8348C22.7092 20.4225 22.062 20.8854 20.805 21.3825C20.0233 21.6916 19.3076 21.8892 19.3013 21.891C18.2674 22.1584 17.3324 22.2942 16.523 22.2942C15.1827 22.2942 14.1853 21.9254 13.5528 21.197C12.4831 21.3787 11.391 21.3849 10.3194 21.2153C9.68608 21.9316 8.69441 22.2942 7.36539 22.2942C6.55586 22.2942 5.62094 22.1584 4.58698 21.891C4.58068 21.8892 3.86519 21.6916 3.08328 21.3825C1.82639 20.8854 1.17895 20.4228 0.918506 19.8348C0.746741 19.447 0.759209 19.0307 0.95393 18.6622C0.971876 18.6279 0.99122 18.5946 1.01185 18.5622C0.895153 18.3875 0.81688 18.19 0.782166 17.9828C0.747463 17.7758 0.757112 17.5637 0.810482 17.3606C0.887858 17.0674 1.04762 16.8236 1.2646 16.6484C1.16007 16.4772 1.09149 16.2866 1.063 16.0881C1.00054 15.6565 1.14422 15.2256 1.46736 14.8742C1.71906 14.6008 2.07483 14.4503 2.4687 14.4503H2.47919C2.18221 13.501 2.03164 12.5122 2.03264 11.5178C2.03264 6.09438 6.44166 1.69726 11.881 1.69726C17.3203 1.69726 21.7293 6.09391 21.7293 11.5178C21.7301 12.5149 21.5785 13.5062 21.2796 14.4577C21.3272 14.4531 21.3738 14.4508 21.4196 14.4506C21.8134 14.4506 22.1693 14.6011 22.4208 14.8746C22.7439 15.2256 22.8877 15.6569 22.8251 16.0885C22.7967 16.2869 22.7281 16.4775 22.6237 16.6488C22.8406 16.8239 23.0005 17.0677 23.0778 17.3609C23.1312 17.564 23.1408 17.7761 23.1061 17.9833C23.0715 18.1904 22.9932 18.3878 22.8764 18.5626C22.897 18.5946 22.9166 18.6279 22.9343 18.6622Z" fill="white"/>
<path d="M22.9057 18.5755C23.0226 18.4005 23.1011 18.2028 23.1359 17.9954C23.1706 17.7879 23.1609 17.5756 23.1074 17.3722C23.0299 17.0786 22.8697 16.8344 22.6525 16.6591C22.7572 16.4876 22.8258 16.2967 22.8543 16.098C22.917 15.6658 22.773 15.2343 22.4492 14.8824C22.1973 14.6086 21.8407 14.4579 21.4461 14.4579C21.4003 14.4579 21.3536 14.4604 21.3059 14.465C21.605 13.5123 21.7567 12.5197 21.7556 11.5214C21.7556 6.09047 17.3385 1.6875 11.8897 1.6875C6.44077 1.6875 2.02316 6.09001 2.02316 11.5214C2.02217 12.5171 2.17302 13.5073 2.47053 14.4578H2.46001C2.06542 14.4578 1.70901 14.6084 1.45696 14.8822C1.13323 15.2337 0.989152 15.6657 1.05184 16.0977C1.08041 16.2965 1.14911 16.4874 1.25381 16.659C1.03643 16.8342 0.876272 17.0783 0.798753 17.3719C0.745308 17.5754 0.735677 17.7878 0.77049 17.9953C0.805303 18.2026 0.883755 18.4005 1.00071 18.5755C0.979929 18.6078 0.960783 18.6412 0.942687 18.6755C0.747724 19.0445 0.735128 19.4615 0.907326 19.8498C1.16837 20.4382 1.81675 20.9018 3.07607 21.3995C3.85907 21.709 4.57625 21.907 4.58255 21.9087C5.61831 22.1765 6.55506 22.3125 7.36597 22.3125C8.69755 22.3125 9.69104 21.9494 10.3255 21.2322C11.3991 21.402 12.4933 21.3957 13.5648 21.2138C14.1985 21.9432 15.1978 22.3125 16.5405 22.3125C17.3514 22.3125 18.2882 22.1765 19.3238 21.9087C19.3303 21.907 20.0471 21.709 20.8304 21.3995C22.0897 20.9018 22.7383 20.4382 22.9992 19.8498C23.1713 19.4615 23.1588 19.0445 22.9637 18.6755C22.9459 18.641 22.9263 18.6075 22.9057 18.5755ZM9.87153 20.1093C9.81689 20.2045 9.75841 20.2974 9.69618 20.3878C9.53215 20.6272 9.31641 20.8101 9.06599 20.946C8.58733 21.2062 7.98144 21.2971 7.36597 21.2971C6.3936 21.2971 5.39684 21.0703 4.83822 20.9259C4.81067 20.9188 1.41365 19.9624 1.84373 19.1483C1.91611 19.0114 2.03518 18.9567 2.1852 18.9567C2.79075 18.9567 3.8934 19.8555 4.36726 19.8555C4.47315 19.8555 4.54787 19.8106 4.57834 19.7009C4.7803 18.979 1.50878 18.6756 1.7843 17.6301C1.83286 17.4451 1.96479 17.3699 2.15018 17.3699C2.95082 17.3698 4.74774 18.7733 5.12354 18.7733C5.15238 18.7733 5.17303 18.7648 5.18424 18.7471C5.18587 18.7444 5.18752 18.7419 5.18904 18.7391C5.36544 18.4488 5.26421 18.2377 4.05579 17.4999L3.93975 17.4295C2.60991 16.6273 1.67654 16.1445 2.20738 15.5685C2.26843 15.5021 2.35506 15.4726 2.46025 15.4726C2.58493 15.4726 2.73588 15.5142 2.90212 15.584C3.60446 15.8792 4.57788 16.6843 4.9845 17.0354C5.04847 17.0908 5.11202 17.1468 5.17513 17.2031C5.17513 17.2031 5.68999 17.7367 6.00123 17.7367C6.07291 17.7367 6.13372 17.7086 6.17493 17.639C6.3957 17.268 4.12455 15.5526 3.99648 14.8447C3.90963 14.3652 4.05742 14.1222 4.3306 14.1222C4.46054 14.1222 4.61908 14.1774 4.79408 14.2881C5.33694 14.6314 6.38507 16.4267 6.76881 17.1251C6.89746 17.3591 7.11706 17.458 7.31494 17.458C7.70755 17.458 8.01447 17.069 7.35089 16.5747C6.35355 15.8309 6.70356 14.6152 7.17953 14.5403C7.19984 14.5371 7.22037 14.5354 7.2408 14.5354C7.67369 14.5354 7.86457 15.2789 7.86457 15.2789C7.86457 15.2789 8.42424 16.6797 9.38564 17.6372C10.258 18.5064 10.3798 19.2196 9.87153 20.1093ZM12.9803 20.2733L12.9305 20.2793L12.8455 20.2889C12.8008 20.2936 12.7559 20.298 12.711 20.3021L12.6672 20.306L12.6272 20.3094L12.5704 20.314L12.5077 20.3185L12.4452 20.3226L12.4313 20.3235C12.4149 20.3244 12.3986 20.3255 12.382 20.3263L12.3611 20.3274C12.3417 20.3285 12.3223 20.3294 12.3027 20.3302L12.2349 20.3332L12.1734 20.3352L12.1323 20.3364H12.1114C12.0985 20.3364 12.0858 20.3371 12.073 20.3372H12.0527C12.0398 20.3372 12.0271 20.3372 12.0143 20.3378L11.962 20.3385H11.889C11.8317 20.3385 11.7745 20.3379 11.7175 20.3368L11.6713 20.3357C11.6581 20.3357 11.6449 20.3351 11.6319 20.3347L11.5829 20.3333L11.5221 20.3309L11.4672 20.3285L11.4531 20.3279L11.4009 20.3252C11.3863 20.3244 11.3719 20.3237 11.3575 20.3227L11.3237 20.3207C11.2813 20.318 11.239 20.3151 11.1966 20.3119L11.1522 20.3083C11.1335 20.3069 11.1149 20.3051 11.0963 20.3035C11.0745 20.3016 11.0526 20.2995 11.0308 20.2974C10.9943 20.2941 10.9577 20.2903 10.9212 20.2864H10.9194C11.4529 19.1 11.1832 17.992 10.105 16.9183C9.3979 16.2145 8.92754 15.1751 8.82994 14.9469C8.63239 14.2714 8.10963 13.5205 7.2414 13.5205C7.16797 13.5205 7.09465 13.5263 7.02215 13.5377C6.6418 13.5974 6.30931 13.8156 6.07209 14.144C5.81572 13.8262 5.56659 13.5736 5.34127 13.4309C5.00155 13.2162 4.66251 13.1073 4.33224 13.1073C3.92002 13.1073 3.55157 13.276 3.29473 13.5821L3.2882 13.5899C3.28329 13.5697 3.27862 13.5496 3.27384 13.5294L3.27325 13.5267C3.22437 13.3184 3.18334 13.1084 3.1502 12.8969C3.1502 12.8955 3.1502 12.8941 3.1495 12.8927C3.14693 12.8768 3.1446 12.8607 3.14215 12.8448C3.13497 12.7976 3.12823 12.7502 3.12195 12.7028C3.11915 12.6813 3.11611 12.6598 3.11343 12.6382L3.10549 12.5737C3.10292 12.5521 3.10082 12.5326 3.09849 12.5121L3.0978 12.507C3.08847 12.4232 3.0803 12.3394 3.07327 12.2554L3.0707 12.2232L3.06662 12.1683C3.06545 12.1532 3.06428 12.1381 3.06346 12.123C3.06346 12.1194 3.06288 12.1159 3.06276 12.1125C3.0598 12.0704 3.05726 12.0282 3.05517 11.9859C3.05401 11.9639 3.05284 11.942 3.05191 11.9199L3.04957 11.8622L3.04899 11.8448L3.04712 11.7916L3.04595 11.7463C3.04595 11.7283 3.04502 11.7102 3.04478 11.6922C3.04443 11.6742 3.04397 11.6544 3.04385 11.6353C3.04362 11.6162 3.04385 11.5974 3.04327 11.5784C3.0428 11.5593 3.04327 11.5404 3.04327 11.5214C3.04327 6.65123 7.00451 2.70289 11.8911 2.70289C16.7775 2.70289 20.7387 6.65111 20.7387 11.5214V11.6353C20.7387 11.6543 20.7381 11.6734 20.7377 11.6922C20.7377 11.7079 20.737 11.7234 20.7366 11.7393C20.7366 11.7533 20.736 11.7674 20.7355 11.7809C20.7355 11.7987 20.7345 11.8165 20.7339 11.8343V11.8357L20.7314 11.8975C20.7306 11.9155 20.7299 11.9337 20.729 11.9517L20.7284 11.9645L20.7252 12.0222C20.7184 12.1459 20.7089 12.2694 20.6971 12.3927V12.3942C20.6951 12.4145 20.6931 12.4347 20.6909 12.455L20.6857 12.5028L20.6753 12.5964L20.6693 12.6437L20.662 12.6995C20.6593 12.7197 20.6566 12.7401 20.6536 12.7602C20.6505 12.7829 20.6471 12.8055 20.6438 12.828L20.6357 12.8814L20.6261 12.942C20.6229 12.9621 20.6194 12.9821 20.6156 13.0021C20.6118 13.0222 20.6087 13.0423 20.6052 13.0623C20.5982 13.1023 20.5909 13.1423 20.5832 13.1822C20.5714 13.2419 20.5593 13.3015 20.547 13.3611L20.5341 13.4201C20.5299 13.4398 20.5254 13.4595 20.5209 13.4792C20.2719 13.238 19.9421 13.1066 19.5785 13.1066C19.2484 13.1066 18.9091 13.2154 18.5694 13.4301C18.3441 13.5728 18.0951 13.8255 17.8386 14.1432C17.601 13.8148 17.2686 13.5966 16.8884 13.5369C16.8159 13.5255 16.7426 13.5197 16.6692 13.5197C15.8007 13.5197 15.2783 14.2706 15.0807 14.9461C14.9826 15.1743 14.5121 16.2136 13.8044 16.9186C12.727 17.9889 12.4552 19.0919 12.9803 20.2733ZM22.1145 17.8985L22.111 17.9088C22.1021 17.9322 22.0918 17.955 22.0803 17.9771C22.0715 17.9934 22.0621 18.0093 22.0518 18.0246C22.0323 18.0536 22.0109 18.0813 21.9877 18.1073C21.9823 18.1134 21.9772 18.1194 21.9711 18.1254C21.9627 18.1343 21.9542 18.1432 21.9455 18.1518C21.7883 18.307 21.5488 18.4432 21.2779 18.568C21.2472 18.5819 21.216 18.5957 21.1846 18.6097L21.1533 18.6235C21.1324 18.6327 21.1115 18.6418 21.0896 18.6508C21.0687 18.6598 21.047 18.6689 21.0253 18.6778L20.9601 18.7045C20.8078 18.767 20.6517 18.8266 20.4995 18.8854L20.4343 18.9106L20.37 18.9357C20.3271 18.9524 20.2849 18.969 20.2433 18.9857L20.1813 19.0106L20.1204 19.0353L20.0905 19.0479C20.0705 19.0562 20.051 19.0644 20.0315 19.0727C19.5836 19.2644 19.2613 19.4593 19.329 19.7011C19.3308 19.7079 19.3329 19.7144 19.3353 19.7208C19.3414 19.7388 19.3496 19.7556 19.36 19.7716C19.3661 19.781 19.3731 19.79 19.3809 19.7981C19.4605 19.8806 19.6054 19.8676 19.7881 19.8021C19.8138 19.7926 19.8394 19.7829 19.8647 19.7726L19.8806 19.7661C19.9224 19.7484 19.9666 19.7286 20.0118 19.7072C20.0231 19.7019 20.0346 19.6968 20.046 19.6908C20.2695 19.5819 20.5227 19.4353 20.7739 19.3018C20.8744 19.2477 20.9764 19.1964 21.0796 19.1476C21.3175 19.036 21.5412 18.9569 21.721 18.9569C21.8054 18.9569 21.8798 18.9741 21.9419 19.0137L21.9523 19.0206C21.9913 19.0479 22.024 19.0831 22.0484 19.1238C22.0532 19.1316 22.0579 19.1398 22.0624 19.1483C22.1513 19.3165 22.0769 19.4906 21.9028 19.6613C21.7358 19.8252 21.4759 19.9859 21.1805 20.1346C21.1586 20.1457 21.1366 20.1567 21.1143 20.1676C20.2353 20.5979 19.0841 20.922 19.0681 20.926C18.7613 21.0053 18.3225 21.1093 17.8282 21.1871L17.7552 21.1985L17.7431 21.2003C17.6878 21.2087 17.6323 21.2165 17.5768 21.2237C17.5204 21.2312 17.4634 21.2381 17.4061 21.2445L17.3956 21.2457C17.1878 21.2695 16.9792 21.2854 16.7701 21.2929H16.767C16.6914 21.2956 16.6158 21.297 16.5402 21.297H16.453C16.3376 21.2955 16.2225 21.2902 16.1075 21.2814C16.1049 21.2814 16.1019 21.2814 16.0992 21.2807C16.058 21.2776 16.0169 21.2737 15.9759 21.2692C15.9332 21.2646 15.8907 21.2595 15.8484 21.2538C15.8205 21.2501 15.7927 21.2459 15.7649 21.2414C15.7366 21.2368 15.7084 21.2322 15.6803 21.2273L15.6418 21.2201L15.6389 21.2195C15.5984 21.2118 15.5581 21.2033 15.518 21.194C15.4946 21.1888 15.4714 21.1837 15.4484 21.1774L15.4345 21.1739C15.4231 21.1711 15.412 21.1681 15.4007 21.165L15.3945 21.1634L15.3585 21.1529C15.3454 21.1493 15.3324 21.1454 15.3193 21.1415L15.3147 21.1403L15.2808 21.1299C15.2679 21.1259 15.2551 21.1217 15.2423 21.1176L15.2111 21.1072L15.1881 21.0992C15.1659 21.0914 15.1438 21.0833 15.122 21.075L15.1012 21.0668L15.084 21.0601C15.0509 21.0468 15.018 21.033 14.9854 21.0184L14.9638 21.0079L14.9602 21.0063C14.9525 21.0027 14.9449 20.9991 14.9372 20.996C14.9221 20.9887 14.9072 20.9813 14.8923 20.9737L14.8878 20.9715L14.8663 20.9602C14.8281 20.9403 14.7908 20.9192 14.7541 20.8967L14.734 20.8844C14.724 20.8782 14.714 20.8718 14.7042 20.8653L14.678 20.8481L14.6499 20.8287L14.6331 20.8168C14.6153 20.8042 14.5979 20.7912 14.5809 20.7778L14.5537 20.7569C14.5428 20.7482 14.5321 20.7394 14.5215 20.7304C14.5125 20.7231 14.5037 20.7154 14.495 20.7077L14.4943 20.7071C14.4848 20.6989 14.4756 20.6906 14.4663 20.6821C14.4572 20.6739 14.4481 20.6655 14.4393 20.657L14.4382 20.6559C14.4289 20.6471 14.4198 20.6381 14.4108 20.6289C14.4018 20.6199 14.3926 20.6108 14.3838 20.6015C14.3751 20.5923 14.3661 20.5829 14.3574 20.5732C14.3488 20.5637 14.3408 20.5549 14.3327 20.5455L14.33 20.5424C14.3221 20.5333 14.3142 20.5241 14.3065 20.5147C14.2898 20.4948 14.2736 20.4744 14.258 20.4536C14.2422 20.4326 14.2268 20.4112 14.2117 20.3895L14.1974 20.3681C14.1782 20.3401 14.1595 20.312 14.1415 20.2833C14.1279 20.2628 14.1147 20.242 14.1019 20.221C14.0936 20.2078 14.0856 20.1946 14.0777 20.1815L14.0744 20.1762C14.0669 20.1634 14.0594 20.1508 14.0521 20.1381C14.0479 20.1313 14.044 20.1244 14.0402 20.1173C14.0364 20.1101 14.0319 20.1028 14.0279 20.0954L14.0212 20.0839L14.0171 20.0765C14.0093 20.0625 14.0016 20.0484 13.9941 20.0342C13.9906 20.0279 13.9872 20.0216 13.9836 20.0156L13.9732 19.9955L13.9627 19.9756C13.9364 19.9232 13.9116 19.8701 13.8882 19.8164L13.8799 19.7967C13.8746 19.7836 13.8696 19.7705 13.8642 19.7576C13.8616 19.7513 13.859 19.7452 13.8568 19.7389C13.8443 19.7066 13.8327 19.6741 13.8219 19.6413C13.8181 19.6295 13.8143 19.618 13.8108 19.6063C13.8024 19.5799 13.7948 19.5533 13.7881 19.5264C13.7798 19.4951 13.7724 19.4636 13.7662 19.4318C13.7649 19.4254 13.7637 19.419 13.7626 19.4128C13.7565 19.3818 13.7516 19.3505 13.7478 19.319C13.7469 19.3129 13.7462 19.3067 13.7455 19.3005L13.7435 19.2817C13.7409 19.257 13.7389 19.2322 13.7377 19.2074C13.7377 19.2012 13.7372 19.1949 13.7369 19.1888C13.7363 19.1765 13.7361 19.1642 13.736 19.1518C13.7295 18.6546 13.9819 18.1766 14.5216 17.6389C15.483 16.6815 16.0426 15.2806 16.0426 15.2806C16.0426 15.2806 16.0577 15.2219 16.089 15.1373C16.0933 15.1255 16.0979 15.1134 16.103 15.1007C16.1212 15.0534 16.1417 15.0068 16.1645 14.9615L16.1691 14.9527C16.1884 14.9141 16.2097 14.8764 16.2326 14.8397C16.2379 14.8312 16.2431 14.8229 16.249 14.8144C16.2662 14.7891 16.2843 14.7644 16.3033 14.7406C16.3137 14.7277 16.325 14.7149 16.3364 14.7024C16.3409 14.6975 16.3453 14.6927 16.3501 14.688C16.4058 14.6306 16.4694 14.5839 16.5415 14.5589L16.5506 14.5559C16.5567 14.5539 16.5627 14.5521 16.5689 14.5503C16.576 14.5485 16.5832 14.5468 16.5905 14.5453L16.5939 14.5446C16.6091 14.5416 16.6245 14.5396 16.64 14.5386H16.6413C16.6493 14.5386 16.6575 14.5378 16.6658 14.5378C16.6762 14.5378 16.6859 14.5378 16.696 14.5388C16.7066 14.5398 16.7169 14.5409 16.7275 14.5425C16.8141 14.5563 16.8965 14.6077 16.9675 14.6871C16.9944 14.7173 17.0187 14.7499 17.04 14.7843C17.054 14.8067 17.0672 14.8303 17.0797 14.8552C17.0847 14.8656 17.0895 14.8751 17.0941 14.8854C17.1063 14.9116 17.1173 14.9384 17.1268 14.9658C17.1496 15.0298 17.1668 15.0956 17.1781 15.1626C17.1879 15.2214 17.1937 15.2808 17.1956 15.3402C17.1965 15.372 17.1965 15.4042 17.1956 15.4367C17.1893 15.5877 17.1582 15.7368 17.1037 15.8779C17.0988 15.8908 17.0933 15.9039 17.0881 15.9169C17.0773 15.9432 17.0655 15.969 17.0528 15.9943C17.0434 16.0135 17.0334 16.0328 17.0227 16.052C17.0157 16.0648 17.0083 16.0776 17.001 16.0904C16.9822 16.1223 16.9619 16.1539 16.94 16.1855L16.9269 16.2043C16.8752 16.276 16.8178 16.3433 16.755 16.4054C16.6931 16.4672 16.6268 16.5243 16.5567 16.5765C16.4864 16.6284 16.4204 16.6858 16.3595 16.7483C16.184 16.9318 16.1431 17.0938 16.1826 17.2166C16.1889 17.2359 16.1972 17.2546 16.2072 17.2723C16.219 17.2926 16.233 17.3112 16.2489 17.3282L16.2551 17.3346L16.2614 17.3409C16.2677 17.3469 16.2744 17.3528 16.2815 17.3587L16.2885 17.3642C16.3054 17.3773 16.3234 17.3889 16.3422 17.3992C16.3477 17.4021 16.3526 17.405 16.3588 17.4078C16.3791 17.4177 16.4 17.4262 16.4215 17.433C16.4274 17.435 16.4334 17.4367 16.4394 17.4386L16.447 17.4406L16.4575 17.4434L16.4665 17.4456L16.4763 17.4477L16.486 17.4497L16.4952 17.4512C16.502 17.4523 16.509 17.4535 16.516 17.4543L16.5227 17.4554L16.5348 17.4565L16.5423 17.4573L16.5546 17.4582H16.5618L16.5746 17.4589H16.615L16.6266 17.4582L16.6399 17.4573L16.6561 17.4558L16.6713 17.4541C16.6748 17.4541 16.6783 17.4531 16.6818 17.4524C16.7285 17.4457 16.7743 17.4334 16.818 17.4157L16.8366 17.4079C16.847 17.4033 16.8575 17.3986 16.8671 17.3935C16.8876 17.3832 16.9076 17.3716 16.9267 17.3589C16.9535 17.3414 16.9787 17.3219 17.0023 17.3004C17.0079 17.2954 17.0134 17.29 17.0187 17.2849C17.0214 17.2823 17.024 17.2799 17.0266 17.2771C17.0317 17.2719 17.0369 17.2667 17.0421 17.261C17.0794 17.2201 17.1118 17.1749 17.1384 17.1264C17.3669 16.7123 17.6063 16.3043 17.8565 15.903L17.8908 15.8481L17.9255 15.7933C17.9428 15.7655 17.9603 15.7382 17.9777 15.711L17.9952 15.6837C18.0533 15.593 18.1124 15.5028 18.1725 15.4133L18.2081 15.3602C18.2796 15.2547 18.3508 15.1521 18.4214 15.0545L18.4565 15.0063C18.5334 14.9007 18.6133 14.7974 18.6963 14.6966L18.7293 14.6573C18.7348 14.6508 18.7398 14.6442 18.7457 14.638C18.7566 14.6252 18.7674 14.6127 18.7781 14.6006C18.7834 14.5944 18.7885 14.5884 18.7942 14.5823L18.8255 14.5472L18.8411 14.5301C18.8569 14.5132 18.8723 14.497 18.8875 14.4816C18.898 14.4711 18.9076 14.4607 18.9177 14.451C18.9769 14.3907 19.0421 14.3366 19.1125 14.2897L19.1289 14.2792C19.1445 14.2687 19.1608 14.259 19.1773 14.2501C19.4533 14.094 19.6818 14.0824 19.8134 14.2136C19.893 14.2929 19.9371 14.4245 19.9346 14.6077C19.9346 14.6157 19.9346 14.6239 19.9341 14.6323V14.6412C19.9341 14.6496 19.9334 14.658 19.9327 14.6665C19.9327 14.6769 19.9315 14.6873 19.9304 14.6978C19.9294 14.7081 19.9288 14.716 19.9278 14.7253C19.9278 14.7279 19.9273 14.7306 19.9268 14.7334C19.9261 14.7414 19.9251 14.7497 19.9239 14.7579C19.9239 14.7604 19.9239 14.7629 19.923 14.7655C19.9217 14.7766 19.9201 14.7875 19.9182 14.7984C19.9169 14.8089 19.9152 14.8187 19.9133 14.8289L19.9102 14.8463C19.9072 14.8628 19.9034 14.8791 19.8986 14.8951C19.8895 14.9253 19.8785 14.9547 19.8655 14.9833C19.8474 15.0227 19.8275 15.0609 19.8055 15.0982C19.7934 15.1189 19.7809 15.1393 19.7679 15.1594C19.7546 15.1802 19.7406 15.2013 19.7261 15.2226C19.6893 15.2752 19.651 15.3267 19.6111 15.3771L19.5929 15.4C19.528 15.4807 19.461 15.5597 19.3919 15.6368L19.3701 15.6613C19.3407 15.694 19.3108 15.7269 19.2802 15.7599L19.2572 15.7848C19.2419 15.8015 19.2259 15.8181 19.2105 15.8349C19.1952 15.8515 19.1792 15.8684 19.1631 15.8853L19.1151 15.9356L19.0664 15.9864L19.0174 16.0371C18.9845 16.0711 18.9514 16.1051 18.9182 16.1391C18.4448 16.623 17.946 17.1053 17.7772 17.406C17.7659 17.4256 17.7557 17.4458 17.7466 17.4664C17.7226 17.5211 17.7125 17.5679 17.7194 17.6057C17.7216 17.6182 17.726 17.63 17.7324 17.641C17.7418 17.6574 17.7534 17.6725 17.7668 17.686C17.773 17.692 17.7796 17.6976 17.7864 17.7027C17.8212 17.7274 17.8631 17.7401 17.9059 17.7389H17.9192L17.9328 17.7379L17.9465 17.7364L17.9578 17.7347C17.9593 17.7345 17.961 17.7343 17.9625 17.7338L17.9729 17.7318L17.9756 17.7313L17.9871 17.7288L17.9912 17.7278C17.9953 17.7267 17.9993 17.7257 18.0033 17.7245C18.0074 17.7233 18.013 17.7218 18.0179 17.7202C18.0385 17.714 18.0586 17.7067 18.0783 17.6983C18.0887 17.6941 18.0988 17.6896 18.1089 17.6847C18.1141 17.6824 18.1194 17.6799 18.1243 17.6774L18.1399 17.6697C18.1773 17.6504 18.2137 17.6293 18.2492 17.6067L18.2647 17.5963C18.27 17.593 18.2752 17.5896 18.2803 17.5859L18.2958 17.5756L18.3041 17.5699L18.3265 17.5542C18.3474 17.5398 18.3669 17.5251 18.3866 17.5101L18.3884 17.5087L18.4198 17.4845C18.4626 17.4507 18.5032 17.4167 18.5401 17.3847L18.5647 17.3633L18.5669 17.3612L18.5797 17.3499C18.6098 17.3229 18.6367 17.2978 18.659 17.2771L18.6682 17.2681C18.6763 17.2606 18.6836 17.2535 18.6903 17.2474L18.7033 17.2345L18.708 17.23L18.7093 17.2287L18.723 17.2151L18.7316 17.2061L18.7327 17.2053L18.7367 17.2016L18.7419 17.1969L18.7435 17.1954L18.7478 17.1914L18.7716 17.1706L18.785 17.1587C18.7921 17.1526 18.799 17.1463 18.8058 17.1399L18.8217 17.1258C18.8246 17.1235 18.8274 17.1209 18.8304 17.1184L18.8471 17.1038L18.8716 17.0823L18.8847 17.071C18.9354 17.027 18.9972 16.9738 19.0682 16.9139L19.0972 16.8894L19.1452 16.8492L19.1944 16.8084C19.2586 16.7552 19.3277 16.6988 19.4008 16.6402L19.4488 16.6018C19.4896 16.5694 19.5315 16.5363 19.574 16.503C19.5912 16.4897 19.6086 16.4763 19.6263 16.463C19.6698 16.4294 19.7134 16.396 19.7574 16.3631C19.8576 16.2876 19.9609 16.2121 20.0655 16.1386L20.1103 16.1074C20.1418 16.0859 20.173 16.0642 20.2043 16.0432L20.2327 16.0241C20.2886 15.9863 20.3454 15.9494 20.4026 15.9134L20.4309 15.8956L20.4591 15.8782C20.4873 15.8607 20.5153 15.8436 20.5432 15.827L20.5711 15.8103L20.6269 15.778L20.6817 15.7467L20.6928 15.7406L20.7361 15.7169C20.7542 15.7071 20.7722 15.6977 20.7901 15.6885L20.8169 15.6748L20.8429 15.6617C20.852 15.6574 20.861 15.6529 20.8699 15.6486C20.9285 15.6197 20.9883 15.5932 21.049 15.569C21.0654 15.562 21.0818 15.5557 21.098 15.5503L21.1459 15.5335C21.1602 15.5287 21.1742 15.5242 21.1877 15.5201L21.1923 15.5187C21.1996 15.5164 21.2068 15.5143 21.2139 15.5124L21.216 15.5119C21.231 15.5075 21.2458 15.5038 21.2604 15.5003H21.2614C21.3028 15.4904 21.3448 15.4833 21.3872 15.479C21.4067 15.4771 21.4262 15.476 21.4458 15.4761H21.4556C21.4687 15.4761 21.4813 15.4769 21.4938 15.4782C21.4995 15.4782 21.5052 15.4794 21.5108 15.4801H21.5131C21.5188 15.4808 21.5244 15.4816 21.53 15.4829C21.5354 15.4839 21.541 15.4849 21.5464 15.4861H21.5482C21.5537 15.4873 21.5586 15.4887 21.5643 15.4903C21.5939 15.4986 21.6222 15.5114 21.6481 15.5281C21.6608 15.5364 21.6727 15.5457 21.6837 15.5561L21.6869 15.5591C21.689 15.561 21.6909 15.5629 21.6928 15.5649L21.6985 15.5711C21.7455 15.6201 21.7842 15.6763 21.8134 15.7375L21.8178 15.748C21.8278 15.7712 21.8356 15.7953 21.8412 15.8199C21.8578 15.895 21.8514 15.9735 21.8228 16.045C21.8119 16.0739 21.7987 16.1017 21.7832 16.1282C21.7469 16.1892 21.7038 16.2459 21.6549 16.2972L21.6445 16.3082C21.629 16.3245 21.6128 16.3408 21.5959 16.3571C21.5884 16.3644 21.5806 16.3717 21.5728 16.379L21.5489 16.401L21.5364 16.412C21.5063 16.4388 21.4753 16.4648 21.4439 16.4899C21.4249 16.5053 21.4057 16.5203 21.3864 16.535C21.318 16.5872 21.2483 16.6374 21.1773 16.686C21.1344 16.7153 21.0912 16.744 21.0477 16.7724C20.9404 16.8426 20.8319 16.911 20.7224 16.9776C20.4927 17.1184 20.2381 17.2689 19.9666 17.4327L19.8964 17.4751C19.8194 17.5219 19.7468 17.5666 19.6784 17.6092L19.644 17.6307L19.5788 17.6724C19.5356 17.7 19.4925 17.7278 19.4495 17.7556L19.4148 17.7784C19.3979 17.7893 19.381 17.8005 19.3642 17.8117L19.3478 17.8221L19.2973 17.856L19.2706 17.8743L19.2393 17.8959L19.2103 17.916C19.1616 17.9504 19.1163 17.9831 19.0746 18.0141L19.0589 18.026C19.0344 18.0445 19.0102 18.0634 18.9862 18.0826C18.9501 18.1115 18.9172 18.1392 18.8877 18.1659L18.8732 18.179C18.8649 18.1866 18.8567 18.1942 18.8489 18.2016C18.8436 18.2068 18.8385 18.2121 18.8329 18.2171L18.8255 18.2245C18.8088 18.2413 18.7924 18.2584 18.7767 18.276L18.769 18.2848C18.7518 18.3046 18.7369 18.3235 18.7238 18.3421L18.7179 18.3503C18.7077 18.3652 18.6982 18.3806 18.6897 18.3964C18.6875 18.4003 18.6855 18.4043 18.6835 18.4083L18.6778 18.4201L18.6739 18.4287L18.6715 18.4346L18.6695 18.4398L18.6668 18.4469C18.6596 18.4666 18.6545 18.487 18.6516 18.5078L18.6507 18.515L18.65 18.5217V18.5584C18.65 18.5614 18.65 18.5644 18.6508 18.5677L18.6514 18.5733C18.6514 18.5763 18.6521 18.5792 18.6526 18.5825C18.653 18.5855 18.6538 18.591 18.6548 18.5953V18.5958C18.6556 18.5999 18.6564 18.6039 18.6575 18.6079C18.6585 18.612 18.6596 18.6167 18.6609 18.6209C18.6631 18.6291 18.6659 18.6373 18.6688 18.6454C18.6707 18.6503 18.6724 18.6551 18.6744 18.6598C18.6744 18.6608 18.6751 18.6618 18.6756 18.6627L18.6798 18.6722L18.6856 18.6851C18.6919 18.6985 18.6988 18.7115 18.7063 18.7242L18.714 18.7375L18.7219 18.7507C18.7233 18.7529 18.7249 18.755 18.7267 18.757L18.7293 18.7597L18.7322 18.7624L18.7352 18.7647C18.7397 18.7678 18.7444 18.7703 18.7495 18.772C18.7521 18.7729 18.7549 18.7736 18.7577 18.7743C18.8251 18.7895 18.9636 18.734 19.1476 18.6371C19.1579 18.6316 19.1694 18.6257 19.1805 18.6197L19.2365 18.5892L19.2638 18.5741C19.2833 18.5637 19.3032 18.552 19.3235 18.5405L19.3605 18.5196C19.6037 18.3801 19.8941 18.2009 20.1944 18.0259C20.2225 18.0095 20.2508 17.9931 20.279 17.9769L20.3358 17.9407C20.4016 17.9031 20.4678 17.866 20.5342 17.8294C20.618 17.7835 20.7022 17.7388 20.7873 17.6955L20.8429 17.6675C20.8798 17.6493 20.9163 17.6317 20.9524 17.6144C21.0222 17.5814 21.0929 17.55 21.1643 17.5203L21.2034 17.5045L21.2081 17.5026C21.4153 17.4208 21.6032 17.3703 21.7552 17.3703C21.788 17.3699 21.8209 17.3727 21.8532 17.3783H21.8543C21.8647 17.3802 21.8741 17.3823 21.8838 17.3846H21.8856C21.9104 17.3909 21.9346 17.3999 21.9575 17.4114C21.9896 17.4279 22.0184 17.4499 22.0428 17.4764C22.054 17.4888 22.0639 17.5021 22.0727 17.5163C22.089 17.5414 22.1019 17.5685 22.1111 17.5969C22.1148 17.6079 22.1181 17.6187 22.1215 17.6303C22.1461 17.7183 22.1437 17.8118 22.1145 17.8985Z" fill="#FF9D00"/>
<path fill-rule="evenodd" clip-rule="evenodd" d="M20.7252 11.5792V11.5221C20.7252 6.66013 16.7707 2.71875 11.8907 2.71875C7.01075 2.71875 3.05477 6.66036 3.05477 11.5221V11.5412C3.05454 11.5538 3.05442 11.5665 3.05477 11.5792C3.05534 11.5981 3.05554 11.617 3.05536 11.636L3.05595 11.6778L3.05629 11.6928C3.05629 11.6997 3.05653 11.7066 3.05677 11.7136C3.05712 11.7246 3.05734 11.7357 3.05734 11.7468L3.05862 11.792L3.06049 11.8451L3.06107 11.8625L3.0634 11.9174V11.9201C3.06433 11.9416 3.06551 11.963 3.06656 11.9843L3.06667 11.986C3.06783 12.0078 3.06901 12.0298 3.07041 12.0517C3.07157 12.0719 3.07273 12.0921 3.07424 12.1124L3.07449 12.116C3.0755 12.1333 3.07667 12.1507 3.07797 12.168L3.07832 12.1726L3.08217 12.2228L3.08253 12.2261C3.08323 12.2358 3.08392 12.2456 3.08485 12.255C3.09182 12.3388 3.09995 12.4225 3.10923 12.506L3.1098 12.5113L3.11691 12.5727L3.12485 12.6372L3.13067 12.681L3.13335 12.7015C3.13957 12.7489 3.1463 12.7962 3.15352 12.8434L3.154 12.8465L3.16087 12.8911C3.19415 13.1036 3.23538 13.3148 3.28445 13.5242L3.28505 13.5268L3.28877 13.5425L3.29938 13.5872L3.3059 13.5794C3.5624 13.2739 3.93035 13.1055 4.34203 13.1055C4.67197 13.1055 5.01044 13.2142 5.34972 13.4285C5.57473 13.5709 5.82353 13.8231 6.07956 14.1404C6.31647 13.8126 6.64851 13.5946 7.02836 13.5351C7.10078 13.5238 7.17399 13.5181 7.24731 13.518C8.11426 13.518 8.63645 14.2676 8.83372 14.9419C8.93119 15.1697 9.40093 16.2073 10.1093 16.9092C11.1861 17.981 11.4556 19.087 10.9226 20.2714H10.9245C10.9608 20.2754 10.9973 20.2791 11.034 20.2825C11.0558 20.2846 11.0775 20.2867 11.0994 20.2885L11.1071 20.2892L11.1552 20.2933L11.1995 20.2968C11.2417 20.3 11.2841 20.3031 11.3265 20.3057L11.3602 20.3077L11.3869 20.3093L11.4035 20.3103L11.4556 20.3129L11.4698 20.3135L11.5245 20.316L11.5853 20.3183L11.6342 20.3197L11.6423 20.3199C11.6527 20.3204 11.6631 20.3207 11.6735 20.3207L11.6847 20.3211C11.7535 20.3227 11.8221 20.3235 11.8909 20.3234H11.9639L12.016 20.3228C12.0288 20.3222 12.0415 20.3222 12.0545 20.3222H12.0748L12.0924 20.3218C12.0993 20.3215 12.1061 20.3213 12.1131 20.3213H12.134L12.1749 20.3203L12.2365 20.3182L12.3042 20.3151C12.3238 20.3145 12.3432 20.3134 12.3625 20.3125L12.3834 20.3112L12.4144 20.3096L12.4326 20.3085L12.4463 20.3076L12.5089 20.3035L12.5714 20.299L12.6282 20.2945L12.6681 20.2911L12.7119 20.2872C12.7851 20.2806 12.8581 20.273 12.9311 20.2643L12.9809 20.2583C12.4564 19.079 12.7279 17.9778 13.8002 16.9102C14.507 16.2065 14.9768 15.1689 15.0747 14.941C15.2721 14.2668 15.7939 13.5171 16.6611 13.5171C16.7345 13.5171 16.8078 13.523 16.8802 13.5343C17.2597 13.5938 17.5917 13.8117 17.829 14.1396C18.0851 13.8224 18.3338 13.57 18.559 13.4276C18.8981 13.2134 19.2369 13.1046 19.5665 13.1046C19.9298 13.1046 20.2591 13.2359 20.5077 13.4767C20.5123 13.4571 20.5167 13.4375 20.521 13.4177L20.5337 13.3589C20.5383 13.3374 20.5428 13.3159 20.5471 13.2945C20.5548 13.2565 20.5625 13.2185 20.5699 13.1801C20.5776 13.1404 20.5849 13.1005 20.5919 13.0605L20.5955 13.0389C20.5977 13.0261 20.5998 13.0133 20.6023 13.0004C20.6063 12.9805 20.6095 12.9605 20.6128 12.9403L20.6141 12.9326L20.6223 12.88L20.6305 12.8267V12.8262C20.6365 12.7868 20.6421 12.7474 20.6473 12.7081L20.6486 12.6983L20.6559 12.6428L20.6619 12.5954L20.6724 12.502L20.6764 12.4645L20.6775 12.4542C20.6797 12.434 20.6818 12.4138 20.6837 12.3936V12.392C20.6852 12.3759 20.6868 12.3598 20.6882 12.3436C20.6965 12.2521 20.7035 12.1601 20.7091 12.0677C20.7101 12.0526 20.711 12.0374 20.7119 12.0222V12.0215L20.7149 11.9645L20.7156 11.9517C20.7175 11.9131 20.7191 11.8746 20.7204 11.836V11.8346L20.721 11.8195C20.7216 11.8068 20.722 11.7941 20.722 11.7813L20.7223 11.7762C20.7227 11.7642 20.7232 11.7519 20.7232 11.7397L20.7235 11.7292C20.7239 11.717 20.7242 11.705 20.7242 11.6928L20.7245 11.6824C20.7248 11.667 20.7252 11.6514 20.7252 11.636V11.5792ZM9.69916 20.3736C10.3989 19.3512 10.3493 18.5838 9.38927 17.6278C8.42905 16.6716 7.87023 15.2735 7.87023 15.2735C7.87023 15.2735 7.66167 14.4613 7.18599 14.5359C6.7103 14.6105 6.36135 15.8241 7.35737 16.567C8.35327 17.3098 7.15917 17.8135 6.77583 17.1164C6.39248 16.4192 5.34586 14.6271 4.80325 14.2843C4.26065 13.9415 3.87905 14.1336 4.00695 14.8402C4.07049 15.1909 4.66138 15.7895 5.21342 16.3487C5.77352 16.916 6.2936 17.443 6.18238 17.6294C5.96168 17.9996 5.18439 17.1944 5.18439 17.1944C5.18439 17.1944 2.75048 14.9875 2.2207 15.5626C1.73219 16.0926 2.48547 16.5433 3.64624 17.2378C3.74487 17.2968 3.84654 17.3577 3.95065 17.4204C5.27871 18.2215 5.382 18.4328 5.19347 18.7359C5.12387 18.8479 4.67932 18.582 4.13252 18.255C3.20039 17.6972 1.97133 16.962 1.79773 17.6201C1.64756 18.1897 2.55181 18.5386 3.37189 18.8552C4.0551 19.1189 4.68003 19.36 4.58804 19.6874C4.49279 20.0268 3.97642 19.7437 3.41201 19.4343C2.77835 19.0868 2.08407 18.7063 1.85684 19.1357C1.42744 19.9477 4.81935 20.9036 4.84734 20.9107C5.94327 21.1939 8.72646 21.7941 9.69916 20.3736ZM14.2071 20.3736C13.5073 19.3512 13.557 18.5838 14.5171 17.6278C15.4772 16.6716 16.036 15.2735 16.036 15.2735C16.036 15.2735 16.2446 14.4613 16.7202 14.5359C17.1959 14.6105 17.5449 15.8241 16.549 16.567C15.553 17.3098 16.7471 17.8135 17.1304 17.1164C17.5139 16.4192 18.5598 14.6271 19.1024 14.2843C19.645 13.9415 20.0268 14.1336 19.8988 14.8402C19.8354 15.1909 19.2444 15.7895 18.6923 16.3488C18.1322 16.9161 17.6121 17.443 17.7233 17.6294C17.944 17.9996 18.7218 17.1939 18.7218 17.1939C18.7218 17.1939 21.1556 14.9871 21.6856 15.5622C22.174 16.0922 21.4207 16.5429 20.2599 17.2375C20.1583 17.2982 20.0569 17.3591 19.9556 17.4201C18.6275 18.2211 18.5242 18.4325 18.7126 18.7354C18.7823 18.8475 19.2269 18.5815 19.7736 18.2545C20.7058 17.6969 21.9349 16.9616 22.1085 17.6198C22.2588 18.1893 21.3544 18.5383 20.5343 18.8548C19.8511 19.1185 19.2262 19.3597 19.3181 19.687C19.4132 20.0264 19.9295 19.7433 20.4938 19.4338C21.1274 19.0863 21.8218 18.7056 22.0489 19.1354C22.4784 19.9478 19.0859 20.9028 19.0585 20.9098C17.9626 21.1939 15.1794 21.7941 14.2071 20.3736Z" fill="#FFD21E"/>
<path fill-rule="evenodd" clip-rule="evenodd" d="M14.7631 9.10146C14.901 9.15023 15.0035 9.29863 15.1011 9.43991C15.2329 9.63078 15.3556 9.80846 15.5439 9.70836C15.766 9.59018 15.9481 9.40888 16.0671 9.18721C16.1862 8.96555 16.237 8.71363 16.2129 8.46319C16.195 8.27591 16.1357 8.09497 16.0393 7.93338C15.943 7.77179 15.812 7.63358 15.6559 7.52872C15.4997 7.42386 15.3221 7.35495 15.1362 7.32697C14.9501 7.29898 14.7602 7.31262 14.5801 7.36688C14.4 7.42112 14.2342 7.51461 14.0945 7.64063C13.9549 7.76666 13.8449 7.92207 13.7726 8.09569C13.7002 8.26931 13.6672 8.45683 13.676 8.64472C13.6848 8.83267 13.7351 9.01618 13.8234 9.18231C13.9107 9.34646 14.1043 9.269 14.3087 9.18721C14.4689 9.12316 14.6358 9.05643 14.7631 9.10146ZM8.76982 9.10146C8.63193 9.15023 8.52939 9.29874 8.43187 9.43991C8.30004 9.63089 8.1772 9.80846 7.98903 9.70836C7.7097 9.56043 7.49548 9.31368 7.38811 9.01641C7.28075 8.71909 7.28794 8.39244 7.40829 8.10013C7.52863 7.80783 7.75351 7.57082 8.03908 7.4353C8.32466 7.29978 8.65046 7.27548 8.95298 7.36711C9.19387 7.43965 9.40782 7.58197 9.56788 7.77608C9.72793 7.9702 9.82674 8.2074 9.85206 8.4577C9.87725 8.70801 9.82767 8.96018 9.70962 9.18231C9.62224 9.34646 9.42859 9.269 9.2242 9.18733C9.06392 9.12316 8.89721 9.05643 8.76982 9.10146ZM13.8359 14.5557C14.7859 13.8073 15.1348 12.5853 15.1348 11.8326C15.1348 11.2376 14.7345 11.4249 14.0937 11.7422L14.0576 11.76C13.4694 12.0514 12.6864 12.4393 11.8268 12.4393C10.9672 12.4393 10.1842 12.0514 9.59611 11.7599C8.93454 11.4322 8.51959 11.2266 8.51959 11.8327C8.51959 12.6092 8.8908 13.8843 9.90968 14.625C10.0442 14.3521 10.2335 14.1099 10.4659 13.9135C10.6982 13.717 10.9686 13.5706 11.26 13.4833C11.3617 13.453 11.4665 13.6281 11.5737 13.8074C11.6772 13.9803 11.783 14.1572 11.8905 14.1572C12.0052 14.1572 12.1178 13.9829 12.2278 13.8128C12.3427 13.6349 12.4548 13.4616 12.5632 13.4963C13.1086 13.6714 13.5648 14.0511 13.8359 14.5557Z" fill="#32343D"/>
<path d="M13.7812 14.5511C13.2969 14.9321 12.653 15.1875 11.8146 15.1875C11.0269 15.1875 10.4108 14.962 9.9375 14.6188C10.0692 14.3522 10.2546 14.1155 10.4821 13.9236C10.7095 13.7317 10.9742 13.5886 11.2595 13.5034C11.4551 13.4451 11.6624 14.1617 11.8768 14.1617C12.1064 14.1617 12.3277 13.4498 12.5354 13.516C13.0692 13.6872 13.5158 14.0582 13.7812 14.5511Z" fill="#FF323D"/>
<path fill-rule="evenodd" clip-rule="evenodd" d="M6.52882 10.1702C6.41646 10.2473 6.28727 10.2948 6.15272 10.3084C6.01817 10.3221 5.88243 10.3014 5.75755 10.2482C5.65773 10.2059 5.56702 10.1438 5.49066 10.0654C5.41428 9.98705 5.35375 9.89397 5.31253 9.7915C5.2608 9.66331 5.24068 9.52406 5.25399 9.386C5.26728 9.24794 5.31356 9.11535 5.38873 9.00002C5.47906 8.86124 5.60745 8.75309 5.75769 8.68922C5.90793 8.62536 6.07325 8.60865 6.23273 8.64123C6.39223 8.67381 6.53871 8.75421 6.65366 8.87219C6.76861 8.99026 6.84686 9.1407 6.8785 9.30435C6.9102 9.468 6.89389 9.63761 6.83168 9.79174C6.76946 9.94587 6.66398 10.0775 6.52882 10.1702ZM18.2908 10.1702C18.1784 10.2473 18.0492 10.2948 17.9146 10.3084C17.78 10.3221 17.6443 10.3014 17.5194 10.2482C17.4195 10.2058 17.3288 10.1438 17.2525 10.0654C17.1762 9.98705 17.1156 9.89397 17.0743 9.7915C17.0227 9.66331 17.0027 9.52406 17.0159 9.386C17.0292 9.24794 17.0755 9.11535 17.1505 9.00002C17.218 8.89623 17.3072 8.80923 17.4115 8.74505C17.5158 8.68092 17.6326 8.64132 17.7535 8.62912C17.8746 8.61691 17.9967 8.6324 18.1111 8.67448C18.2256 8.71656 18.3295 8.78416 18.4154 8.87243C18.5305 8.99038 18.6088 9.1407 18.6404 9.30435C18.6722 9.468 18.6559 9.63761 18.5936 9.79174C18.5313 9.94587 18.426 10.0775 18.2908 10.1702Z" fill="#FFAD03"/>
</g>
<defs>
<clipPath id="clip0_3624_27250">
<rect width="24" height="24" fill="white"/>
</clipPath>
</defs>
</svg>
