<svg width="24" height="24" viewBox="0 0 24 24" fill="none" xmlns="http://www.w3.org/2000/svg">
<path d="M22.04 18.3504C22.34 18.1804 22.52 17.8604 22.52 17.5104V6.48043C22.52 6.13043 22.33 5.81043 22.03 5.64043L12.48 0.13043C12.18 -0.0395703 11.81 -0.0395703 11.51 0.13043L1.95998 5.64043C1.65998 5.81043 1.47998 6.13043 1.47998 6.48043V17.5104C1.47998 17.8604 1.65998 18.1804 1.95998 18.3504L11.51 23.8704C11.81 24.0404 12.18 24.0404 12.48 23.8704L22.03 18.3504H22.04ZM5.21998 7.53043L11.51 3.90043C11.81 3.73043 12.18 3.73043 12.48 3.90043L16.13 6.01043L9.65998 9.75043C9.17998 10.0304 8.87998 10.5504 8.87998 11.1004V18.5904L5.22998 16.4804C4.92998 16.3104 4.74998 15.9904 4.74998 15.6404V8.37043C4.74998 8.02043 4.92998 7.70043 5.22998 7.53043H5.21998ZM12.13 20.3104V12.0704L19.26 7.96043V15.6404C19.26 15.9904 19.08 16.3104 18.78 16.4804L12.14 20.3104H12.13Z" fill="url(#paint0_linear_4294_22848)"/>
<path d="M10.62 12.9199C11.5865 12.9199 12.37 12.1364 12.37 11.1699C12.37 10.2034 11.5865 9.41992 10.62 9.41992C9.6535 9.41992 8.87 10.2034 8.87 11.1699C8.87 12.1364 9.6535 12.9199 10.62 12.9199Z" fill="#032E90"/>
<defs>
<linearGradient id="paint0_linear_4294_22848" x1="16.83" y1="2.85043" x2="7.22998" y2="21.0304" gradientUnits="userSpaceOnUse">
<stop stop-color="#28A2F4"/>
<stop offset="1" stop-color="#0A4FC8"/>
</linearGradient>
</defs>
</svg>
