<svg width="24" height="24" viewBox="0 0 24 24" fill="none" xmlns="http://www.w3.org/2000/svg">
<g clip-path="url(#clip0_8737_40260)">
<path d="M24 0H0V24H24V0ZM19.5563 15.0187H14.7C14.7938 15.4312 14.8312 15.8625 14.8312 16.2938C14.8312 19.8 12 22.6312 8.49375 22.6312C4.9875 22.6312 2.15625 19.8 2.15625 16.2938C2.1375 12.7875 4.96875 9.9375 8.475 9.9375C9.075 9.9375 9.65625 10.0125 10.2188 10.1812V9.35625C10.2188 4.51875 13.0688 1.36875 18 1.36875H19.5375C20.7937 1.3875 21.8063 2.41875 21.8063 3.675C21.8063 4.93125 20.7937 5.9625 19.5375 5.98125H18C16.05 5.98125 14.7 7.3125 14.7 9.16875V10.3875H19.5375C20.8125 10.3875 21.8438 11.4375 21.8438 12.7125C21.8625 13.9688 20.8313 15.0187 19.5563 15.0187Z" fill="#8358F6"/>
<path d="M8.47505 14.4004C7.42505 14.4004 6.5813 15.2441 6.5813 16.2941C6.5813 17.3441 7.42505 18.1879 8.47505 18.1879C9.52505 18.1879 10.3688 17.3441 10.3688 16.2941C10.3688 15.2441 9.52505 14.4004 8.47505 14.4004Z" fill="#8358F6"/>
</g>
<defs>
<clipPath id="clip0_8737_40260">
<rect width="24" height="24" rx="4" fill="white"/>
</clipPath>
</defs>
</svg>
