<svg width="24" height="24" viewBox="0 0 24 24" fill="none" xmlns="http://www.w3.org/2000/svg">
<g clip-path="url(#clip0_4378_5863)">
<path d="M18.89 0H5.11C2.28783 0 0 2.28783 0 5.11V18.89C0 21.7122 2.28783 24 5.11 24H18.89C21.7122 24 24 21.7122 24 18.89V5.11C24 2.28783 21.7122 0 18.89 0Z" fill="url(#paint0_linear_4378_5863)"/>
<path opacity="0.3" d="M15.83 4.32031H7.36C6.81877 4.32031 6.38 4.75907 6.38 5.30031V5.31031C6.38 5.85155 6.81877 6.29031 7.36 6.29031H15.83C16.3712 6.29031 16.81 5.85155 16.81 5.31031V5.30031C16.81 4.75907 16.3712 4.32031 15.83 4.32031Z" fill="white"/>
<path d="M12.65 4.32031H4.17995C3.63871 4.32031 3.19995 4.75907 3.19995 5.30031V5.31031C3.19995 5.85155 3.63871 6.29031 4.17995 6.29031H12.65C13.1912 6.29031 13.63 5.85155 13.63 5.31031V5.30031C13.63 4.75907 13.1912 4.32031 12.65 4.32031Z" fill="white"/>
<path opacity="0.3" d="M19.97 7.05957H11.5C10.9588 7.05957 10.52 7.49833 10.52 8.03957V8.04957C10.52 8.59081 10.9588 9.02957 11.5 9.02957H19.97C20.5113 9.02957 20.95 8.59081 20.95 8.04957V8.03957C20.95 7.49833 20.5113 7.05957 19.97 7.05957Z" fill="white"/>
<path d="M16.78 7.05957H8.30996C7.76872 7.05957 7.32996 7.49833 7.32996 8.03957V8.04957C7.32996 8.59081 7.76872 9.02957 8.30996 9.02957H16.78C17.3212 9.02957 17.76 8.59081 17.76 8.04957V8.03957C17.76 7.49833 17.3212 7.05957 16.78 7.05957Z" fill="white"/>
<path opacity="0.3" d="M17.5101 9.7998H9.04006C8.49882 9.7998 8.06006 10.2386 8.06006 10.7798V10.7898C8.06006 11.331 8.49882 11.7698 9.04006 11.7698H17.5101C18.0513 11.7698 18.4901 11.331 18.4901 10.7898V10.7798C18.4901 10.2386 18.0513 9.7998 17.5101 9.7998Z" fill="white"/>
<path d="M14.32 9.7998H5.85C5.30876 9.7998 4.87 10.2386 4.87 10.7798V10.7898C4.87 11.331 5.30876 11.7698 5.85 11.7698H14.32C14.8612 11.7698 15.3 11.331 15.3 10.7898V10.7798C15.3 10.2386 14.8612 9.7998 14.32 9.7998Z" fill="white"/>
<path opacity="0.3" d="M14.56 12.5498H6.08999C5.54875 12.5498 5.10999 12.9886 5.10999 13.5298V13.5398C5.10999 14.081 5.54875 14.5198 6.08999 14.5198H14.56C15.1012 14.5198 15.54 14.081 15.54 13.5398V13.5298C15.54 12.9886 15.1012 12.5498 14.56 12.5498Z" fill="white"/>
<path d="M11.37 12.5498H2.90004C2.35881 12.5498 1.92004 12.9886 1.92004 13.5298V13.5398C1.92004 14.081 2.35881 14.5198 2.90004 14.5198H11.37C11.9113 14.5198 12.35 14.081 12.35 13.5398V13.5298C12.35 12.9886 11.9113 12.5498 11.37 12.5498Z" fill="white"/>
<path opacity="0.3" d="M17.5101 15.29H9.04006C8.49882 15.29 8.06006 15.7288 8.06006 16.27V16.28C8.06006 16.8213 8.49882 17.26 9.04006 17.26H17.5101C18.0513 17.26 18.4901 16.8213 18.4901 16.28V16.27C18.4901 15.7288 18.0513 15.29 17.5101 15.29Z" fill="white"/>
<path d="M14.32 15.29H5.85C5.30876 15.29 4.87 15.7288 4.87 16.27V16.28C4.87 16.8213 5.30876 17.26 5.85 17.26H14.32C14.8612 17.26 15.3 16.8213 15.3 16.28V16.27C15.3 15.7288 14.8612 15.29 14.32 15.29Z" fill="white"/>
<path opacity="0.3" d="M20.5101 18.0303H15.6601C15.1188 18.0303 14.6801 18.469 14.6801 19.0103V19.0203C14.6801 19.5615 15.1188 20.0003 15.6601 20.0003H20.5101C21.0513 20.0003 21.4901 19.5615 21.4901 19.0203V19.0103C21.4901 18.469 21.0513 18.0303 20.5101 18.0303Z" fill="white"/>
<path d="M17.37 18.0303H12.47C11.9288 18.0303 11.49 18.469 11.49 19.0103V19.0203C11.49 19.5615 11.9288 20.0003 12.47 20.0003H17.37C17.9112 20.0003 18.35 19.5615 18.35 19.0203V19.0103C18.35 18.469 17.9112 18.0303 17.37 18.0303Z" fill="white"/>
</g>
<defs>
<linearGradient id="paint0_linear_4378_5863" x1="2.03" y1="2.03" x2="22.37" y2="22.37" gradientUnits="userSpaceOnUse">
<stop stop-color="#6C77EF"/>
<stop offset="1" stop-color="#4E13BE"/>
</linearGradient>
<clipPath id="clip0_4378_5863">
<rect width="24" height="24" fill="white"/>
</clipPath>
</defs>
</svg>
