
<svg width="24" height="24" viewBox="0 0 24 24" fill="none" xmlns="http://www.w3.org/2000/svg">
<g clip-path="url(#clip0_4332_22935)">
<path d="M6.76028 10.037C6.76028 10.3323 6.79221 10.5718 6.84808 10.7474C6.91193 10.923 6.99174 11.1145 7.10348 11.322C7.14339 11.3859 7.15935 11.4497 7.15935 11.5056C7.15935 11.5854 7.11146 11.6652 7.0077 11.745L6.50488 12.0803C6.43304 12.1282 6.36121 12.1521 6.29736 12.1521C6.21755 12.1521 6.13773 12.1122 6.05792 12.0404C5.94618 11.9206 5.8504 11.7929 5.77059 11.6652C5.69078 11.5296 5.61096 11.3779 5.52317 11.1943C4.90062 11.9286 4.11845 12.2958 3.17664 12.2958C2.50621 12.2958 1.97146 12.1042 1.58037 11.7211C1.18928 11.338 0.989746 10.8272 0.989746 10.1887C0.989746 9.51026 1.22919 8.95955 1.71605 8.54452C2.20292 8.12949 2.84941 7.92197 3.67149 7.92197C3.94286 7.92197 4.2222 7.94591 4.51751 7.98582C4.81283 8.02573 5.11612 8.08958 5.43537 8.16141V7.57877C5.43537 6.97219 5.30767 6.54917 5.06025 6.30175C4.80484 6.05433 4.37385 5.93461 3.75928 5.93461C3.47994 5.93461 3.19261 5.96653 2.8973 6.03836C2.60198 6.1102 2.31465 6.19799 2.03531 6.30973C1.9076 6.3656 1.81183 6.39753 1.75596 6.41349C1.70009 6.42945 1.66018 6.43743 1.62826 6.43743C1.51652 6.43743 1.46065 6.35762 1.46065 6.19001V5.79892C1.46065 5.67122 1.47661 5.57544 1.51652 5.51958C1.55642 5.46371 1.62826 5.40784 1.74 5.35197C2.01934 5.2083 2.35456 5.08858 2.74565 4.9928C3.13674 4.88905 3.55177 4.84116 3.99074 4.84116C4.94053 4.84116 5.63491 5.05666 6.08186 5.48765C6.52084 5.91864 6.74432 6.57312 6.74432 7.45107V10.037H6.76028ZM3.51984 11.2502C3.78323 11.2502 4.05459 11.2023 4.34192 11.1065C4.62925 11.0108 4.88466 10.8352 5.10015 10.5957C5.22786 10.4441 5.32363 10.2765 5.37152 10.0849C5.41941 9.89337 5.45134 9.66191 5.45134 9.39054V9.05533C5.21988 8.99946 4.97245 8.95157 4.71705 8.91964C4.46164 8.88772 4.21422 8.87175 3.9668 8.87175C3.43205 8.87175 3.04096 8.97551 2.77757 9.19101C2.51419 9.40651 2.38649 9.7098 2.38649 10.1089C2.38649 10.484 2.48226 10.7633 2.6818 10.9549C2.87335 11.1544 3.1527 11.2502 3.51984 11.2502ZM9.92889 12.1122C9.78522 12.1122 9.68945 12.0882 9.6256 12.0324C9.56174 11.9845 9.50587 11.8728 9.45799 11.7211L7.58236 5.5515C7.53447 5.39187 7.51053 5.28812 7.51053 5.23225C7.51053 5.10454 7.57438 5.03271 7.70208 5.03271H8.48426C8.6359 5.03271 8.73966 5.05666 8.79553 5.11252C8.85938 5.16041 8.90727 5.27215 8.95516 5.4238L10.296 10.7075L11.5411 5.4238C11.581 5.26417 11.6289 5.16041 11.6928 5.11252C11.7566 5.06464 11.8684 5.03271 12.012 5.03271H12.6505C12.8022 5.03271 12.9059 5.05666 12.9698 5.11252C13.0336 5.16041 13.0895 5.27215 13.1214 5.4238L14.3825 10.7713L15.7633 5.4238C15.8112 5.26417 15.867 5.16041 15.9229 5.11252C15.9868 5.06464 16.0905 5.03271 16.2342 5.03271H16.9764C17.1041 5.03271 17.176 5.09656 17.176 5.23225C17.176 5.27215 17.168 5.31206 17.16 5.35995C17.152 5.40784 17.1361 5.47169 17.1041 5.55948L15.1806 11.7291C15.1327 11.8887 15.0769 11.9925 15.013 12.0404C14.9492 12.0882 14.8454 12.1202 14.7097 12.1202H14.0233C13.8717 12.1202 13.7679 12.0962 13.7041 12.0404C13.6402 11.9845 13.5844 11.8807 13.5524 11.7211L12.3153 6.57312L11.0862 11.7131C11.0463 11.8728 10.9984 11.9765 10.9345 12.0324C10.8707 12.0882 10.759 12.1122 10.6153 12.1122H9.92889ZM20.185 12.3277C19.7699 12.3277 19.3549 12.2798 18.9558 12.184C18.5568 12.0882 18.2455 11.9845 18.038 11.8648C17.9103 11.7929 17.8225 11.7131 17.7905 11.6413C17.7586 11.5695 17.7427 11.4896 17.7427 11.4178V11.0108C17.7427 10.8432 17.8065 10.7633 17.9262 10.7633C17.9741 10.7633 18.022 10.7713 18.0699 10.7873C18.1178 10.8032 18.1896 10.8352 18.2694 10.8671C18.5408 10.9868 18.8361 11.0826 19.1474 11.1464C19.4666 11.2103 19.7779 11.2422 20.0972 11.2422C20.6 11.2422 20.9911 11.1544 21.2624 10.9788C21.5338 10.8032 21.6775 10.5478 21.6775 10.2206C21.6775 9.99713 21.6056 9.81356 21.462 9.66191C21.3183 9.51026 21.0469 9.37458 20.6559 9.24688L19.4986 8.88772C18.9159 8.70414 18.4849 8.43278 18.2215 8.07362C17.9582 7.72244 17.8225 7.33135 17.8225 6.91632C17.8225 6.5811 17.8943 6.28579 18.038 6.03038C18.1816 5.77498 18.3732 5.5515 18.6126 5.37591C18.8521 5.19234 19.1234 5.05666 19.4427 4.96088C19.7619 4.8651 20.0972 4.8252 20.4483 4.8252C20.6239 4.8252 20.8075 4.83318 20.9831 4.85712C21.1667 4.88106 21.3343 4.91299 21.5019 4.94492C21.6615 4.98482 21.8132 5.02473 21.9568 5.07262C22.1005 5.12051 22.2122 5.16839 22.292 5.21628C22.4038 5.28013 22.4836 5.34398 22.5315 5.41582C22.5794 5.47967 22.6033 5.56746 22.6033 5.6792V6.05433C22.6033 6.22194 22.5395 6.30973 22.4197 6.30973C22.3559 6.30973 22.2521 6.27781 22.1165 6.21395C21.6615 6.00644 21.1507 5.90268 20.584 5.90268C20.1291 5.90268 19.7699 5.97451 19.5225 6.12616C19.2751 6.27781 19.1474 6.50927 19.1474 6.8365C19.1474 7.05998 19.2272 7.25153 19.3868 7.40318C19.5464 7.55483 19.8418 7.70647 20.2648 7.84216L21.3981 8.20132C21.9728 8.38489 22.3878 8.64029 22.6352 8.96753C22.8827 9.29477 23.0024 9.66989 23.0024 10.0849C23.0024 10.4281 22.9306 10.7394 22.7949 11.0108C22.6512 11.2821 22.4596 11.5216 22.2122 11.7131C21.9648 11.9127 21.6695 12.0563 21.3263 12.1601C20.9671 12.2718 20.592 12.3277 20.185 12.3277Z" fill="#252F3E"/>
<path d="M21.6934 16.2061C19.0675 18.1456 15.2524 19.1752 11.9721 19.1752C7.37478 19.1752 3.23245 17.4751 0.10375 14.6497C-0.143673 14.4262 0.0798057 14.1229 0.375117 14.2985C3.75922 16.262 7.93348 17.4512 12.2514 17.4512C15.1646 17.4512 18.3651 16.8446 21.3103 15.5995C21.7492 15.4 22.1244 15.8868 21.6934 16.2061Z" fill="#FF9900"/>
<path d="M22.7868 14.9613C22.4516 14.5303 20.568 14.7538 19.714 14.8576C19.4586 14.8895 19.4187 14.666 19.6501 14.4984C21.1506 13.4449 23.6169 13.7482 23.9042 14.0993C24.1916 14.4585 23.8244 16.9247 22.4197 18.106C22.2042 18.2896 21.9967 18.1938 22.0925 17.9543C22.4117 17.1642 23.122 15.3843 22.7868 14.9613Z" fill="#FF9900"/>
</g>
<defs>
<clipPath id="clip0_4332_22935">
<rect width="24" height="14.352" fill="white" transform="translate(0 4.82422)"/>
</clipPath>
</defs>
</svg>
