<svg width="24" height="24" viewBox="0 0 24 24" fill="none" xmlns="http://www.w3.org/2000/svg">
<rect width="24" height="24" rx="4" fill="white"/>
<path d="M7.81072 10.4296C7.81072 10.6659 7.83626 10.8575 7.88096 10.998C7.93205 11.1385 7.99591 11.2917 8.08531 11.4577C8.11723 11.5088 8.13001 11.5599 8.13001 11.6046C8.13001 11.6685 8.09169 11.7323 8.00868 11.7962L7.60638 12.0644C7.54891 12.1027 7.49143 12.1219 7.44035 12.1219C7.37649 12.1219 7.31263 12.0899 7.24878 12.0325C7.15938 11.9367 7.08275 11.8345 7.01889 11.7323C6.95503 11.6238 6.89118 11.5024 6.82093 11.3556C6.32285 11.9431 5.69705 12.2368 4.94353 12.2368C4.40713 12.2368 3.97929 12.0835 3.66639 11.777C3.35349 11.4705 3.19385 11.0618 3.19385 10.551C3.19385 10.0082 3.38542 9.56757 3.77495 9.23551C4.16448 8.90345 4.68172 8.73742 5.33945 8.73742C5.55656 8.73742 5.78006 8.75658 6.01633 8.78851C6.25261 8.82044 6.49526 8.87152 6.75069 8.92899V8.46284C6.75069 7.97752 6.64852 7.63908 6.45056 7.44112C6.24622 7.24317 5.90139 7.14738 5.40969 7.14738C5.18619 7.14738 4.95631 7.17292 4.72003 7.23039C4.48376 7.28787 4.25388 7.35811 4.03038 7.44751C3.92821 7.49221 3.85158 7.51775 3.80688 7.53052C3.76218 7.54329 3.73025 7.54968 3.7047 7.54968C3.6153 7.54968 3.5706 7.48582 3.5706 7.35172V7.03882C3.5706 6.93665 3.58338 6.86002 3.6153 6.81532C3.64723 6.77062 3.7047 6.72592 3.7941 6.68122C4.01761 6.56628 4.28581 6.47049 4.59871 6.39387C4.91161 6.31085 5.24366 6.27254 5.59488 6.27254C6.35478 6.27254 6.91033 6.44495 7.26793 6.78978C7.61915 7.13461 7.79795 7.65824 7.79795 8.36067V10.4296H7.81072ZM5.21812 11.4003C5.42885 11.4003 5.64596 11.362 5.87585 11.2853C6.10573 11.2087 6.31008 11.0682 6.48249 10.8766C6.58466 10.7553 6.66129 10.6212 6.69961 10.468C6.73792 10.3147 6.76346 10.1295 6.76346 9.9124V9.6442C6.57828 9.5995 6.38032 9.56118 6.17598 9.53564C5.97163 9.5101 5.77368 9.49732 5.57572 9.49732C5.14788 9.49732 4.83498 9.58034 4.62425 9.75275C4.41352 9.92517 4.31135 10.1678 4.31135 10.4871C4.31135 10.7872 4.38798 11.0107 4.54762 11.164C4.70088 11.3236 4.92438 11.4003 5.21812 11.4003ZM10.3458 12.0899C10.2309 12.0899 10.1543 12.0708 10.1032 12.0261C10.0521 11.9878 10.0074 11.8984 9.96909 11.777L8.46845 6.84087C8.43013 6.71315 8.41098 6.63014 8.41098 6.58544C8.41098 6.48327 8.46206 6.42579 8.56423 6.42579H9.19004C9.31136 6.42579 9.39438 6.44495 9.43908 6.48965C9.49016 6.52797 9.52848 6.61737 9.56679 6.73869L10.6396 10.966L11.6358 6.73869C11.6677 6.61098 11.706 6.52797 11.7571 6.48965C11.8082 6.45134 11.8976 6.42579 12.0125 6.42579H12.5234C12.6447 6.42579 12.7277 6.44495 12.7788 6.48965C12.8299 6.52797 12.8746 6.61737 12.9001 6.73869L13.9091 11.0171L15.0138 6.73869C15.0521 6.61098 15.0968 6.52797 15.1415 6.48965C15.1926 6.45134 15.2756 6.42579 15.3906 6.42579H15.9844C16.0866 6.42579 16.1441 6.47688 16.1441 6.58544C16.1441 6.61737 16.1377 6.64929 16.1313 6.68761C16.1249 6.72592 16.1122 6.77701 16.0866 6.84725L14.5477 11.7834C14.5093 11.9111 14.4646 11.9941 14.4136 12.0325C14.3625 12.0708 14.2795 12.0963 14.1709 12.0963H13.6217C13.5004 12.0963 13.4174 12.0772 13.3663 12.0325C13.3152 11.9878 13.2705 11.9047 13.245 11.777L12.2552 7.65824L11.2718 11.7706C11.2398 11.8984 11.2015 11.9814 11.1504 12.0261C11.0994 12.0708 11.01 12.0899 10.895 12.0899H10.3458ZM18.5515 12.2623C18.2194 12.2623 17.8874 12.224 17.5681 12.1474C17.2488 12.0708 16.9998 11.9878 16.8337 11.892C16.7316 11.8345 16.6613 11.7706 16.6358 11.7132C16.6102 11.6557 16.5975 11.5918 16.5975 11.5344V11.2087C16.5975 11.0746 16.6486 11.0107 16.7443 11.0107C16.7827 11.0107 16.821 11.0171 16.8593 11.0299C16.8976 11.0427 16.9551 11.0682 17.0189 11.0938C17.236 11.1895 17.4723 11.2662 17.7214 11.3173C17.9768 11.3683 18.2258 11.3939 18.4813 11.3939C18.8836 11.3939 19.1965 11.3236 19.4136 11.1832C19.6307 11.0427 19.7456 10.8383 19.7456 10.5765C19.7456 10.3977 19.6882 10.2508 19.5732 10.1295C19.4583 10.0082 19.2412 9.89962 18.9283 9.79745L18.0023 9.5101C17.5362 9.36322 17.1913 9.14611 16.9806 8.85875C16.7699 8.57778 16.6613 8.26488 16.6613 7.93282C16.6613 7.66462 16.7188 7.42835 16.8337 7.22401C16.9487 7.01967 17.1019 6.84087 17.2935 6.70038C17.4851 6.55351 17.7022 6.44495 17.9576 6.36832C18.2131 6.29169 18.4813 6.25977 18.7622 6.25977C18.9027 6.25977 19.0496 6.26615 19.1901 6.28531C19.3369 6.30447 19.471 6.33001 19.6051 6.35555C19.7329 6.38748 19.8542 6.41941 19.9691 6.45772C20.0841 6.49604 20.1735 6.53435 20.2373 6.57267C20.3267 6.62375 20.3906 6.67484 20.4289 6.73231C20.4672 6.78339 20.4864 6.85364 20.4864 6.94304V7.24317C20.4864 7.37727 20.4353 7.44751 20.3395 7.44751C20.2884 7.44751 20.2054 7.42197 20.0968 7.37088C19.7329 7.20485 19.3242 7.12184 18.8708 7.12184C18.5068 7.12184 18.2194 7.17931 18.0215 7.30064C17.8235 7.42197 17.7214 7.60715 17.7214 7.86897C17.7214 8.04777 17.7852 8.20102 17.9129 8.32235C18.0406 8.44368 18.2769 8.56501 18.6154 8.67357L19.5221 8.96092C19.9819 9.10779 20.314 9.31214 20.5119 9.57395C20.7099 9.83577 20.8057 10.1359 20.8057 10.468C20.8057 10.7425 20.7482 10.9916 20.6396 11.2087C20.5247 11.4258 20.3714 11.6174 20.1735 11.7706C19.9755 11.9303 19.7392 12.0452 19.4647 12.1282C19.1773 12.2176 18.8772 12.2623 18.5515 12.2623Z" fill="#252F3E"/>
<path d="M19.7583 15.365C17.6574 16.9167 14.6051 17.7405 11.9805 17.7405C8.30235 17.7405 4.98816 16.3803 2.48496 14.1198C2.287 13.941 2.4658 13.6983 2.70208 13.8388C5.40962 15.4097 8.74935 16.3612 12.204 16.3612C14.5348 16.3612 17.0955 15.8759 19.4518 14.8797C19.803 14.7201 20.1032 15.1096 19.7583 15.365Z" fill="#FF9900"/>
<path d="M20.633 14.3699C20.3648 14.0251 18.8578 14.2039 18.1745 14.2869C17.9701 14.3125 17.9382 14.1337 18.1234 13.9996C19.3239 13.1566 21.2971 13.3993 21.527 13.6803C21.7569 13.9676 21.4631 15.9408 20.3392 16.8859C20.1668 17.0328 20.0008 16.9562 20.0774 16.7646C20.3329 16.1324 20.9012 14.7084 20.633 14.3699Z" fill="#FF9900"/>
</svg>
