<svg width="122" height="28" viewBox="0 0 122 28" fill="none" xmlns="http://www.w3.org/2000/svg">
<path d="M22.6777 11.0535C22.046 11.0536 21.431 11.2565 20.9234 11.6325C20.4157 12.0085 20.0423 12.5376 19.8581 13.1419H16.6091C16.5158 12.7296 16.3556 12.3353 16.1347 11.9749L18.852 9.25755C19.3477 9.47094 19.9022 9.50494 20.4202 9.35368C20.9382 9.20242 21.3873 8.87537 21.6903 8.42878C21.9933 7.98219 22.1311 7.44399 22.0801 6.90675C22.0292 6.36951 21.7926 5.86682 21.4111 5.48516C21.0296 5.1035 20.527 4.86672 19.9897 4.81555C19.4525 4.76439 18.9143 4.90204 18.4676 5.20483C18.0209 5.50761 17.6936 5.95661 17.5422 6.47457C17.3907 6.99253 17.4245 7.54708 17.6377 8.04283L14.936 10.7445C14.5521 10.4942 14.1266 10.3143 13.6796 10.2133V5.76695C14.3554 5.5611 14.9348 5.11935 15.3123 4.52216C15.6897 3.92497 15.8401 3.21206 15.7361 2.51329C15.632 1.81451 15.2804 1.17636 14.7453 0.715061C14.2102 0.25376 13.5273 0 12.8208 0C12.1143 0 11.4313 0.25376 10.8962 0.715061C10.3612 1.17636 10.0096 1.81451 9.90551 2.51329C9.80146 3.21206 9.95185 3.92497 10.3293 4.52216C10.7068 5.11935 11.2862 5.5611 11.962 5.76695V10.2133C11.5499 10.3063 11.1558 10.4663 10.7954 10.6868L8.07764 7.96949C8.2909 7.47388 8.32478 6.91944 8.17346 6.40156C8.02213 5.88367 7.69506 5.43471 7.2485 5.1319C6.80194 4.82909 6.26382 4.69136 5.72669 4.74241C5.18957 4.79347 4.68703 5.0301 4.30551 5.41162C3.924 5.79313 3.68736 6.29567 3.63631 6.8328C3.58526 7.36992 3.72298 7.90804 4.02579 8.3546C4.3286 8.80116 4.77757 9.12823 5.29545 9.27956C5.81334 9.43089 6.36777 9.39701 6.86338 9.18375L9.56464 11.885C9.31467 12.2692 9.13494 12.6948 9.03384 13.1419H5.76601C5.56017 12.4662 5.11847 11.8869 4.52137 11.5095C3.92427 11.1322 3.21148 10.9818 2.51283 11.0859C1.81418 11.1899 1.17614 11.5415 0.714927 12.0765C0.253712 12.6115 0 13.2943 0 14.0007C0 14.707 0.253712 15.3899 0.714927 15.9249C1.17614 16.4599 1.81418 16.8114 2.51283 16.9155C3.21148 17.0196 3.92427 16.8692 4.52137 16.4918C5.11847 16.1145 5.56017 15.5352 5.76601 14.8595H9.03521C9.12807 15.2716 9.28787 15.6657 9.50826 16.0261L6.79096 18.7438C6.29535 18.5306 5.74091 18.4967 5.22303 18.648C4.70514 18.7993 4.25618 19.1264 3.95337 19.573C3.65056 20.0195 3.51283 20.5577 3.56389 21.0948C3.61494 21.6319 3.85157 22.1344 4.23309 22.516C4.6146 22.8975 5.11715 23.1341 5.65427 23.1852C6.19139 23.2362 6.72952 23.0985 7.17607 22.7957C7.62263 22.4929 7.9497 22.0439 8.10103 21.526C8.25236 21.0081 8.21848 20.4537 8.00522 19.9581L10.7069 17.2568C11.091 17.5066 11.5165 17.686 11.9634 17.7867V22.2331C11.2875 22.4389 10.7081 22.8806 10.3307 23.4778C9.95323 24.075 9.80283 24.7879 9.90689 25.4867C10.0109 26.1855 10.3625 26.8236 10.8976 27.2849C11.4327 27.7462 12.1157 28 12.8222 28C13.5286 28 14.2116 27.7462 14.7467 27.2849C15.2818 26.8236 15.6334 26.1855 15.7374 25.4867C15.8415 24.7879 15.6911 24.075 15.3136 23.4778C14.9362 22.8806 14.3568 22.4389 13.6809 22.2331V17.7867C14.0933 17.6939 14.4876 17.5339 14.848 17.3132L17.5653 20.0328C17.3523 20.5284 17.3186 21.0827 17.47 21.6004C17.6215 22.1181 17.9486 22.5668 18.3951 22.8695C18.8416 23.1721 19.3796 23.3096 19.9166 23.2585C20.4536 23.2073 20.956 22.9706 21.3373 22.5891C21.7187 22.2076 21.9551 21.7052 22.0061 21.1682C22.0571 20.6312 21.9193 20.0932 21.6165 19.6468C21.3137 19.2004 20.8649 18.8735 20.3471 18.7222C19.8293 18.571 19.275 18.6049 18.7796 18.8181L16.0783 16.1168C16.3286 15.733 16.5084 15.3075 16.6091 14.8604H19.8581C20.0169 15.3828 20.3177 15.8508 20.7269 16.2122C21.1361 16.5737 21.6376 16.8144 22.1756 16.9075C22.7136 17.0006 23.2669 16.9424 23.7737 16.7394C24.2806 16.5365 24.7211 16.1968 25.0462 15.7581C25.3713 15.3195 25.5681 14.7991 25.6148 14.2552C25.6615 13.7112 25.5561 13.1649 25.3105 12.6773C25.0649 12.1897 24.6887 11.7799 24.2238 11.4936C23.7589 11.2073 23.2236 11.0557 22.6777 11.0558V11.0535Z" fill="#02855B"/>
<path d="M12.8226 16.2946C14.0892 16.2946 15.1159 15.2679 15.1159 14.0013C15.1159 12.7348 14.0892 11.708 12.8226 11.708C11.556 11.708 10.5293 12.7348 10.5293 14.0013C10.5293 15.2679 11.556 16.2946 12.8226 16.2946Z" fill="white"/>
<path d="M12.822 4.24662C13.5392 4.24662 14.1206 3.66522 14.1206 2.94802C14.1206 2.23082 13.5392 1.64941 12.822 1.64941C12.1048 1.64941 11.5234 2.23082 11.5234 2.94802C11.5234 3.66522 12.1048 4.24662 12.822 4.24662Z" fill="white"/>
<path d="M5.94708 7.66077C6.28353 7.66077 6.55628 7.38803 6.55628 7.05158C6.55628 6.71513 6.28353 6.44238 5.94708 6.44238C5.61064 6.44238 5.33789 6.71513 5.33789 7.05158C5.33789 7.38803 5.61064 7.66077 5.94708 7.66077Z" fill="white"/>
<path d="M5.87482 21.485C6.21127 21.485 6.48401 21.2122 6.48401 20.8758C6.48401 20.5393 6.21127 20.2666 5.87482 20.2666C5.53837 20.2666 5.26562 20.5393 5.26562 20.8758C5.26562 21.2122 5.53837 21.485 5.87482 21.485Z" fill="white"/>
<path d="M19.6971 21.5573C20.0335 21.5573 20.3063 21.2845 20.3063 20.9481C20.3063 20.6116 20.0335 20.3389 19.6971 20.3389C19.3606 20.3389 19.0879 20.6116 19.0879 20.9481C19.0879 21.2845 19.3606 21.5573 19.6971 21.5573Z" fill="white"/>
<path d="M19.7713 7.73499C20.1078 7.73499 20.3805 7.46224 20.3805 7.12579C20.3805 6.78935 20.1078 6.5166 19.7713 6.5166C19.4349 6.5166 19.1621 6.78935 19.1621 7.12579C19.1621 7.46224 19.4349 7.73499 19.7713 7.73499Z" fill="white"/>
<path d="M2.94509 15.2994C3.66229 15.2994 4.24369 14.718 4.24369 14.0008C4.24369 13.2836 3.66229 12.7021 2.94509 12.7021C2.22789 12.7021 1.64648 13.2836 1.64648 14.0008C1.64648 14.718 2.22789 15.2994 2.94509 15.2994Z" fill="white"/>
<path d="M12.822 26.3511C13.5392 26.3511 14.1206 25.7697 14.1206 25.0525C14.1206 24.3353 13.5392 23.7539 12.822 23.7539C12.1048 23.7539 11.5234 24.3353 11.5234 25.0525C11.5234 25.7697 12.1048 26.3511 12.822 26.3511Z" fill="white"/>
<path d="M22.6775 15.2994C23.3947 15.2994 23.9761 14.718 23.9761 14.0008C23.9761 13.2836 23.3947 12.7021 22.6775 12.7021C21.9603 12.7021 21.3789 13.2836 21.3789 14.0008C21.3789 14.718 21.9603 15.2994 22.6775 15.2994Z" fill="white"/>
<path d="M32.4176 9.60938V7.90909H42.549V9.60938H38.4645V21H36.4957V9.60938H32.4176ZM46.1557 21.2173C45.5336 21.2173 44.9711 21.1023 44.4682 20.8722C43.9654 20.6378 43.5669 20.299 43.2729 19.8558C42.9831 19.4126 42.8382 18.8693 42.8382 18.2259C42.8382 17.6719 42.9448 17.2159 43.1578 16.858C43.3709 16.5 43.6586 16.2166 44.0208 16.0078C44.383 15.799 44.7878 15.6413 45.2353 15.5348C45.6827 15.4283 46.1387 15.3473 46.6032 15.2919C47.1912 15.2237 47.6685 15.1683 48.035 15.1257C48.4015 15.0788 48.6678 15.0043 48.834 14.902C49.0002 14.7997 49.0833 14.6335 49.0833 14.4034V14.3587C49.0833 13.8004 48.9256 13.3679 48.6103 13.0611C48.2992 12.7543 47.8347 12.6009 47.2168 12.6009C46.5733 12.6009 46.0662 12.7436 45.6955 13.0291C45.329 13.3104 45.0755 13.6236 44.9348 13.9688L43.1387 13.5597C43.3517 12.9631 43.6628 12.4815 44.0719 12.1151C44.4853 11.7443 44.9604 11.4759 45.4973 11.3097C46.0343 11.1392 46.5989 11.054 47.1912 11.054C47.5833 11.054 47.9988 11.1009 48.4377 11.1946C48.8809 11.2841 49.2942 11.4503 49.6777 11.6932C50.0655 11.9361 50.383 12.2834 50.6301 12.7351C50.8773 13.1825 51.0009 13.7642 51.0009 14.4801V21H49.1344V19.6577H49.0577C48.9341 19.9048 48.7488 20.1477 48.5016 20.3864C48.2544 20.625 47.937 20.8232 47.5492 20.9808C47.1614 21.1385 46.6969 21.2173 46.1557 21.2173ZM46.5712 19.6832C47.0996 19.6832 47.5513 19.5788 47.9263 19.37C48.3056 19.1612 48.5932 18.8885 48.7892 18.5518C48.9895 18.2109 49.0897 17.8466 49.0897 17.4588V16.1932C49.0215 16.2614 48.8894 16.3253 48.6934 16.3849C48.5016 16.4403 48.2821 16.4893 48.035 16.532C47.7878 16.5703 47.5471 16.6065 47.3127 16.6406C47.0783 16.6705 46.8823 16.696 46.7246 16.7173C46.3539 16.7642 46.0151 16.843 45.7083 16.9538C45.4057 17.0646 45.1628 17.2244 44.9796 17.4332C44.8006 17.6378 44.7111 17.9105 44.7111 18.2514C44.7111 18.7244 44.8858 19.0824 45.2353 19.3253C45.5847 19.5639 46.03 19.6832 46.5712 19.6832ZM60.9038 13.5788L59.1715 13.8857C59.0991 13.6641 58.984 13.4531 58.8263 13.2528C58.6729 13.0526 58.4641 12.8885 58.1999 12.7607C57.9357 12.6328 57.6055 12.5689 57.2092 12.5689C56.668 12.5689 56.2163 12.6903 55.854 12.9332C55.4918 13.1719 55.3107 13.4808 55.3107 13.8601C55.3107 14.1882 55.4322 14.4524 55.6751 14.6527C55.918 14.853 56.31 15.017 56.8512 15.1449L58.4109 15.5028C59.3143 15.7116 59.9876 16.0334 60.4308 16.468C60.8739 16.9027 61.0955 17.4673 61.0955 18.1619C61.0955 18.75 60.9251 19.2741 60.5842 19.7344C60.2475 20.1903 59.7766 20.5483 59.1715 20.8082C58.5707 21.0682 57.8739 21.1982 57.0813 21.1982C55.9819 21.1982 55.0849 20.9638 54.3903 20.495C53.6957 20.022 53.2695 19.3509 53.1119 18.4815L54.9592 18.2003C55.0742 18.6818 55.3107 19.0462 55.6687 19.2933C56.0266 19.5362 56.4933 19.6577 57.0685 19.6577C57.695 19.6577 58.1957 19.5277 58.5707 19.2678C58.9457 19.0036 59.1332 18.6818 59.1332 18.3026C59.1332 17.9957 59.0181 17.7379 58.788 17.5291C58.5621 17.3203 58.2148 17.1626 57.7461 17.0561L56.0842 16.6918C55.168 16.483 54.4904 16.1506 54.0515 15.6946C53.6168 15.2386 53.3995 14.6612 53.3995 13.9624C53.3995 13.3828 53.5614 12.8757 53.8853 12.4411C54.2092 12.0064 54.6566 11.6676 55.2276 11.4247C55.7987 11.1776 56.4528 11.054 57.19 11.054C58.2511 11.054 59.0863 11.2841 59.6957 11.7443C60.305 12.2003 60.7077 12.8118 60.9038 13.5788ZM64.9547 17.6697L64.9419 15.3366H65.2743L69.1863 11.1818H71.4746L67.013 15.9119H66.7125L64.9547 17.6697ZM63.1969 21V7.90909H65.1081V21H63.1969ZM69.3972 21L65.8816 16.3338L67.1983 14.9979L71.7431 21H69.3972ZM73.2164 21V11.1818H75.1277V21H73.2164ZM74.1816 9.6669C73.8493 9.6669 73.5637 9.55611 73.3251 9.33452C73.0907 9.10866 72.9735 8.8402 72.9735 8.52912C72.9735 8.21378 73.0907 7.94531 73.3251 7.72372C73.5637 7.49787 73.8493 7.38494 74.1816 7.38494C74.514 7.38494 74.7974 7.49787 75.0318 7.72372C75.2704 7.94531 75.3897 8.21378 75.3897 8.52912C75.3897 8.8402 75.2704 9.10866 75.0318 9.33452C74.7974 9.55611 74.514 9.6669 74.1816 9.6669ZM79.6101 15.1705V21H77.6989V11.1818H79.5334V12.7798H79.6548C79.8807 12.2599 80.2344 11.8423 80.7159 11.527C81.2017 11.2116 81.8132 11.054 82.5504 11.054C83.2195 11.054 83.8054 11.1946 84.3082 11.4759C84.8111 11.7528 85.201 12.1662 85.478 12.7159C85.755 13.2656 85.8935 13.9453 85.8935 14.755V21H83.9822V14.9851C83.9822 14.2734 83.7969 13.7173 83.4261 13.3168C83.0554 12.9119 82.5462 12.7095 81.8984 12.7095C81.4553 12.7095 81.0611 12.8054 80.7159 12.9972C80.375 13.1889 80.1044 13.4702 79.9041 13.8409C79.7081 14.2074 79.6101 14.6506 79.6101 15.1705ZM92.5732 24.8864C91.7933 24.8864 91.1222 24.7841 90.5597 24.5795C90.0014 24.375 89.5455 24.1044 89.1918 23.7678C88.8381 23.4311 88.5739 23.0625 88.3991 22.6619L90.0419 21.9844C90.157 22.1719 90.3104 22.37 90.5021 22.5788C90.6982 22.7919 90.9624 22.973 91.2947 23.1222C91.6314 23.2713 92.0639 23.3459 92.5923 23.3459C93.3168 23.3459 93.9155 23.169 94.3885 22.8153C94.8615 22.4659 95.098 21.9077 95.098 21.1406V19.2102H94.9766C94.8615 19.419 94.6953 19.6513 94.478 19.907C94.2649 20.1626 93.9709 20.3842 93.5959 20.5717C93.2209 20.7592 92.733 20.853 92.1321 20.853C91.3565 20.853 90.6577 20.6719 90.0355 20.3097C89.4176 19.9432 88.9276 19.4041 88.5653 18.6925C88.2074 17.9766 88.0284 17.0966 88.0284 16.0526C88.0284 15.0085 88.2053 14.1136 88.5589 13.3679C88.9169 12.6222 89.407 12.0511 90.0291 11.6548C90.6513 11.2543 91.3565 11.054 92.1449 11.054C92.7543 11.054 93.2464 11.1562 93.6214 11.3608C93.9964 11.5611 94.2884 11.7955 94.4972 12.0639C94.7102 12.3324 94.8743 12.5689 94.9893 12.7734H95.13V11.1818H97.0028V21.2173C97.0028 22.0611 96.8068 22.7536 96.4148 23.2947C96.0227 23.8359 95.4922 24.2365 94.8232 24.4964C94.1584 24.7564 93.4084 24.8864 92.5732 24.8864ZM92.554 19.2678C93.1037 19.2678 93.5682 19.1399 93.9474 18.8842C94.331 18.6243 94.6207 18.2536 94.8168 17.772C95.017 17.2862 95.1172 16.7045 95.1172 16.027C95.1172 15.3665 95.0192 14.7848 94.8232 14.282C94.6271 13.7791 94.3395 13.3871 93.9602 13.1058C93.581 12.8203 93.1122 12.6776 92.554 12.6776C91.9787 12.6776 91.4993 12.8267 91.1158 13.125C90.7322 13.419 90.4425 13.8196 90.2464 14.3267C90.0547 14.8338 89.9588 15.4006 89.9588 16.027C89.9588 16.6705 90.0568 17.2351 90.2528 17.7209C90.4489 18.2067 90.7386 18.5859 91.1222 18.8587C91.5099 19.1314 91.9872 19.2678 92.554 19.2678ZM100.825 21.1214C100.476 21.1214 100.175 20.9979 99.924 20.7507C99.6726 20.4993 99.5469 20.1967 99.5469 19.843C99.5469 19.4936 99.6726 19.1953 99.924 18.9482C100.175 18.6967 100.476 18.571 100.825 18.571C101.175 18.571 101.475 18.6967 101.727 18.9482C101.978 19.1953 102.104 19.4936 102.104 19.843C102.104 20.0774 102.044 20.2926 101.925 20.4886C101.81 20.6804 101.656 20.8338 101.464 20.9489C101.273 21.0639 101.06 21.1214 100.825 21.1214ZM105.923 21H103.826L108.537 7.90909H110.819L115.53 21H113.434L109.733 10.2869H109.63L105.923 21ZM106.275 15.8736H113.076V17.5355H106.275V15.8736ZM119.396 7.90909V21H117.421V7.90909H119.396Z" fill="#2B2B2B"/>
</svg>
