<svg width="24" height="24" viewBox="0 0 24 24" fill="none" xmlns="http://www.w3.org/2000/svg">
<g clip-path="url(#clip0_3521_26006)">
<path d="M21.8177 2H17.4541V6.19508H21.8177V2Z" fill="black"/>
<path d="M24.0004 2H19.6367V6.19508H24.0004V2Z" fill="#F7D046"/>
<path d="M4.36364 2H0V6.19508H4.36364V2Z" fill="black"/>
<path d="M4.36364 6.19531H0V10.3904H4.36364V6.19531Z" fill="black"/>
<path d="M4.36364 10.3906H0V14.5857H4.36364V10.3906Z" fill="black"/>
<path d="M4.36364 14.585H0V18.78H4.36364V14.585Z" fill="black"/>
<path d="M4.36364 18.7803H0V22.9754H4.36364V18.7803Z" fill="black"/>
<path d="M6.54528 2H2.18164V6.19508H6.54528V2Z" fill="#F7D046"/>
<path d="M24.0004 6.19531H19.6367V10.3904H24.0004V6.19531Z" fill="#F2A73B"/>
<path d="M6.54528 6.19531H2.18164V10.3904H6.54528V6.19531Z" fill="#F2A73B"/>
<path d="M17.4545 6.19531H13.0908V10.3904H17.4545V6.19531Z" fill="black"/>
<path d="M19.6361 6.19531H15.2725V10.3904H19.6361V6.19531Z" fill="#F2A73B"/>
<path d="M10.9095 6.19531H6.5459V10.3904H10.9095V6.19531Z" fill="#F2A73B"/>
<path d="M15.2728 10.3906H10.9092V14.5857H15.2728V10.3906Z" fill="#EE792F"/>
<path d="M19.6361 10.3906H15.2725V14.5857H19.6361V10.3906Z" fill="#EE792F"/>
<path d="M10.9095 10.3906H6.5459V14.5857H10.9095V10.3906Z" fill="#EE792F"/>
<path d="M13.0912 14.585H8.72754V18.78H13.0912V14.585Z" fill="black"/>
<path d="M15.2728 14.585H10.9092V18.78H15.2728V14.585Z" fill="#EB5829"/>
<path d="M24.0004 10.3906H19.6367V14.5857H24.0004V10.3906Z" fill="#EE792F"/>
<path d="M6.54528 10.3906H2.18164V14.5857H6.54528V10.3906Z" fill="#EE792F"/>
<path d="M21.8177 14.585H17.4541V18.78H21.8177V14.585Z" fill="black"/>
<path d="M24.0004 14.585H19.6367V18.78H24.0004V14.585Z" fill="#EB5829"/>
<path d="M21.8177 18.7803H17.4541V22.9754H21.8177V18.7803Z" fill="black"/>
<path d="M6.54528 14.585H2.18164V18.78H6.54528V14.585Z" fill="#EB5829"/>
<path d="M24.0004 18.7803H19.6367V22.9754H24.0004V18.7803Z" fill="#EA3326"/>
<path d="M6.54528 18.7803H2.18164V22.9754H6.54528V18.7803Z" fill="#EA3326"/>
</g>
<defs>
<clipPath id="clip0_3521_26006">
<rect width="24" height="21" fill="white" transform="translate(0 2)"/>
</clipPath>
</defs>
</svg>
