<svg width="24" height="24" viewBox="0 0 24 24" fill="none" xmlns="http://www.w3.org/2000/svg">
<g clip-path="url(#clip0_4294_22867)">
<path d="M12 24C18.6274 24 24 18.6274 24 12C24 5.37258 18.6274 0 12 0C5.37258 0 0 5.37258 0 12C0 18.6274 5.37258 24 12 24Z" fill="#313131"/>
<path d="M17.33 11.1102C15.87 9.73024 11.71 8.55024 11.71 8.55024C11.9459 7.86287 12.2334 7.1943 12.57 6.55024C13.05 5.45024 11.93 5.30024 11.12 5.96024C10.31 6.62024 9.12004 7.96024 9.19004 7.40024C9.35004 5.13024 8.92004 4.64024 8.64004 4.57024C8.36004 4.50024 7.64004 4.51024 6.70004 6.57024C5.76004 8.63024 4.77004 14.7502 4.63004 17.5702C4.51004 19.9602 3.77004 20.4402 3.54004 20.5702C5.79804 22.7835 8.83829 24.0161 12 24.0002C12.3941 24.0005 12.788 23.9804 13.18 23.9402C13.18 22.8502 13.04 21.1302 12.94 19.8702C12.77 17.8702 11.94 17.7702 15.57 16.2602C19.2 14.7502 18.79 12.4902 17.33 11.1102Z" fill="url(#paint0_linear_4294_22867)"/>
<path d="M12.16 13.0502C12.7399 13.0502 13.21 12.5801 13.21 12.0002C13.21 11.4203 12.7399 10.9502 12.16 10.9502C11.5801 10.9502 11.11 11.4203 11.11 12.0002C11.11 12.5801 11.5801 13.0502 12.16 13.0502Z" fill="#313131"/>
</g>
<defs>
<linearGradient id="paint0_linear_4294_22867" x1="6.90004" y1="4.83024" x2="13.43" y2="23.8802" gradientUnits="userSpaceOnUse">
<stop stop-color="#01FF89"/>
<stop offset="0.06" stop-color="#01FF95"/>
<stop offset="0.16" stop-color="#01FFB5"/>
<stop offset="0.3" stop-color="#01FEE8"/>
<stop offset="0.34" stop-color="#01FEF7"/>
<stop offset="0.51" stop-color="#63A4FF"/>
<stop offset="0.79" stop-color="#FA72F2"/>
<stop offset="1" stop-color="#FDD001"/>
</linearGradient>
<clipPath id="clip0_4294_22867">
<rect width="24" height="24" fill="white"/>
</clipPath>
</defs>
</svg>
