<svg width="24" height="24" viewBox="0 0 24 24" fill="none" xmlns="http://www.w3.org/2000/svg">
<path d="M0 16.0004H7.99935V7.99926H16.0006V0H0V16.0004Z" fill="#5B2AD8"/>
<mask id="mask0_6561_27280" style="mask-type:luminance" maskUnits="userSpaceOnUse" x="4" y="4" width="13" height="13">
<path d="M4.00049 16.0009H7.99922V7.99968H16.0004V4.00098H4.00049V16.0009Z" fill="white"/>
</mask>
<g mask="url(#mask0_6561_27280)">
<mask id="mask1_6561_27280" style="mask-type:luminance" maskUnits="userSpaceOnUse" x="4" y="4" width="13" height="13">
<path d="M4.00049 4.00098V16.0009H16.0004V4.00098H4.00049Z" fill="white"/>
</mask>
<g mask="url(#mask1_6561_27280)">
<path d="M2.49045 2.40039L2.39807 2.49277L15.3911 15.4856L15.4834 15.3932L2.49045 2.40039Z" fill="#06FDB7"/>
<path d="M2.93344 1.95703L2.84106 2.04941L15.8341 15.0423L15.9264 14.9499L2.93344 1.95703Z" fill="#06FDB7"/>
<path d="M3.37668 1.51367L3.2843 1.60605L16.2773 14.599L16.3697 14.5065L3.37668 1.51367Z" fill="#06FDB7"/>
<path d="M3.81967 1.06934L3.72729 1.16171L16.7203 14.1545L16.8126 14.0622L3.81967 1.06934Z" fill="#06FDB7"/>
<path d="M4.26255 0.626953L4.17017 0.71933L17.1631 13.7122L17.2555 13.6198L4.26255 0.626953Z" fill="#06FDB7"/>
<path d="M4.70908 0.182617L4.6167 0.274994L17.6097 13.2679L17.7021 13.1755L4.70908 0.182617Z" fill="#06FDB7"/>
<path d="M5.15194 -0.260742L5.05957 -0.168367L18.0526 12.8245L18.1449 12.7322L5.15194 -0.260742Z" fill="#06FDB7"/>
<path d="M5.59507 -0.704102L5.50269 -0.611725L18.4957 12.3811L18.5881 12.2888L5.59507 -0.704102Z" fill="#06FDB7"/>
<path d="M6.03683 -1.14844L5.94446 -1.05606L18.9374 11.9368L19.0298 11.8444L6.03683 -1.14844Z" fill="#06FDB7"/>
<path d="M6.47983 -1.58984L6.38745 -1.49747L19.3804 11.4954L19.4728 11.403L6.47983 -1.58984Z" fill="#06FDB7"/>
<path d="M6.92294 -2.03418L6.83057 -1.94181L19.8235 11.051L19.9159 10.9587L6.92294 -2.03418Z" fill="#06FDB7"/>
<path d="M7.36581 -2.47656L7.27344 -2.38419L20.2664 10.6086L20.3588 10.5163L7.36581 -2.47656Z" fill="#06FDB7"/>
<path d="M7.80884 -2.91992L7.71643 -2.82755L20.7094 10.1653L20.8018 10.0729L7.80884 -2.91992Z" fill="#06FDB7"/>
<path d="M8.252 -3.3623L8.15967 -3.26993L21.1526 9.72294L21.245 9.63053L8.252 -3.3623Z" fill="#06FDB7"/>
<path d="M-3.27091 8.16113L-3.36328 8.25354L9.62968 21.2464L9.72209 21.154L-3.27091 8.16113Z" fill="#06FDB7"/>
<path d="M-2.82791 7.7168L-2.92029 7.8092L10.0727 20.802L10.1651 20.7097L-2.82791 7.7168Z" fill="#06FDB7"/>
<path d="M-2.3848 7.27441L-2.47717 7.36675L10.5158 20.3596L10.6082 20.2672L-2.3848 7.27441Z" fill="#06FDB7"/>
<path d="M-1.94046 6.83008L-2.03284 6.92241L10.9601 19.9153L11.0525 19.8229L-1.94046 6.83008Z" fill="#06FDB7"/>
<path d="M-1.49539 6.38672L-1.58777 6.47909L11.4052 19.472L11.4976 19.3795L-1.49539 6.38672Z" fill="#06FDB7"/>
<path d="M-1.05387 5.94336L-1.14624 6.03574L11.8467 19.0286L11.9391 18.9362L-1.05387 5.94336Z" fill="#06FDB7"/>
<path d="M-0.609528 5.50195L-0.701904 5.59433L12.2911 18.5872L12.3835 18.4948L-0.609528 5.50195Z" fill="#06FDB7"/>
<path d="M-0.167755 5.05762L-0.260132 5.14999L12.7329 18.1429L12.8252 18.0505L-0.167755 5.05762Z" fill="#06FDB7"/>
<path d="M0.27536 4.61426L0.182983 4.70663L13.1759 17.6995L13.2683 17.6071L0.27536 4.61426Z" fill="#06FDB7"/>
<path d="M0.718353 4.17188L0.625977 4.26425L13.6189 17.2571L13.7113 17.1647L0.718353 4.17188Z" fill="#06FDB7"/>
<path d="M1.16147 3.72852L1.06909 3.82089L14.0621 16.8138L14.1545 16.7214L1.16147 3.72852Z" fill="#06FDB7"/>
<path d="M1.60446 3.28613L1.51208 3.37851L14.5051 16.3714L14.5974 16.279L1.60446 3.28613Z" fill="#06FDB7"/>
<path d="M2.04757 2.84277L1.9552 2.93515L14.9482 15.928L15.0406 15.8356L2.04757 2.84277Z" fill="#06FDB7"/>
</g>
</g>
<path d="M7.99939 16.0003V23.9995H24V7.99902H16.0006V16.0003H7.99939Z" fill="#06FDB7"/>
<path d="M23.9998 16.001H16.0005V24.0002H23.9998V16.001Z" fill="#5B2AD8"/>
</svg>
