<svg width="24" height="24" viewBox="0 0 24 24" fill="none" xmlns="http://www.w3.org/2000/svg">
<g clip-path="url(#clip0_3647_26802)">
<path d="M5.93361 17.3544C2.89241 17.018 0.599609 14.458 0.599609 11.3996C0.599609 8.24441 3.04761 5.65039 6.14403 5.41681C6.69922 2.63642 9.13002 0.599609 11.9996 0.599609C14.8692 0.599609 17.3 2.63642 17.8552 5.41681C20.9516 5.65039 23.3996 8.24441 23.3996 11.3996C23.3996 14.4616 21.1068 17.0244 18.0656 17.3608L5.93361 17.3544Z" fill="#90D8DF"/>
<path d="M6.59961 23.3996V18.5996H17.3996V23.3996H6.59961Z" fill="white"/>
<path d="M6.59961 18.5998V13.7998H17.3996V18.5998H6.59961Z" fill="white"/>
<path d="M6.59961 13.8V9H17.3996V13.8H6.59961Z" fill="white"/>
<path d="M9.00039 11.9998C9.33176 11.9998 9.60039 11.7312 9.60039 11.3998C9.60039 11.0684 9.33176 10.7998 9.00039 10.7998C8.66902 10.7998 8.40039 11.0684 8.40039 11.3998C8.40039 11.7312 8.66902 11.9998 9.00039 11.9998Z" fill="#573A32"/>
<path d="M9.00039 16.7996C9.33176 16.7996 9.60039 16.531 9.60039 16.1996C9.60039 15.8682 9.33176 15.5996 9.00039 15.5996C8.66902 15.5996 8.40039 15.8682 8.40039 16.1996C8.40039 16.531 8.66902 16.7996 9.00039 16.7996Z" fill="#573A32"/>
<path d="M9.00039 21.6004C9.33176 21.6004 9.60039 21.3318 9.60039 21.0004C9.60039 20.669 9.33176 20.4004 9.00039 20.4004C8.66902 20.4004 8.40039 20.669 8.40039 21.0004C8.40039 21.3318 8.66902 21.6004 9.00039 21.6004Z" fill="#573A32"/>
<path d="M11.3998 11.9998H14.9998C15.3314 11.9998 15.5998 11.7314 15.5998 11.3998C15.5998 11.0682 15.3314 10.7998 14.9998 10.7998H11.3998C11.0682 10.7998 10.7998 11.0682 10.7998 11.3998C10.7998 11.7314 11.0682 11.9998 11.3998 11.9998Z" fill="#573A32"/>
<path d="M11.3998 16.7996H14.9998C15.3314 16.7996 15.5998 16.5312 15.5998 16.1996C15.5998 15.868 15.3314 15.5996 14.9998 15.5996H11.3998C11.0682 15.5996 10.7998 15.868 10.7998 16.1996C10.7998 16.5312 11.0682 16.7996 11.3998 16.7996Z" fill="#573A32"/>
<path d="M11.3998 21.6004H14.9998C15.3314 21.6004 15.5998 21.332 15.5998 21.0004C15.5998 20.6688 15.3314 20.4004 14.9998 20.4004H11.3998C11.0682 20.4004 10.7998 20.6688 10.7998 21.0004C10.7998 21.332 11.0682 21.6004 11.3998 21.6004Z" fill="#573A32"/>
<path d="M18.3424 4.86722C17.5772 2.03198 15.0076 0 12 0C8.99241 0 6.42319 2.03198 5.65758 4.86722C2.46281 5.32561 0 8.08041 0 11.4C0 14.836 2.64239 17.6552 6 17.9604V22.8C6 23.4628 6.53719 24 7.2 24H16.8C17.4628 24 18 23.4628 18 22.8V17.9696C21.3588 17.6652 24 14.8368 24 11.4C24 8.08041 21.5372 5.32561 18.3424 4.86722ZM16.8 22.8H7.2V19.2H16.8V22.8ZM16.8 18H7.2V14.4H16.8V18ZM16.8 13.2H7.2V9.6H16.8V13.2ZM18 16.7648V9.6C18 8.93719 17.4628 8.4 16.8 8.4H7.2C6.53719 8.4 6 8.93719 6 9.6V16.7588C3.3008 16.4596 1.2 14.1788 1.2 11.4C1.2 8.41758 3.61758 6 6.6 6C6.62039 6 6.63961 6.00558 6.66 6.006C6.9592 3.3068 9.2212 1.2 12 1.2C14.7788 1.2 17.0408 3.3068 17.34 6.006C17.3604 6.00558 17.3796 6 17.4 6C20.3824 6 22.8 8.41758 22.8 11.4C22.8 14.1792 20.6996 16.466 18 16.7648Z" fill="#573A32"/>
</g>
<defs>
<clipPath id="clip0_3647_26802">
<rect width="24" height="24" fill="white"/>
</clipPath>
</defs>
</svg>
