<svg width="28" height="30" viewBox="0 0 28 30" fill="none" xmlns="http://www.w3.org/2000/svg">
<g id="&#229;&#155;&#190;&#229;&#177;&#130; 2">
<g id="&#229;&#155;&#190;&#229;&#177;&#130; 1">
<path id="Vector" d="M24.0053 11.9689C23.3555 11.969 22.723 12.1778 22.2009 12.5645C21.6787 12.9512 21.2946 13.4955 21.1052 14.117H17.7633C17.6674 13.6929 17.5025 13.2874 17.2754 12.9166L20.0703 10.1217C20.5801 10.3412 21.1505 10.3761 21.6833 10.2205C22.2162 10.065 22.6781 9.72856 22.9897 9.26921C23.3013 8.80986 23.4431 8.25628 23.3907 7.70369C23.3383 7.1511 23.0949 6.63405 22.7025 6.24149C22.3101 5.84892 21.7931 5.60538 21.2406 5.55275C20.688 5.50013 20.1344 5.64171 19.6749 5.95315C19.2154 6.26458 18.8789 6.7264 18.7231 7.25917C18.5673 7.79193 18.602 8.36232 18.8213 8.87223L16.0424 11.6511C15.6476 11.3936 15.2099 11.2086 14.7501 11.1047V6.53133C15.4452 6.3196 16.0412 5.86523 16.4294 5.25097C16.8177 4.63672 16.9724 3.90345 16.8653 3.18471C16.7583 2.46597 16.3967 1.80958 15.8463 1.3351C15.2959 0.86062 14.5934 0.599609 13.8668 0.599609C13.1401 0.599609 12.4376 0.86062 11.8873 1.3351C11.3369 1.80958 10.9752 2.46597 10.8682 3.18471C10.7612 3.90345 10.9159 4.63672 11.3041 5.25097C11.6924 5.86523 12.2883 6.3196 12.9835 6.53133V11.1047C12.5596 11.2004 12.1542 11.3649 11.7835 11.5917L8.98812 8.7968C9.20747 8.28703 9.24232 7.71675 9.08667 7.18407C8.93102 6.65138 8.5946 6.18959 8.13529 5.87813C7.67597 5.56667 7.12247 5.42501 6.57 5.47752C6.01753 5.53003 5.50063 5.77343 5.10822 6.16584C4.7158 6.55826 4.4724 7.07516 4.41989 7.62763C4.36738 8.1801 4.50904 8.7336 4.8205 9.19291C5.13196 9.65223 5.59375 9.98865 6.12644 10.1443C6.65912 10.3 7.2294 10.2651 7.73917 10.0458L10.5176 12.8242C10.2605 13.2194 10.0756 13.6571 9.97163 14.117H6.61044C6.39872 13.422 5.9444 12.8262 5.33024 12.438C4.71607 12.0498 3.98292 11.8952 3.26431 12.0022C2.5457 12.1093 1.88943 12.4708 1.41504 13.0211C0.940648 13.5714 0.679688 14.2738 0.679688 15.0003C0.679688 15.7269 0.940648 16.4292 1.41504 16.9795C1.88943 17.5298 2.5457 17.8914 3.26431 17.9984C3.98292 18.1054 4.71607 17.9508 5.33024 17.5626C5.9444 17.1745 6.39872 16.5786 6.61044 15.8836H9.97305C10.0686 16.3075 10.2329 16.7129 10.4596 17.0836L7.66467 19.879C7.1549 19.6596 6.58463 19.6248 6.05194 19.7804C5.51926 19.9361 5.05747 20.2725 4.74601 20.7318C4.43455 21.1911 4.29289 21.7446 4.3454 22.2971C4.39791 22.8496 4.64131 23.3665 5.03372 23.7589C5.42614 24.1513 5.94304 24.3947 6.49551 24.4472C7.04798 24.4997 7.60147 24.3581 8.06079 24.0466C8.52011 23.7351 8.85653 23.2733 9.01218 22.7407C9.16783 22.208 9.13298 21.6377 8.91363 21.1279L11.6925 18.3495C12.0876 18.6064 12.5252 18.7909 12.9849 18.8945V23.4679C12.2897 23.6796 11.6938 24.134 11.3055 24.7482C10.9173 25.3625 10.7626 26.0958 10.8696 26.8145C10.9767 27.5333 11.3383 28.1896 11.8887 28.6641C12.439 29.1386 13.1415 29.3996 13.8682 29.3996C14.5949 29.3996 15.2973 29.1386 15.8477 28.6641C16.3981 28.1896 16.7597 27.5333 16.8668 26.8145C16.9738 26.0958 16.8191 25.3625 16.4309 24.7482C16.0426 24.134 15.4467 23.6796 14.7515 23.4679V18.8945C15.1756 18.7991 15.5812 18.6345 15.9519 18.4075L18.7469 21.2048C18.5277 21.7145 18.4931 22.2846 18.6488 22.8171C18.8046 23.3496 19.1411 23.8112 19.6004 24.1225C20.0597 24.4337 20.613 24.5752 21.1654 24.5226C21.7177 24.47 22.2344 24.2265 22.6266 23.8341C23.0189 23.4418 23.2621 22.9249 23.3145 22.3726C23.3669 21.8203 23.2253 21.2669 22.9138 20.8078C22.6024 20.3486 22.1407 20.0123 21.6081 19.8567C21.0756 19.7012 20.5054 19.736 19.9958 19.9554L17.2174 17.1769C17.4749 16.7821 17.6598 16.3444 17.7633 15.8846H21.1052C21.2685 16.4219 21.5779 16.9033 21.9988 17.275C22.4197 17.6468 22.9355 17.8944 23.4889 17.9901C24.0422 18.0859 24.6113 18.0261 25.1327 17.8173C25.654 17.6086 26.1071 17.2591 26.4415 16.808C26.7758 16.3568 26.9783 15.8216 27.0263 15.2621C27.0743 14.7025 26.966 14.1407 26.7134 13.6391C26.4607 13.1376 26.0738 12.7161 25.5956 12.4216C25.1174 12.1271 24.5669 11.9712 24.0053 11.9713V11.9689Z" fill="#02855B"/>
<path id="Vector_2" d="M14.3588 17.7176C15.6616 17.7176 16.7176 16.6616 16.7176 15.3588C16.7176 14.0561 15.6616 13 14.3588 13C13.0561 13 12 14.0561 12 15.3588C12 16.6616 13.0561 17.7176 14.3588 17.7176Z" fill="white"/>
<path id="Vector_3" d="M13.8689 4.96829C14.6066 4.96829 15.2046 4.37027 15.2046 3.63258C15.2046 2.89489 14.6066 2.29688 13.8689 2.29688C13.1312 2.29688 12.5332 2.89489 12.5332 3.63258C12.5332 4.37027 13.1312 4.96829 13.8689 4.96829Z" fill="white"/>
<path id="Vector_4" d="M6.79652 8.47976C7.14258 8.47976 7.42312 8.19922 7.42312 7.85316C7.42312 7.5071 7.14258 7.22656 6.79652 7.22656C6.45046 7.22656 6.16992 7.5071 6.16992 7.85316C6.16992 8.19922 6.45046 8.47976 6.79652 8.47976Z" fill="white"/>
<path id="Vector_5" d="M6.7223 22.6975C7.06836 22.6975 7.3489 22.417 7.3489 22.0709C7.3489 21.7249 7.06836 21.4443 6.7223 21.4443C6.37624 21.4443 6.0957 21.7249 6.0957 22.0709C6.0957 22.417 6.37624 22.6975 6.7223 22.6975Z" fill="white"/>
<path id="Vector_6" d="M20.9391 22.7737C21.2852 22.7737 21.5657 22.4932 21.5657 22.1471C21.5657 21.801 21.2852 21.5205 20.9391 21.5205C20.593 21.5205 20.3125 21.801 20.3125 22.1471C20.3125 22.4932 20.593 22.7737 20.9391 22.7737Z" fill="white"/>
<path id="Vector_7" d="M21.0153 8.55593C21.3613 8.55593 21.6419 8.27539 21.6419 7.92933C21.6419 7.58327 21.3613 7.30273 21.0153 7.30273C20.6692 7.30273 20.3887 7.58327 20.3887 7.92933C20.3887 8.27539 20.6692 8.55593 21.0153 8.55593Z" fill="white"/>
<path id="Vector_8" d="M3.71071 16.3355C4.4484 16.3355 5.04642 15.7375 5.04642 14.9998C5.04642 14.2621 4.4484 13.6641 3.71071 13.6641C2.97302 13.6641 2.375 14.2621 2.375 14.9998C2.375 15.7375 2.97302 16.3355 3.71071 16.3355Z" fill="white"/>
<path id="Vector_9" d="M13.8689 27.7036C14.6066 27.7036 15.2046 27.1056 15.2046 26.3679C15.2046 25.6302 14.6066 25.0322 13.8689 25.0322C13.1312 25.0322 12.5332 25.6302 12.5332 26.3679C12.5332 27.1056 13.1312 27.7036 13.8689 27.7036Z" fill="white"/>
<path id="Vector_10" d="M24.0056 16.3355C24.7433 16.3355 25.3413 15.7375 25.3413 14.9998C25.3413 14.2621 24.7433 13.6641 24.0056 13.6641C23.2679 13.6641 22.6699 14.2621 22.6699 14.9998C22.6699 15.7375 23.2679 16.3355 24.0056 16.3355Z" fill="white"/>
</g>
</g>
</svg>
