<svg width="18" height="18" viewBox="0 0 18 18" fill="none" xmlns="http://www.w3.org/2000/svg">
<g id="Property 1=Project">
<path id="Vector" d="M16 9H2" stroke="#2B2B2B" stroke-width="1.1" stroke-linecap="round"/>
<path id="Vector_2" d="M2 5.46483C2 4.84705 2 4.53816 2.04855 4.28087C2.26225 3.14822 3.14822 2.26225 4.28087 2.04855C4.53816 2 4.84705 2 5.46483 2C5.73549 2 5.87083 2 6.0009 2.01217C6.56165 2.0646 7.09356 2.28493 7.52716 2.64436C7.62772 2.72773 7.72341 2.82343 7.91479 3.01483L8.3 3.4C8.87106 3.97105 9.15659 4.25657 9.49847 4.4468C9.68628 4.5513 9.88557 4.63382 10.0923 4.69275C10.4685 4.8 10.8723 4.8 11.6799 4.8H11.9415C13.7842 4.8 14.7054 4.8 15.3043 5.33862C15.3594 5.38817 15.4119 5.4406 15.4614 5.49568C16 6.09455 16 7.01588 16 8.85853V10.4C16 13.0398 16 14.3598 15.1799 15.1799C14.3598 16 13.0398 16 10.4 16H7.6C4.96013 16 3.64021 16 2.8201 15.1799C2 14.3598 2 13.0398 2 10.4V5.46483Z" stroke="#2B2B2B" stroke-width="1.1"/>
</g>
</svg>
