<svg width="18" height="18" viewBox="0 0 18 18" fill="none" xmlns="http://www.w3.org/2000/svg">
<path d="M12.4994 6.60039C13.1069 6.60039 13.5994 6.1079 13.5994 5.50039C13.5994 4.89288 13.1069 4.40039 12.4994 4.40039C11.8919 4.40039 11.3994 4.89288 11.3994 5.50039C11.3994 6.1079 11.8919 6.60039 12.4994 6.60039Z" fill="#777777"/>
<path d="M14.1998 9.10032C15.6998 7.70032 15.6998 5.30032 14.1998 3.90032C12.6998 2.50032 10.3998 2.40032 8.9998 3.90032C7.9998 4.70032 7.5998 6.10032 7.9998 7.40032L2.7998 12.6003V14.5003C2.7998 14.9003 3.0998 15.2003 3.4998 15.2003H5.3998L5.8998 14.7003V12.8003H7.7998V11.0003H9.6998L10.6998 10.0003C11.8998 10.4003 13.1998 10.0003 14.1998 9.10032Z" stroke="#777777" stroke-width="1.3" stroke-linecap="round" stroke-linejoin="round"/>
</svg>
