<svg width="18" height="18" viewBox="0 0 18 18" fill="none" xmlns="http://www.w3.org/2000/svg">
<path d="M2 9.59961V12.9996" stroke="#777777" stroke-width="1.3" stroke-linecap="round" stroke-linejoin="round"/>
<path d="M16 9.59961V12.9996" stroke="#777777" stroke-width="1.3" stroke-linecap="round" stroke-linejoin="round"/>
<path d="M4.70039 7H13.4004C13.8004 7 14.2004 7.3 14.2004 7.8V14.8C14.2004 15.2 13.9004 15.6 13.4004 15.6H4.70039C4.30039 15.6 3.90039 15.3 3.90039 14.8V7.8C3.90039 7.3 4.20039 7 4.70039 7Z" stroke="#777777" stroke-width="1.3" stroke-linecap="round" stroke-linejoin="round"/>
<path d="M6.69961 12.2998C7.30712 12.2998 7.79961 11.8521 7.79961 11.2998C7.79961 10.7475 7.30712 10.2998 6.69961 10.2998C6.0921 10.2998 5.59961 10.7475 5.59961 11.2998C5.59961 11.8521 6.0921 12.2998 6.69961 12.2998Z" stroke="#777777" stroke-width="1.3" stroke-linecap="round" stroke-linejoin="round"/>
<path d="M11.3002 12.2998C11.9077 12.2998 12.4002 11.8521 12.4002 11.2998C12.4002 10.7475 11.9077 10.2998 11.3002 10.2998C10.6927 10.2998 10.2002 10.7475 10.2002 11.2998C10.2002 11.8521 10.6927 12.2998 11.3002 12.2998Z" stroke="#777777" stroke-width="1.3" stroke-linecap="round" stroke-linejoin="round"/>
<path d="M9 6.60039V4.90039" stroke="#777777" stroke-width="1.3" stroke-linecap="round" stroke-linejoin="round"/>
<path d="M8.9998 4.9C9.66255 4.9 10.1998 4.36274 10.1998 3.7C10.1998 3.03726 9.66255 2.5 8.9998 2.5C8.33706 2.5 7.7998 3.03726 7.7998 3.7C7.7998 4.36274 8.33706 4.9 8.9998 4.9Z" stroke="#777777" stroke-width="1.3" stroke-linecap="round" stroke-linejoin="round"/>
</svg>
