<svg width="18" height="18" viewBox="0 0 18 18" fill="none" xmlns="http://www.w3.org/2000/svg">
<g id="Property 1=Assistant">
<path id="Vector" d="M10 2.33301C10 2.62917 9.87127 2.89527 9.66667 3.07837V4.33301H13C14.1046 4.33301 15 5.22844 15 6.33301V12.9997C15 14.1043 14.1046 14.9997 13 14.9997H5C3.89543 14.9997 3 14.1043 3 12.9997V6.33301C3 5.22844 3.89543 4.33301 5 4.33301H8.33333V3.07837C8.12873 2.89527 8 2.62917 8 2.33301C8 1.78072 8.44773 1.33301 9 1.33301C9.55227 1.33301 10 1.78072 10 2.33301ZM5 5.66634C4.63181 5.66634 4.33333 5.96482 4.33333 6.33301V12.9997C4.33333 13.3679 4.63181 13.6663 5 13.6663H13C13.3682 13.6663 13.6667 13.3679 13.6667 12.9997V6.33301C13.6667 5.96482 13.3682 5.66634 13 5.66634H9.66667H8.33333H5ZM2.33333 7.66634H1V11.6663H2.33333V7.66634ZM15.6667 7.66634H17V11.6663H15.6667V7.66634ZM7 10.6663C7.55229 10.6663 8 10.2186 8 9.66634C8 9.11407 7.55229 8.66634 7 8.66634C6.44771 8.66634 6 9.11407 6 9.66634C6 10.2186 6.44771 10.6663 7 10.6663ZM11 10.6663C11.5523 10.6663 12 10.2186 12 9.66634C12 9.11407 11.5523 8.66634 11 8.66634C10.4477 8.66634 10 9.11407 10 9.66634C10 10.2186 10.4477 10.6663 11 10.6663Z" fill="#2B2B2B"/>
</g>
</svg>
