<svg width="32" height="32" viewBox="0 0 32 32" fill="none" xmlns="http://www.w3.org/2000/svg">
<path d="M0.5 6C0.5 2.96243 2.96243 0.5 6 0.5H26C29.0376 0.5 31.5 2.96243 31.5 6V26C31.5 29.0376 29.0376 31.5 26 31.5H6C2.96243 31.5 0.5 29.0376 0.5 26V6Z" fill="#FAFAFA"/>
<path d="M0.5 6C0.5 2.96243 2.96243 0.5 6 0.5H26C29.0376 0.5 31.5 2.96243 31.5 6V26C31.5 29.0376 29.0376 31.5 26 31.5H6C2.96243 31.5 0.5 29.0376 0.5 26V6Z" stroke="#E4E4E4"/>
<path d="M7.44434 16.7334V20.889" stroke="#087443" stroke-width="1.3" stroke-linecap="round" stroke-linejoin="round"/>
<path d="M24.5557 16.7334V20.889" stroke="#087443" stroke-width="1.3" stroke-linecap="round" stroke-linejoin="round"/>
<path d="M10.7444 13.5557H21.3777C21.8666 13.5557 22.3555 13.9223 22.3555 14.5334V23.089C22.3555 23.5779 21.9888 24.0668 21.3777 24.0668H10.7444C10.2555 24.0668 9.7666 23.7001 9.7666 23.089V14.5334C9.7666 13.9223 10.1333 13.5557 10.7444 13.5557Z" stroke="#087443" stroke-width="1.3" stroke-linecap="round" stroke-linejoin="round"/>
<path d="M13.1892 20.0333C13.9317 20.0333 14.5336 19.4861 14.5336 18.8111C14.5336 18.1361 13.9317 17.5889 13.1892 17.5889C12.4467 17.5889 11.8447 18.1361 11.8447 18.8111C11.8447 19.4861 12.4467 20.0333 13.1892 20.0333Z" stroke="#087443" stroke-width="1.3" stroke-linecap="round" stroke-linejoin="round"/>
<path d="M18.8112 20.0333C19.5538 20.0333 20.1557 19.4861 20.1557 18.8111C20.1557 18.1361 19.5538 17.5889 18.8112 17.5889C18.0687 17.5889 17.4668 18.1361 17.4668 18.8111C17.4668 19.4861 18.0687 20.0333 18.8112 20.0333Z" stroke="#087443" stroke-width="1.3" stroke-linecap="round" stroke-linejoin="round"/>
<path d="M16 13.067V10.9893" stroke="#087443" stroke-width="1.3" stroke-linecap="round" stroke-linejoin="round"/>
<path d="M15.9999 10.989C16.8099 10.989 17.4665 10.3323 17.4665 9.52233C17.4665 8.71231 16.8099 8.05566 15.9999 8.05566C15.1899 8.05566 14.5332 8.71231 14.5332 9.52233C14.5332 10.3323 15.1899 10.989 15.9999 10.989Z" stroke="#087443" stroke-width="1.3" stroke-linecap="round" stroke-linejoin="round"/>
</svg>
