<svg width="44" height="16" viewBox="0 0 44 16" fill="none" xmlns="http://www.w3.org/2000/svg">
<rect x="1.37558" y="0.75" width="41.1667" height="14.5" rx="6.68434" stroke="#02855B" stroke-width="1.5"/>
<path d="M9.06782 11.5V3.74242H12.0375C12.5981 3.74242 13.064 3.83081 13.4352 4.00758C13.809 4.18182 14.088 4.42045 14.2724 4.72348C14.4592 5.02651 14.5527 5.36995 14.5527 5.75379C14.5527 6.06944 14.4921 6.33965 14.3709 6.56439C14.2496 6.78662 14.0868 6.96717 13.8822 7.10606C13.6777 7.24495 13.4491 7.3447 13.1966 7.4053V7.48106C13.4719 7.49621 13.7358 7.58081 13.9883 7.73485C14.2433 7.88636 14.4517 8.10101 14.6133 8.37879C14.7749 8.65657 14.8557 8.99242 14.8557 9.38636C14.8557 9.78788 14.7585 10.149 14.564 10.4697C14.3696 10.7879 14.0767 11.0391 13.6852 11.2235C13.2938 11.4078 12.8014 11.5 12.208 11.5H9.06782ZM10.4731 10.3258H11.9845C12.4946 10.3258 12.862 10.2285 13.0868 10.0341C13.314 9.83712 13.4277 9.5846 13.4277 9.27651C13.4277 9.04672 13.3709 8.83965 13.2572 8.6553C13.1436 8.46843 12.982 8.32197 12.7724 8.21591C12.5628 8.10732 12.3128 8.05303 12.0224 8.05303H10.4731V10.3258ZM10.4731 7.04167H11.8633C12.1057 7.04167 12.3241 6.99747 12.5186 6.90909C12.713 6.81818 12.8658 6.69066 12.9769 6.52651C13.0906 6.35985 13.1474 6.16288 13.1474 5.93561C13.1474 5.6351 13.0413 5.38763 12.8292 5.19318C12.6196 4.99874 12.3077 4.90151 11.8936 4.90151H10.4731V7.04167ZM16.0782 11.5V3.74242H21.1237V4.92045H17.4835V7.02651H20.8623V8.20455H17.4835V10.322H21.154V11.5H16.0782ZM22.2165 4.92045V3.74242H28.4059V4.92045H26.0082V11.5H24.6142V4.92045H22.2165ZM29.6578 11.5H28.1578L30.8888 3.74242H32.6237L35.3585 11.5H33.8585L31.7866 5.33333H31.726L29.6578 11.5ZM29.707 8.45833H33.7979V9.58712H29.707V8.45833Z" fill="#02855B"/>
</svg>
