<svg width="18" height="19" viewBox="0 0 18 19" fill="none" xmlns="http://www.w3.org/2000/svg">
<path d="M5.20039 11.0004C5.64222 11.0004 6.00039 10.6422 6.00039 10.2004C6.00039 9.75856 5.64222 9.40039 5.20039 9.40039C4.75856 9.40039 4.40039 9.75856 4.40039 10.2004C4.40039 10.6422 4.75856 11.0004 5.20039 11.0004Z" fill="#087443"/>
<path d="M7.40156 11.0004C7.84339 11.0004 8.20156 10.6422 8.20156 10.2004C8.20156 9.75856 7.84339 9.40039 7.40156 9.40039C6.95973 9.40039 6.60156 9.75856 6.60156 10.2004C6.60156 10.6422 6.95973 11.0004 7.40156 11.0004Z" fill="#087443"/>
<path d="M9.60078 11.0004C10.0426 11.0004 10.4008 10.6422 10.4008 10.2004C10.4008 9.75856 10.0426 9.40039 9.60078 9.40039C9.15895 9.40039 8.80078 9.75856 8.80078 10.2004C8.80078 10.6422 9.15895 11.0004 9.60078 11.0004Z" fill="#087443"/>
<path d="M7.30078 6.60156C4.80078 6.60156 2.80078 8.30156 2.80078 10.4016C2.80078 11.2016 3.10078 12.0016 3.60078 12.6016L3.40078 14.7016L5.90078 14.1016C6.30078 14.2016 6.80078 14.3016 7.30078 14.3016C9.80078 14.3016 11.8008 12.6016 11.8008 10.5016C11.8008 8.40156 9.80078 6.60156 7.30078 6.60156Z" stroke="#087443" stroke-width="1.3" stroke-linecap="round" stroke-linejoin="round"/>
<path d="M11.8016 11.8008C12.1016 11.8008 12.3016 11.7008 12.6016 11.6008L14.8016 11.8008L14.6016 10.0008C15.0016 9.50078 15.2016 8.80078 15.2016 8.10078C15.2016 6.00078 13.2016 4.30078 10.7016 4.30078C9.00156 4.30078 7.40156 5.10078 6.60156 6.60078" stroke="#087443" stroke-width="1.3" stroke-linecap="round" stroke-linejoin="round"/>
</svg>
