<svg width="86" height="16" viewBox="0 0 86 16" fill="none" xmlns="http://www.w3.org/2000/svg">
<rect x="1.37558" y="0.75" width="83.5" height="14.5" rx="6.68434" stroke="#02855B" stroke-width="1.5"/>
<path d="M16.1663 6.35985H14.7496C14.7092 6.12752 14.6347 5.92172 14.5261 5.74242C14.4176 5.56061 14.2825 5.40657 14.1208 5.2803C13.9592 5.15404 13.7749 5.05934 13.5678 4.99621C13.3633 4.93056 13.1423 4.89773 12.9049 4.89773C12.4832 4.89773 12.1095 5.00379 11.7837 5.21591C11.458 5.4255 11.2029 5.73359 11.0186 6.14015C10.8342 6.54419 10.7421 7.03788 10.7421 7.62121C10.7421 8.21465 10.8342 8.71465 11.0186 9.12121C11.2054 9.52525 11.4605 9.83081 11.7837 10.0379C12.1095 10.2424 12.482 10.3447 12.9011 10.3447C13.1335 10.3447 13.3506 10.3144 13.5527 10.2538C13.7572 10.1907 13.9403 10.0985 14.1019 9.97727C14.266 9.85606 14.4037 9.70707 14.5148 9.5303C14.6284 9.35354 14.7067 9.15152 14.7496 8.92424L16.1663 8.93182C16.1133 9.3005 15.9984 9.64646 15.8216 9.9697C15.6474 10.2929 15.4188 10.5783 15.136 10.8258C14.8532 11.0707 14.5224 11.2626 14.1436 11.4015C13.7648 11.5379 13.3443 11.6061 12.8822 11.6061C12.2004 11.6061 11.5918 11.4482 11.0564 11.1326C10.5211 10.8169 10.0994 10.3611 9.7913 9.76515C9.48322 9.16919 9.32918 8.45455 9.32918 7.62121C9.32918 6.78535 9.48448 6.07071 9.79508 5.47727C10.1057 4.88131 10.5287 4.4255 11.064 4.10985C11.5994 3.79419 12.2054 3.63636 12.8822 3.63636C13.314 3.63636 13.7155 3.69697 14.0868 3.81818C14.458 3.93939 14.7888 4.11742 15.0792 4.35227C15.3696 4.5846 15.6082 4.86995 15.7951 5.20833C15.9845 5.54419 16.1082 5.92803 16.1663 6.35985ZM24.385 7.62121C24.385 8.45707 24.2285 9.17298 23.9154 9.76894C23.6047 10.3624 23.1805 10.8169 22.6426 11.1326C22.1073 11.4482 21.4999 11.6061 20.8207 11.6061C20.1414 11.6061 19.5328 11.4482 18.9949 11.1326C18.4595 10.8144 18.0353 10.3586 17.7222 9.76515C17.4116 9.16919 17.2563 8.45455 17.2563 7.62121C17.2563 6.78535 17.4116 6.07071 17.7222 5.47727C18.0353 4.88131 18.4595 4.4255 18.9949 4.10985C19.5328 3.79419 20.1414 3.63636 20.8207 3.63636C21.4999 3.63636 22.1073 3.79419 22.6426 4.10985C23.1805 4.4255 23.6047 4.88131 23.9154 5.47727C24.2285 6.07071 24.385 6.78535 24.385 7.62121ZM22.9722 7.62121C22.9722 7.03283 22.88 6.53662 22.6957 6.13258C22.5138 5.72601 22.2613 5.41919 21.9381 5.21212C21.6148 5.00253 21.2424 4.89773 20.8207 4.89773C20.3989 4.89773 20.0265 5.00253 19.7032 5.21212C19.38 5.41919 19.1262 5.72601 18.9419 6.13258C18.76 6.53662 18.6691 7.03283 18.6691 7.62121C18.6691 8.2096 18.76 8.70707 18.9419 9.11364C19.1262 9.51768 19.38 9.82449 19.7032 10.0341C20.0265 10.2412 20.3989 10.3447 20.8207 10.3447C21.2424 10.3447 21.6148 10.2412 21.9381 10.0341C22.2613 9.82449 22.5138 9.51768 22.6957 9.11364C22.88 8.70707 22.9722 8.2096 22.9722 7.62121ZM25.7136 3.74242H27.4333L29.7364 9.36364H29.8273L32.1303 3.74242H33.85V11.5H32.5015V6.17045H32.4296L30.2856 11.4773H29.278L27.1341 6.15909H27.0621V11.5H25.7136V3.74242ZM35.3803 3.74242H37.1L39.403 9.36364H39.494L41.797 3.74242H43.5167V11.5H42.1682V6.17045H42.0962L39.9523 11.4773H38.9447L36.8008 6.15909H36.7288V11.5H35.3803V3.74242ZM49.9371 3.74242H51.3424V8.81061C51.3424 9.36616 51.2111 9.8548 50.9485 10.2765C50.6884 10.6982 50.3222 11.0278 49.85 11.2652C49.3778 11.5 48.826 11.6174 48.1947 11.6174C47.5609 11.6174 47.0078 11.5 46.5356 11.2652C46.0634 11.0278 45.6972 10.6982 45.4371 10.2765C45.177 9.8548 45.047 9.36616 45.047 8.81061V3.74242H46.4523V8.69318C46.4523 9.01641 46.523 9.30429 46.6644 9.55682C46.8083 9.80934 47.0104 10.0076 47.2705 10.1515C47.5306 10.2929 47.8386 10.3636 48.1947 10.3636C48.5508 10.3636 48.8589 10.2929 49.119 10.1515C49.3816 10.0076 49.5836 9.80934 49.725 9.55682C49.8664 9.30429 49.9371 9.01641 49.9371 8.69318V3.74242ZM59.2449 3.74242V11.5H57.9949L54.3396 6.21591H54.2752V11.5H52.8699V3.74242H54.1275L57.779 9.0303H57.8472V3.74242H59.2449ZM62.1814 3.74242V11.5H60.7761V3.74242H62.1814ZM63.3623 4.92045V3.74242H69.5517V4.92045H67.154V11.5H65.76V4.92045H63.3623ZM70.2146 3.74242H71.8017L73.6994 7.17424H73.7752L75.6729 3.74242H77.26L74.4381 8.60606V11.5H73.0366V8.60606L70.2146 3.74242Z" fill="#02855B"/>
</svg>
