<svg width="18" height="18" viewBox="0 0 18 18" fill="none" xmlns="http://www.w3.org/2000/svg">
<g id="Property 1=Dashboard">
<path id="Vector" fill-rule="evenodd" clip-rule="evenodd" d="M6.68167 9.00004H4.31833C3.97156 8.99776 3.63784 9.10577 3.39061 9.3003C3.14337 9.49483 3.00286 9.75996 3 10.0374V13.9633C3.00642 14.5408 3.59653 15.0048 4.31833 15H6.68167C7.02842 15.0023 7.36217 14.8943 7.60942 14.6998C7.85667 14.5052 7.99717 14.2401 8 13.9626V10.0374C7.99717 9.75996 7.85667 9.49483 7.60942 9.3003C7.36217 9.10577 7.02842 8.99776 6.68167 9.00004Z" stroke="#2B2B2B" stroke-width="1.1" stroke-linecap="round" stroke-linejoin="round"/>
<path id="Vector_2" fill-rule="evenodd" clip-rule="evenodd" d="M6.68167 3.0006H4.31833C3.61105 2.97707 3.02133 3.64473 3 4.49315V5.50685C3.02133 6.35528 3.61105 7.02294 4.31833 6.9994H6.68167C7.38892 7.02294 7.97867 6.35528 8 5.50685V4.49315C7.97867 3.64473 7.38892 2.97707 6.68167 3.0006Z" stroke="#2B2B2B" stroke-width="1.1" stroke-linecap="round" stroke-linejoin="round"/>
<path id="Vector_3" fill-rule="evenodd" clip-rule="evenodd" d="M11.3183 8.99996H13.6808C14.0277 9.00243 14.3617 8.89449 14.6091 8.69996C14.8565 8.50537 14.9972 8.24017 15 7.96264V4.03735C14.9972 3.75994 14.8567 3.4948 14.6094 3.30026C14.3622 3.10573 14.0284 2.99773 13.6817 3.00004H11.3183C10.9716 2.99773 10.6378 3.10573 10.3906 3.30026C10.1433 3.4948 10.0028 3.75994 10 4.03735V7.96264C10.0028 8.24004 10.1433 8.50517 10.3906 8.6997C10.6378 8.89423 10.9716 9.00223 11.3183 8.99996Z" stroke="#2B2B2B" stroke-width="1.1" stroke-linecap="round" stroke-linejoin="round"/>
<path id="Vector_4" fill-rule="evenodd" clip-rule="evenodd" d="M11.3183 14.9994H13.6808C14.3884 15.0235 14.9787 14.3557 15 13.5068V12.4931C14.9787 11.6447 14.3889 10.9771 13.6817 11.0006H11.3183C10.6111 10.9771 10.0213 11.6447 10 12.4931V13.5058C10.0208 14.3547 10.6107 15.0229 11.3183 14.9994Z" stroke="#2B2B2B" stroke-width="1.1" stroke-linecap="round" stroke-linejoin="round"/>
</g>
</svg>
