<svg width="14" height="14" viewBox="0 0 14 14" fill="none" xmlns="http://www.w3.org/2000/svg">
<path d="M7.00001 10.5C8.11685 10.5 9.02223 9.59463 9.02223 8.47779C9.02223 7.36095 8.11685 6.45557 7.00001 6.45557C5.88316 6.45557 4.97778 7.36095 4.97778 8.47779C4.97778 9.59463 5.88316 10.5 7.00001 10.5Z" stroke="#777777" stroke-width="1.01111" stroke-miterlimit="10" stroke-linecap="round" stroke-linejoin="round"/>
<path d="M7 4.51123V6.3779" stroke="#777777" stroke-width="1.01111" stroke-miterlimit="10" stroke-linecap="round" stroke-linejoin="round"/>
<path d="M3.7334 10.4224L5.21118 9.56689" stroke="#777777" stroke-width="1.01111" stroke-miterlimit="10" stroke-linecap="round" stroke-linejoin="round"/>
<path d="M10.3444 10.4224L8.78882 9.56689" stroke="#777777" stroke-width="1.01111" stroke-miterlimit="10" stroke-linecap="round" stroke-linejoin="round"/>
<path d="M6.99988 4.43336C7.5583 4.43336 8.01099 3.98067 8.01099 3.42224C8.01099 2.86382 7.5583 2.41113 6.99988 2.41113C6.44146 2.41113 5.98877 2.86382 5.98877 3.42224C5.98877 3.98067 6.44146 4.43336 6.99988 4.43336Z" stroke="#777777" stroke-width="1.01111" stroke-miterlimit="10" stroke-linecap="round" stroke-linejoin="round"/>
<path d="M11.4332 11.5891C11.9917 11.5891 12.4443 11.1364 12.4443 10.578C12.4443 10.0196 11.9917 9.56689 11.4332 9.56689C10.8748 9.56689 10.4221 10.0196 10.4221 10.578C10.4221 11.1364 10.8748 11.5891 11.4332 11.5891Z" stroke="#777777" stroke-width="1.01111" stroke-miterlimit="10" stroke-linecap="round" stroke-linejoin="round"/>
<path d="M2.56678 11.5891C3.1252 11.5891 3.57789 11.1364 3.57789 10.578C3.57789 10.0196 3.1252 9.56689 2.56678 9.56689C2.00835 9.56689 1.55566 10.0196 1.55566 10.578C1.55566 11.1364 2.00835 11.5891 2.56678 11.5891Z" stroke="#777777" stroke-width="1.01111" stroke-miterlimit="10" stroke-linecap="round" stroke-linejoin="round"/>
</svg>
