<svg width="20" height="20" viewBox="0 0 20 20" fill="none" xmlns="http://www.w3.org/2000/svg">
<g id="Property 1=Docs">
<path id="Shape" d="M6.5 10C6.22386 10 6 10.2239 6 10.5C6 10.7761 6.22386 11 6.5 11H13.5C13.7761 11 14 10.7761 14 10.5C14 10.2239 13.7761 10 13.5 10H6.5ZM6.5 12C6.22386 12 6 12.2239 6 12.5C6 12.7761 6.22386 13 6.5 13H13.5C13.7761 13 14 12.7761 14 12.5C14 12.2239 13.7761 12 13.5 12H6.5ZM6.5 14C6.22386 14 6 14.2239 6 14.5C6 14.7761 6.22386 15 6.5 15H13.5C13.7761 15 14 14.7761 14 14.5C14 14.2239 13.7761 14 13.5 14H6.5ZM4 4C4 2.89543 4.89543 2 6 2H10.5858C10.9836 2 11.3651 2.15804 11.6464 2.43934L15.5607 6.35355C15.842 6.63486 16 7.01639 16 7.41421V16C16 17.1046 15.1046 18 14 18H6C4.89543 18 4 17.1046 4 16V4ZM6 3C5.44772 3 5 3.44772 5 4V16C5 16.5523 5.44772 17 6 17H14C14.5523 17 15 16.5523 15 16V8H11.5C10.6716 8 10 7.32843 10 6.5V3H6ZM11.5 7H14.7929L11 3.20711V6.5C11 6.77614 11.2239 7 11.5 7Z" fill="#2B2B2B"/>
</g>
</svg>
