<svg width="18" height="18" viewBox="0 0 18 18" fill="none" xmlns="http://www.w3.org/2000/svg">
<g id="IconData">
<path id="Shape" d="M5.5 9C5.22386 9 5 9.22386 5 9.5C5 9.77614 5.22386 10 5.5 10H12.5C12.7761 10 13 9.77614 13 9.5C13 9.22386 12.7761 9 12.5 9H5.5ZM5.5 11C5.22386 11 5 11.2239 5 11.5C5 11.7761 5.22386 12 5.5 12H12.5C12.7761 12 13 11.7761 13 11.5C13 11.2239 12.7761 11 12.5 11H5.5ZM5.5 13C5.22386 13 5 13.2239 5 13.5C5 13.7761 5.22386 14 5.5 14H12.5C12.7761 14 13 13.7761 13 13.5C13 13.2239 12.7761 13 12.5 13H5.5ZM3 3C3 1.89543 3.89543 1 5 1H9.58579C9.98361 1 10.3651 1.15804 10.6464 1.43934L14.5607 5.35355C14.842 5.63486 15 6.01639 15 6.41421V15C15 16.1046 14.1046 17 13 17H5C3.89543 17 3 16.1046 3 15V3ZM5 2C4.44772 2 4 2.44772 4 3V15C4 15.5523 4.44772 16 5 16H13C13.5523 16 14 15.5523 14 15V7H10.5C9.67157 7 9 6.32843 9 5.5V2H5ZM10.5 6H13.7929L10 2.20711V5.5C10 5.77614 10.2239 6 10.5 6Z" fill="#777777" stroke="#777777" stroke-width="0.3" stroke-linecap="round" stroke-linejoin="round"/>
</g>
</svg>
