<svg width="18" height="18" viewBox="0 0 18 18" fill="none" xmlns="http://www.w3.org/2000/svg">
<path d="M15.1451 14.1902V14.9952C15.1451 15.8002 14.455 16.4902 13.65 16.4902H4.33487C3.52986 16.4902 2.83984 15.8002 2.83984 14.9952V14.0752" stroke="#777777" stroke-width="1.3" stroke-miterlimit="10" stroke-linecap="round" stroke-linejoin="round"/>
<path d="M2.95312 7.6351V3.49503C2.95312 2.69001 3.64314 2 4.44815 2H13.8783C14.6833 2 15.3733 2.69001 15.3733 3.49503V7.6351" stroke="#777777" stroke-width="1.3" stroke-miterlimit="10" stroke-linecap="round" stroke-linejoin="round"/>
<path d="M5.82812 4.99005H12.2682" stroke="#777777" stroke-width="1.3" stroke-miterlimit="10" stroke-linecap="round" stroke-linejoin="round"/>
<path d="M3.76079 10.0501H3.30078V11.8901H3.76079C4.3358 11.8901 4.6808 11.4301 4.6808 10.9701C4.6808 10.3951 4.3358 10.0501 3.76079 10.0501Z" fill="#2A74B8"/>
<path d="M7.32236 9.93512C6.86235 9.93512 6.40234 10.3951 6.40234 10.8551C6.40234 11.3151 6.86235 11.7752 7.32236 11.7752C7.78237 11.7752 8.24238 11.3151 8.24238 10.8551C8.24238 10.2801 7.78237 9.93512 7.32236 9.93512Z" fill="#2A74B8"/>
<path d="M15.8353 7.63501H2.26502C1.57501 7.63501 1 8.21002 1 8.90003V12.8101C1 13.5001 1.57501 14.0751 2.26502 14.0751H15.7203C16.4103 14.0751 16.9853 13.5001 16.9853 12.8101V8.90003C17.1003 8.21002 16.5253 7.63501 15.8353 7.63501ZM3.76005 12.4651H3.30004H2.61003V9.36004H3.30004H3.76005C4.68006 9.36004 5.37007 10.0501 5.37007 10.8551C5.37007 11.7751 4.68006 12.4651 3.76005 12.4651ZM7.32511 12.4651C6.52009 12.4651 5.71508 11.7751 5.71508 10.8551C5.71508 10.0501 6.40509 9.24504 7.32511 9.24504C8.24512 9.24504 8.93513 9.93505 8.93513 10.8551C8.93513 11.7751 8.13012 12.4651 7.32511 12.4651ZM11.0052 11.7751C11.2352 11.7751 11.5802 11.6601 11.6952 11.4301L12.1552 11.8901C11.9252 12.2351 11.4652 12.4651 11.0052 12.4651C10.2002 12.4651 9.39514 11.7751 9.39514 10.8551C9.39514 10.0501 10.0852 9.24504 11.0052 9.24504C11.4652 9.24504 11.8102 9.47504 12.1552 9.82005L11.6952 10.2801C11.5802 10.0501 11.2352 9.93505 11.0052 9.93505C10.5452 9.93505 10.0852 10.3951 10.0852 10.8551C10.0852 11.4301 10.4302 11.7751 11.0052 11.7751ZM14.5702 12.4651L13.9952 11.4301L13.4202 12.4651H12.5002L13.5352 10.8551L12.5002 9.36004H13.3052L13.8802 10.2801L14.4552 9.36004H15.2602L14.3402 10.8551L15.3752 12.4651H14.5702Z" fill="#2A74B8"/>
</svg>
