<svg width="18" height="18" viewBox="0 0 18 18" fill="none" xmlns="http://www.w3.org/2000/svg">
<path d="M10.5801 7.65039C11.0001 8.04039 11.2501 8.60039 11.2501 9.21039" stroke="#777777" stroke-linecap="round" stroke-linejoin="round"/>
<path d="M9.11035 7.05957C9.19035 7.05957 9.27035 7.05957 9.34035 7.06957" stroke="#777777" stroke-linecap="round" stroke-linejoin="round"/>
<path d="M12.8005 9.43027C12.8005 7.31027 11.0705 5.60027 8.94047 5.63027C6.81047 5.66027 5.12047 7.50027 5.21047 9.60027C5.26047 10.7503 5.83047 11.7703 6.68047 12.4303C7.06047 12.7303 7.27047 13.2003 7.27047 13.6803V14.5103C7.27047 15.0303 7.70047 15.4603 8.22047 15.4603H9.79047C10.3105 15.4603 10.7405 15.0303 10.7405 14.5103V13.6803C10.7405 13.2003 10.9405 12.7303 11.3205 12.4403C12.2205 11.7503 12.8105 10.6603 12.8105 9.43027H12.8005Z" stroke="#777777" stroke-width="1.3" stroke-linecap="round" stroke-linejoin="round"/>
<path d="M9 2.53027V3.95027" stroke="#777777" stroke-width="1.3" stroke-linecap="round" stroke-linejoin="round"/>
<path d="M4.0498 4.58008L5.0498 5.58008" stroke="#777777" stroke-width="1.3" stroke-linecap="round" stroke-linejoin="round"/>
<path d="M2 9.53027H3.41" stroke="#777777" stroke-width="1.3" stroke-linecap="round" stroke-linejoin="round"/>
<path d="M15.9998 9.53027H14.5898" stroke="#777777" stroke-width="1.3" stroke-linecap="round" stroke-linejoin="round"/>
<path d="M13.9502 4.58008L12.9502 5.58008" stroke="#777777" stroke-width="1.3" stroke-linecap="round" stroke-linejoin="round"/>
<path d="M7.36035 14H10.6204" stroke="#777777" stroke-width="1.3" stroke-linecap="round" stroke-linejoin="round"/>
</svg>
