<svg width="18" height="18" viewBox="0 0 18 18" fill="none" xmlns="http://www.w3.org/2000/svg">
<path d="M5.20234 10.4994C5.64417 10.4994 6.00234 10.1412 6.00234 9.69941C6.00234 9.25759 5.64417 8.89941 5.20234 8.89941C4.76052 8.89941 4.40234 9.25759 4.40234 9.69941C4.40234 10.1412 4.76052 10.4994 5.20234 10.4994Z" fill="#777777"/>
<path d="M7.40156 10.4994C7.84339 10.4994 8.20156 10.1412 8.20156 9.69941C8.20156 9.25759 7.84339 8.89941 7.40156 8.89941C6.95973 8.89941 6.60156 9.25759 6.60156 9.69941C6.60156 10.1412 6.95973 10.4994 7.40156 10.4994Z" fill="#777777"/>
<path d="M9.60078 10.4994C10.0426 10.4994 10.4008 10.1412 10.4008 9.69941C10.4008 9.25759 10.0426 8.89941 9.60078 8.89941C9.15895 8.89941 8.80078 9.25759 8.80078 9.69941C8.80078 10.1412 9.15895 10.4994 9.60078 10.4994Z" fill="#777777"/>
<path d="M7.30078 6.09961C4.80078 6.09961 2.80078 7.79961 2.80078 9.89961C2.80078 10.6996 3.10078 11.4996 3.60078 12.0996L3.40078 14.1996L5.90078 13.5996C6.30078 13.6996 6.80078 13.7996 7.30078 13.7996C9.80078 13.7996 11.8008 12.0996 11.8008 9.99961C11.8008 7.89961 9.80078 6.09961 7.30078 6.09961Z" stroke="#777777" stroke-width="1.3" stroke-linecap="round" stroke-linejoin="round"/>
<path d="M11.8016 11.2998C12.1016 11.2998 12.3016 11.1998 12.6016 11.0998L14.8016 11.2998L14.6016 9.4998C15.0016 8.9998 15.2016 8.2998 15.2016 7.5998C15.2016 5.4998 13.2016 3.7998 10.7016 3.7998C9.00156 3.7998 7.40156 4.5998 6.60156 6.0998" stroke="#777777" stroke-width="1.3" stroke-linecap="round" stroke-linejoin="round"/>
</svg>
