<svg width="18" height="18" viewBox="0 0 18 18" fill="none" xmlns="http://www.w3.org/2000/svg">
<g id="Frame">
<path id="Vector" d="M6.25022 1.22699H11.1323L6.06422 16.2433C6.01213 16.3976 5.91296 16.5317 5.78067 16.6267C5.64838 16.7217 5.48964 16.7728 5.32678 16.7728H1.52728C1.40389 16.7728 1.28226 16.7435 1.17247 16.6871C1.06268 16.6308 0.967878 16.5492 0.895905 16.4489C0.823931 16.3487 0.776857 16.2328 0.758577 16.1108C0.740296 15.9887 0.751334 15.8641 0.790778 15.7472L5.51259 1.75649C5.56466 1.60213 5.66384 1.46798 5.79617 1.37296C5.9285 1.27793 6.0873 1.227 6.25022 1.22699Z" fill="url(#paint0_linear_1506_2016)"/>
<path id="Vector_2" d="M13.3447 11.2988H5.60285C5.53087 11.2987 5.46054 11.3203 5.40102 11.3608C5.34149 11.4013 5.29553 11.4587 5.26913 11.5257C5.24272 11.5926 5.23709 11.666 5.25297 11.7362C5.26885 11.8064 5.30551 11.8702 5.35816 11.9193L10.3329 16.5625C10.4778 16.6976 10.6685 16.7727 10.8665 16.7727H15.2503L13.3447 11.2988Z" fill="#0078D4"/>
<path id="Vector_3" d="M6.25118 1.22706C6.08649 1.22642 5.92591 1.27847 5.7929 1.37559C5.65989 1.4727 5.56141 1.60981 5.51186 1.76687L0.797551 15.7345C0.755453 15.8518 0.742237 15.9776 0.75902 16.1011C0.775802 16.2247 0.822091 16.3423 0.893969 16.4442C0.965846 16.546 1.0612 16.6291 1.17196 16.6863C1.28272 16.7435 1.40564 16.7732 1.5303 16.7729H5.42786C5.57303 16.7469 5.7087 16.6829 5.82103 16.5874C5.93336 16.4919 6.01833 16.3682 6.06724 16.2291L7.00736 13.4584L10.3655 16.5906C10.5062 16.707 10.6827 16.7714 10.8654 16.7729H15.2328L13.3173 11.299L7.73336 11.3003L11.1509 1.22706H6.25118Z" fill="url(#paint1_linear_1506_2016)"/>
<path id="Vector_4" d="M12.4862 1.7558C12.4342 1.60168 12.3351 1.46776 12.203 1.3729C12.0709 1.27804 11.9123 1.22703 11.7497 1.22705H6.30859C6.47124 1.22706 6.62979 1.27808 6.76191 1.37294C6.89403 1.46779 6.99308 1.6017 7.04509 1.7558L11.7671 15.7471C11.8066 15.864 11.8176 15.9886 11.7994 16.1107C11.7811 16.2328 11.734 16.3487 11.6621 16.449C11.5901 16.5493 11.4953 16.6309 11.3855 16.6873C11.2757 16.7436 11.154 16.773 11.0306 16.7731H16.4718C16.5952 16.773 16.7169 16.7436 16.8267 16.6872C16.9364 16.6309 17.0312 16.5492 17.1032 16.4489C17.1751 16.3487 17.2222 16.2327 17.2404 16.1107C17.2587 15.9886 17.2476 15.864 17.2082 15.7471L12.4862 1.7558Z" fill="url(#paint2_linear_1506_2016)"/>
</g>
<defs>
<linearGradient id="paint0_linear_1506_2016" x1="8.02959" y1="2.37899" x2="2.9594" y2="17.3576" gradientUnits="userSpaceOnUse">
<stop stop-color="#114A8B"/>
<stop offset="1" stop-color="#0669BC"/>
</linearGradient>
<linearGradient id="paint1_linear_1506_2016" x1="9.61436" y1="9.35949" x2="8.44155" y2="9.75606" gradientUnits="userSpaceOnUse">
<stop stop-opacity="0.3"/>
<stop offset="0.071" stop-opacity="0.2"/>
<stop offset="0.321" stop-opacity="0.1"/>
<stop offset="0.623" stop-opacity="0.05"/>
<stop offset="1" stop-opacity="0"/>
</linearGradient>
<linearGradient id="paint2_linear_1506_2016" x1="8.96866" y1="1.94218" x2="14.5342" y2="16.7699" gradientUnits="userSpaceOnUse">
<stop stop-color="#3CCBF4"/>
<stop offset="1" stop-color="#2892DF"/>
</linearGradient>
</defs>
</svg>
