<svg width="14" height="14" viewBox="0 0 14 14" fill="none" xmlns="http://www.w3.org/2000/svg">
<path d="M9.41097 7.07764L10.9665 8.63319C11.1999 8.86653 11.1999 9.25541 10.9665 9.48875L9.48875 10.9665C9.25541 11.1999 8.86653 11.1999 8.63319 10.9665L7.07764 9.41097" stroke="#777777" stroke-width="1.01111" stroke-linecap="round" stroke-linejoin="round"/>
<path d="M4.58872 6.9223L3.18872 5.5223L5.52205 3.18896L6.99983 4.66674" stroke="#777777" stroke-width="1.01111" stroke-linecap="round" stroke-linejoin="round"/>
<path d="M2.41089 2.41113L3.18867 5.52224L5.522 3.18891L2.41089 2.41113Z" stroke="#777777" stroke-width="1.01111" stroke-linecap="round" stroke-linejoin="round"/>
<path d="M2.3332 9.3332L9.3332 2.3332C9.56654 2.09987 9.95543 2.09987 10.1888 2.3332L11.7443 3.88876C11.9776 4.12209 11.9776 4.51098 11.7443 4.74431L4.74431 11.7443C4.51098 11.9776 4.12209 11.9776 3.88876 11.7443L2.3332 10.1888C2.09987 9.95543 2.09987 9.56654 2.3332 9.3332Z" stroke="#777777" stroke-width="1.01111" stroke-linecap="round" stroke-linejoin="round"/>
<path d="M3.34424 8.32178L4.43313 9.41067" stroke="#777777" stroke-width="1.01111" stroke-linecap="round" stroke-linejoin="round"/>
<path d="M4.97778 6.68896L5.75556 7.46674" stroke="#777777" stroke-width="1.01111" stroke-linecap="round" stroke-linejoin="round"/>
<path d="M6.68872 5.05566L7.69983 6.14455" stroke="#777777" stroke-width="1.01111" stroke-linecap="round" stroke-linejoin="round"/>
<path d="M8.32227 3.34424L9.10004 4.19979" stroke="#777777" stroke-width="1.01111" stroke-linecap="round" stroke-linejoin="round"/>
</svg>
