<svg width="21" height="21" viewBox="0 0 21 21" fill="none" xmlns="http://www.w3.org/2000/svg">
<g clip-path="url(#clip0_2969_26264)">
<path d="M10.5 0.914062C16.025 0.914062 20.5 5.38906 20.5 10.9141C20.4995 13.0093 19.8419 15.0516 18.6198 16.7536C17.3977 18.4555 15.6727 19.7314 13.6875 20.4016C13.1875 20.5016 13 20.1891 13 19.9266C13 19.5891 13.0125 18.5141 13.0125 17.1766C13.0125 16.2391 12.7 15.6391 12.3375 15.3266C14.5625 15.0766 16.9 14.2266 16.9 10.3891C16.9 9.28906 16.5125 8.40156 15.875 7.70156C15.975 7.45156 16.325 6.42656 15.775 5.05156C15.775 5.05156 14.9375 4.77656 13.025 6.07656C12.225 5.85156 11.375 5.73906 10.525 5.73906C9.675 5.73906 8.825 5.85156 8.025 6.07656C6.1125 4.78906 5.275 5.05156 5.275 5.05156C4.725 6.42656 5.075 7.45156 5.175 7.70156C4.5375 8.40156 4.15 9.30156 4.15 10.3891C4.15 14.2141 6.475 15.0766 8.7 15.3266C8.4125 15.5766 8.15 16.0141 8.0625 16.6641C7.4875 16.9266 6.05 17.3516 5.15 15.8391C4.9625 15.5391 4.4 14.8016 3.6125 14.8141C2.775 14.8266 3.275 15.2891 3.625 15.4766C4.05 15.7141 4.5375 16.6016 4.65 16.8891C4.85 17.4516 5.5 18.5266 8.0125 18.0641C8.0125 18.9016 8.025 19.6891 8.025 19.9266C8.025 20.1891 7.8375 20.4891 7.3375 20.4016C5.3458 19.7386 3.61342 18.4653 2.38611 16.7624C1.15881 15.0594 0.498899 13.0132 0.500001 10.9141C0.500001 5.38906 4.975 0.914062 10.5 0.914062Z" fill="black"/>
</g>
<defs>
<clipPath id="clip0_2969_26264">
<rect width="20" height="20" fill="white" transform="translate(0.5 0.914062)"/>
</clipPath>
</defs>
</svg>
