<svg width="21" height="20" viewBox="0 0 21 20" fill="none" xmlns="http://www.w3.org/2000/svg">
<g clip-path="url(#clip0_2969_26254)">
<path d="M20.1067 10.1429C20.1067 9.32703 20.0408 8.73166 19.8981 8.11426H10.6172V11.7967H16.0649C15.9551 12.7118 15.362 14.09 14.0439 15.016L14.0255 15.1393L16.9599 17.4213L17.1632 17.4416C19.0303 15.7107 20.1067 13.1638 20.1067 10.1429Z" fill="#4C8BF3"/>
<path d="M10.6197 19.845C13.2886 19.845 15.5291 18.963 17.1657 17.4415L14.0464 15.0159C13.2117 15.6002 12.0914 16.0082 10.6197 16.0082C8.00565 16.0082 5.78704 14.2773 4.99617 11.8848L4.88024 11.8946L1.82897 14.2651L1.78906 14.3764C3.41457 17.6179 6.75351 19.845 10.6197 19.845Z" fill="#34A853"/>
<path d="M4.99585 11.885C4.78717 11.2675 4.6664 10.606 4.6664 9.92244C4.6664 9.23883 4.78717 8.57734 4.98487 7.95993L4.97934 7.82844L1.88983 5.41992L1.78875 5.46819C1.11879 6.81329 0.734375 8.32378 0.734375 9.92244C0.734375 11.5211 1.11879 13.0315 1.78875 14.3766L4.99585 11.885Z" fill="#FFD584"/>
<path d="M10.6197 3.83677C12.4758 3.83677 13.7279 4.64162 14.4418 5.3142L17.2316 2.57992C15.5182 0.981255 13.2886 0 10.6197 0C6.7535 0 3.41457 2.22709 1.78906 5.4685L4.98519 7.96025C5.78704 5.56777 8.00565 3.83677 10.6197 3.83677Z" fill="#EA4335"/>
</g>
<defs>
<clipPath id="clip0_2969_26254">
<rect width="20" height="19.9139" fill="white" transform="translate(0.5)"/>
</clipPath>
</defs>
</svg>
