<svg width="18" height="18" viewBox="0 0 18 18" fill="none" xmlns="http://www.w3.org/2000/svg">
<path d="M2.95312 7.6351V3.49503C2.95312 2.69001 3.64314 2 4.44815 2H13.8783C14.6833 2 15.3733 2.69001 15.3733 3.49503V7.6351" stroke="#777777" stroke-width="1.3" stroke-miterlimit="10" stroke-linecap="round" stroke-linejoin="round"/>
<path d="M15.149 14.1902V14.9952C15.149 15.8002 14.4589 16.4902 13.6539 16.4902H4.33878C3.53376 16.4902 2.84375 15.8002 2.84375 14.9952V14.0752" stroke="#777777" stroke-width="1.3" stroke-miterlimit="10" stroke-linecap="round" stroke-linejoin="round"/>
<path d="M15.8353 7.63513H2.26502C1.57501 7.63513 1 8.21014 1 8.90015V12.8102C1 13.5002 1.57501 14.0752 2.26502 14.0752H15.7203C16.4103 14.0752 16.9853 13.5002 16.9853 12.8102V8.90015C17.1003 8.21014 16.5253 7.63513 15.8353 7.63513ZM5.83008 12.4652H5.14007V11.2002H3.99005V12.4652H3.18504V9.36016H3.87505V10.5102H5.02507V9.36016H5.71508V12.4652H5.83008ZM8.70513 10.0502H7.78512V12.5802H7.0951V10.0502H6.17509V9.36016H8.59013V10.0502H8.70513ZM12.2702 12.4652H11.5802V11.0852V10.5102L10.8902 11.7752H10.5452L9.85515 10.5102V11.0852V12.4652H9.05014V9.36016H9.74015L10.6602 10.8552L11.5802 9.36016H12.2702V12.4652ZM14.9152 12.4652H12.9602V9.36016H13.6502V11.8902H14.9152V12.4652Z" fill="#2AB874"/>
<path d="M6.63267 4.07001L5.59766 5.22003L6.40267 6.02504" stroke="#777777" stroke-width="1.3" stroke-miterlimit="10" stroke-linecap="round" stroke-linejoin="round"/>
<path d="M11.4648 4.07001L12.4999 5.22003L11.6948 6.02504" stroke="#777777" stroke-width="1.3" stroke-miterlimit="10" stroke-linecap="round" stroke-linejoin="round"/>
<path d="M9.62268 3.72504L8.47266 6.48508" stroke="#777777" stroke-width="1.3" stroke-miterlimit="10" stroke-linecap="round" stroke-linejoin="round"/>
</svg>
