<svg width="18" height="18" viewBox="0 0 18 18" fill="none" xmlns="http://www.w3.org/2000/svg">
<g id="IconData">
<path id="Vector" d="M16.5786 10.755L13.32 8.99998L16.5786 7.24498C16.6679 7.19678 16.7425 7.12533 16.7945 7.03818C16.8465 6.95104 16.8739 6.85145 16.8739 6.74998C16.8739 6.64851 16.8465 6.54892 16.7945 6.46178C16.7425 6.37463 16.6679 6.30318 16.5786 6.25498L9.26608 2.31748C9.18416 2.27327 9.09254 2.25012 8.99945 2.25012C8.90637 2.25012 8.81474 2.27327 8.73283 2.31748L1.42033 6.25498C1.33103 6.30318 1.25643 6.37463 1.20444 6.46178C1.15245 6.54892 1.125 6.64851 1.125 6.74998C1.125 6.85145 1.15245 6.95104 1.20444 7.03818C1.25643 7.12533 1.33103 7.19678 1.42033 7.24498L4.67889 8.99998L1.42033 10.755C1.33103 10.8032 1.25643 10.8746 1.20444 10.9618C1.15245 11.0489 1.125 11.1485 1.125 11.25C1.125 11.3515 1.15245 11.451 1.20444 11.5382C1.25643 11.6253 1.33103 11.6968 1.42033 11.745L8.73283 15.6825C8.81477 15.7266 8.90639 15.7497 8.99945 15.7497C9.09252 15.7497 9.18413 15.7266 9.26608 15.6825L16.5786 11.745C16.6679 11.6968 16.7425 11.6253 16.7945 11.5382C16.8465 11.451 16.8739 11.3515 16.8739 11.25C16.8739 11.1485 16.8465 11.0489 16.7945 10.9618C16.7425 10.8746 16.6679 10.8032 16.5786 10.755ZM8.99945 3.45148L15.1251 6.74998L8.99945 10.0485L2.87383 6.74998L8.99945 3.45148ZM8.99945 14.5485L2.87383 11.25L5.86576 9.63898L8.73283 11.1825C8.81477 11.2266 8.90639 11.2497 8.99945 11.2497C9.09252 11.2497 9.18413 11.2266 9.26608 11.1825L12.1331 9.63842L15.1256 11.25L8.99945 14.5485Z" fill="#777777"/>
</g>
</svg>
