<svg width="18" height="18" viewBox="0 0 18 18" fill="none" xmlns="http://www.w3.org/2000/svg">
<g id="Property 1=Key" clip-path="url(#clip0_2418_23169)">
<path id="Shape" d="M14 5C14 5.55228 13.5523 6 13 6C12.4477 6 12 5.55228 12 5C12 4.44772 12.4477 4 13 4C13.5523 4 14 4.44772 14 5ZM11.5 1C8.42386 1 6 3.42386 6 6.5C6 6.89668 6.04001 7.29598 6.12154 7.67456C6.17968 7.94454 6.11378 8.17912 5.98018 8.31271L1.43934 12.8536C1.15804 13.1349 1 13.5164 1 13.9142V15.5C1 16.3284 1.67157 17 2.5 17H4.5C5.32843 17 6 16.3284 6 15.5V15H7C7.55228 15 8 14.5523 8 14V13H9C9.55229 13 10 12.5523 10 12V11.8199C10.4935 11.9536 11.0069 12 11.5 12C14.5761 12 17 9.57614 17 6.5C17 3.42386 14.5761 1 11.5 1ZM7 6.5C7 3.97614 8.97614 2 11.5 2C14.0239 2 16 3.97614 16 6.5C16 9.02386 14.0239 11 11.5 11C10.8408 11 10.2274 10.9047 9.72361 10.6528C9.56861 10.5753 9.38454 10.5836 9.23713 10.6747C9.08973 10.7658 9 10.9267 9 11.1V12H8C7.44772 12 7 12.4477 7 13V14H6C5.44772 14 5 14.4477 5 15V15.5C5 15.7761 4.77614 16 4.5 16H2.5C2.22386 16 2 15.7761 2 15.5V13.9142C2 13.7816 2.05268 13.6544 2.14645 13.5607L6.68729 9.01982C7.11942 8.58768 7.20942 7.97619 7.09913 7.46404C7.03354 7.15949 7 6.83105 7 6.5Z" fill="#2B2B2B" stroke="#2B2B2B" stroke-width="0.2"/>
</g>
<defs>
<clipPath id="clip0_2418_23169">
<rect width="18" height="18" fill="white"/>
</clipPath>
</defs>
</svg>
