<svg width="18" height="18" viewBox="0 0 18 18" fill="none" xmlns="http://www.w3.org/2000/svg">
<rect width="18" height="18" fill="#1E1E1E"/>
<g id="Project Playground">
<path d="M-997 -2380C-997 -2381.1 -996.105 -2382 -995 -2382H6719C6720.1 -2382 6721 -2381.1 6721 -2380V3680C6721 3681.1 6720.1 3682 6719 3682H-995C-996.104 3682 -997 3681.1 -997 3680V-2380Z" fill="#DDDDDD"/>
<path d="M-995 -2381H6719V-2383H-995V-2381ZM6720 -2380V3680H6722V-2380H6720ZM6719 3681H-995V3683H6719V3681ZM-996 3680V-2380H-998V3680H-996ZM-995 3681C-995.552 3681 -996 3680.55 -996 3680H-998C-998 3681.66 -996.657 3683 -995 3683V3681ZM6720 3680C6720 3680.55 6719.55 3681 6719 3681V3683C6720.66 3683 6722 3681.66 6722 3680H6720ZM6719 -2381C6719.55 -2381 6720 -2380.55 6720 -2380H6722C6722 -2381.66 6720.66 -2383 6719 -2383V-2381ZM-995 -2383C-996.657 -2383 -998 -2381.66 -998 -2380H-996C-996 -2380.55 -995.552 -2381 -995 -2381V-2383Z" fill="white" fill-opacity="0.1"/>
<g id="/projects/{project_id}/playground/assistant?assistant_id=xxxxxx">
<rect width="1920" height="1080" transform="translate(-612 -631)" fill="white"/>
<g id="Frame 231">
<g id="Frame 1000005110">
<rect width="1692" height="1032" transform="translate(-384 -583)" fill="white"/>
<g id="Frame 231_2">
<g id="Frame 1000004336">
<g id="ChatBox">
<g id="Frame 231_3">
<g id="Frame 230">
<g id="Message" clip-path="url(#clip0_0_1)">
<g id="GenerationLog">
<g id="Frame 1000004335">
<g id="GenerationLog/Status4" opacity="0.9" clip-path="url(#clip1_0_1)">
<g id="Frame 1000005147" opacity="0.9">
<path id="Ellipse 60" d="M15 9C15 7.81331 14.6481 6.65327 13.9888 5.66658C13.3295 4.67988 12.3925 3.91085 11.2961 3.45672C10.1997 3.0026 8.99334 2.88378 7.82946 3.11529C6.66557 3.3468 5.59647 3.91824 4.75736 4.75736C3.91824 5.59647 3.3468 6.66557 3.11529 7.82946C2.88378 8.99334 3.0026 10.1997 3.45672 11.2961C3.91085 12.3925 4.67988 13.3295 5.66658 13.9888C6.65327 14.6481 7.81331 15 9 15" stroke="#FFBB58" stroke-width="1.3" stroke-linecap="round"/>
</g>
</g>
</g>
</g>
</g>
</g>
</g>
</g>
</g>
</g>
</g>
</g>
</g>
</g>
<defs>
<clipPath id="clip0_0_1">
<rect width="1284" height="275" fill="white" transform="translate(0 -77)"/>
</clipPath>
<clipPath id="clip1_0_1">
<rect width="18" height="18" fill="white"/>
</clipPath>
</defs>
</svg>
