<svg width="32" height="32" viewBox="0 0 32 32" fill="none" xmlns="http://www.w3.org/2000/svg">
<rect width="32" height="32" rx="8" fill="#087443"/>
<path d="M24.894 13.3063C24.3165 13.3063 23.7542 13.4919 23.2901 13.8357C22.826 14.1794 22.4846 14.6632 22.3162 15.2157H19.3456C19.2603 14.8387 19.1138 14.4782 18.9119 14.1486L21.3963 11.6642C21.8494 11.8593 22.3564 11.8904 22.8301 11.7521C23.3037 11.6138 23.7143 11.3148 23.9913 10.9065C24.2683 10.4982 24.3943 10.0061 24.3477 9.51494C24.3011 9.02375 24.0848 8.56415 23.736 8.2152C23.3872 7.86625 22.9277 7.64977 22.4365 7.60299C21.9453 7.55621 21.4532 7.68206 21.0448 7.9589C20.6364 8.23573 20.3372 8.64624 20.1987 9.1198C20.0603 9.59337 20.0911 10.1004 20.2861 10.5536L17.8159 13.0238C17.4649 12.7949 17.0759 12.6304 16.6672 12.5381V8.47283C17.2851 8.28463 17.8148 7.88075 18.1599 7.33474C18.505 6.78874 18.6425 6.13694 18.5474 5.49806C18.4523 4.85918 18.1308 4.27573 17.6416 3.85397C17.1524 3.4322 16.5279 3.2002 15.882 3.2002C15.2361 3.2002 14.6117 3.4322 14.1224 3.85397C13.6332 4.27573 13.3118 4.85918 13.2166 5.49806C13.1215 6.13694 13.259 6.78874 13.6041 7.33474C13.9492 7.88075 14.4789 8.28463 15.0968 8.47283V12.5381C14.72 12.6231 14.3597 12.7693 14.0302 12.971L11.5454 10.4866C11.7404 10.0335 11.7714 9.52654 11.633 9.05305C11.4947 8.57955 11.1956 8.16907 10.7874 7.89221C10.3791 7.61536 9.88707 7.48944 9.39599 7.53612C8.90491 7.58279 8.44544 7.79915 8.09663 8.14796C7.74781 8.49677 7.53146 8.95624 7.48478 9.44732C7.43811 9.93841 7.56403 10.4304 7.84088 10.8387C8.11773 11.247 8.52822 11.546 9.00171 11.6844C9.47521 11.8227 9.98212 11.7917 10.4352 11.5968L12.905 14.0665C12.6764 14.4178 12.5121 14.8069 12.4197 15.2157H9.43194C9.24374 14.5979 8.8399 14.0682 8.29398 13.7232C7.74806 13.3782 7.09637 13.2407 6.4576 13.3359C5.81883 13.431 5.23549 13.7524 4.8138 14.2415C4.39212 14.7307 4.16016 15.355 4.16016 16.0008C4.16016 16.6466 4.39212 17.271 4.8138 17.7601C5.23549 18.2492 5.81883 18.5707 6.4576 18.6658C7.09637 18.7609 7.74806 18.6235 8.29398 18.2784C8.8399 17.9334 9.24374 17.4038 9.43194 16.786H12.4209C12.5058 17.1628 12.6519 17.5231 12.8534 17.8526L10.369 20.3374C9.9159 20.1424 9.40899 20.1115 8.9355 20.2498C8.462 20.3882 8.05152 20.6872 7.77466 21.0955C7.49781 21.5038 7.37189 21.9958 7.41857 22.4869C7.46524 22.9779 7.6816 23.4374 8.03041 23.7862C8.37922 24.135 8.83869 24.3514 9.32977 24.3981C9.82086 24.4447 10.3129 24.3188 10.7211 24.042C11.1294 23.7651 11.4285 23.3546 11.5668 22.8811C11.7052 22.4076 11.6742 21.9007 11.4792 21.4476L13.9494 18.9779C14.3005 19.2062 14.6895 19.3702 15.0981 19.4623V23.5276C14.4802 23.7158 13.9505 24.1196 13.6054 24.6656C13.2603 25.2117 13.1227 25.8635 13.2179 26.5023C13.313 27.1412 13.6345 27.7247 14.1237 28.1464C14.6129 28.5682 15.2373 28.8002 15.8833 28.8002C16.5292 28.8002 17.1536 28.5682 17.6429 28.1464C18.1321 27.7247 18.4535 27.1412 18.5487 26.5023C18.6438 25.8635 18.5063 25.2117 18.1612 24.6656C17.8161 24.1196 17.2863 23.7158 16.6684 23.5276V19.4623C17.0454 19.3775 17.4059 19.2312 17.7355 19.0294L20.2199 21.5159C20.0251 21.969 19.9943 22.4758 20.1327 22.9491C20.2712 23.4224 20.5703 23.8327 20.9785 24.1094C21.3868 24.3861 21.8787 24.5119 22.3696 24.4651C22.8606 24.4183 23.3199 24.2019 23.6686 23.8531C24.0172 23.5043 24.2334 23.0449 24.28 22.554C24.3266 22.063 24.2007 21.5712 23.9238 21.163C23.647 20.7549 23.2366 20.4559 22.7632 20.3176C22.2898 20.1794 21.783 20.2104 21.33 20.4053L18.8603 17.9356C19.0892 17.5846 19.2536 17.1956 19.3456 16.7868H22.3162C22.4613 17.2644 22.7363 17.6923 23.1104 18.0228C23.4846 18.3533 23.9431 18.5733 24.435 18.6585C24.9269 18.7436 25.4327 18.6904 25.8961 18.5048C26.3595 18.3193 26.7623 18.0087 27.0595 17.6076C27.3567 17.2066 27.5367 16.7308 27.5794 16.2335C27.6221 15.7361 27.5258 15.2367 27.3012 14.7909C27.0766 14.3451 26.7327 13.9704 26.3076 13.7086C25.8826 13.4468 25.3932 13.3083 24.894 13.3083V13.3063Z" fill="white"/>
</svg>
