<svg width="129" height="48" viewBox="0 0 129 48" fill="none" xmlns="http://www.w3.org/2000/svg">
<path d="M29.157 20.2116C28.3448 20.2117 27.5541 20.4727 26.9015 20.9561C26.2488 21.4395 25.7687 22.1198 25.5319 22.8967H21.3546C21.2346 22.3666 21.0286 21.8597 20.7446 21.3962L24.2383 17.9026C24.8756 18.1769 25.5885 18.2206 26.2546 18.0262C26.9206 17.8317 27.498 17.4112 27.8875 16.837C28.277 16.2628 28.4543 15.5708 28.3888 14.8801C28.3232 14.1894 28.0191 13.5431 27.5285 13.0523C27.038 12.5616 26.3918 12.2572 25.7011 12.1914C25.0104 12.1256 24.3183 12.3026 23.744 12.6919C23.1697 13.0812 22.749 13.6585 22.5542 14.3244C22.3595 14.9904 22.4029 15.7034 22.6771 16.3408L19.2034 19.8144C18.7099 19.4925 18.1628 19.2612 17.588 19.1314V13.4146C18.4569 13.15 19.2019 12.582 19.6872 11.8142C20.1725 11.0464 20.3659 10.1298 20.2321 9.23137C20.0983 8.33295 19.6462 7.51247 18.9583 6.91936C18.2703 6.32626 17.3922 6 16.4839 6C15.5755 6 14.6974 6.32626 14.0095 6.91936C13.3215 7.51247 12.8695 8.33295 12.7357 9.23137C12.6019 10.1298 12.7952 11.0464 13.2805 11.8142C13.7658 12.582 14.5108 13.15 15.3797 13.4146V19.1314C14.8498 19.251 14.3431 19.4566 13.8798 19.7402L10.3855 16.2465C10.6597 15.6093 10.7033 14.8964 10.5087 14.2306C10.3142 13.5647 9.89364 12.9875 9.3195 12.5982C8.74535 12.2088 8.05348 12.0318 7.36289 12.0974C6.67231 12.163 6.02618 12.4673 5.53566 12.9578C5.04514 13.4483 4.74089 14.0944 4.67526 14.785C4.60962 15.4756 4.78669 16.1675 5.17602 16.7416C5.56534 17.3158 6.14258 17.7363 6.80844 17.9309C7.47429 18.1254 8.18714 18.0819 8.82435 17.8077L12.2974 21.2807C11.976 21.7747 11.7449 22.3219 11.6149 22.8967H7.41344C7.14879 22.028 6.58089 21.2832 5.81319 20.798C5.04548 20.3128 4.12905 20.1195 3.23078 20.2533C2.33251 20.3871 1.51218 20.839 0.919192 21.5269C0.326201 22.2147 0 23.0927 0 24.0009C0 24.9091 0.326201 25.787 0.919192 26.4749C1.51218 27.1627 2.33251 27.6147 3.23078 27.7485C4.12905 27.8823 5.04548 27.689 5.81319 27.2038C6.58089 26.7186 7.14879 25.9738 7.41344 25.105H11.6167C11.7361 25.6349 11.9416 26.1416 12.2249 26.6049L8.73123 30.0992C8.09402 29.825 7.38118 29.7815 6.71532 29.976C6.04947 30.1706 5.47223 30.5911 5.0829 31.1653C4.69357 31.7394 4.5165 32.4313 4.58214 33.1219C4.64778 33.8124 4.95202 34.4586 5.44254 34.9491C5.93306 35.4396 6.57919 35.7439 7.26977 35.8095C7.96036 35.8751 8.65223 35.6981 9.22638 35.3087C9.80052 34.9194 10.221 34.3422 10.4156 33.6763C10.6102 33.0105 10.5666 32.2976 10.2924 31.6604L13.7661 28.1873C14.2599 28.5084 14.8069 28.7391 15.3815 28.8686V34.5854C14.5126 34.85 13.7676 35.418 13.2823 36.1858C12.797 36.9536 12.6036 37.8702 12.7374 38.7686C12.8712 39.6671 13.3233 40.4875 14.0112 41.0806C14.6992 41.6737 15.5773 42 16.4856 42C17.394 42 18.2721 41.6737 18.96 41.0806C19.648 40.4875 20.1 39.6671 20.2338 38.7686C20.3676 37.8702 20.1743 36.9536 19.689 36.1858C19.2037 35.418 18.4587 34.85 17.5898 34.5854V28.8686C18.1199 28.7493 18.6269 28.5436 19.0903 28.2598L22.584 31.7565C22.3101 32.3936 22.2667 33.1063 22.4615 33.7719C22.6562 34.4375 23.0767 35.0145 23.6508 35.4036C24.225 35.7927 24.9167 35.9695 25.6071 35.9037C26.2975 35.838 26.9434 35.5337 27.4337 35.0432C27.924 34.5527 28.228 33.9067 28.2936 33.2162C28.3591 32.5258 28.182 31.8342 27.7927 31.2602C27.4034 30.6862 26.8262 30.2659 26.1605 30.0714C25.4948 29.877 24.7822 29.9205 24.1451 30.1947L20.6721 26.7216C20.994 26.2281 21.2251 25.681 21.3546 25.1062H25.5319C25.736 25.7778 26.1227 26.3796 26.6488 26.8443C27.175 27.309 27.8198 27.6185 28.5115 27.7382C29.2032 27.8579 29.9145 27.7831 30.5662 27.5221C31.2179 27.2612 31.7843 26.8244 32.2022 26.2604C32.6202 25.6965 32.8733 25.0275 32.9333 24.3281C32.9933 23.6287 32.8579 22.9263 32.5421 22.2994C32.2263 21.6725 31.7426 21.1456 31.1449 20.7775C30.5472 20.4093 29.859 20.2145 29.157 20.2146V20.2116Z" fill="#02855B"/>
<path d="M16.4859 26.9498C18.1143 26.9498 19.4344 25.6297 19.4344 24.0013C19.4344 22.3728 18.1143 21.0527 16.4859 21.0527C14.8575 21.0527 13.5374 22.3728 13.5374 24.0013C13.5374 25.6297 14.8575 26.9498 16.4859 26.9498Z" fill="white"/>
<path d="M16.4858 11.4604C17.4079 11.4604 18.1554 10.7128 18.1554 9.79073C18.1554 8.86861 17.4079 8.12109 16.4858 8.12109C15.5637 8.12109 14.8162 8.86861 14.8162 9.79073C14.8162 10.7128 15.5637 11.4604 16.4858 11.4604Z" fill="white"/>
<path d="M7.64751 15.8497C8.08008 15.8497 8.43076 15.499 8.43076 15.0665C8.43076 14.6339 8.08008 14.2832 7.64751 14.2832C7.21493 14.2832 6.86426 14.6339 6.86426 15.0665C6.86426 15.499 7.21493 15.8497 7.64751 15.8497Z" fill="white"/>
<path d="M7.55302 33.6231C7.9856 33.6231 8.33627 33.2725 8.33627 32.8399C8.33627 32.4073 7.9856 32.0566 7.55302 32.0566C7.12045 32.0566 6.76978 32.4073 6.76978 32.8399C6.76978 33.2725 7.12045 33.6231 7.55302 33.6231Z" fill="white"/>
<path d="M25.3245 33.7169C25.7571 33.7169 26.1078 33.3662 26.1078 32.9336C26.1078 32.5011 25.7571 32.1504 25.3245 32.1504C24.8919 32.1504 24.5413 32.5011 24.5413 32.9336C24.5413 33.3662 24.8919 33.7169 25.3245 33.7169Z" fill="white"/>
<path d="M25.419 15.9454C25.8516 15.9454 26.2022 15.5947 26.2022 15.1622C26.2022 14.7296 25.8516 14.3789 25.419 14.3789C24.9864 14.3789 24.6357 14.7296 24.6357 15.1622C24.6357 15.5947 24.9864 15.9454 25.419 15.9454Z" fill="white"/>
<path d="M3.7878 25.6703C4.70991 25.6703 5.45743 24.9228 5.45743 24.0007C5.45743 23.0786 4.70991 22.3311 3.7878 22.3311C2.86569 22.3311 2.11816 23.0786 2.11816 24.0007C2.11816 24.9228 2.86569 25.6703 3.7878 25.6703Z" fill="white"/>
<path d="M16.4858 39.8803C17.4079 39.8803 18.1554 39.1328 18.1554 38.2107C18.1554 37.2885 17.4079 36.541 16.4858 36.541C15.5637 36.541 14.8162 37.2885 14.8162 38.2107C14.8162 39.1328 15.5637 39.8803 16.4858 39.8803Z" fill="white"/>
<path d="M29.1574 25.6703C30.0795 25.6703 30.8271 24.9228 30.8271 24.0007C30.8271 23.0786 30.0795 22.3311 29.1574 22.3311C28.2353 22.3311 27.4878 23.0786 27.4878 24.0007C27.4878 24.9228 28.2353 25.6703 29.1574 25.6703Z" fill="white"/>
<path d="M39.7398 19.6094V17.9091H49.8712V19.6094H45.7867V31H43.8179V19.6094H39.7398ZM53.4779 31.2173C52.8557 31.2173 52.2932 31.1023 51.7904 30.8722C51.2876 30.6378 50.8891 30.299 50.5951 29.8558C50.3053 29.4126 50.1604 28.8693 50.1604 28.2259C50.1604 27.6719 50.267 27.2159 50.48 26.858C50.6931 26.5 50.9807 26.2166 51.3429 26.0078C51.7052 25.799 52.11 25.6413 52.5574 25.5348C53.0049 25.4283 53.4608 25.3473 53.9253 25.2919C54.5134 25.2237 54.9907 25.1683 55.3572 25.1257C55.7236 25.0788 55.99 25.0043 56.1562 24.902C56.3224 24.7997 56.4054 24.6335 56.4054 24.4034V24.3587C56.4054 23.8004 56.2478 23.3679 55.9324 23.0611C55.6214 22.7543 55.1569 22.6009 54.539 22.6009C53.8955 22.6009 53.3884 22.7436 53.0177 23.0291C52.6512 23.3104 52.3976 23.6236 52.257 23.9688L50.4608 23.5597C50.6739 22.9631 50.985 22.4815 51.3941 22.1151C51.8074 21.7443 52.2826 21.4759 52.8195 21.3097C53.3564 21.1392 53.9211 21.054 54.5134 21.054C54.9054 21.054 55.3209 21.1009 55.7599 21.1946C56.203 21.2841 56.6164 21.4503 56.9999 21.6932C57.3877 21.9361 57.7052 22.2834 57.9523 22.7351C58.1995 23.1825 58.3231 23.7642 58.3231 24.4801V31H56.4566V29.6577H56.3799C56.2563 29.9048 56.0709 30.1477 55.8238 30.3864C55.5766 30.625 55.2591 30.8232 54.8714 30.9808C54.4836 31.1385 54.0191 31.2173 53.4779 31.2173ZM53.8934 29.6832C54.4218 29.6832 54.8735 29.5788 55.2485 29.37C55.6277 29.1612 55.9154 28.8885 56.1114 28.5518C56.3117 28.2109 56.4118 27.8466 56.4118 27.4588V26.1932C56.3437 26.2614 56.2116 26.3253 56.0155 26.3849C55.8238 26.4403 55.6043 26.4893 55.3572 26.532C55.11 26.5703 54.8692 26.6065 54.6349 26.6406C54.4005 26.6705 54.2045 26.696 54.0468 26.7173C53.676 26.7642 53.3373 26.843 53.0304 26.9538C52.7279 27.0646 52.485 27.2244 52.3018 27.4332C52.1228 27.6378 52.0333 27.9105 52.0333 28.2514C52.0333 28.7244 52.208 29.0824 52.5574 29.3253C52.9069 29.5639 53.3522 29.6832 53.8934 29.6832ZM68.2259 23.5788L66.4937 23.8857C66.4213 23.6641 66.3062 23.4531 66.1485 23.2528C65.9951 23.0526 65.7863 22.8885 65.5221 22.7607C65.2579 22.6328 64.9276 22.5689 64.5313 22.5689C63.9901 22.5689 63.5384 22.6903 63.1762 22.9332C62.814 23.1719 62.6329 23.4808 62.6329 23.8601C62.6329 24.1882 62.7543 24.4524 62.9972 24.6527C63.2401 24.853 63.6322 25.017 64.1734 25.1449L65.733 25.5028C66.6365 25.7116 67.3097 26.0334 67.7529 26.468C68.1961 26.9027 68.4177 27.4673 68.4177 28.1619C68.4177 28.75 68.2472 29.2741 67.9063 29.7344C67.5697 30.1903 67.0988 30.5483 66.4937 30.8082C65.8928 31.0682 65.1961 31.1982 64.4035 31.1982C63.3041 31.1982 62.407 30.9638 61.7124 30.495C61.0178 30.022 60.5917 29.3509 60.434 28.4815L62.2813 28.2003C62.3964 28.6818 62.6329 29.0462 62.9909 29.2933C63.3488 29.5362 63.8154 29.6577 64.3907 29.6577C65.0171 29.6577 65.5178 29.5277 65.8928 29.2678C66.2678 29.0036 66.4553 28.6818 66.4553 28.3026C66.4553 27.9957 66.3403 27.7379 66.1102 27.5291C65.8843 27.3203 65.537 27.1626 65.0683 27.0561L63.4063 26.6918C62.4901 26.483 61.8126 26.1506 61.3737 25.6946C60.939 25.2386 60.7217 24.6612 60.7217 23.9624C60.7217 23.3828 60.8836 22.8757 61.2075 22.4411C61.5313 22.0064 61.9788 21.6676 62.5498 21.4247C63.1208 21.1776 63.7749 21.054 64.5122 21.054C65.5732 21.054 66.4085 21.2841 67.0178 21.7443C67.6272 22.2003 68.0299 22.8118 68.2259 23.5788ZM72.2769 27.6697L72.2641 25.3366H72.5965L76.5084 21.1818H78.7968L74.3351 25.9119H74.0347L72.2769 27.6697ZM70.5191 31V17.9091H72.4303V31H70.5191ZM76.7194 31L73.2037 26.3338L74.5205 24.9979L79.0653 31H76.7194ZM80.5386 31V21.1818H82.4498V31H80.5386ZM81.5038 19.6669C81.1714 19.6669 80.8859 19.5561 80.6473 19.3345C80.4129 19.1087 80.2957 18.8402 80.2957 18.5291C80.2957 18.2138 80.4129 17.9453 80.6473 17.7237C80.8859 17.4979 81.1714 17.3849 81.5038 17.3849C81.8362 17.3849 82.1196 17.4979 82.354 17.7237C82.5926 17.9453 82.7119 18.2138 82.7119 18.5291C82.7119 18.8402 82.5926 19.1087 82.354 19.3345C82.1196 19.5561 81.8362 19.6669 81.5038 19.6669ZM86.9323 25.1705V31H85.021V21.1818H86.8556V22.7798H86.977C87.2029 22.2599 87.5565 21.8423 88.0381 21.527C88.5239 21.2116 89.1354 21.054 89.8726 21.054C90.5416 21.054 91.1276 21.1946 91.6304 21.4759C92.1333 21.7528 92.5232 22.1662 92.8002 22.7159C93.0771 23.2656 93.2156 23.9453 93.2156 24.755V31H91.3044V24.9851C91.3044 24.2734 91.119 23.7173 90.7483 23.3168C90.3776 22.9119 89.8683 22.7095 89.2206 22.7095C88.7774 22.7095 88.3833 22.8054 88.0381 22.9972C87.6972 23.1889 87.4266 23.4702 87.2263 23.8409C87.0303 24.2074 86.9323 24.6506 86.9323 25.1705ZM99.8953 34.8864C99.1155 34.8864 98.4443 34.7841 97.8818 34.5795C97.3236 34.375 96.8676 34.1044 96.5139 33.7678C96.1602 33.4311 95.896 33.0625 95.7213 32.6619L97.3641 31.9844C97.4791 32.1719 97.6325 32.37 97.8243 32.5788C98.0203 32.7919 98.2845 32.973 98.6169 33.1222C98.9536 33.2713 99.3861 33.3459 99.9145 33.3459C100.639 33.3459 101.238 33.169 101.711 32.8153C102.184 32.4659 102.42 31.9077 102.42 31.1406V29.2102H102.299C102.184 29.419 102.017 29.6513 101.8 29.907C101.587 30.1626 101.293 30.3842 100.918 30.5717C100.543 30.7592 100.055 30.853 99.4543 30.853C98.6787 30.853 97.9798 30.6719 97.3577 30.3097C96.7398 29.9432 96.2497 29.4041 95.8875 28.6925C95.5296 27.9766 95.3506 27.0966 95.3506 26.0526C95.3506 25.0085 95.5274 24.1136 95.8811 23.3679C96.2391 22.6222 96.7291 22.0511 97.3513 21.6548C97.9735 21.2543 98.6787 21.054 99.4671 21.054C100.076 21.054 100.569 21.1562 100.944 21.3608C101.319 21.5611 101.611 21.7955 101.819 22.0639C102.032 22.3324 102.196 22.5689 102.312 22.7734H102.452V21.1818H104.325V31.2173C104.325 32.0611 104.129 32.7536 103.737 33.2947C103.345 33.8359 102.814 34.2365 102.145 34.4964C101.481 34.7564 100.731 34.8864 99.8953 34.8864ZM99.8762 29.2678C100.426 29.2678 100.89 29.1399 101.27 28.8842C101.653 28.6243 101.943 28.2536 102.139 27.772C102.339 27.2862 102.439 26.7045 102.439 26.027C102.439 25.3665 102.341 24.7848 102.145 24.282C101.949 23.7791 101.662 23.3871 101.282 23.1058C100.903 22.8203 100.434 22.6776 99.8762 22.6776C99.3009 22.6776 98.8215 22.8267 98.4379 23.125C98.0544 23.419 97.7646 23.8196 97.5686 24.3267C97.3769 24.8338 97.281 25.4006 97.281 26.027C97.281 26.6705 97.379 27.2351 97.575 27.7209C97.771 28.2067 98.0608 28.5859 98.4443 28.8587C98.8321 29.1314 99.3094 29.2678 99.8762 29.2678ZM108.147 31.1214C107.798 31.1214 107.498 30.9979 107.246 30.7507C106.995 30.4993 106.869 30.1967 106.869 29.843C106.869 29.4936 106.995 29.1953 107.246 28.9482C107.498 28.6967 107.798 28.571 108.147 28.571C108.497 28.571 108.797 28.6967 109.049 28.9482C109.3 29.1953 109.426 29.4936 109.426 29.843C109.426 30.0774 109.366 30.2926 109.247 30.4886C109.132 30.6804 108.978 30.8338 108.787 30.9489C108.595 31.0639 108.382 31.1214 108.147 31.1214ZM113.245 31H111.149L115.859 17.9091H118.141L122.852 31H120.756L117.055 20.2869H116.953L113.245 31ZM113.597 25.8736H120.398V27.5355H113.597V25.8736ZM126.718 17.9091V31H124.743V17.9091H126.718Z" fill="#2B2B2B"/>
</svg>
