<svg width="14" height="14" viewBox="0 0 14 14" fill="none" xmlns="http://www.w3.org/2000/svg">
<path d="M2.489 4.2778C3.00446 4.2778 3.42233 3.85993 3.42233 3.34447C3.42233 2.829 3.00446 2.41113 2.489 2.41113C1.97353 2.41113 1.55566 2.829 1.55566 3.34447C1.55566 3.85993 1.97353 4.2778 2.489 4.2778Z" stroke="#777777" stroke-width="1.01111" stroke-miterlimit="10" stroke-linecap="round" stroke-linejoin="round"/>
<path d="M2.489 7.93356C3.00446 7.93356 3.42233 7.51569 3.42233 7.00023C3.42233 6.48476 3.00446 6.06689 2.489 6.06689C1.97353 6.06689 1.55566 6.48476 1.55566 7.00023C1.55566 7.51569 1.97353 7.93356 2.489 7.93356Z" stroke="#777777" stroke-width="1.01111" stroke-miterlimit="10" stroke-linecap="round" stroke-linejoin="round"/>
<path d="M2.489 11.5888C3.00446 11.5888 3.42233 11.171 3.42233 10.6555C3.42233 10.14 3.00446 9.72217 2.489 9.72217C1.97353 9.72217 1.55566 10.14 1.55566 10.6555C1.55566 11.171 1.97353 11.5888 2.489 11.5888Z" stroke="#777777" stroke-width="1.01111" stroke-miterlimit="10" stroke-linecap="round" stroke-linejoin="round"/>
<path d="M3.5 3.34473H4.35556C4.97778 3.34473 5.44444 3.81139 5.44444 4.35584C5.44444 4.90028 5.91111 5.36695 6.45556 5.36695H7.46667" stroke="#777777" stroke-width="1.01111" stroke-miterlimit="10" stroke-linecap="round" stroke-linejoin="round"/>
<path d="M3.5 10.7336H4.35556C4.9 10.7336 5.36667 10.267 5.36667 9.72254C5.36667 9.17809 5.83333 8.71143 6.37778 8.71143H7.38889" stroke="#777777" stroke-width="1.01111" stroke-miterlimit="10" stroke-linecap="round" stroke-linejoin="round"/>
<path d="M3.5 7.00049H7.46667" stroke="#777777" stroke-width="1.01111" stroke-miterlimit="10" stroke-linecap="round" stroke-linejoin="round"/>
<path d="M9.80013 4.19971H7.4668V9.87748H9.80013V4.19971Z" stroke="#777777" stroke-width="1.01111" stroke-miterlimit="10" stroke-linecap="round" stroke-linejoin="round"/>
<path d="M9.80005 7.07764H11.2778" stroke="#777777" stroke-width="1.01111" stroke-miterlimit="10" stroke-linecap="round" stroke-linejoin="round"/>
<path d="M12.4446 7.07772L11.5112 6.22217V7.8555L12.4446 7.07772Z" stroke="#777777" stroke-width="1.01111" stroke-miterlimit="10" stroke-linecap="round" stroke-linejoin="round"/>
</svg>
