<svg width="18" height="18" viewBox="0 0 18 18" fill="none" xmlns="http://www.w3.org/2000/svg">
<path d="M13.7689 16.4902H4.33878C3.53376 16.4902 2.84375 15.8002 2.84375 14.9952V3.49503C2.84375 2.69001 3.53376 2 4.33878 2H13.7689C14.574 2 15.264 2.69001 15.264 3.49503V14.9952C15.149 15.8002 14.574 16.4902 13.7689 16.4902Z" stroke="#777777" stroke-width="1.3" stroke-miterlimit="10" stroke-linecap="round" stroke-linejoin="round"/>
<path d="M5.37109 4.99005H6.29111" stroke="#777777" stroke-width="1.3" stroke-miterlimit="10" stroke-linecap="round" stroke-linejoin="round"/>
<path d="M8.59375 4.99005H9.51376" stroke="#777777" stroke-width="1.3" stroke-miterlimit="10" stroke-linecap="round" stroke-linejoin="round"/>
<path d="M11.8125 4.99005H12.7325" stroke="#777777" stroke-width="1.3" stroke-miterlimit="10" stroke-linecap="round" stroke-linejoin="round"/>
<path d="M10.6592 9.93512H10.1992V11.7752H10.6592C11.2342 11.7752 11.5792 11.3151 11.5792 10.8551C11.5792 10.2801 11.2342 9.93512 10.6592 9.93512Z" fill="#4094DD"/>
<path d="M15.8353 7.63507H2.26502C1.57501 7.63507 1 8.21008 1 8.90009V12.8102C1 13.5002 1.57501 14.0752 2.26502 14.0752H15.7203C16.4103 14.0752 16.9853 13.5002 16.9853 12.8102V8.90009C17.1003 8.21008 16.5253 7.63507 15.8353 7.63507ZM8.93513 12.3502H8.24512V10.9701V10.3951L7.55511 11.6601H7.21011L6.40509 10.3951V10.9701V12.3502H5.83008V9.2451H6.52009L7.44011 10.7401L8.24512 9.2451H8.93513V12.3502ZM10.6602 12.3502H10.2002H9.51015V9.2451H10.2002H10.6602C11.5802 9.2451 12.2702 9.93511 12.2702 10.7401C12.2702 11.6601 11.5802 12.3502 10.6602 12.3502Z" fill="#4094DD"/>
</svg>
