<svg width="18" height="19" viewBox="0 0 18 19" fill="none" xmlns="http://www.w3.org/2000/svg">
<path d="M3.4 2.91992C3.4 2.91992 2 4.73992 2 9.68992C2 14.6399 3.4 16.0699 3.4 16.0699" stroke="#8F8F8F" stroke-width="1.3" stroke-linecap="round" stroke-linejoin="round"/>
<path d="M14.6001 2.91992C14.6001 2.91992 16.0001 4.73992 16.0001 9.68992C16.0001 14.6399 14.6001 16.0699 14.6001 16.0699" stroke="#8F8F8F" stroke-width="1.3" stroke-linecap="round" stroke-linejoin="round"/>
<path d="M5.81006 6.08984C7.18006 6.08984 7.94006 6.29984 8.32006 7.41984C8.70006 8.53984 8.94006 11.4698 10.0501 12.2698C11.0601 12.9998 12.1201 12.9098 12.1201 12.9098" stroke="#8F8F8F" stroke-width="1.3" stroke-linecap="round" stroke-linejoin="round"/>
<path d="M13.21 6.08984C12.71 6.08984 11.81 6.27984 10.93 7.15984C10.05 8.03984 8.14004 11.5698 6.72004 12.3698C5.69004 12.9598 4.79004 12.9098 4.79004 12.9098" stroke="#8F8F8F" stroke-width="1.3" stroke-linecap="round" stroke-linejoin="round"/>
</svg>
