<svg width="18" height="18" viewBox="0 0 18 18" fill="none" xmlns="http://www.w3.org/2000/svg">
<path d="M2.80078 6.70078L3.90078 7.70078C4.00078 7.70078 4.10078 7.80078 4.10078 7.90078C4.70078 8.60078 4.70078 9.80078 3.90078 10.4008L2.80078 11.4008C3.00078 12.0008 3.40078 12.7008 3.90078 13.2008L5.30078 12.7008C5.40078 12.7008 5.50078 12.6008 5.60078 12.6008C6.60078 12.4008 7.50078 13.1008 7.70078 14.0008L8.00078 15.5008C8.40078 15.6008 8.70078 15.6008 9.10078 15.6008C9.50078 15.6008 9.80078 15.6008 10.2008 15.5008L10.5008 14.0008C10.5008 13.9008 10.5008 13.8008 10.6008 13.7008C10.9008 12.8008 12.0008 12.3008 12.9008 12.6008L14.3008 13.1008C14.8008 12.5008 15.1008 11.9008 15.4008 11.2008L14.3008 10.2008C14.2008 10.1008 14.2008 10.1008 14.1008 10.0008C13.5008 9.30078 13.6008 8.10078 14.3008 7.50078L15.4008 6.50078C15.0008 6.00078 14.6008 5.30078 14.1008 4.70078L12.7008 5.20078C12.6008 5.20078 12.5008 5.30078 12.4008 5.30078C11.4008 5.50078 10.5008 4.90078 10.3008 3.90078L10.0008 2.40078C9.70078 2.40078 9.40078 2.30078 9.00078 2.30078C8.60078 2.30078 8.30078 2.30078 7.90078 2.40078L7.60078 3.90078C7.60078 4.00078 7.60078 4.10078 7.50078 4.20078C7.20078 5.10078 6.20078 5.60078 5.30078 5.30078L3.90078 4.80078C3.40078 5.30078 3.00078 6.00078 2.80078 6.70078Z" stroke="#2B2B2B" stroke-width="1.3" stroke-linecap="round" stroke-linejoin="round"/>
<path d="M6.90039 9.00039C6.90039 10.1004 7.80039 11.1004 9.00039 11.1004C10.1004 11.1004 11.1004 10.2004 11.1004 9.00039C11.1004 7.80039 10.2004 6.90039 9.00039 6.90039C7.90039 6.90039 6.90039 7.90039 6.90039 9.00039Z" stroke="#2B2B2B" stroke-width="1.3" stroke-linecap="round" stroke-linejoin="round"/>
</svg>
