<svg width="18" height="18" viewBox="0 0 18 18" fill="none" xmlns="http://www.w3.org/2000/svg">
<g clip-path="url(#clip0_1506_2600)">
<path d="M16.7122 7.36581C16.9135 6.75971 16.9831 6.11765 16.9164 5.48251C16.8497 4.84737 16.6482 4.23377 16.3254 3.68271C15.8469 2.84978 15.1162 2.19032 14.2387 1.79942C13.3613 1.40853 12.3823 1.30638 11.4431 1.50771C10.9094 0.914128 10.229 0.47141 9.47016 0.224016C8.71129 -0.0233788 7.90068 -0.0667387 7.11975 0.0982905C6.33882 0.26332 5.61506 0.630928 5.02116 1.16419C4.42726 1.69746 3.98414 2.37761 3.73629 3.13633C3.11054 3.26465 2.51938 3.52505 2.00233 3.90013C1.48528 4.27521 1.05424 4.75632 0.738015 5.31133C0.254291 6.14287 0.0475507 7.10671 0.147683 8.06349C0.247815 9.02026 0.649632 9.92041 1.29504 10.6338C1.09304 11.2396 1.02273 11.8815 1.08883 12.5167C1.15492 13.1519 1.35589 13.7656 1.67829 14.3168C2.15742 15.15 2.88873 15.8096 3.76682 16.2005C4.64492 16.5914 5.62444 16.6935 6.56424 16.4919C6.98819 16.9693 7.50911 17.3508 8.09222 17.6108C8.67533 17.8709 9.30722 18.0036 9.94569 18C10.9084 18.0009 11.8465 17.6958 12.6246 17.1288C13.4027 16.5619 13.9804 15.7623 14.2745 14.8456C14.9002 14.7171 15.4913 14.4566 16.0083 14.0815C16.5253 13.7065 16.9564 13.2254 17.2728 12.6706C17.7508 11.8402 17.954 10.88 17.8533 9.92724C17.7526 8.97447 17.3532 8.07786 16.7122 7.36581ZM9.94569 16.8219C9.15723 16.8231 8.39349 16.5468 7.78839 16.0413L7.89482 15.981L11.4785 13.9123C11.5677 13.86 11.6418 13.7854 11.6934 13.6958C11.7451 13.6062 11.7725 13.5048 11.7731 13.4014V8.34868L13.2881 9.22513C13.2956 9.22892 13.302 9.23444 13.307 9.24121C13.3119 9.24799 13.3152 9.25584 13.3166 9.26413V13.4511C13.3147 14.3445 12.9589 15.2008 12.3272 15.8325C11.6954 16.4643 10.8391 16.82 9.94569 16.8219ZM2.70017 13.7278C2.30474 13.045 2.16277 12.2447 2.29921 11.4676L2.40571 11.5315L5.99297 13.6001C6.08173 13.6522 6.18278 13.6796 6.28569 13.6796C6.3886 13.6796 6.48965 13.6522 6.57841 13.6001L10.9605 11.0737V12.823C10.9601 12.8321 10.9577 12.841 10.9533 12.8489C10.949 12.8569 10.943 12.8638 10.9356 12.8692L7.30577 14.9626C6.53111 15.4089 5.61103 15.5295 4.74752 15.298C3.88402 15.0665 3.14768 14.5018 2.70017 13.7278ZM1.75637 5.92168C2.15453 5.23451 2.78299 4.71038 3.53049 4.44208V8.69998C3.52914 8.80285 3.55542 8.90419 3.6066 8.99344C3.65777 9.08268 3.73196 9.15656 3.82141 9.20736L8.18221 11.7231L6.66714 12.5995C6.65894 12.6038 6.6498 12.6061 6.64052 12.6061C6.63123 12.6061 6.62209 12.6038 6.61389 12.5995L2.99116 10.5096C2.21796 10.0614 1.65388 9.32506 1.42244 8.46184C1.191 7.59862 1.31108 6.67886 1.75637 5.90398V5.92168ZM14.2036 8.81353L9.82862 6.27298L11.3402 5.39998C11.3484 5.39563 11.3575 5.39335 11.3668 5.39335C11.3761 5.39335 11.3852 5.39563 11.3934 5.39998L15.0161 7.49346C15.5701 7.81307 16.0216 8.28366 16.3181 8.85029C16.6146 9.41691 16.7438 10.0562 16.6906 10.6935C16.6374 11.3308 16.404 11.9398 16.0177 12.4494C15.6313 12.959 15.108 13.3483 14.5088 13.5716V9.31371C14.5056 9.21101 14.4758 9.1109 14.4223 9.0232C14.3688 8.9355 14.2935 8.86329 14.2036 8.81353ZM15.7116 6.54621L15.6051 6.48231L12.025 4.39596C11.9357 4.34355 11.834 4.31592 11.7305 4.31592C11.6269 4.31592 11.5252 4.34355 11.4359 4.39596L7.05752 6.92226V5.17303C7.05658 5.16414 7.05807 5.15516 7.06182 5.14704C7.06557 5.13892 7.07144 5.13196 7.07882 5.12691L10.7015 3.03696C11.2568 2.71709 11.8916 2.56193 12.5318 2.58962C13.172 2.61731 13.791 2.82671 14.3166 3.19332C14.8421 3.55993 15.2524 4.0686 15.4995 4.65983C15.7465 5.25106 15.8201 5.90042 15.7117 6.53196L15.7116 6.54621ZM6.23064 9.64723L4.71564 8.77438C4.70806 8.76982 4.70158 8.76364 4.69665 8.75629C4.69173 8.74894 4.68848 8.7406 4.68714 8.73186V4.55563C4.68797 3.91496 4.87118 3.28777 5.21533 2.74738C5.55948 2.20699 6.05036 1.77575 6.63057 1.50406C7.21078 1.23237 7.85635 1.13148 8.49179 1.21317C9.12723 1.29485 9.72629 1.55575 10.2189 1.96536L10.1124 2.02573L6.52877 4.09423C6.43957 4.14654 6.36552 4.22116 6.31388 4.31074C6.26224 4.40033 6.2348 4.50181 6.23424 4.60521L6.23064 9.64723ZM7.05384 7.87318L9.00534 6.74833L10.9605 7.87318V10.1227L9.01247 11.2475L7.05744 10.1227L7.05384 7.87318Z" fill="black"/>
</g>
<defs>
<clipPath id="clip0_1506_2600">
<rect width="18" height="18" fill="white"/>
</clipPath>
</defs>
</svg>
