<svg width="18" height="18" viewBox="0 0 18 18" fill="none" xmlns="http://www.w3.org/2000/svg">
<path d="M3.82006 7.02C4.37787 7.02 4.83006 6.56781 4.83006 6.01C4.83006 5.45219 4.37787 5 3.82006 5C3.26225 5 2.81006 5.45219 2.81006 6.01C2.81006 6.56781 3.26225 7.02 3.82006 7.02Z" stroke="#BEBEBE" stroke-width="1.06" stroke-linecap="round" stroke-linejoin="round"/>
<path d="M3.82006 13.0102C4.37787 13.0102 4.83006 12.558 4.83006 12.0002C4.83006 11.4424 4.37787 10.9902 3.82006 10.9902C3.26225 10.9902 2.81006 11.4424 2.81006 12.0002C2.81006 12.558 3.26225 13.0102 3.82006 13.0102Z" stroke="#BEBEBE" stroke-width="1.06" stroke-linecap="round" stroke-linejoin="round"/>
<path d="M9.02001 16.0005C9.57782 16.0005 10.03 15.5483 10.03 14.9905C10.03 14.4327 9.57782 13.9805 9.02001 13.9805C8.4622 13.9805 8.01001 14.4327 8.01001 14.9905C8.01001 15.5483 8.4622 16.0005 9.02001 16.0005Z" stroke="#BEBEBE" stroke-width="1.06" stroke-linecap="round" stroke-linejoin="round"/>
<path d="M9.02001 10.0102C9.57782 10.0102 10.03 9.55804 10.03 9.00023C10.03 8.44243 9.57782 7.99023 9.02001 7.99023C8.4622 7.99023 8.01001 8.44243 8.01001 9.00023C8.01001 9.55804 8.4622 10.0102 9.02001 10.0102Z" stroke="#BEBEBE" stroke-width="1.06" stroke-linecap="round" stroke-linejoin="round"/>
<path d="M9.02001 4.02C9.57782 4.02 10.03 3.56781 10.03 3.01C10.03 2.45219 9.57782 2 9.02001 2C8.4622 2 8.01001 2.45219 8.01001 3.01C8.01001 3.56781 8.4622 4.02 9.02001 4.02Z" stroke="#BEBEBE" stroke-width="1.06" stroke-linecap="round" stroke-linejoin="round"/>
<path d="M14.1802 7.02C14.738 7.02 15.1902 6.56781 15.1902 6.01C15.1902 5.45219 14.738 5 14.1802 5C13.6224 5 13.1702 5.45219 13.1702 6.01C13.1702 6.56781 13.6224 7.02 14.1802 7.02Z" stroke="#BEBEBE" stroke-width="1.06" stroke-linecap="round" stroke-linejoin="round"/>
<path d="M14.1802 13.0102C14.738 13.0102 15.1902 12.558 15.1902 12.0002C15.1902 11.4424 14.738 10.9902 14.1802 10.9902C13.6224 10.9902 13.1702 11.4424 13.1702 12.0002C13.1702 12.558 13.6224 13.0102 14.1802 13.0102Z" stroke="#BEBEBE" stroke-width="1.06" stroke-linecap="round" stroke-linejoin="round"/>
<path d="M5.54004 5.02027L7.25004 4.03027" stroke="#BEBEBE" stroke-width="1.06" stroke-linecap="round" stroke-linejoin="round"/>
<path d="M7.25004 8.23023L5.54004 7.24023" stroke="#BEBEBE" stroke-width="1.06" stroke-linecap="round" stroke-linejoin="round"/>
<path d="M5.54004 10.9998L7.25004 10.0098" stroke="#BEBEBE" stroke-width="1.06" stroke-linecap="round" stroke-linejoin="round"/>
<path d="M7.25004 14.2205L5.54004 13.2305" stroke="#BEBEBE" stroke-width="1.06" stroke-linecap="round" stroke-linejoin="round"/>
<path d="M12.5701 5.02027L10.8501 4.03027" stroke="#BEBEBE" stroke-width="1.06" stroke-linecap="round" stroke-linejoin="round"/>
<path d="M10.8501 8.23023L12.5701 7.24023" stroke="#BEBEBE" stroke-width="1.06" stroke-linecap="round" stroke-linejoin="round"/>
<path d="M12.5701 10.9998L10.8501 10.0098" stroke="#BEBEBE" stroke-width="1.06" stroke-linecap="round" stroke-linejoin="round"/>
<path d="M10.8501 14.2205L12.5701 13.2305" stroke="#BEBEBE" stroke-width="1.06" stroke-linecap="round" stroke-linejoin="round"/>
</svg>
