<svg width="32" height="32" viewBox="0 0 32 32" fill="none" xmlns="http://www.w3.org/2000/svg">
<path d="M0.5 6C0.5 2.96243 2.96243 0.5 6 0.5H26C29.0376 0.5 31.5 2.96243 31.5 6V26C31.5 29.0376 29.0376 31.5 26 31.5H6C2.96243 31.5 0.5 29.0376 0.5 26V6Z" fill="#FAFAFA"/>
<path d="M0.5 6C0.5 2.96243 2.96243 0.5 6 0.5H26C29.0376 0.5 31.5 2.96243 31.5 6V26C31.5 29.0376 29.0376 31.5 26 31.5H6C2.96243 31.5 0.5 29.0376 0.5 26V6Z" stroke="#E4E4E4"/>
<path d="M15.6337 16.6107L9.27815 13.6774C8.78926 13.5551 8.54481 13.0663 8.78926 12.5774C8.78926 12.3329 9.0337 12.2107 9.27815 12.0885L15.6337 9.15514C15.8781 9.03292 16.1226 9.03292 16.367 9.15514L22.8448 12.0885C23.3337 12.2107 23.4559 12.6996 23.3337 13.1885C23.2115 13.4329 23.0893 13.5551 22.8448 13.6774L16.367 16.6107C16.1226 16.7329 15.8781 16.7329 15.6337 16.6107Z" stroke="#087443" stroke-width="1.3" stroke-linecap="round" stroke-linejoin="round"/>
<path d="M17.8338 16L22.7227 18.2C23.2116 18.3222 23.3338 18.8111 23.2116 19.3C23.0894 19.5444 22.9671 19.6667 22.7227 19.7889L16.2449 22.7222C16.0005 22.8444 15.756 22.8444 15.5116 22.7222L9.15602 19.7889C8.66713 19.6667 8.54491 19.1778 8.66713 18.6889C8.78935 18.4444 8.91157 18.3222 9.15602 18.2L14.0449 16" stroke="#087443" stroke-width="1.3" stroke-linecap="round" stroke-linejoin="round"/>
</svg>
