<svg width="18" height="18" viewBox="0 0 18 18" fill="none" xmlns="http://www.w3.org/2000/svg">
<g id="Property 1=Model">
<path id="Vector" d="M16.5786 10.7549L13.32 8.99986L16.5786 7.24486C16.6679 7.19666 16.7425 7.1252 16.7945 7.03806C16.8465 6.95092 16.8739 6.85133 16.8739 6.74986C16.8739 6.64838 16.8465 6.5488 16.7945 6.46166C16.7425 6.37451 16.6679 6.30306 16.5786 6.25486L9.26608 2.31736C9.18416 2.27315 9.09254 2.25 8.99945 2.25C8.90637 2.25 8.81474 2.27315 8.73283 2.31736L1.42033 6.25486C1.33103 6.30306 1.25643 6.37451 1.20444 6.46166C1.15245 6.5488 1.125 6.64838 1.125 6.74986C1.125 6.85133 1.15245 6.95092 1.20444 7.03806C1.25643 7.1252 1.33103 7.19666 1.42033 7.24486L4.67889 8.99986L1.42033 10.7549C1.33103 10.8031 1.25643 10.8745 1.20444 10.9617C1.15245 11.0488 1.125 11.1484 1.125 11.2499C1.125 11.3513 1.15245 11.4509 1.20444 11.5381C1.25643 11.6252 1.33103 11.6967 1.42033 11.7449L8.73283 15.6824C8.81477 15.7265 8.90639 15.7496 8.99945 15.7496C9.09252 15.7496 9.18413 15.7265 9.26608 15.6824L16.5786 11.7449C16.6679 11.6967 16.7425 11.6252 16.7945 11.5381C16.8465 11.4509 16.8739 11.3513 16.8739 11.2499C16.8739 11.1484 16.8465 11.0488 16.7945 10.9617C16.7425 10.8745 16.6679 10.8031 16.5786 10.7549ZM8.99945 3.45136L15.1251 6.74986L8.99945 10.0484L2.87383 6.74986L8.99945 3.45136ZM8.99945 14.5484L2.87383 11.2499L5.86576 9.63886L8.73283 11.1824C8.81477 11.2265 8.90639 11.2496 8.99945 11.2496C9.09252 11.2496 9.18413 11.2265 9.26608 11.1824L12.1331 9.6383L15.1256 11.2499L8.99945 14.5484Z" fill="#2B2B2B"/>
</g>
</svg>
