<svg width="18" height="18" viewBox="0 0 18 18" fill="none" xmlns="http://www.w3.org/2000/svg">
<path d="M3.6 6.9998C4.20751 6.9998 4.7 6.50732 4.7 5.8998C4.7 5.29229 4.20751 4.7998 3.6 4.7998C2.99249 4.7998 2.5 5.29229 2.5 5.8998C2.5 6.50732 2.99249 6.9998 3.6 6.9998Z" fill="#777777"/>
<path d="M3.6 13.2C4.20751 13.2 4.7 12.7075 4.7 12.1C4.7 11.4925 4.20751 11 3.6 11C2.99249 11 2.5 11.4925 2.5 12.1C2.5 12.7075 2.99249 13.2 3.6 13.2Z" fill="#777777"/>
<path d="M9.00039 16.3992C9.6079 16.3992 10.1004 15.9067 10.1004 15.2992C10.1004 14.6917 9.6079 14.1992 9.00039 14.1992C8.39288 14.1992 7.90039 14.6917 7.90039 15.2992C7.90039 15.9067 8.39288 16.3992 9.00039 16.3992Z" fill="#777777"/>
<path d="M9.00039 10.0994C9.6079 10.0994 10.1004 9.60693 10.1004 8.99941C10.1004 8.3919 9.6079 7.89941 9.00039 7.89941C8.39288 7.89941 7.90039 8.3919 7.90039 8.99941C7.90039 9.60693 8.39288 10.0994 9.00039 10.0994Z" fill="#777777"/>
<path d="M9.00039 3.79961C9.6079 3.79961 10.1004 3.30712 10.1004 2.69961C10.1004 2.0921 9.6079 1.59961 9.00039 1.59961C8.39288 1.59961 7.90039 2.0921 7.90039 2.69961C7.90039 3.30712 8.39288 3.79961 9.00039 3.79961Z" fill="#777777"/>
<path d="M14.4008 6.9998C15.0083 6.9998 15.5008 6.50732 15.5008 5.8998C15.5008 5.29229 15.0083 4.7998 14.4008 4.7998C13.7933 4.7998 13.3008 5.29229 13.3008 5.8998C13.3008 6.50732 13.7933 6.9998 14.4008 6.9998Z" fill="#777777"/>
<path d="M14.4008 13.2C15.0083 13.2 15.5008 12.7075 15.5008 12.1C15.5008 11.4925 15.0083 11 14.4008 11C13.7933 11 13.3008 11.4925 13.3008 12.1C13.3008 12.7075 13.7933 13.2 14.4008 13.2Z" fill="#777777"/>
<path d="M5.40039 4.7998L7.20039 3.7998" stroke="#777777" stroke-width="1.3" stroke-linecap="round" stroke-linejoin="round"/>
<path d="M7.20039 8.19922L5.40039 7.19922" stroke="#777777" stroke-width="1.3" stroke-linecap="round" stroke-linejoin="round"/>
<path d="M5.40039 11.0996L7.20039 10.0996" stroke="#777777" stroke-width="1.3" stroke-linecap="round" stroke-linejoin="round"/>
<path d="M7.20039 14.4994L5.40039 13.3994" stroke="#777777" stroke-width="1.3" stroke-linecap="round" stroke-linejoin="round"/>
<path d="M12.8004 4.7998L10.9004 3.7998" stroke="#777777" stroke-width="1.3" stroke-linecap="round" stroke-linejoin="round"/>
<path d="M10.9004 8.19922L12.8004 7.19922" stroke="#777777" stroke-width="1.3" stroke-linecap="round" stroke-linejoin="round"/>
<path d="M12.8004 11.0996L10.9004 10.0996" stroke="#777777" stroke-width="1.3" stroke-linecap="round" stroke-linejoin="round"/>
<path d="M10.9004 14.4994L12.8004 13.3994" stroke="#777777" stroke-width="1.3" stroke-linecap="round" stroke-linejoin="round"/>
</svg>
