<svg width="159" height="94" viewBox="0 0 159 94" fill="none" xmlns="http://www.w3.org/2000/svg">
<g clip-path="url(#clip0_2997_24619)">
<path d="M79.4987 94.0006C123.405 94.0006 158.997 84.2414 158.997 72.2029C158.997 60.1644 123.405 50.4053 79.4987 50.4053C35.5928 50.4053 0 60.1644 0 72.2029C0 84.2414 35.5928 94.0006 79.4987 94.0006Z" fill="#F9F9F9"/>
<path d="M142.716 64.7751L102.328 71.471H55.8306L17.1016 64.7751L24.7053 46.4906C25.1541 45.4185 25.9111 44.503 26.8809 43.8594C27.8506 43.2158 28.9897 42.8729 30.1545 42.874H129.663C130.829 42.874 131.969 43.2187 132.939 43.8647C133.909 44.5106 134.665 45.4288 135.112 46.5032L142.716 64.7751Z" fill="#D6D6D6"/>
<path d="M24.7053 46.491L17.1016 64.7755H27.6335V43.4268C26.3092 44.0493 25.2651 45.1418 24.7053 46.491Z" fill="#C1C1C1"/>
<path d="M135.112 46.491L142.715 64.7755H132.184V43.4268C133.508 44.0493 134.552 45.1418 135.112 46.491Z" fill="#C1C1C1"/>
<path d="M117.247 5.04426C115.224 2.75681 112.362 4.20948 112.362 4.20948C112.158 3.18868 112.078 2.1472 112.124 1.10742H111.009C110.995 2.36973 111.135 3.62903 111.426 4.85764C111.669 6.09814 112.201 7.26436 112.979 8.26234C113.136 8.47158 113.305 8.67197 113.484 8.86257C111.363 7.89412 110.162 4.93834 110.162 4.93834C110.162 4.93834 108.139 9.14252 111.815 11.9646C116.853 15.8233 122.006 11.4855 122.006 11.4855C118.314 9.99495 119.275 7.33424 117.247 5.04426Z" fill="#EFEFEF"/>
<path d="M97.126 35.8122C105.774 27.187 104.667 12.514 93.8059 5.43724C87.4033 1.2608 78.8413 1.34403 72.4817 5.58099C64.9538 10.5922 62.3215 19.2275 64.3267 26.907L36.6201 54.5406V64.563C36.6201 65.6018 37.0339 66.598 37.7703 67.3325C38.5068 68.067 39.5056 68.4797 40.5471 68.4797H50.5885L53.0387 66.0359V56.0538H63.0396V46.0818H73.038L78.2951 40.8386C84.814 42.5308 92.0181 40.9117 97.126 35.8122Z" fill="#C4C4C4"/>
<path d="M95.5553 33.4571C104.203 24.8319 103.096 10.1614 92.2327 3.08467C85.8326 -1.08672 77.268 -1.00854 70.9109 3.22085C63.3806 8.23711 60.7508 16.8699 62.756 24.5494L35.0469 52.183V62.1978C35.0469 63.2366 35.4606 64.2328 36.1971 64.9673C36.9335 65.7019 37.9324 66.1145 38.9739 66.1145H49.0152L51.468 63.6707V53.6962H61.4664V43.7242H71.4673L76.7244 38.4809C80.0295 39.3596 83.508 39.3581 86.8124 38.4765C90.1167 37.595 93.1314 35.8642 95.5553 33.4571Z" fill="#EAEAEA"/>
<path d="M83.5242 25.6795C87.9052 25.6795 91.4566 22.1374 91.4566 17.768C91.4566 13.3986 87.9052 9.85645 83.5242 9.85645C79.1433 9.85645 75.5918 13.3986 75.5918 17.768C75.5918 22.1374 79.1433 25.6795 83.5242 25.6795Z" fill="#F9F9F9"/>
<path d="M38.0871 19.394C37.4182 18.7212 36.5836 18.2358 35.667 17.9867C34.7505 17.7376 33.7843 17.7336 32.8657 17.975C31.9471 18.2163 31.1084 18.6946 30.4339 19.3618C29.7594 20.029 29.2729 20.8615 29.0232 21.7756C28.7736 22.6898 28.7696 23.6534 29.0117 24.5695C29.2538 25.4857 29.7335 26.3221 30.4025 26.9948C31.0715 27.6674 31.9062 28.1526 32.8228 28.4015C33.7394 28.6504 34.7056 28.6542 35.6241 28.4126L43.2632 36.0316H46.022C46.309 36.0316 46.5843 35.9179 46.7873 35.7155C46.9903 35.513 47.1043 35.2385 47.1043 34.9522V32.178L46.4392 31.5248H43.683V28.7758H40.9242V26.0268L39.4753 24.5817C39.7203 23.6715 39.7209 22.7131 39.4773 21.8026C39.2336 20.892 38.7542 20.0614 38.0871 19.394Z" fill="#EAEAEA"/>
<path d="M33.7498 24.8826C34.9578 24.8826 35.9371 23.9059 35.9371 22.7011C35.9371 21.4962 34.9578 20.5195 33.7498 20.5195C32.5418 20.5195 31.5625 21.4962 31.5625 22.7011C31.5625 23.9059 32.5418 24.8826 33.7498 24.8826Z" fill="#F9F9F9"/>
<path d="M131.15 25.7501C131.589 25.3153 131.907 24.7727 132.07 24.1768C132.232 23.5809 132.235 22.9528 132.077 22.3555C131.92 21.7582 131.607 21.2129 131.171 20.7743C130.735 20.3358 130.191 20.0194 129.593 19.8571C128.996 19.6948 128.366 19.6922 127.767 19.8496C127.168 20.007 126.622 20.3188 126.182 20.7538C125.742 21.1887 125.425 21.7314 125.263 22.3274C125.1 22.9233 125.097 23.5514 125.255 24.1487L120.276 29.117V30.9152C120.276 31.1018 120.351 31.2808 120.483 31.4127C120.615 31.5447 120.795 31.6188 120.982 31.6188H122.787L123.227 31.18V29.3869H125.025V27.5962H126.821L127.766 26.653C128.36 26.8112 128.985 26.811 129.579 26.6526C130.173 26.4941 130.714 26.1829 131.15 25.7501Z" fill="#EAEAEA"/>
<path d="M128.988 24.3526C129.775 24.3526 130.414 23.7158 130.414 22.9302C130.414 22.1446 129.775 21.5078 128.988 21.5078C128.2 21.5078 127.562 22.1446 127.562 22.9302C127.562 23.7158 128.2 24.3526 128.988 24.3526Z" fill="#F9F9F9"/>
<path d="M99.5792 24.8498L79.178 60.0948C78.713 60.8969 78.4681 61.8071 78.4678 62.7337C78.4675 63.6602 78.7119 64.5705 79.1763 65.373C79.6408 66.1754 80.3089 66.8418 81.1135 67.3049C81.9182 67.7681 82.8309 68.0117 83.7599 68.0113H124.565C125.494 68.0109 126.406 67.7668 127.21 67.3035C128.014 66.8402 128.682 66.1739 129.146 65.3717C129.611 64.5695 129.855 63.6596 129.855 62.7333C129.855 61.807 129.611 60.8971 129.147 60.0948L108.746 24.8498C108.281 24.0475 107.613 23.3812 106.808 22.918C106.004 22.4548 105.091 22.2109 104.162 22.2109C103.233 22.2109 102.321 22.4548 101.516 22.918C100.712 23.3812 100.044 24.0475 99.5792 24.8498Z" fill="#BCBCBC"/>
<path d="M104.161 54.9802C103.649 54.9781 103.157 54.7826 102.784 54.433C102.411 54.0834 102.184 53.6057 102.15 53.0963L101.164 37.422C101.138 37.0137 101.197 36.6044 101.335 36.2194C101.474 35.8345 101.691 35.482 101.972 35.1837C102.252 34.8854 102.592 34.6477 102.968 34.4853C103.345 34.3229 103.75 34.2391 104.161 34.2393C104.571 34.2391 104.977 34.3229 105.353 34.4853C105.73 34.6477 106.069 34.8854 106.35 35.1837C106.631 35.482 106.847 35.8345 106.986 36.2194C107.125 36.6044 107.183 37.0137 107.157 37.422L106.173 53.0963C106.14 53.6061 105.913 54.0841 105.539 54.4338C105.166 54.7835 104.673 54.9788 104.161 54.9802Z" fill="#F9F9F9"/>
<path d="M104.161 63.0881C105.669 63.0881 106.892 61.8687 106.892 60.3644C106.892 58.8601 105.669 57.6406 104.161 57.6406C102.652 57.6406 101.43 58.8601 101.43 60.3644C101.43 61.8687 102.652 63.0881 104.161 63.0881Z" fill="#F9F9F9"/>
<path d="M97.9708 66.0767L96.3146 68.7803C96.0718 69.1772 95.7307 69.505 95.3242 69.7325C94.9177 69.9599 94.4594 70.0793 93.9932 70.0792H65.8239C65.3578 70.0793 64.8995 69.9599 64.493 69.7325C64.0864 69.505 63.7454 69.1772 63.5026 68.7803L61.8463 66.0767C61.6035 65.6799 61.2625 65.352 60.8559 65.1246C60.4494 64.8971 59.9911 64.7778 59.525 64.7779H17.1016V78.1823C17.1012 78.7248 17.208 79.2621 17.4159 79.7634C17.6237 80.2647 17.9285 80.7203 18.3129 81.1042C18.6973 81.488 19.1537 81.7926 19.6561 82.0005C20.1585 82.2084 20.6971 82.3156 21.241 82.3159H138.571C139.115 82.3162 139.655 82.2095 140.158 82.0019C140.661 81.7943 141.118 81.4899 141.502 81.106C141.887 80.722 142.193 80.2662 142.401 79.7646C142.609 79.2629 142.716 78.7253 142.716 78.1823V64.7754H100.292C99.8259 64.776 99.3676 64.8959 98.9611 65.1238C98.5547 65.3517 98.2137 65.6798 97.9708 66.0767Z" fill="#EFEFEF"/>
</g>
<defs>
<clipPath id="clip0_2997_24619">
<rect width="159" height="94" fill="white"/>
</clipPath>
</defs>
</svg>
