<svg width="158" height="100" viewBox="0 0 158 100" fill="none" xmlns="http://www.w3.org/2000/svg">
<g clip-path="url(#clip0_2997_24617)">
<path d="M78.9987 93.5819C122.629 93.5819 157.997 83.8262 157.997 71.7919C157.997 59.7577 122.629 50.002 78.9987 50.002C35.3689 50.002 0 59.7577 0 71.7919C0 83.8262 35.3689 93.5819 78.9987 93.5819Z" fill="#F9F9F9"/>
<path d="M141.818 64.3669L101.684 71.0605H55.4796L16.9941 64.3669L24.55 46.0888C24.9941 45.0148 25.7455 44.0969 26.7093 43.4512C27.6732 42.8055 28.8061 42.4609 29.965 42.4609H128.847C130.006 42.4609 131.139 42.8055 132.103 43.4512C133.067 44.0969 133.818 45.0148 134.262 46.0888L141.818 64.3669Z" fill="#D6D6D6"/>
<path d="M24.55 46.0885L16.9941 64.3666H27.4598V43.0254C26.1438 43.6477 25.1064 44.7399 24.55 46.0885Z" fill="#C1C1C1"/>
<path d="M134.262 46.0885L141.818 64.3666H131.353V43.0254C132.668 43.6477 133.706 44.7399 134.262 46.0885Z" fill="#C1C1C1"/>
<path d="M128.216 8.88509C126.206 6.59844 123.361 8.0506 123.361 8.0506C123.159 7.03095 123.08 5.99072 123.125 4.95215H122.012C122 6.21478 122.139 7.4743 122.426 8.70357C122.668 9.94363 123.196 11.1094 123.969 12.1071C124.126 12.3157 124.294 12.516 124.472 12.7071C122.371 11.739 121.165 8.78424 121.165 8.78424C121.165 8.78424 119.155 12.9869 122.808 15.8055C127.814 19.6628 132.935 15.3265 132.935 15.3265C129.276 13.8366 130.231 11.1768 128.216 8.88509Z" fill="#EFEFEF"/>
<path d="M97.3548 65.6656L95.709 68.3682C95.4677 68.7649 95.1288 69.0926 94.7248 69.32C94.3209 69.5474 93.8654 69.6667 93.4022 69.6666H65.4101C64.9469 69.6667 64.4914 69.5474 64.0875 69.32C63.6835 69.0926 63.3446 68.7649 63.1033 68.3682L61.4575 65.6656C61.2162 65.2689 60.8773 64.9411 60.4733 64.7137C60.0694 64.4864 59.6139 64.367 59.1508 64.3672H16.9941V77.7719C16.9941 78.8667 17.4274 79.9167 18.1988 80.6911C18.9701 81.4655 20.0164 81.9009 21.1075 81.9015H137.7C138.791 81.9015 139.838 81.4665 140.61 80.692C141.382 79.9176 141.816 78.8672 141.816 77.7719V64.3672H99.6615C99.1984 64.3675 98.7432 64.487 98.3393 64.7144C97.9354 64.9417 97.5965 65.2692 97.3548 65.6656Z" fill="#EFEFEF"/>
<mask id="mask0_2997_24617" style="mask-type:luminance" maskUnits="userSpaceOnUse" x="21" y="-18" width="119" height="88">
<path d="M59.1507 64.3668C59.6139 64.3666 60.0693 64.486 60.4733 64.7133C60.8772 64.9407 61.2161 65.2685 61.4574 65.6652L63.1033 68.3678C63.3446 68.7645 63.6835 69.0923 64.0874 69.3196C64.4914 69.547 64.9468 69.6663 65.41 69.6662H93.4022C93.8654 69.6663 94.3208 69.547 94.7248 69.3196C95.1287 69.0923 95.4676 68.7645 95.7089 68.3678L97.3548 65.6652C97.5964 65.2688 97.9354 64.9413 98.3393 64.714C98.7431 64.4866 99.1984 64.3671 99.6615 64.3668H139.783V-17.335H21.0195V64.3668H59.1507Z" fill="white"/>
</mask>
<g mask="url(#mask0_2997_24617)">
<path d="M71.7467 3.06681C72.0185 1.6716 71.1115 0.319483 69.721 0.0467653C68.3304 -0.225952 66.9827 0.684005 66.7109 2.07921C66.4391 3.47442 67.346 4.82655 68.7366 5.09927C70.1272 5.37199 71.4749 4.46202 71.7467 3.06681Z" fill="#F2F2F2"/>
<path d="M50.2158 52.9392L47.7891 52.5195L44.9425 69.0885L47.3692 69.5082L50.2158 52.9392Z" fill="#F2F2F2"/>
<path d="M55.1779 46.5449C55.1779 49.3584 52.9164 54.0099 50.1197 54.0099C48.7735 54.0099 47.4825 53.4733 46.5306 52.5183C45.5787 51.5632 45.0439 50.2679 45.0439 48.9172C45.0439 47.5666 45.5787 46.2712 46.5306 45.3162C47.4825 44.3611 48.7735 43.8246 50.1197 43.8246C52.9139 43.8246 55.1779 43.7313 55.1779 46.5449Z" fill="#BCBCBC"/>
<path d="M45.7073 75.6663C47.6599 75.6663 49.2428 74.0737 49.2428 72.109C49.2428 70.1444 47.6599 68.5518 45.7073 68.5518C43.7548 68.5518 42.1719 70.1444 42.1719 72.109C42.1719 74.0737 43.7548 75.6663 45.7073 75.6663Z" fill="url(#paint0_linear_2997_24617)"/>
<path d="M92.1457 48.0029L92.2148 50.4727L108.966 50.0003L108.897 47.5306L92.1457 48.0029Z" fill="#F2F2F2"/>
<path d="M118.315 28.5606L115.93 27.9482L111.291 46.1396L113.677 46.752L118.315 28.5606Z" fill="#F2F2F2"/>
<path d="M83.1729 46.5448C83.1729 49.3583 85.4343 54.0123 88.2486 54.0123C89.5948 54.0123 90.8859 53.4758 91.8378 52.5207C92.7896 51.5656 93.3244 50.2703 93.3244 48.9197C93.3244 47.569 92.7896 46.2737 91.8378 45.3186C90.8859 44.3636 89.5948 43.827 88.2486 43.827C85.4343 43.8245 83.1729 43.7312 83.1729 46.5448Z" fill="#D3D3D3"/>
<path d="M112.469 52.1744C114.39 51.7941 115.64 49.9233 115.261 47.9958C114.882 46.0683 113.018 44.814 111.097 45.1943C109.176 45.5746 107.925 47.4454 108.304 49.3728C108.683 51.3003 110.548 52.5546 112.469 52.1744Z" fill="#D3D3D3"/>
<path d="M122.023 25.8215C121.685 27.147 120.838 28.2845 119.667 28.9848C118.496 29.685 117.096 29.8911 115.773 29.5578C113.115 28.8443 113.281 26.5451 113.969 23.8399C114.379 22.234 115.819 21.0843 117.487 20.5625C117.547 20.5438 117.61 20.5416 117.671 20.5561C117.732 20.5707 117.787 20.6014 117.832 20.645C117.877 20.6886 117.909 20.7436 117.925 20.804C117.941 20.8645 117.941 20.9282 117.924 20.9885L117.042 24.1349C116.955 24.4299 116.983 24.7471 117.12 25.0225C117.256 25.298 117.492 25.5114 117.779 25.6198C117.931 25.6734 118.093 25.695 118.254 25.6834C118.415 25.6717 118.572 25.6271 118.715 25.5522C118.858 25.4773 118.985 25.3737 119.086 25.2479C119.188 25.1221 119.263 24.9767 119.306 24.8206L120.45 20.7339C120.486 20.6108 120.567 20.506 120.677 20.4409C120.787 20.3757 120.918 20.3552 121.043 20.3835C123.741 21.0818 122.719 23.1315 122.023 25.8215Z" fill="#D3D3D3"/>
<path d="M73.4256 37.416H65.626V40.5397H73.4256V37.416Z" fill="#BCBCBC"/>
<path d="M43.5769 15.2549H45.4414V27.0638H43.5769C42.5666 27.0638 41.5977 26.6611 40.8833 25.9443C40.1689 25.2276 39.7676 24.2554 39.7676 23.2418V19.0794C39.7672 18.5773 39.8655 18.08 40.0568 17.616C40.2481 17.152 40.5287 16.7304 40.8824 16.3752C41.2362 16.02 41.6562 15.7383 42.1186 15.5461C42.5809 15.3538 43.0765 15.2549 43.5769 15.2549Z" fill="#D3D3D3"/>
<path d="M93.0205 15.2549H94.885C95.8953 15.2549 96.8642 15.6576 97.5786 16.3743C98.293 17.0911 98.6943 18.0632 98.6943 19.0769V23.2418C98.6943 24.2554 98.293 25.2276 97.5786 25.9443C96.8642 26.6611 95.8953 27.0638 94.885 27.0638H93.0205V15.2549Z" fill="#D3D3D3"/>
<path d="M62.7742 2.57422H75.6898C76.2396 2.57422 76.7669 2.79335 77.1556 3.18341C77.5444 3.57347 77.7628 4.10251 77.7628 4.65414V6.92314H60.7012V4.65414C60.7012 4.10251 60.9196 3.57347 61.3083 3.18341C61.6971 2.79335 62.2244 2.57422 62.7742 2.57422Z" fill="#F2F2F2"/>
<path d="M79.4944 4.74512H58.9676C49.9305 4.74512 42.6045 12.0955 42.6045 21.1626C42.6045 30.2297 49.9305 37.5801 58.9676 37.5801H79.4944C88.5315 37.5801 95.8575 30.2297 95.8575 21.1626C95.8575 12.0955 88.5315 4.74512 79.4944 4.74512Z" fill="#F2F2F2"/>
<path d="M58.9654 35.2045C55.2527 35.2045 51.6921 33.7248 49.0669 31.0908C46.4416 28.4568 44.9668 24.8844 44.9668 21.1594C44.9668 17.4344 46.4416 13.862 49.0669 11.228C51.6921 8.59401 55.2527 7.11426 58.9654 7.11426H79.4947C83.2073 7.11426 86.7679 8.59401 89.3932 11.228C92.0184 13.862 93.4933 17.4344 93.4933 21.1594C93.4933 24.8844 92.0184 28.4568 89.3932 31.0908C86.7679 33.7248 83.2073 35.2045 79.4947 35.2045H58.9654Z" fill="white"/>
<path d="M58.9656 29.2756C56.8454 29.2381 54.8246 28.3667 53.3384 26.8491C51.8523 25.3314 51.0195 23.2889 51.0195 21.1614C51.0195 19.0338 51.8523 16.9913 53.3384 15.4737C54.8246 13.956 56.8454 13.0847 58.9656 13.0472H79.4948C80.5689 13.0282 81.6359 13.224 82.6337 13.6233C83.6315 14.0225 84.54 14.6172 85.3063 15.3725C86.0725 16.1279 86.6811 17.0288 87.0965 18.0227C87.512 19.0166 87.726 20.0836 87.726 21.1614C87.726 22.2391 87.512 23.3061 87.0965 24.3C86.6811 25.2939 86.0725 26.1949 85.3063 26.9502C84.54 27.7056 83.6315 28.3002 82.6337 28.6995C81.6359 29.0987 80.5689 29.2946 79.4948 29.2756H58.9656Z" fill="#F2F2F2"/>
<path d="M82.1227 40.5928H57.0755C53.1009 40.5928 49.8789 43.8255 49.8789 47.8132V58.0212C49.8789 62.009 53.1009 65.2417 57.0755 65.2417H82.1227C86.0972 65.2417 89.3192 62.009 89.3192 58.0212V47.8132C89.3192 43.8255 86.0972 40.5928 82.1227 40.5928Z" fill="#F7F7F7"/>
<path d="M64.0763 21.7545C64.0763 23.3377 62.7948 23.4361 61.2143 23.4361C59.6338 23.4361 58.3548 23.3377 58.3548 21.7545C58.3434 21.3704 58.409 20.9879 58.5477 20.6297C58.6864 20.2715 58.8953 19.9449 59.162 19.6692C59.4288 19.3935 59.748 19.1743 60.1007 19.0247C60.4535 18.875 60.8326 18.7979 61.2156 18.7979C61.5985 18.7979 61.9776 18.875 62.3304 19.0247C62.6831 19.1743 63.0023 19.3935 63.2691 19.6692C63.5358 19.9449 63.7448 20.2715 63.8834 20.6297C64.0221 20.9879 64.0877 21.3704 64.0763 21.7545Z" fill="#D3D3D3"/>
<path d="M80.097 21.7548C80.097 23.338 78.818 23.4364 77.2375 23.4364C75.6569 23.4364 74.3779 23.338 74.3779 21.7548C74.3779 21.378 74.4519 21.0049 74.5956 20.6568C74.7393 20.3088 74.9499 19.9925 75.2155 19.7261C75.481 19.4596 75.7962 19.2483 76.1432 19.1041C76.4901 18.96 76.8619 18.8857 77.2375 18.8857C77.613 18.8857 77.9848 18.96 78.3317 19.1041C78.6787 19.2483 78.9939 19.4596 79.2594 19.7261C79.525 19.9925 79.7356 20.3088 79.8793 20.6568C80.023 21.0049 80.097 21.378 80.097 21.7548Z" fill="#D3D3D3"/>
</g>
<path d="M98.9523 24.4553L78.6794 59.6879C78.2173 60.4898 77.9739 61.3996 77.9736 62.3259C77.9733 63.2521 78.2162 64.1621 78.6777 64.9643C79.1392 65.7664 79.8032 66.4325 80.6027 66.8955C81.4023 67.3585 82.3093 67.6021 83.2325 67.6017H123.781C124.704 67.6013 125.61 67.3573 126.409 66.8941C127.209 66.4309 127.872 65.7649 128.334 64.963C128.795 64.1611 129.038 63.2515 129.038 62.3255C129.038 61.3996 128.795 60.4899 128.334 59.6879L108.061 24.4553C107.599 23.6533 106.936 22.9873 106.136 22.5242C105.337 22.0612 104.43 21.8174 103.507 21.8174C102.584 21.8174 101.677 22.0612 100.877 22.5242C100.078 22.9873 99.4139 23.6533 98.9523 24.4553Z" fill="#BCBCBC"/>
<path d="M103.506 54.5724C102.997 54.5703 102.508 54.3748 102.137 54.0253C101.767 53.6758 101.542 53.1983 101.508 52.6891L100.528 37.0204C100.503 36.6126 100.562 36.204 100.7 35.8197C100.838 35.4355 101.053 35.0837 101.332 34.7861C101.611 34.4885 101.948 34.2514 102.322 34.0893C102.696 33.9272 103.099 33.8437 103.506 33.8438C103.913 33.8436 104.317 33.9273 104.691 34.0897C105.065 34.2521 105.402 34.4897 105.681 34.7879C105.96 35.086 106.175 35.4384 106.313 35.8232C106.451 36.2081 106.509 36.6172 106.483 37.0254L105.506 52.6941C105.471 53.2029 105.245 53.6795 104.874 54.028C104.503 54.3765 104.014 54.571 103.506 54.5724Z" fill="#F9F9F9"/>
<path d="M103.506 62.68C105.005 62.68 106.22 61.4609 106.22 59.9572C106.22 58.4534 105.005 57.2344 103.506 57.2344C102.007 57.2344 100.792 58.4534 100.792 59.9572C100.792 61.4609 102.007 62.68 103.506 62.68Z" fill="#F9F9F9"/>
<path d="M24.9941 32.1621H35.1909V35.2757C35.1909 35.826 34.9731 36.3537 34.5852 36.7428C34.1974 37.132 33.6714 37.3506 33.1229 37.3506H27.0647C26.5162 37.3506 25.9902 37.132 25.6024 36.7428C25.2145 36.3537 24.9967 35.826 24.9967 35.2757V32.1621H24.9941Z" fill="#F2F2F2"/>
<path d="M34.0176 24.2203H30.3439V22.7076C30.5952 22.646 30.8152 22.4941 30.9624 22.2808C31.1097 22.0674 31.1739 21.8073 31.1429 21.5497C31.112 21.292 30.988 21.0547 30.7945 20.8825C30.601 20.7103 30.3513 20.6152 30.0927 20.6152C29.834 20.6152 29.5843 20.7103 29.3908 20.8825C29.1973 21.0547 29.0733 21.292 29.0424 21.5497C29.0114 21.8073 29.0757 22.0674 29.2229 22.2808C29.3701 22.4941 29.5901 22.646 29.8414 22.7076V24.2203H26.1702C24.9953 24.2203 23.8685 24.6886 23.0378 25.5221C22.207 26.3557 21.7402 27.4862 21.7402 28.665C21.7409 29.8434 22.2079 30.9733 23.0386 31.8063C23.8694 32.6393 24.9958 33.1072 26.1702 33.1072H34.0176C35.1918 33.1072 36.318 32.6392 37.1483 31.8061C37.9786 30.9731 38.4451 29.8432 38.4451 28.665C38.4454 28.0815 38.3311 27.5035 38.1088 26.9643C37.8864 26.4251 37.5604 25.9351 37.1492 25.5223C36.738 25.1095 36.2498 24.7821 35.7125 24.5587C35.1752 24.3353 34.5992 24.2203 34.0176 24.2203Z" fill="#F2F2F2"/>
<path d="M34.1581 25.2969H26.0319C24.1778 25.2969 22.6748 26.8049 22.6748 28.6651C22.6748 30.5253 24.1778 32.0333 26.0319 32.0333H34.1581C36.0122 32.0333 37.5152 30.5253 37.5152 28.6651C37.5152 26.8049 36.0122 25.2969 34.1581 25.2969Z" fill="white"/>
<path d="M26.4843 30.0598C27.2517 30.0598 27.8738 29.4356 27.8738 28.6657C27.8738 27.8957 27.2517 27.2715 26.4843 27.2715C25.7169 27.2715 25.0947 27.8957 25.0947 28.6657C25.0947 29.4356 25.7169 30.0598 26.4843 30.0598Z" fill="#F2F2F2"/>
<path d="M33.704 30.0598C34.4714 30.0598 35.0936 29.4356 35.0936 28.6657C35.0936 27.8957 34.4714 27.2715 33.704 27.2715C32.9366 27.2715 32.3145 27.8957 32.3145 28.6657C32.3145 29.4356 32.9366 30.0598 33.704 30.0598Z" fill="#F2F2F2"/>
<path d="M26.1807 33.1104H34.0054V34.7289C34.0054 35.1635 33.8333 35.5803 33.527 35.8877C33.2207 36.195 32.8053 36.3676 32.3721 36.3676H27.814C27.3808 36.3676 26.9653 36.195 26.659 35.8877C26.3527 35.5803 26.1807 35.1635 26.1807 34.7289V33.1104Z" fill="white"/>
<path d="M110.287 12.0557L115.003 7.32438L116.438 8.7648C116.692 9.01917 116.834 9.36417 116.834 9.7239C116.834 10.0836 116.692 10.4286 116.438 10.683L113.636 13.4943C113.383 13.7487 113.039 13.8916 112.68 13.8916C112.322 13.8916 111.978 13.7487 111.725 13.4943L110.289 12.0539L110.287 12.0557Z" fill="#F2F2F2"/>
<path d="M110.798 4.19516L109.099 5.89944L108.405 5.20613C108.493 5.06176 108.524 4.89027 108.494 4.72409C108.464 4.5579 108.374 4.40855 108.242 4.30425C108.11 4.19996 107.944 4.14795 107.776 4.15806C107.608 4.16818 107.449 4.23972 107.33 4.35915C107.211 4.47858 107.14 4.63764 107.13 4.80624C107.12 4.97484 107.171 5.1413 107.275 5.27416C107.379 5.40702 107.528 5.49706 107.694 5.52726C107.859 5.55746 108.03 5.52574 108.174 5.43807L108.868 6.13138L107.169 7.83565C106.626 8.38073 106.321 9.11978 106.321 9.89036C106.321 10.6609 106.626 11.4 107.169 11.9451C107.712 12.4898 108.449 12.7957 109.217 12.7957C109.985 12.7957 110.722 12.4898 111.265 11.9451L114.891 8.30458C115.16 8.03502 115.374 7.71477 115.52 7.36219C115.666 7.00961 115.741 6.63162 115.741 6.24987C115.741 5.86813 115.666 5.49014 115.52 5.13755C115.374 4.78497 115.16 4.46472 114.891 4.19516C114.348 3.65063 113.612 3.34473 112.844 3.34473C112.077 3.34473 111.34 3.65063 110.798 4.19516Z" fill="#F2F2F2"/>
<path d="M111.357 4.62838L107.599 8.39878C106.742 9.2583 106.742 10.6519 107.599 11.5114L107.601 11.5132C108.457 12.3727 109.846 12.3727 110.703 11.5132L114.461 7.74275C115.318 6.88323 115.318 5.48968 114.461 4.63016L114.459 4.62838C113.603 3.76886 112.214 3.76886 111.357 4.62838Z" fill="white"/>
<path d="M109.36 10.6542C109.861 10.6542 110.267 10.2468 110.267 9.74411C110.267 9.24146 109.861 8.83398 109.36 8.83398C108.859 8.83398 108.453 9.24146 108.453 9.74411C108.453 10.2468 108.859 10.6542 109.36 10.6542Z" fill="#F2F2F2"/>
<path d="M112.7 7.30657C113.201 7.30657 113.607 6.8991 113.607 6.39645C113.607 5.8938 113.201 5.48633 112.7 5.48633C112.199 5.48633 111.793 5.8938 111.793 6.39645C111.793 6.8991 112.199 7.30657 112.7 7.30657Z" fill="#F2F2F2"/>
<path d="M111.269 11.9404L114.886 8.31086L115.632 9.05959C115.833 9.26053 115.945 9.53306 115.945 9.81724C115.945 10.1014 115.833 10.3739 115.632 10.5749L113.525 12.6892C113.325 12.8901 113.053 13.003 112.77 13.003C112.487 13.003 112.215 12.8901 112.015 12.6892L111.269 11.9404Z" fill="white"/>
</g>
<defs>
<linearGradient id="paint0_linear_2997_24617" x1="42.3268" y1="70.5938" x2="49.3259" y2="71.7917" gradientUnits="userSpaceOnUse">
<stop stop-color="#00DEFF"/>
<stop offset="1" stop-color="#00ACFF"/>
</linearGradient>
<clipPath id="clip0_2997_24617">
<rect width="158" height="100" fill="white"/>
</clipPath>
</defs>
</svg>
