<svg width="158" height="98" viewBox="0 0 158 98" fill="none" xmlns="http://www.w3.org/2000/svg">
<g clip-path="url(#clip0_2997_24612)">
<path d="M78.9987 97.9998C122.629 97.9998 157.997 88.254 157.997 76.2318C157.997 64.2097 122.629 54.4639 78.9987 54.4639C35.3689 54.4639 0 64.2097 0 76.2318C0 88.254 35.3689 97.9998 78.9987 97.9998Z" fill="#F9F9F9"/>
<path d="M141.818 68.8145L101.684 75.5013H55.4796L16.9941 68.8145L24.55 50.5549C24.9941 49.4819 25.7455 48.565 26.7093 47.92C27.6732 47.2749 28.8061 46.9306 29.965 46.9307H128.847C130.006 46.9306 131.139 47.2749 132.103 47.92C133.067 48.565 133.818 49.4819 134.262 50.5549L141.818 68.8145Z" fill="#D6D6D6"/>
<path d="M99.6089 69.5955H41.9083C41.0145 69.5957 40.1328 69.3887 39.3321 68.9906C38.5313 68.5926 37.8333 68.0142 37.2927 67.3009C36.752 66.5875 36.3833 65.7584 36.2154 64.8785C36.0476 63.9986 36.085 63.0916 36.325 62.2287L51.1151 9.0365C51.4544 7.81373 52.1841 6.73605 53.1924 5.96829C54.2007 5.20053 55.4322 4.78496 56.6984 4.78516H84.8188C86.0843 4.78536 87.3149 5.20081 88.3227 5.96805C89.3305 6.73528 90.0599 7.8121 90.3996 9.03398L105.19 62.2261C105.431 63.0891 105.469 63.9963 105.302 64.8765C105.134 65.7568 104.766 66.5863 104.225 67.3001C103.685 68.0139 102.987 68.5925 102.186 68.9907C101.385 69.389 100.503 69.5959 99.6089 69.5955Z" fill="#EAEAEA"/>
<path d="M81.104 15.3076H60.4089C58.8477 15.3076 57.582 16.5762 57.582 18.141V19.695C57.582 21.2598 58.8477 22.5284 60.4089 22.5284H81.104C82.6652 22.5284 83.9309 21.2598 83.9309 19.695V18.141C83.9309 16.5762 82.6652 15.3076 81.104 15.3076Z" fill="white"/>
<path d="M82.9284 27.6338H58.5848C56.907 27.6338 55.5469 28.9971 55.5469 30.6787V31.8096C55.5469 33.4913 56.907 34.8545 58.5848 34.8545H82.9284C84.6063 34.8545 85.9664 33.4913 85.9664 31.8096V30.6787C85.9664 28.9971 84.6063 27.6338 82.9284 27.6338Z" fill="white"/>
<path d="M86.2126 39.957H55.3006C53.434 39.957 51.9209 41.4737 51.9209 43.3445V43.7903C51.9209 45.6611 53.434 47.1778 55.3006 47.1778H86.2126C88.0791 47.1778 89.5922 45.6611 89.5922 43.7903V43.3445C89.5922 41.4737 88.0791 39.957 86.2126 39.957Z" fill="white"/>
<path d="M90.5222 52.2803H50.9914C49.0027 52.2803 47.3906 53.8961 47.3906 55.8894V55.8919C47.3906 57.8852 49.0027 59.501 50.9914 59.501H90.5222C92.5109 59.501 94.123 57.8852 94.123 55.8919V55.8894C94.123 53.8961 92.5109 52.2803 90.5222 52.2803Z" fill="white"/>
<path d="M98.9523 28.9429L78.6794 64.1399C78.2173 64.941 77.9739 65.8499 77.9736 66.7752C77.9733 67.7005 78.2162 68.6096 78.6777 69.4109C79.1392 70.2123 79.8032 70.8777 80.6027 71.3402C81.4023 71.8027 82.3093 72.0461 83.2325 72.0457H123.781C124.704 72.0453 125.61 71.8015 126.409 71.3388C127.209 70.8761 127.872 70.2108 128.334 69.4097C128.795 68.6086 129.038 67.6999 129.038 66.7749C129.038 65.8498 128.795 64.9411 128.334 64.1399L108.061 28.9429C107.599 28.1417 106.936 27.4763 106.136 27.0137C105.337 26.5511 104.43 26.3076 103.507 26.3076C102.584 26.3076 101.677 26.5511 100.877 27.0137C100.078 27.4763 99.4139 28.1417 98.9523 28.9429Z" fill="#BCBCBC"/>
<path d="M103.506 59.0301C102.997 59.028 102.508 58.8327 102.138 58.4836C101.767 58.1345 101.542 57.6575 101.508 57.1487L100.528 41.4958C100.503 41.088 100.561 40.6793 100.699 40.2949C100.837 39.9104 101.052 39.5584 101.331 39.2605C101.61 38.9627 101.947 38.7253 102.321 38.5631C102.695 38.4009 103.098 38.3173 103.506 38.3174C103.914 38.3173 104.317 38.4009 104.691 38.5631C105.065 38.7253 105.402 38.9627 105.681 39.2605C105.96 39.5584 106.176 39.9104 106.314 40.2949C106.452 40.6793 106.509 41.088 106.484 41.4958L105.506 57.1487C105.472 57.6579 105.247 58.1353 104.876 58.4845C104.505 58.8337 104.015 59.0287 103.506 59.0301Z" fill="#F9F9F9"/>
<path d="M103.506 67.1296C105.005 67.1296 106.22 65.9118 106.22 64.4095C106.22 62.9073 105.005 61.6895 103.506 61.6895C102.007 61.6895 100.792 62.9073 100.792 64.4095C100.792 65.9118 102.007 67.1296 103.506 67.1296Z" fill="#F9F9F9"/>
<path d="M24.55 50.5548L16.9941 68.8144H27.4598V47.4922C26.1443 48.1157 25.1071 49.2073 24.55 50.5548Z" fill="#C1C1C1"/>
<path d="M134.262 50.5548L141.818 68.8144H131.353V47.4922C132.668 48.1157 133.705 49.2073 134.262 50.5548Z" fill="#C1C1C1"/>
<path d="M97.3548 70.1115L95.709 72.8114C95.4677 73.2077 95.1288 73.5351 94.7248 73.7623C94.3209 73.9894 93.8654 74.1086 93.4022 74.1085H65.4101C64.9469 74.1086 64.4914 73.9894 64.0875 73.7623C63.6835 73.5351 63.3446 73.2077 63.1033 72.8114L61.4575 70.1115C61.2162 69.7152 60.8773 69.3878 60.4733 69.1606C60.0694 68.9335 59.6139 68.8143 59.1508 68.8145H16.9941V82.2057C16.9941 83.2994 17.4274 84.3483 18.1988 85.1219C18.9701 85.8955 20.0164 86.3304 21.1075 86.3311H137.7C138.791 86.3311 139.838 85.8965 140.61 85.1228C141.382 84.3491 141.816 83.2998 141.816 82.2057V68.8145H99.6615C99.1984 68.8148 98.7432 68.9342 98.3393 69.1613C97.9354 69.3884 97.5965 69.7156 97.3548 70.1115Z" fill="#EFEFEF"/>
<path d="M104.634 3.934C102.624 1.64714 99.7771 3.09784 99.7771 3.09784C99.5751 2.07842 99.4966 1.03828 99.5434 0L98.4302 0C98.4166 1.26059 98.5558 2.51818 98.8448 3.74511C99.0883 4.98329 99.6166 6.14749 100.388 7.14518C100.545 7.35441 100.712 7.55533 100.89 7.74712C98.782 6.77999 97.5859 3.8257 97.5859 3.8257C97.5859 3.8257 95.5757 8.02416 99.2293 10.8424C104.235 14.6958 109.358 10.3639 109.358 10.3639C105.695 8.87543 106.649 6.21834 104.634 3.934Z" fill="#EFEFEF"/>
<path d="M39.2672 18.8008H27.0829C26.0032 18.8008 25.1279 19.6781 25.1279 20.7602V34.0482C25.1279 35.1304 26.0032 36.0076 27.0829 36.0076H39.2672C40.3469 36.0076 41.2222 35.1304 41.2222 34.0482V20.7602C41.2222 19.6781 40.3469 18.8008 39.2672 18.8008Z" fill="#EAEAEA"/>
<path d="M37.5561 21.4658H28.7891C28.2659 21.4658 27.8418 21.8909 27.8418 22.4153V23.4076C27.8418 23.932 28.2659 24.3571 28.7891 24.3571H37.5561C38.0793 24.3571 38.5034 23.932 38.5034 23.4076V22.4153C38.5034 21.8909 38.0793 21.4658 37.5561 21.4658Z" fill="white"/>
<path d="M37.5561 25.959H28.7891C28.2659 25.959 27.8418 26.3841 27.8418 26.9085V27.9008C27.8418 28.4252 28.2659 28.8503 28.7891 28.8503H37.5561C38.0793 28.8503 38.5034 28.4252 38.5034 27.9008V26.9085C38.5034 26.3841 38.0793 25.959 37.5561 25.959Z" fill="white"/>
<path d="M37.5561 30.4521H28.7891C28.2659 30.4521 27.8418 30.8773 27.8418 31.4016V32.394C27.8418 32.9184 28.2659 33.3435 28.7891 33.3435H37.5561C38.0793 33.3435 38.5034 32.9184 38.5034 32.394V31.4016C38.5034 30.8773 38.0793 30.4521 37.5561 30.4521Z" fill="white"/>
<path d="M117.855 13.3842L110.85 17.9983C110.23 18.407 110.057 19.2424 110.465 19.8643L115.474 27.5048C115.882 28.1267 116.715 28.2995 117.336 27.8909L124.341 23.2768C124.962 22.8681 125.134 22.0326 124.726 21.4107L119.717 13.7703C119.309 13.1484 118.476 12.9756 117.855 13.3842Z" fill="#EAEAEA"/>
<path d="M117.877 15.566L112.835 18.8869C112.535 19.0847 112.451 19.4892 112.648 19.7903L113.022 20.3607C113.22 20.6617 113.623 20.7454 113.924 20.5476L118.966 17.2267C119.266 17.0289 119.349 16.6244 119.152 16.3233L118.778 15.7529C118.581 15.4519 118.177 15.3682 117.877 15.566Z" fill="white"/>
<path d="M119.57 18.1461L114.528 21.467C114.228 21.6648 114.144 22.0693 114.342 22.3703L114.716 22.9407C114.913 23.2418 115.317 23.3255 115.617 23.1277L120.659 19.8068C120.959 19.6089 121.043 19.2045 120.845 18.9034L120.472 18.333C120.274 18.0319 119.871 17.9483 119.57 18.1461Z" fill="white"/>
<path d="M121.264 20.7311L116.222 24.0519C115.921 24.2498 115.838 24.6542 116.035 24.9553L116.409 25.5257C116.606 25.8268 117.01 25.9105 117.31 25.7126L122.352 22.3917C122.653 22.1939 122.736 21.7894 122.539 21.4884L122.165 20.918C121.967 20.6169 121.564 20.5332 121.264 20.7311Z" fill="white"/>
</g>
<defs>
<clipPath id="clip0_2997_24612">
<rect width="158" height="98" fill="white"/>
</clipPath>
</defs>
</svg>
