<svg width="158" height="104" viewBox="0 0 158 104" fill="none" xmlns="http://www.w3.org/2000/svg">
<g clip-path="url(#clip0_2997_24618)">
<path d="M78.9987 104C122.629 104 157.997 94.275 157.997 82.278C157.997 70.2811 122.629 60.5557 78.9987 60.5557C35.3689 60.5557 0 70.2811 0 82.278C0 94.275 35.3689 104 78.9987 104Z" fill="#F9F9F9"/>
<path d="M141.818 74.8758L101.684 81.5486H55.4796L16.9941 74.8758L24.55 56.6544C24.993 55.5823 25.7439 54.6657 26.7078 54.0206C27.6717 53.3755 28.8052 53.0308 29.965 53.0303H128.847C130.006 53.0302 131.139 53.3738 132.103 54.0175C133.067 54.6612 133.818 55.5762 134.262 56.6469L141.818 74.8758Z" fill="#D6D6D6"/>
<path d="M24.55 56.6542L16.9941 74.8756H27.4598V53.6006C26.1444 54.2218 25.1072 55.3103 24.55 56.6542Z" fill="#C1C1C1"/>
<path d="M134.262 56.6542L141.818 74.8756H131.353V53.6006C132.668 54.2218 133.705 55.3103 134.262 56.6542Z" fill="#C1C1C1"/>
<path d="M105.521 3.92576C103.51 1.64369 100.666 3.09135 100.666 3.09135C100.464 2.07404 100.385 1.03619 100.43 0L99.3167 0C99.303 1.25795 99.4422 2.5129 99.7313 3.73726C99.9698 4.9726 100.495 6.13472 101.264 7.13021C101.421 7.33903 101.589 7.53953 101.767 7.73089C99.6584 6.76578 98.4648 3.81769 98.4648 3.81769C98.4648 3.81769 96.4546 8.00735 100.108 10.8197C105.114 14.6651 110.235 10.3422 110.235 10.3422C106.581 8.85684 107.546 6.20532 105.521 3.92576Z" fill="#EFEFEF"/>
<path d="M97.3548 76.1703L95.709 78.8646C95.4677 79.26 95.1288 79.5868 94.7248 79.8134C94.3209 80.0401 93.8654 80.1591 93.4022 80.1589H65.4101C64.9469 80.1591 64.4914 80.0401 64.0875 79.8134C63.6835 79.5868 63.3446 79.26 63.1033 78.8646L61.4575 76.1703C61.2162 75.7749 60.8773 75.4481 60.4733 75.2214C60.0694 74.9948 59.6139 74.8758 59.1508 74.876H16.9941V88.2391C16.9941 89.3305 17.4274 90.3773 18.1988 91.1493C18.9701 91.9212 20.0164 92.3552 21.1075 92.3559H137.7C138.791 92.3559 139.838 91.9222 140.61 91.1501C141.382 90.3781 141.816 89.331 141.816 88.2391V74.876H99.6615C99.1984 74.8763 98.7432 74.9955 98.3393 75.2221C97.9354 75.4487 97.5965 75.7752 97.3548 76.1703Z" fill="#EFEFEF"/>
<path d="M70.8603 76.7586L43.7224 68.1104C40.6594 67.1353 38.1768 63.8604 38.1768 60.7967V33.6532C38.1768 30.5895 40.6594 28.898 43.7224 29.8832L70.8603 38.539C73.9233 39.5167 76.4059 42.789 76.4059 45.8527V72.9963C76.4059 76.0424 73.9233 77.7338 70.8603 76.7586Z" fill="#EFEFEF"/>
<path d="M84.2679 76.7586L111.418 68.1104C114.481 67.1353 116.964 63.8604 116.964 60.7967V33.6532C116.964 30.5895 114.481 28.898 111.418 29.8832L84.2805 38.539C81.22 39.5167 78.7374 42.789 78.7374 45.8527V72.9963C78.7248 76.0424 81.2074 77.7338 84.2679 76.7586Z" fill="#EFEFEF"/>
<path d="M47.8948 45.3493C48.6687 44.689 48.5607 43.2916 47.6537 42.2283C46.7466 41.1649 45.384 40.8383 44.6102 41.4986C43.8363 42.159 43.9443 43.5563 44.8513 44.6197C45.7583 45.683 47.121 46.0097 47.8948 45.3493Z" stroke="#FCFCFC" stroke-width="5.49" stroke-linecap="round" stroke-linejoin="round"/>
<path d="M47.8938 58.0993C48.6677 57.439 48.5597 56.0416 47.6527 54.9783C46.7457 53.9149 45.383 53.5883 44.6092 54.2486C43.8353 54.909 43.9433 56.3064 44.8503 57.3697C45.7574 58.433 47.12 58.7597 47.8938 58.0993Z" stroke="#FCFCFC" stroke-width="5.49" stroke-linecap="round" stroke-linejoin="round"/>
<path d="M58.9632 67.988C59.737 67.3276 59.6291 65.9303 58.722 64.867C57.815 63.8036 56.4524 63.4769 55.6785 64.1373C54.9047 64.7977 55.0126 66.195 55.9197 67.2584C56.8267 68.3217 58.1893 68.6484 58.9632 67.988Z" stroke="#FCFCFC" stroke-width="5.49" stroke-linecap="round" stroke-linejoin="round"/>
<path d="M58.9632 55.2478C59.737 54.5874 59.6291 53.1901 58.722 52.1267C57.815 51.0634 56.4524 50.7367 55.6785 51.3971C54.9047 52.0574 55.0126 53.4548 55.9197 54.5181C56.8267 55.5815 58.1893 55.9082 58.9632 55.2478Z" stroke="#FCFCFC" stroke-width="5.49" stroke-linecap="round" stroke-linejoin="round"/>
<path d="M58.9632 42.5056C59.737 41.8452 59.6291 40.4479 58.722 39.3845C57.815 38.3212 56.4524 37.9945 55.6785 38.6549C54.9047 39.3152 55.0126 40.7126 55.9197 41.7759C56.8267 42.8393 58.1893 43.166 58.9632 42.5056Z" stroke="#FCFCFC" stroke-width="5.49" stroke-linecap="round" stroke-linejoin="round"/>
<path d="M69.9612 52.3835C70.7351 51.7232 70.6271 50.3258 69.7201 49.2625C68.8131 48.1991 67.4504 47.8724 66.6766 48.5328C65.9027 49.1932 66.0107 50.5905 66.9177 51.6539C67.8247 52.7172 69.1874 53.0439 69.9612 52.3835Z" stroke="#FCFCFC" stroke-width="5.49" stroke-linecap="round" stroke-linejoin="round"/>
<path d="M69.9602 65.1345C70.7341 64.4741 70.6261 63.0768 69.7191 62.0134C68.8121 60.9501 67.4495 60.6234 66.6756 61.2838C65.9017 61.9442 66.0097 63.3415 66.9167 64.4049C67.8238 65.4682 69.1864 65.7949 69.9602 65.1345Z" stroke="#FCFCFC" stroke-width="5.49" stroke-linecap="round" stroke-linejoin="round"/>
<path d="M49.9111 42.48L53.5697 41.54" stroke="#FCFCFC" stroke-width="5.49" stroke-linecap="round" stroke-linejoin="round"/>
<path d="M53.5697 50.4872L49.9111 47.2148" stroke="#FCFCFC" stroke-width="5.49" stroke-linecap="round" stroke-linejoin="round"/>
<path d="M49.9111 55.2222L53.5697 54.2822" stroke="#FCFCFC" stroke-width="5.49" stroke-linecap="round" stroke-linejoin="round"/>
<path d="M53.5697 63.2293L49.9111 59.957" stroke="#FCFCFC" stroke-width="5.49" stroke-linecap="round" stroke-linejoin="round"/>
<path d="M64.8842 47.2522L61.2256 43.9824" stroke="#FCFCFC" stroke-width="5.49" stroke-linecap="round" stroke-linejoin="round"/>
<path d="M61.2256 52.9277L64.8842 51.9902" stroke="#FCFCFC" stroke-width="5.49" stroke-linecap="round" stroke-linejoin="round"/>
<path d="M64.8842 59.995L61.2256 56.7227" stroke="#FCFCFC" stroke-width="5.49" stroke-linecap="round" stroke-linejoin="round"/>
<path d="M61.2256 65.6695L64.8842 64.7295" stroke="#FCFCFC" stroke-width="5.49" stroke-linecap="round" stroke-linejoin="round"/>
<path d="M73.6843 36.0151L41.521 26.5626C39.2821 25.9041 39.2821 22.7299 41.521 22.0714L73.6843 12.6189C76.3092 11.8484 79.1002 11.8484 81.7251 12.6189L113.889 22.0714C116.127 22.7299 116.127 25.9041 113.889 26.5626L81.7251 36.0151C79.1002 36.7856 76.3092 36.7856 73.6843 36.0151Z" fill="#EFEFEF"/>
<path d="M98.9523 35.0907L78.6794 70.2114C78.2173 71.0108 77.9739 71.9178 77.9736 72.8412C77.9733 73.7646 78.2162 74.6717 78.6777 75.4714C79.1392 76.2711 79.8032 76.9351 80.6027 77.3967C81.4023 77.8582 82.3093 78.101 83.2325 78.1007H123.781C124.704 78.1003 125.61 77.857 126.409 77.3953C127.209 76.9335 127.872 76.2696 128.334 75.4702C128.795 74.6707 129.038 73.7639 129.038 72.8409C129.038 71.9178 128.795 71.011 128.334 70.2114L108.061 35.0907C107.599 34.2911 106.936 33.6272 106.136 33.1656C105.337 32.704 104.43 32.4609 103.507 32.4609C102.584 32.4609 101.677 32.704 100.877 33.1656C100.078 33.6272 99.4139 34.2911 98.9523 35.0907Z" fill="#BCBCBC"/>
<path d="M103.506 65.1121C102.999 65.1082 102.512 64.9124 102.143 64.5642C101.773 64.216 101.55 63.7411 101.516 63.2347L100.536 47.6146C100.511 47.2079 100.569 46.8003 100.707 46.4169C100.845 46.0336 101.06 45.6826 101.339 45.3856C101.618 45.0887 101.955 44.852 102.329 44.6903C102.703 44.5286 103.106 44.4452 103.514 44.4453C103.921 44.4452 104.324 44.5286 104.698 44.6903C105.072 44.852 105.409 45.0887 105.688 45.3856C105.967 45.6826 106.182 46.0336 106.32 46.4169C106.459 46.8003 106.517 47.2079 106.491 47.6146L105.514 63.2347C105.48 63.7441 105.254 64.2215 104.881 64.5702C104.508 64.9189 104.017 65.1126 103.506 65.1121Z" fill="#F9F9F9"/>
<path d="M103.506 73.1943C105.005 73.1943 106.22 71.9791 106.22 70.48C106.22 68.9809 105.005 67.7656 103.506 67.7656C102.007 67.7656 100.792 68.9809 100.792 70.48C100.792 71.9791 102.007 73.1943 103.506 73.1943Z" fill="#F9F9F9"/>
<path d="M25.9439 45.139L19.3555 42.1055V35.5156L25.9439 38.5492V45.139Z" fill="#E5E5E5"/>
<path d="M25.9443 45.139L32.5353 42.1055V35.5156L25.9443 38.5492V45.139Z" fill="#D3D3D3"/>
<path d="M19.3555 35.515L25.9439 32.4814L32.5349 35.515L25.9439 38.5485L19.3555 35.515Z" fill="#F2F2F2"/>
<path d="M25.9443 32.8509V28.998" stroke="#F2F2F2" stroke-width="2.46" stroke-linecap="round" stroke-linejoin="round"/>
<path d="M25.944 28.9979C26.5366 28.9979 27.017 28.5174 27.017 27.9247C27.017 27.332 26.5366 26.8516 25.944 26.8516C25.3515 26.8516 24.8711 27.332 24.8711 27.9247C24.8711 28.5174 25.3515 28.9979 25.944 28.9979Z" stroke="#F2F2F2" stroke-width="2.46" stroke-linecap="round" stroke-linejoin="round"/>
<path d="M32.2988 41.9014L35.485 44.0703" stroke="#D3D3D3" stroke-width="2.46" stroke-linecap="round" stroke-linejoin="round"/>
<path d="M36.3718 45.7469C36.9644 45.7469 37.4447 45.2665 37.4447 44.6738C37.4447 44.0811 36.9644 43.6006 36.3718 43.6006C35.7792 43.6006 35.2988 44.0811 35.2988 44.6738C35.2988 45.2665 35.7792 45.7469 36.3718 45.7469Z" stroke="#D3D3D3" stroke-width="2.46" stroke-linecap="round" stroke-linejoin="round"/>
<path d="M19.8282 41.8086L16.6445 43.9776" stroke="#E5E5E5" stroke-width="2.46" stroke-linecap="round" stroke-linejoin="round"/>
<path d="M15.7575 45.6542C16.3501 45.6542 16.8305 45.1737 16.8305 44.581C16.8305 43.9883 16.3501 43.5078 15.7575 43.5078C15.1649 43.5078 14.6846 43.9883 14.6846 44.581C14.6846 45.1737 15.1649 45.6542 15.7575 45.6542Z" stroke="#E5E5E5" stroke-width="2.46" stroke-linecap="round" stroke-linejoin="round"/>
<path d="M125.04 34.8164L123.055 30.1919L126.118 26.7939L128.103 31.4209L125.04 34.8164Z" fill="#E5E5E5"/>
<path d="M125.04 34.8164L129.844 36.3193L132.907 32.9213L128.103 31.4209L125.04 34.8164Z" fill="#D3D3D3"/>
<path d="M126.118 26.7939L130.923 28.2944L132.908 32.9214L128.103 31.4209L126.118 26.7939Z" fill="#F2F2F2"/>
<path d="M130.752 28.4855L132.544 26.5" stroke="#F2F2F2" stroke-width="1.71" stroke-linecap="round" stroke-linejoin="round"/>
<path d="M133.041 26.691C133.451 26.691 133.784 26.3579 133.784 25.9471C133.784 25.5362 133.451 25.2031 133.041 25.2031C132.63 25.2031 132.297 25.5362 132.297 25.9471C132.297 26.3579 132.63 26.691 133.041 26.691Z" stroke="#F2F2F2" stroke-width="1.71" stroke-linecap="round" stroke-linejoin="round"/>
<path d="M129.819 36.1035L130.453 38.7023" stroke="#D3D3D3" stroke-width="1.71" stroke-linecap="round" stroke-linejoin="round"/>
<path d="M130.629 40.1695C131.039 40.1695 131.372 39.8364 131.372 39.4256C131.372 39.0147 131.039 38.6816 130.629 38.6816C130.218 38.6816 129.885 39.0147 129.885 39.4256C129.885 39.8364 130.218 40.1695 130.629 40.1695Z" stroke="#D3D3D3" stroke-width="1.71" stroke-linecap="round" stroke-linejoin="round"/>
<path d="M123.437 30.258L120.788 29.8936" stroke="#E5E5E5" stroke-width="1.71" stroke-linecap="round" stroke-linejoin="round"/>
<path d="M120.049 30.5367C120.46 30.5367 120.793 30.2036 120.793 29.7928C120.793 29.3819 120.46 29.0488 120.049 29.0488C119.639 29.0488 119.306 29.3819 119.306 29.7928C119.306 30.2036 119.639 30.5367 120.049 30.5367Z" stroke="#E5E5E5" stroke-width="1.71" stroke-linecap="round" stroke-linejoin="round"/>
</g>
<defs>
<clipPath id="clip0_2997_24618">
<rect width="158" height="104" fill="white"/>
</clipPath>
</defs>
</svg>
