<svg width="158" height="104" viewBox="0 0 158 104" fill="none" xmlns="http://www.w3.org/2000/svg">
<g clip-path="url(#clip0_2997_24611)">
<path d="M78.9987 104C122.629 104 157.997 94.275 157.997 82.278C157.997 70.2811 122.629 60.5557 78.9987 60.5557C35.3689 60.5557 0 70.2811 0 82.278C0 94.275 35.3689 104 78.9987 104Z" fill="#F9F9F9"/>
<path d="M141.818 74.8758L101.684 81.5486H55.4796L16.9941 74.8758L24.55 56.6544C24.993 55.5823 25.7439 54.6657 26.7078 54.0206C27.6717 53.3755 28.8052 53.0308 29.965 53.0303H128.847C130.006 53.0302 131.139 53.3738 132.103 54.0175C133.067 54.6612 133.818 55.5762 134.262 56.6469L141.818 74.8758Z" fill="#D6D6D6"/>
<path d="M24.55 56.6542L16.9941 74.8756H27.4598V53.6006C26.1444 54.2218 25.1072 55.3103 24.55 56.6542Z" fill="#C1C1C1"/>
<path d="M134.262 56.6542L141.818 74.8756H131.353V53.6006C132.668 54.2218 133.705 55.3103 134.262 56.6542Z" fill="#C1C1C1"/>
<path d="M105.521 3.92576C103.51 1.64369 100.666 3.09135 100.666 3.09135C100.464 2.07404 100.385 1.03619 100.43 0L99.3167 0C99.303 1.25795 99.4422 2.5129 99.7313 3.73726C99.9698 4.9726 100.495 6.13472 101.264 7.13021C101.421 7.33903 101.589 7.53953 101.767 7.73089C99.6584 6.76578 98.4648 3.81769 98.4648 3.81769C98.4648 3.81769 96.4546 8.00735 100.108 10.8197C105.114 14.6651 110.235 10.3422 110.235 10.3422C106.581 8.85684 107.546 6.20532 105.521 3.92576Z" fill="#EFEFEF"/>
<path d="M36.5703 41.7588H107.87V62.8704C107.87 64.7722 107.115 66.596 105.77 67.9407C104.426 69.2854 102.602 70.0409 100.701 70.0409H43.7392C41.8379 70.0409 40.0145 69.2854 38.67 67.9407C37.3256 66.596 36.5703 64.7722 36.5703 62.8704V41.7588Z" fill="#EAEAEA"/>
<path d="M107.87 41.7588H36.5703V13.2329C36.5703 11.3312 37.3256 9.50738 38.67 8.16267C40.0145 6.81795 41.8379 6.0625 43.7392 6.0625H70.2539C71.5177 6.06261 72.7354 6.53706 73.6662 7.39203L84.0314 16.9425C84.9637 17.7939 86.1813 18.2647 87.4437 18.262H100.701C102.602 18.262 104.426 19.0175 105.77 20.3622C107.115 21.7069 107.87 23.5307 107.87 25.4324V41.7588Z" fill="#F9F9F9"/>
<path d="M52.5771 20.9082H91.8667C93.4201 20.9082 94.9099 21.5254 96.0084 22.6241C97.1068 23.7228 97.7239 25.2129 97.7239 26.7667V41.756H46.7148V26.7667C46.7148 25.9969 46.8665 25.2347 47.1612 24.5236C47.4558 23.8125 47.8877 23.1664 48.4322 22.6223C48.9766 22.0783 49.6229 21.6468 50.3341 21.3527C51.0453 21.0586 51.8075 20.9075 52.5771 20.9082Z" fill="#DBDBDB"/>
<path d="M56.0974 26.9102H53.2529C52.6645 26.9102 52.1875 27.3873 52.1875 27.9758V30.8208C52.1875 31.4094 52.6645 31.8865 53.2529 31.8865H56.0974C56.6858 31.8865 57.1628 31.4094 57.1628 30.8208V27.9758C57.1628 27.3873 56.6858 26.9102 56.0974 26.9102Z" fill="#FFFDFD"/>
<path d="M92.1786 26.9102H61.2264C60.7255 26.9102 60.3193 27.3164 60.3193 27.8175V30.9792C60.3193 31.4803 60.7255 31.8865 61.2264 31.8865H92.1786C92.6796 31.8865 93.0858 31.4803 93.0858 30.9792V27.8175C93.0858 27.3164 92.6796 26.9102 92.1786 26.9102Z" fill="#FFFDFD"/>
<path d="M56.0974 34.334H53.2529C52.6645 34.334 52.1875 34.8111 52.1875 35.3996V38.2447C52.1875 38.8332 52.6645 39.3103 53.2529 39.3103H56.0974C56.6858 39.3103 57.1628 38.8332 57.1628 38.2447V35.3996C57.1628 34.8111 56.6858 34.334 56.0974 34.334Z" fill="#FFFDFD"/>
<path d="M92.1786 34.334H61.2264C60.7255 34.334 60.3193 34.7402 60.3193 35.2413V38.403C60.3193 38.9041 60.7255 39.3103 61.2264 39.3103H92.1786C92.6796 39.3103 93.0858 38.9041 93.0858 38.403V35.2413C93.0858 34.7402 92.6796 34.334 92.1786 34.334Z" fill="#FFFDFD"/>
<path d="M122.787 27.4248L139.319 33.1021L137.639 37.9941C137.488 38.4354 137.167 38.7985 136.748 39.0034C136.329 39.2083 135.846 39.2383 135.404 39.0868L122.2 34.5521C121.759 34.4006 121.396 34.08 121.191 33.6608C120.986 33.2416 120.956 32.7581 121.108 32.3168L122.787 27.4248Z" fill="#EAEAEA"/>
<path d="M139.322 33.0977L122.791 27.4201L125.053 20.8052C125.204 20.3644 125.525 20.002 125.944 19.7975C126.363 19.593 126.845 19.5631 127.286 19.7144L133.435 21.8256C133.728 21.9258 133.972 22.1332 134.119 22.4061L135.764 25.4422C135.911 25.7151 136.155 25.9225 136.448 26.0228L139.524 27.0783C139.964 27.2302 140.326 27.5509 140.531 27.9698C140.735 28.3887 140.765 28.8717 140.614 29.3127L139.322 33.0977Z" fill="#F9F9F9"/>
<path d="M128.159 23.866L137.261 26.992C137.621 27.1158 137.918 27.3778 138.085 27.7203C138.253 28.0629 138.277 28.4579 138.153 28.8185L136.96 32.2938L125.144 28.2358L126.338 24.7581C126.462 24.3975 126.724 24.1009 127.066 23.9334C127.409 23.766 127.804 23.7415 128.164 23.8653L128.159 23.866Z" fill="#DBDBDB"/>
<path d="M18.5566 46.123L30.1031 39.4553L32.0756 42.8725C32.2536 43.1808 32.3018 43.5471 32.2097 43.8909C32.1176 44.2347 31.8927 44.5279 31.5845 44.7058L22.3621 50.0315C22.0539 50.2095 21.6877 50.2577 21.3439 50.1656C21.0002 50.0735 20.7071 49.8485 20.5292 49.5403L18.5566 46.123Z" fill="#EAEAEA"/>
<path d="M30.1031 39.4584L18.5569 46.1211L15.8884 41.5017C15.8009 41.3484 15.7445 41.1794 15.7225 41.0043C15.7004 40.8292 15.713 40.6515 15.7597 40.4813C15.8064 40.3112 15.8862 40.1519 15.9945 40.0126C16.1028 39.8732 16.2375 39.7567 16.3909 39.6695L20.6752 37.1964C20.8797 37.0789 21.1208 37.0421 21.3511 37.0934L23.9217 37.6689C24.1527 37.7211 24.3949 37.6843 24.6001 37.5659L26.746 36.3268C26.8992 36.239 27.0682 36.1824 27.2433 36.1601C27.4184 36.1378 27.5962 36.1504 27.7664 36.1972C27.9367 36.2439 28.096 36.3238 28.2352 36.4323C28.3745 36.5408 28.4909 36.6758 28.5778 36.8295L30.1031 39.4584Z" fill="#F9F9F9"/>
<path d="M19.2001 41.2469L25.563 37.5725C25.8147 37.4271 26.1137 37.3878 26.3944 37.463C26.675 37.5382 26.9143 37.7219 27.0596 37.9735L28.4605 40.4004L20.2065 45.1669L18.8056 42.74C18.7337 42.6154 18.687 42.4778 18.6682 42.3351C18.6494 42.1925 18.6589 42.0475 18.6961 41.9085C18.7334 41.7695 18.7976 41.6392 18.8852 41.525C18.9728 41.4109 19.082 41.3151 19.2066 41.2431L19.2001 41.2469Z" fill="#DBDBDB"/>
<path d="M98.9523 35.0907L78.6794 70.2114C78.2173 71.0108 77.9739 71.9178 77.9736 72.8412C77.9733 73.7646 78.2162 74.6717 78.6777 75.4714C79.1392 76.2711 79.8032 76.9351 80.6027 77.3967C81.4023 77.8582 82.3093 78.101 83.2325 78.1007H123.781C124.704 78.1003 125.61 77.857 126.409 77.3953C127.209 76.9335 127.872 76.2696 128.334 75.4702C128.795 74.6707 129.038 73.7639 129.038 72.8409C129.038 71.9178 128.795 71.011 128.334 70.2114L108.061 35.0907C107.599 34.2911 106.936 33.6272 106.136 33.1656C105.337 32.704 104.43 32.4609 103.507 32.4609C102.584 32.4609 101.677 32.704 100.877 33.1656C100.078 33.6272 99.4139 34.2911 98.9523 35.0907Z" fill="#BCBCBC"/>
<path d="M103.506 65.1121C102.999 65.1082 102.512 64.9124 102.143 64.5642C101.773 64.216 101.55 63.7411 101.516 63.2347L100.536 47.6146C100.511 47.2079 100.569 46.8003 100.707 46.4169C100.845 46.0336 101.06 45.6826 101.339 45.3856C101.618 45.0887 101.955 44.852 102.329 44.6903C102.703 44.5286 103.106 44.4452 103.514 44.4453C103.921 44.4452 104.324 44.5286 104.698 44.6903C105.072 44.852 105.409 45.0887 105.688 45.3856C105.967 45.6826 106.182 46.0336 106.32 46.4169C106.459 46.8003 106.517 47.2079 106.491 47.6146L105.514 63.2347C105.48 63.7441 105.254 64.2215 104.881 64.5702C104.508 64.9189 104.017 65.1126 103.506 65.1121Z" fill="#F9F9F9"/>
<path d="M103.506 73.1943C105.005 73.1943 106.22 71.9791 106.22 70.48C106.22 68.9809 105.005 67.7656 103.506 67.7656C102.007 67.7656 100.792 68.9809 100.792 70.48C100.792 71.9791 102.007 73.1943 103.506 73.1943Z" fill="#F9F9F9"/>
<path d="M97.3548 76.1703L95.709 78.8646C95.4677 79.26 95.1288 79.5868 94.7248 79.8134C94.3209 80.0401 93.8654 80.1591 93.4022 80.1589H65.4101C64.9469 80.1591 64.4914 80.0401 64.0875 79.8134C63.6835 79.5868 63.3446 79.26 63.1033 78.8646L61.4575 76.1703C61.2162 75.7749 60.8773 75.4481 60.4733 75.2214C60.0694 74.9948 59.6139 74.8758 59.1508 74.876H16.9941V88.2391C16.9941 89.3305 17.4274 90.3773 18.1988 91.1493C18.9701 91.9212 20.0164 92.3552 21.1075 92.3559H137.7C138.791 92.3559 139.838 91.9222 140.61 91.1501C141.382 90.3781 141.816 89.331 141.816 88.2391V74.876H99.6615C99.1984 74.8763 98.7432 74.9955 98.3393 75.2221C97.9354 75.4487 97.5965 75.7752 97.3548 76.1703Z" fill="#EFEFEF"/>
</g>
<defs>
<clipPath id="clip0_2997_24611">
<rect width="158" height="104" fill="white"/>
</clipPath>
</defs>
</svg>
