<svg width="159" height="100" viewBox="0 0 159 100" fill="none" xmlns="http://www.w3.org/2000/svg">
<g clip-path="url(#clip0_2997_24613)">
<path d="M79.4987 100C123.405 100 158.997 90.3081 158.997 78.3522C158.997 66.3963 123.405 56.7041 79.4987 56.7041C35.5928 56.7041 0 66.3963 0 78.3522C0 90.3081 35.5928 100 79.4987 100Z" fill="#F9F9F9"/>
<path d="M142.716 70.9752L102.328 77.6252H55.8306L17.1016 70.9752L24.7053 52.8162C25.1522 51.7491 25.9084 50.8373 26.8783 50.1958C27.8482 49.5542 28.9883 49.2119 30.1545 49.2119H129.663C130.829 49.2119 131.969 49.5542 132.939 50.1958C133.909 50.8373 134.665 51.7491 135.112 52.8162L142.716 70.9752Z" fill="#D6D6D6"/>
<path d="M81.6181 17.7656H60.792C59.2209 17.7656 57.9473 19.0272 57.9473 20.5834V22.1288C57.9473 23.685 59.2209 24.9466 60.792 24.9466H81.6181C83.1892 24.9466 84.4629 23.685 84.4629 22.1288V20.5834C84.4629 19.0272 83.1892 17.7656 81.6181 17.7656Z" fill="white"/>
<path d="M83.4533 30.0215H58.9556C57.2672 30.0215 55.8984 31.3772 55.8984 33.0497V34.1743C55.8984 35.8467 57.2672 37.2024 58.9556 37.2024H83.4533C85.1417 37.2024 86.5105 35.8467 86.5105 34.1743V33.0497C86.5105 31.3772 85.1417 30.0215 83.4533 30.0215Z" fill="white"/>
<path d="M86.7587 42.2764H55.6511C53.7727 42.2764 52.25 43.7846 52.25 45.6452V46.0885C52.25 47.9491 53.7727 49.4573 55.6511 49.4573H86.7587C88.6371 49.4573 90.1598 47.9491 90.1598 46.0885V45.6452C90.1598 43.7846 88.6371 42.2764 86.7587 42.2764Z" fill="white"/>
<path d="M91.095 54.5352H51.314C49.3128 54.5352 47.6904 56.1421 47.6904 58.1244V58.1269C47.6904 60.1092 49.3128 61.7161 51.314 61.7161H91.095C93.0962 61.7161 94.7186 60.1092 94.7186 58.1269V58.1244C94.7186 56.1421 93.0962 54.5352 91.095 54.5352Z" fill="white"/>
<path d="M24.7053 52.8166L17.1016 70.9757H27.6335V49.7734C26.3098 50.3925 25.266 51.4773 24.7053 52.8166Z" fill="#C1C1C1"/>
<path d="M135.112 52.8166L142.715 70.9757H132.184V49.7734C133.507 50.3925 134.551 51.4773 135.112 52.8166Z" fill="#C1C1C1"/>
<path d="M118.698 3.91234C116.675 1.63807 113.813 3.08078 113.813 3.08078C113.61 2.06697 113.531 1.03256 113.578 0L112.455 0C112.443 1.25359 112.583 2.5041 112.872 3.72448C113.116 4.95619 113.648 6.11421 114.425 7.10582C114.587 7.32123 114.756 7.5191 114.931 7.70445C112.812 6.74264 111.608 3.80463 111.608 3.80463C111.608 3.80463 109.585 7.97996 113.262 10.7827C118.299 14.6149 123.452 10.3068 123.452 10.3068C119.765 8.82655 120.726 6.18409 118.698 3.91234Z" fill="#EFEFEF"/>
<path d="M39.5159 21.2373H27.2544C26.1679 21.2373 25.2871 22.1097 25.2871 23.186V36.4007C25.2871 37.4769 26.1679 38.3494 27.2544 38.3494H39.5159C40.6024 38.3494 41.4832 37.4769 41.4832 36.4007V23.186C41.4832 22.1097 40.6024 21.2373 39.5159 21.2373Z" fill="#EAEAEA"/>
<path d="M37.9422 23.8877H31.8633C31.4178 23.8877 31.0566 24.2454 31.0566 24.6867V25.9641C31.0566 26.4054 31.4178 26.7631 31.8633 26.7631H37.9422C38.3877 26.7631 38.7488 26.4054 38.7488 25.9641V24.6867C38.7488 24.2454 38.3877 23.8877 37.9422 23.8877Z" fill="white"/>
<path d="M35.674 28.3555H31.7267C31.3567 28.3555 31.0566 28.6526 31.0566 29.0192V30.5671C31.0566 30.9337 31.3567 31.2309 31.7267 31.2309H35.674C36.0441 31.2309 36.3441 30.9337 36.3441 30.5671V29.0192C36.3441 28.6526 36.0441 28.3555 35.674 28.3555Z" fill="white"/>
<path d="M37.9422 32.8242H31.8633C31.4178 32.8242 31.0566 33.1819 31.0566 33.6232V34.9006C31.0566 35.3419 31.4178 35.6996 31.8633 35.6996H37.9422C38.3877 35.6996 38.7488 35.3419 38.7488 34.9006V33.6232C38.7488 33.1819 38.3877 32.8242 37.9422 32.8242Z" fill="white"/>
<path d="M28.6493 26.3321C29.2107 26.3321 29.6659 25.8813 29.6659 25.3252C29.6659 24.7692 29.2107 24.3184 28.6493 24.3184C28.0879 24.3184 27.6328 24.7692 27.6328 25.3252C27.6328 25.8813 28.0879 26.3321 28.6493 26.3321Z" fill="white"/>
<path d="M28.6493 30.7999C29.2107 30.7999 29.6659 30.3491 29.6659 29.793C29.6659 29.2369 29.2107 28.7861 28.6493 28.7861C28.0879 28.7861 27.6328 29.2369 27.6328 29.793C27.6328 30.3491 28.0879 30.7999 28.6493 30.7999Z" fill="white"/>
<path d="M28.6493 35.2687C29.2107 35.2687 29.6659 34.8179 29.6659 34.2618C29.6659 33.7057 29.2107 33.2549 28.6493 33.2549C28.0879 33.2549 27.6328 33.7057 27.6328 34.2618C27.6328 34.8179 28.0879 35.2687 28.6493 35.2687Z" fill="white"/>
<path d="M123.156 23.007L117.468 28.6409C116.964 29.1407 116.964 29.9511 117.468 30.4509L123.659 36.5824C124.163 37.0823 124.981 37.0823 125.486 36.5824L131.174 30.9486C131.678 30.4488 131.678 29.6384 131.174 29.1386L124.983 23.007C124.479 22.5072 123.661 22.5072 123.156 23.007Z" fill="#EAEAEA"/>
<path d="M123.67 24.9609L120.852 27.7521C120.645 27.9575 120.645 28.2905 120.852 28.496L121.447 29.0857C121.655 29.2911 121.991 29.2911 122.198 29.0857L125.016 26.2945C125.224 26.0891 125.224 25.756 125.016 25.5506L124.421 24.9609C124.214 24.7554 123.877 24.7554 123.67 24.9609Z" fill="white"/>
<path d="M124.711 28.0755L122.88 29.8891C122.709 30.0593 122.709 30.3352 122.88 30.5054L123.605 31.2227C123.776 31.3929 124.055 31.3929 124.227 31.2227L126.058 29.4091C126.23 29.2389 126.23 28.963 126.058 28.7928L125.334 28.0755C125.162 27.9053 124.883 27.9053 124.711 28.0755Z" fill="white"/>
<path d="M127.857 29.1054L125.04 31.8966C124.832 32.102 124.832 32.4351 125.04 32.6405L125.635 33.2303C125.842 33.4357 126.179 33.4357 126.386 33.2303L129.204 30.439C129.411 30.2336 129.411 29.9006 129.204 29.6952L128.608 29.1054C128.401 28.9 128.065 28.9 127.857 29.1054Z" fill="white"/>
<path d="M120.033 30.5569C120.401 30.5569 120.7 30.2608 120.7 29.8956C120.7 29.5304 120.401 29.2344 120.033 29.2344C119.664 29.2344 119.365 29.5304 119.365 29.8956C119.365 30.2608 119.664 30.5569 120.033 30.5569Z" fill="white"/>
<path d="M122.127 32.6311C122.495 32.6311 122.794 32.335 122.794 31.9698C122.794 31.6046 122.495 31.3086 122.127 31.3086C121.758 31.3086 121.459 31.6046 121.459 31.9698C121.459 32.335 121.758 32.6311 122.127 32.6311Z" fill="white"/>
<path d="M124.218 34.7053C124.587 34.7053 124.886 34.4092 124.886 34.0441C124.886 33.6789 124.587 33.3828 124.218 33.3828C123.85 33.3828 123.551 33.6789 123.551 34.0441C123.551 34.4092 123.85 34.7053 124.218 34.7053Z" fill="white"/>
<path d="M102.012 7.63965H76.4469C73.9526 7.63965 71.9307 9.64245 71.9307 12.113V52.8544C71.9307 55.325 73.9526 57.3278 76.4469 57.3278H102.012C104.506 57.3278 106.528 55.325 106.528 52.8544V12.113C106.528 9.64245 104.506 7.63965 102.012 7.63965Z" fill="#C6C6C6"/>
<path d="M102.469 31.0258V69.25C102.469 69.8286 102.354 70.4017 102.131 70.9364C101.908 71.4711 101.58 71.9569 101.167 72.3661C100.754 72.7752 100.263 73.0997 99.7235 73.321C99.1837 73.5423 98.6052 73.6561 98.021 73.6557H51.7009C51.1167 73.6561 50.5381 73.5423 49.9983 73.321C49.4585 73.0997 48.9681 72.7752 48.555 72.3661C48.1419 71.9569 47.8142 71.4711 47.5908 70.9364C47.3674 70.4017 47.2526 69.8286 47.2529 69.25V15.6495C47.2526 15.0707 47.3674 14.4975 47.5908 13.9627C47.8142 13.4279 48.1417 12.9419 48.5548 12.5325C48.9679 12.1231 49.4583 11.7984 49.9981 11.5768C50.5379 11.3553 51.1165 11.2412 51.7009 11.2412H82.5506" fill="#EAEAEA"/>
<path d="M82.5303 11.249V26.5953C82.5303 27.1745 82.6456 27.748 82.8696 28.283C83.0936 28.8181 83.4219 29.3041 83.8357 29.7133C84.2496 30.1225 84.7408 30.4469 85.2813 30.6678C85.8218 30.8888 86.401 31.002 86.9858 31.0011H102.476L82.5303 11.249Z" fill="#D8D8D8"/>
<path d="M56.5912 30.2766C58.5114 30.2766 60.0681 28.7347 60.0681 26.8326C60.0681 24.9306 58.5114 23.3887 56.5912 23.3887C54.6709 23.3887 53.1143 24.9306 53.1143 26.8326C53.1143 28.7347 54.6709 30.2766 56.5912 30.2766Z" fill="white"/>
<path d="M75.1064 24.9814H64.9361C63.904 24.9814 63.0674 25.8102 63.0674 26.8324V26.8349C63.0674 27.8572 63.904 28.6859 64.9361 28.6859H75.1064C76.1384 28.6859 76.975 27.8572 76.975 26.8349V26.8324C76.975 25.8102 76.1384 24.9814 75.1064 24.9814Z" fill="white"/>
<path d="M56.5912 41.0823C58.5114 41.0823 60.0681 39.5403 60.0681 37.6383C60.0681 35.7362 58.5114 34.1943 56.5912 34.1943C54.6709 34.1943 53.1143 35.7362 53.1143 37.6383C53.1143 39.5403 54.6709 41.0823 56.5912 41.0823Z" fill="white"/>
<path d="M93.3077 35.7842H64.9361C63.904 35.7842 63.0674 36.6129 63.0674 37.6352V37.6377C63.0674 38.6599 63.904 39.4886 64.9361 39.4886H93.3077C94.3397 39.4886 95.1764 38.6599 95.1764 37.6377V37.6352C95.1764 36.6129 94.3397 35.7842 93.3077 35.7842Z" fill="white"/>
<path d="M56.5912 52.8362C58.5114 52.8362 60.0681 51.2942 60.0681 49.3922C60.0681 47.4902 58.5114 45.9482 56.5912 45.9482C54.6709 45.9482 53.1143 47.4902 53.1143 49.3922C53.1143 51.2942 54.6709 52.8362 56.5912 52.8362Z" fill="white"/>
<path d="M89.9673 47.5391H64.9361C63.904 47.5391 63.0674 48.3678 63.0674 49.39V49.3925C63.0674 50.4148 63.904 51.2435 64.9361 51.2435H89.9673C90.9994 51.2435 91.836 50.4148 91.836 49.3925V49.39C91.836 48.3678 90.9994 47.5391 89.9673 47.5391Z" fill="white"/>
<path d="M48.5114 51.3396L52.1268 47.7585C52.3858 47.502 52.7369 47.3579 53.1031 47.3579C53.4693 47.3579 53.8205 47.502 54.0794 47.7585L56.647 50.3018L51.079 55.8169L48.5114 53.2737C48.2525 53.0172 48.107 52.6693 48.107 52.3066C48.107 51.9439 48.2525 51.5961 48.5114 51.3396Z" fill="#D8D8D8"/>
<path d="M56.6461 50.3012L51.0781 55.8164L62.0442 66.6785L67.6121 61.1633L56.6461 50.3012Z" fill="#D1D1D1"/>
<path d="M68.2437 68.4531L62.0459 66.6773L67.609 61.167L69.4018 67.306C69.4472 67.4651 69.449 67.6333 69.4069 67.7933C69.3649 67.9532 69.2805 68.0992 69.1625 68.2161C69.0444 68.333 68.8971 68.4166 68.7356 68.4583C68.5741 68.4999 68.4043 68.4982 68.2437 68.4531Z" fill="#D8D8D8"/>
<path d="M68.2433 68.4531L64.9863 67.5214L68.4582 64.085L69.3963 67.301C69.4425 67.4599 69.445 67.6281 69.4036 67.7882C69.3623 67.9484 69.2785 68.0947 69.161 68.2121C69.0435 68.3295 68.8965 68.4138 68.7352 68.4561C68.5739 68.4985 68.404 68.4975 68.2433 68.4531Z" fill="white"/>
<path d="M99.5792 31.3258L79.178 66.3265C78.713 67.1231 78.4681 68.027 78.4678 68.9473C78.4675 69.8675 78.7119 70.7715 79.1763 71.5685C79.6408 72.3654 80.3089 73.0272 81.1135 73.4872C81.9182 73.9471 82.8309 74.1891 83.7599 74.1887H124.565C125.494 74.1883 126.406 73.9459 127.21 73.4857C128.014 73.0256 128.682 72.3639 129.146 71.5672C129.611 70.7705 129.855 69.8668 129.855 68.9469C129.855 68.027 129.611 67.1233 129.147 66.3265L108.746 31.3258C108.281 30.529 107.613 29.8673 106.808 29.4073C106.004 28.9473 105.091 28.7051 104.162 28.7051C103.233 28.7051 102.321 28.9473 101.516 29.4073C100.712 29.8673 100.044 30.529 99.5792 31.3258Z" fill="#BCBCBC"/>
<path d="M104.161 61.2446C103.649 61.2425 103.157 61.0483 102.783 60.7011C102.41 60.3539 102.184 59.8795 102.15 59.3735L101.164 43.8069C101.138 43.4015 101.197 42.9953 101.336 42.6133C101.475 42.2313 101.692 41.8815 101.972 41.5855C102.253 41.2896 102.592 41.0538 102.969 40.8926C103.345 40.7314 103.751 40.6483 104.161 40.6484C104.571 40.6483 104.976 40.7314 105.352 40.8926C105.729 41.0538 106.068 41.2896 106.349 41.5855C106.629 41.8815 106.846 42.2313 106.985 42.6133C107.124 42.9953 107.183 43.4015 107.157 43.8069L106.173 59.3735C106.139 59.8799 105.913 60.3547 105.539 60.7019C105.166 61.0492 104.673 61.2431 104.161 61.2446Z" fill="#F9F9F9"/>
<path d="M104.161 69.2998C105.669 69.2998 106.892 68.0887 106.892 66.5947C106.892 65.1008 105.669 63.8896 104.161 63.8896C102.652 63.8896 101.43 65.1008 101.43 66.5947C101.43 68.0887 102.652 69.2998 104.161 69.2998Z" fill="#F9F9F9"/>
<path d="M97.9708 72.2655L96.3146 74.9505C96.0718 75.3446 95.7307 75.6703 95.3242 75.8962C94.9177 76.1221 94.4594 76.2406 93.9932 76.2405H65.8239C65.3578 76.2406 64.8995 76.1221 64.493 75.8962C64.0864 75.6703 63.7454 75.3446 63.5026 74.9505L61.8463 72.2655C61.6035 71.8714 61.2625 71.5458 60.8559 71.3199C60.4494 71.094 59.9911 70.9754 59.525 70.9756H17.1016V84.2931C17.1016 85.3807 17.5376 86.4239 18.3138 87.1932C19.09 87.9625 20.1429 88.3951 21.241 88.3958H138.571C139.67 88.3958 140.723 87.9635 141.5 87.1941C142.277 86.4247 142.713 85.3812 142.713 84.2931V70.9756H100.292C99.8261 70.9759 99.368 71.0947 98.9616 71.3205C98.5551 71.5464 98.214 71.8717 97.9708 72.2655Z" fill="#EFEFEF"/>
</g>
<defs>
<clipPath id="clip0_2997_24613">
<rect width="159" height="100" fill="white"/>
</clipPath>
</defs>
</svg>
