<svg width="159" height="101" viewBox="0 0 159 101" fill="none" xmlns="http://www.w3.org/2000/svg">
<g clip-path="url(#clip0_2997_24616)">
<path d="M79.4987 101C123.405 101 158.997 91.2106 158.997 79.1351C158.997 67.0596 123.405 57.2705 79.4987 57.2705C35.5928 57.2705 0 67.0596 0 79.1351C0 91.2106 35.5928 101 79.4987 101Z" fill="#F9F9F9"/>
<path d="M142.716 71.685L102.328 78.4015H55.8306L17.1016 71.685L24.7053 53.3444C25.1522 52.2667 25.9084 51.3457 26.8783 50.6978C27.8482 50.0498 28.9883 49.7041 30.1545 49.7041H129.663C130.829 49.7041 131.969 50.0498 132.939 50.6978C133.909 51.3457 134.665 52.2667 135.112 53.3444L142.716 71.685Z" fill="#D6D6D6"/>
<path d="M24.7053 53.3451L17.1016 71.6858H27.6335V50.2715C26.3098 50.8967 25.266 51.9924 24.7053 53.3451Z" fill="#C1C1C1"/>
<path d="M135.112 53.3451L142.715 71.6858H132.184V50.2715C133.507 50.8967 134.551 51.9924 135.112 53.3451Z" fill="#C1C1C1"/>
<path d="M118.698 3.95146C116.675 1.65445 113.813 3.11158 113.813 3.11158C113.61 2.08764 113.531 1.04288 113.578 0L112.455 0C112.443 1.26612 112.583 2.52914 112.872 3.76173C113.116 5.00575 113.648 6.17535 114.425 7.17688C114.587 7.39444 114.756 7.59429 114.931 7.78149C112.812 6.81007 111.608 3.84268 111.608 3.84268C111.608 3.84268 109.585 8.05976 113.262 10.8905C118.299 14.7611 123.452 10.4099 123.452 10.4099C119.765 8.91482 120.726 6.24594 118.698 3.95146Z" fill="#EFEFEF"/>
<path d="M100.165 20.5341L107.521 15.6441L100.782 8.90234L95.8944 16.2588L94.5415 19.8738L90.2049 21.9533L78.8486 33.3118L79.9183 34.3794L82.0524 36.5145L83.1221 37.5846L94.4758 26.226L96.5518 21.8875L100.165 20.5341Z" fill="#EFEFEF"/>
<path d="M73.3694 34.0938L71.3414 36.1251L64.7441 42.7227L73.7133 51.6957L80.3081 45.0981L82.3386 43.0667L73.3694 34.0938Z" fill="#D8D8D8"/>
<path d="M55.911 73.297C53.6175 75.594 49.7588 75.4524 47.2933 72.9859L43.4649 69.1533C40.9969 66.6868 40.8579 62.8289 43.1514 60.5319L60.6624 43.0059C62.9559 40.7089 66.8172 40.8505 69.2826 43.317L73.111 47.1496C75.579 49.6161 75.7181 53.4739 73.422 55.771L55.911 73.297Z" fill="#C6C6C6"/>
<path d="M84.8346 44.3643C83.4337 45.7632 81.0821 45.6772 79.5775 44.1746L72.2621 36.856C70.76 35.3534 70.6741 32.9982 72.0724 31.5992C73.4708 30.2003 75.825 30.2863 77.3295 31.7889L84.6424 39.1075C86.147 40.6102 86.233 42.9653 84.8346 44.3643Z" fill="#C6C6C6"/>
<path d="M60.4098 10.4654C56.8545 6.90862 51.6303 5.96249 46.9093 7.53599L55.1249 15.7526L45.655 25.2265L37.4419 17.0099C35.8691 21.7279 36.8148 26.9568 40.3701 30.5137C44.5879 34.7307 51.1599 35.2746 56.4423 32.2845L65.8262 41.6723L71.5612 35.9222L62.1799 26.5344C65.1612 21.2523 64.6175 14.6749 60.4098 10.4578" fill="#EFEFEF"/>
<path d="M82.5205 43.0966L74.0419 34.6144C71.8698 32.4414 68.6154 32.1732 66.772 34.0174L63.9121 36.8785C62.0712 38.7202 62.3367 41.976 64.5114 44.1515L72.9875 52.6338L82.5205 43.0966Z" fill="#D3D3D3"/>
<path d="M103.17 60.5296C105.463 62.8266 105.322 66.687 102.856 69.1535L99.0355 72.9835C96.5701 75.4526 92.7139 75.5917 90.4153 73.2972L72.9043 55.7788C70.6108 53.4843 70.7499 49.6214 73.2178 47.1549L77.0463 43.3248C79.5117 40.8583 83.3679 40.7167 85.6665 43.0137L103.17 60.5296Z" fill="#C6C6C6"/>
<path d="M98.2493 62.6188C99.726 64.0961 99.635 66.5804 98.0495 68.1665C96.464 69.7527 93.9784 69.8437 92.5041 68.3664C91.0299 66.889 91.1184 64.4073 92.7039 62.8186C94.2894 61.2299 96.7751 61.1439 98.2493 62.6188Z" fill="white"/>
<path d="M99.5792 31.6392L79.178 66.9898C78.713 67.7944 78.4681 68.7074 78.4678 69.6368C78.4675 70.5662 78.7119 71.4793 79.1763 72.2842C79.6408 73.0891 80.3089 73.7575 81.1135 74.2221C81.9182 74.6867 82.8309 74.931 83.7599 74.9307H124.565C125.494 74.9303 126.406 74.6854 127.21 74.2206C128.014 73.7559 128.682 73.0876 129.146 72.283C129.611 71.4783 129.855 70.5656 129.855 69.6364C129.855 68.7073 129.611 67.7946 129.147 66.9898L108.746 31.6392C108.281 30.8344 107.613 30.1661 106.808 29.7014C106.004 29.2368 105.091 28.9922 104.162 28.9922C103.233 28.9922 102.321 29.2368 101.516 29.7014C100.712 30.1661 100.044 30.8344 99.5792 31.6392Z" fill="#BCBCBC"/>
<path d="M104.161 61.8577C103.649 61.8557 103.157 61.6595 102.783 61.3088C102.41 60.9582 102.184 60.479 102.15 59.968L101.164 44.2457C101.138 43.8363 101.197 43.426 101.336 43.0402C101.475 42.6543 101.692 42.301 101.972 42.0021C102.253 41.7032 102.592 41.465 102.969 41.3023C103.345 41.1395 103.751 41.0556 104.161 41.0557C104.571 41.0556 104.976 41.1395 105.352 41.3023C105.729 41.465 106.068 41.7032 106.349 42.0021C106.629 42.301 106.846 42.6543 106.985 43.0402C107.124 43.426 107.183 43.8363 107.157 44.2457L106.173 59.968C106.139 60.4795 105.913 60.959 105.539 61.3097C105.166 61.6604 104.673 61.8563 104.161 61.8577Z" fill="#F9F9F9"/>
<path d="M104.161 69.9926C105.669 69.9926 106.892 68.7694 106.892 67.2604C106.892 65.7515 105.669 64.5283 104.161 64.5283C102.652 64.5283 101.43 65.7515 101.43 67.2604C101.43 68.7694 102.652 69.9926 104.161 69.9926Z" fill="#F9F9F9"/>
<path d="M97.9708 72.9884L96.3146 75.7002C96.0718 76.0983 95.7307 76.4272 95.3242 76.6553C94.9177 76.8835 94.4594 77.0032 93.9932 77.0031H65.8239C65.3578 77.0032 64.8995 76.8835 64.493 76.6553C64.0864 76.4272 63.7454 76.0983 63.5026 75.7002L61.8463 72.9884C61.6035 72.5903 61.2625 72.2614 60.8559 72.0333C60.4494 71.8051 59.9911 71.6854 59.525 71.6855H17.1016V85.1362C17.1016 86.2347 17.5376 87.2883 18.3138 88.0653C19.09 88.8424 20.1429 89.2792 21.241 89.2799H138.571C139.67 89.2799 140.723 88.8433 141.5 88.0662C142.277 87.2891 142.713 86.2352 142.713 85.1362V71.6855H100.292C99.8261 71.6859 99.368 71.8058 98.9616 72.0339C98.5551 72.262 98.214 72.5907 97.9708 72.9884Z" fill="#EFEFEF"/>
<path d="M33.1431 40.2988L35.5605 42.7198C35.6513 42.8099 35.7234 42.9171 35.7726 43.0352C35.8218 43.1533 35.8471 43.2799 35.8471 43.4079C35.8471 43.5358 35.8218 43.6625 35.7726 43.7806C35.7234 43.8987 35.6513 44.0059 35.5605 44.096L33.2695 46.3879C33.1795 46.4788 33.0723 46.5509 32.9543 46.6001C32.8362 46.6494 32.7096 46.6747 32.5817 46.6747C32.4538 46.6747 32.3272 46.6494 32.2091 46.6001C32.0911 46.5509 31.9839 46.4788 31.8939 46.3879L29.3652 43.8582" fill="white"/>
<path d="M33.1431 40.2988L35.5605 42.7198C35.6513 42.8099 35.7234 42.9171 35.7726 43.0352C35.8218 43.1533 35.8471 43.2799 35.8471 43.4079C35.8471 43.5358 35.8218 43.6625 35.7726 43.7806C35.7234 43.8987 35.6513 44.0059 35.5605 44.096L33.2695 46.3879C33.1795 46.4788 33.0723 46.5509 32.9543 46.6001C32.8362 46.6494 32.7096 46.6747 32.5817 46.6747C32.4538 46.6747 32.3272 46.6494 32.2091 46.6001C32.0911 46.5509 31.9839 46.4788 31.8939 46.3879L29.3652 43.8582" stroke="#EAEAEA" stroke-width="3.47" stroke-linecap="round" stroke-linejoin="round"/>
<path d="M25.5572 40.0485L23.3623 37.8527L27.0289 34.1846L29.2946 36.4512" fill="white"/>
<path d="M25.5572 40.0485L23.3623 37.8527L27.0289 34.1846L29.2946 36.4512" stroke="#EAEAEA" stroke-width="3.47" stroke-linecap="round" stroke-linejoin="round"/>
<path d="M22.0273 32.8486L23.3701 37.8601L27.0366 34.1919L22.0273 32.8486Z" fill="white" stroke="#EAEAEA" stroke-width="3.47" stroke-linecap="round" stroke-linejoin="round"/>
<path d="M33.0069 32.7362L21.9157 43.8321C21.5572 44.1907 21.5572 44.7722 21.9157 45.1308L24.3617 47.5779C24.7202 47.9365 25.3013 47.9365 25.6598 47.5779L36.751 36.4819C37.1095 36.1233 37.1095 35.5419 36.751 35.1833L34.305 32.7362C33.9465 32.3776 33.3653 32.3776 33.0069 32.7362Z" fill="white" stroke="#EAEAEA" stroke-width="3.47" stroke-linecap="round" stroke-linejoin="round"/>
<path d="M23.4941 42.2568L25.2313 43.9948" stroke="#EAEAEA" stroke-width="3.47" stroke-linecap="round" stroke-linejoin="round"/>
<path d="M26.1113 39.6387L27.4085 40.9364" stroke="#EAEAEA" stroke-width="3.47" stroke-linecap="round" stroke-linejoin="round"/>
<path d="M28.7285 37.0205L30.4657 38.7584" stroke="#EAEAEA" stroke-width="3.47" stroke-linecap="round" stroke-linejoin="round"/>
<path d="M31.3457 34.4023L32.6429 35.7001" stroke="#EAEAEA" stroke-width="3.47" stroke-linecap="round" stroke-linejoin="round"/>
<path d="M122.787 33.2815L121.085 34.984C121.021 35.0478 120.946 35.0985 120.863 35.1331C120.78 35.1677 120.691 35.1855 120.601 35.1855C120.511 35.1855 120.421 35.1677 120.338 35.1331C120.255 35.0985 120.18 35.0478 120.116 34.984L118.503 33.3725C118.375 33.2437 118.304 33.0695 118.304 32.8881C118.304 32.7066 118.375 32.5325 118.503 32.4036L120.273 30.6328" fill="white"/>
<path d="M122.787 33.2815L121.085 34.984C121.021 35.0478 120.946 35.0985 120.863 35.1331C120.78 35.1677 120.691 35.1855 120.601 35.1855C120.511 35.1855 120.421 35.1677 120.338 35.1331C120.255 35.0985 120.18 35.0478 120.116 34.984L118.503 33.3725C118.375 33.2437 118.304 33.0695 118.304 32.8881C118.304 32.7066 118.375 32.5325 118.503 32.4036L120.273 30.6328" stroke="#EAEAEA" stroke-width="2.44" stroke-linecap="round" stroke-linejoin="round"/>
<path d="M122.962 27.9461L124.507 26.4004L127.086 28.9807L125.493 30.5745" fill="white"/>
<path d="M122.962 27.9461L124.507 26.4004L127.086 28.9807L125.493 30.5745" stroke="#EAEAEA" stroke-width="2.44" stroke-linecap="round" stroke-linejoin="round"/>
<path d="M128.023 25.4619L124.501 26.4055L127.08 28.9858L128.023 25.4619Z" fill="white" stroke="#EAEAEA" stroke-width="2.44" stroke-linecap="round" stroke-linejoin="round"/>
<path d="M128.104 33.1892L120.301 25.3829C120.049 25.131 119.641 25.131 119.389 25.3829L117.667 27.1055C117.415 27.3574 117.415 27.7659 117.667 28.0178L125.47 35.8241C125.722 36.076 126.13 36.076 126.382 35.8241L128.104 34.1015C128.355 33.8496 128.355 33.4411 128.104 33.1892Z" fill="white" stroke="#EAEAEA" stroke-width="2.44" stroke-linecap="round" stroke-linejoin="round"/>
<path d="M121.411 26.4912L120.188 27.7156" stroke="#EAEAEA" stroke-width="2.44" stroke-linecap="round" stroke-linejoin="round"/>
<path d="M123.252 28.333L122.337 29.2488" stroke="#EAEAEA" stroke-width="2.44" stroke-linecap="round" stroke-linejoin="round"/>
<path d="M125.093 30.1748L123.869 31.3992" stroke="#EAEAEA" stroke-width="2.44" stroke-linecap="round" stroke-linejoin="round"/>
<path d="M126.931 32.0166L126.019 32.9298" stroke="#EAEAEA" stroke-width="2.44" stroke-linecap="round" stroke-linejoin="round"/>
</g>
<defs>
<clipPath id="clip0_2997_24616">
<rect width="159" height="101" fill="white"/>
</clipPath>
</defs>
</svg>
