<svg width="128" height="128" viewBox="0 0 128 128" fill="none" xmlns="http://www.w3.org/2000/svg">
<path d="M30.6 28L43.6 7.6L61.8 5.5L76 10.2L85.3 14.9L112.1 21.3L118 46.5L116.1 54.3L123.3 66.9L121 84.3L111 99L99.2 102.6L90 119.5L69.7 124.4L52 117C52 117 41.1 113.8 40.5 113.8C39.9 113.8 24.9 111.6 24.9 111.6L12.8 87.5V71.6L5 49.3L20.7 29.6L30.6 28Z" fill="white"/>
<path d="M125.2 60.8982C126.6 63.9982 127.5 67.2982 127.8 70.6982C128.1 74.0982 128 77.4982 127.3 80.7982C126.6 84.0982 125.4 87.2982 123.7 90.1982C122.6 92.1982 121.3 93.9982 119.7 95.6982C118.2 97.3982 116.5 98.8982 114.7 100.198C112.9 101.498 110.9 102.598 108.8 103.598C106.7 104.498 104.6 105.198 102.4 105.598C101.4 108.798 99.7997 111.898 97.7997 114.598C95.7997 117.298 93.3997 119.798 90.6997 121.698C87.9997 123.698 84.8997 125.198 81.6997 126.298C78.4997 127.398 75.0997 127.898 71.6997 127.898C69.4997 127.898 67.1997 127.698 64.9997 127.198C62.7997 126.698 60.5997 125.998 58.5997 125.098C56.4997 124.198 54.5997 122.998 52.7997 121.698C50.9997 120.398 49.2997 118.798 47.7997 117.098C44.4997 117.798 41.0997 117.998 37.6997 117.598C34.2997 117.198 30.9997 116.398 27.8997 114.998C24.7997 113.598 21.9997 111.798 19.3997 109.498C16.7997 107.198 14.6997 104.598 13.0997 101.598C11.9997 99.5982 10.9997 97.5982 10.2997 95.3982C9.59974 93.2982 9.09974 90.9982 8.89974 88.7982C8.69974 86.5982 8.69974 84.2982 8.89974 82.0982C9.09974 79.8982 9.59974 77.6982 10.2997 75.4982C7.99974 72.9982 6.19974 70.0982 4.79974 66.9982C3.39974 63.8982 2.49974 60.5982 2.19974 57.1982C1.89974 54.0982 1.99974 50.6982 2.69974 47.2982C3.39974 43.8982 4.59974 40.7982 6.29974 37.8982C7.39974 35.8982 8.69974 34.0982 10.1997 32.3982C11.6997 30.6982 13.3997 29.1982 15.1997 27.8982C16.9997 26.5982 18.9997 25.3982 21.0997 24.4982C23.1997 23.5982 25.2997 22.8982 27.4997 22.4982C28.4997 19.2982 30.0997 16.1982 32.0997 13.4982C34.0997 10.7982 36.4997 8.29824 39.1997 6.39824C41.8997 4.39824 44.9997 2.89824 48.1997 1.79824C51.3997 0.798242 54.7997 0.198242 58.1997 0.198242C60.3997 0.198242 62.6997 0.398242 64.8997 0.898242C67.0997 1.39824 69.2997 2.09824 71.2997 2.99824C73.3997 3.89824 75.2997 5.09824 77.0997 6.39824C78.8997 7.69824 80.5997 9.29824 82.0997 10.9982C85.3997 10.2982 88.7997 10.0982 92.1997 10.4982C95.5997 10.7982 98.8997 11.6982 102 13.0982C105.1 14.4982 107.9 16.2982 110.5 18.5982C113 20.8982 115.2 23.4982 116.8 26.4982C117.9 28.3982 118.9 30.4982 119.6 32.6982C120.3 34.7982 120.8 37.0982 121 39.2982C121.2 41.4982 121.2 43.7982 121 46.0982C120.8 48.2982 120.3 50.5982 119.6 52.6982C122 54.9982 123.8 57.7982 125.2 60.8982ZM80.8997 117.698C83.7997 116.498 86.3997 114.698 88.6997 112.498C90.8997 110.298 92.6997 107.598 93.8997 104.698C95.0997 101.798 95.6997 98.6982 95.6997 95.4982V65.8982V65.7982V65.6982C95.6997 65.6982 95.6997 65.6982 95.5997 65.5982C95.5997 65.5982 95.4997 65.5982 95.4997 65.4982L84.7997 59.2982V95.1982C84.7997 95.5982 84.6997 95.8982 84.6997 96.2982C84.5997 96.6982 84.4997 96.9982 84.2997 97.2982C84.0997 97.5982 83.8997 97.8982 83.5997 98.1982C83.2997 98.4982 83.0997 98.6982 82.6997 98.8982L57.2997 113.598C57.0997 113.698 56.6997 113.898 56.4997 113.998C57.5997 114.898 58.6997 115.698 59.8997 116.398C61.0997 117.098 62.3997 117.698 63.6997 118.198C64.9997 118.698 66.2997 118.998 67.6997 119.298C69.0997 119.498 70.4997 119.698 71.7997 119.698C74.7997 119.598 77.9997 118.998 80.8997 117.698ZM20.2997 97.5982C21.8997 100.298 23.9997 102.698 26.4997 104.598C28.9997 106.498 31.7997 107.898 34.8997 108.698C37.8997 109.498 41.0997 109.698 44.1997 109.298C47.2997 108.898 50.2997 107.898 52.9997 106.298L78.6997 91.4982L78.7997 91.3982C78.7997 91.3982 78.7997 91.3982 78.7997 91.2982V91.1982V78.7982L47.7997 96.7982C47.4997 96.9982 47.0997 97.0982 46.7997 97.1982C46.3997 97.2982 46.0997 97.2982 45.6997 97.2982C45.2997 97.2982 44.9997 97.2982 44.5997 97.1982C44.2997 97.0982 43.8997 96.9982 43.5997 96.7982L18.1997 81.9982C17.9997 81.8982 17.5997 81.6982 17.4997 81.4982C17.2997 82.8982 17.0997 84.2982 17.0997 85.5982C17.0997 86.9982 17.1997 88.3982 17.4997 89.6982C17.6997 91.0982 18.0997 92.3982 18.5997 93.6982C18.9997 95.1982 19.5997 96.3982 20.2997 97.5982ZM13.5997 42.0982C11.9997 44.7982 10.9997 47.7982 10.5997 50.9982C10.1997 54.1982 10.3997 57.2982 11.1997 60.2982C11.9997 63.2982 13.3997 66.1982 15.2997 68.6982C17.1997 71.1982 19.5997 73.2982 22.2997 74.7982L47.9997 89.6982H48.0997H48.1997H48.2997H48.3997L59.1997 83.4982L28.1997 65.5982C27.8997 65.3982 27.5997 65.1982 27.2997 64.8982C26.9997 64.5982 26.7997 64.3982 26.5997 63.9982C26.3997 63.6982 26.2997 63.2982 26.1997 62.9982C26.0997 62.6982 26.0997 62.2982 26.0997 61.8982V31.5982C24.7997 32.0982 23.4997 32.6982 22.2997 33.3982C21.0997 34.0982 19.9997 34.8982 18.8997 35.7982C17.7997 36.6982 16.8997 37.6982 15.9997 38.6982C15.0997 39.7982 14.2997 40.8982 13.5997 42.0982ZM101.9 62.5982C102.2 62.7982 102.5 62.9982 102.8 63.2982C103.1 63.5982 103.3 63.7982 103.5 64.1982C103.7 64.4982 103.8 64.8982 103.9 65.1982C104 65.5982 104 65.8982 104 66.2982V96.4982C108.3 94.8982 112 92.1982 114.8 88.5982C117.6 84.9982 119.2 80.6982 119.6 76.0982C120 71.5982 119.1 66.9982 117 62.9982C114.9 58.9982 111.7 55.5982 107.7 53.3982L81.9997 38.4982H81.8997H81.7997H81.6997H81.5997L70.8997 44.6982L101.9 62.5982ZM112.6 46.4982C113.4 41.9982 112.9 37.3982 111.1 33.1982C109.4 28.9982 106.4 25.3982 102.7 22.7982C98.9997 20.1982 94.5997 18.6982 89.9997 18.4982C85.3997 18.2982 80.8997 19.3982 76.9997 21.6982L51.2997 36.5982C51.2997 36.5982 51.2997 36.5982 51.1997 36.6982L51.0997 36.7982V36.8982V36.9982V49.3982L82.0997 31.4982C82.3997 31.2982 82.7997 31.1982 83.0997 31.0982C83.4997 30.9982 83.7997 30.9982 84.1997 30.9982C84.5997 30.9982 84.8997 30.9982 85.2997 31.0982C85.5997 31.1982 85.9997 31.2982 86.2997 31.4982L111.7 46.1982C112.1 46.1982 112.4 46.3982 112.6 46.4982ZM45.2997 32.7982C45.2997 32.3982 45.3997 32.0982 45.3997 31.6982C45.4997 31.3982 45.5997 30.9982 45.7997 30.6982C45.9997 30.3982 46.1997 30.0982 46.4997 29.7982C46.7997 29.4982 46.9997 29.2982 47.3997 29.0982L72.7997 14.3982C72.9997 14.2982 73.3997 14.0982 73.5997 13.9982C70.0997 11.0982 65.8997 9.19824 61.2997 8.59824C56.7997 7.99824 52.1997 8.69824 48.0997 10.6982C43.9997 12.5982 40.4997 15.6982 38.0997 19.4982C35.6997 23.2982 34.3997 27.7982 34.3997 32.2982V61.9982V62.0982V62.1982C34.3997 62.1982 34.3997 62.2982 34.4997 62.2982C34.4997 62.2982 34.4997 62.2982 34.5997 62.3982L45.2997 68.5982V32.7982ZM51.1997 71.9982L64.9997 79.9982L78.7997 71.9982V55.9982L64.9997 47.9982L51.1997 55.9982V71.9982Z" fill="black"/>
</svg>
