<svg width="18" height="18" viewBox="0 0 18 18" fill="none" xmlns="http://www.w3.org/2000/svg">
<path d="M13.7689 16.4902H4.33878C3.53376 16.4902 2.84375 15.8002 2.84375 14.9952V3.49503C2.84375 2.69001 3.53376 2 4.33878 2H13.7689C14.574 2 15.264 2.69001 15.264 3.49503V14.9952C15.149 15.8002 14.574 16.4902 13.7689 16.4902Z" stroke="#777777" stroke-width="1.3" stroke-miterlimit="10" stroke-linecap="round" stroke-linejoin="round"/>
<path d="M5.14453 4.98999H6.40955" stroke="#777777" stroke-width="1.3" stroke-miterlimit="10" stroke-linecap="round" stroke-linejoin="round"/>
<path d="M8.94141 4.98999H12.9665" stroke="#777777" stroke-width="1.3" stroke-miterlimit="10" stroke-linecap="round" stroke-linejoin="round"/>
<path d="M6.17313 9.82013H5.82812V10.8551H6.17313C6.51814 10.8551 6.74814 10.6251 6.74814 10.3951C6.74814 10.0501 6.51814 9.82013 6.17313 9.82013Z" fill="#B85D2A"/>
<path d="M8.93657 10.0501H8.47656V11.7751H8.93657C9.51158 11.7751 9.85659 11.3151 9.85659 10.8551C9.74158 10.3951 9.39658 10.0501 8.93657 10.0501Z" fill="#B85D2A"/>
<path d="M15.8353 7.63507H2.26502C1.57501 7.63507 1 8.21008 1 8.90009V12.8102C1 13.5002 1.57501 14.0752 2.26502 14.0752H15.7203C16.4103 14.0752 16.9853 13.5002 16.9853 12.8102V8.90009C17.1003 8.21008 16.5253 7.63507 15.8353 7.63507ZM6.29009 11.4301H5.83008V12.5802H5.14007V9.3601H5.83008H6.29009C6.8651 9.3601 7.32511 9.82011 7.32511 10.3951C7.32511 10.9701 6.8651 11.4301 6.29009 11.4301ZM8.93513 12.3502H8.47513H7.78512V9.4751H8.47513H8.93513C9.85515 9.4751 10.4302 10.1651 10.4302 10.8551C10.4302 11.7751 9.74015 12.3502 8.93513 12.3502ZM12.9602 10.0501H11.5802V10.6251H12.8452V11.3151H11.5802V12.4652H10.8902V9.3601H12.9602V10.0501Z" fill="#B85D2A"/>
</svg>
