<svg width="220" height="220" viewBox="0 0 220 220" fill="none" xmlns="http://www.w3.org/2000/svg">
<g id="fi_10442188" clip-path="url(#clip0_2593_4522)">
<path id="Vector" d="M137.397 46.4059C137.714 45.5534 137.681 44.6098 137.304 43.7818C136.927 42.9539 136.237 42.3091 135.386 41.9888C120.92 36.578 105.104 35.9277 90.2418 40.1324C75.3801 44.3371 62.2491 53.1773 52.7618 65.365C43.2745 77.5527 37.9265 92.4513 37.4968 107.89C37.0672 123.33 41.5784 138.503 50.3732 151.199C59.168 163.896 71.787 173.452 86.3919 178.477C100.997 183.502 116.824 183.732 131.569 179.134C146.314 174.536 159.206 165.351 168.366 152.915C177.527 140.48 182.477 125.445 182.497 110C182.5 105.485 182.086 100.98 181.259 96.5419C181.074 95.6624 180.551 94.8905 179.804 94.3916C179.056 93.8927 178.143 93.7065 177.26 93.8728C176.376 94.0391 175.593 94.5448 175.078 95.2814C174.563 96.0181 174.357 96.9271 174.505 97.8138C175.042 100.704 175.387 103.626 175.536 106.562H169.727C168.815 106.562 167.94 106.924 167.296 107.569C166.651 108.214 166.289 109.088 166.289 110C166.289 110.911 166.651 111.786 167.296 112.43C167.94 113.075 168.815 113.437 169.727 113.437H175.536C174.669 129.625 167.848 144.921 156.385 156.384C144.922 167.847 129.625 174.668 113.437 175.536V169.726C113.437 168.815 113.075 167.94 112.431 167.296C111.786 166.651 110.912 166.289 110 166.289C109.088 166.289 108.214 166.651 107.569 167.296C106.925 167.94 106.562 168.815 106.562 169.726V175.536C90.3744 174.668 75.0784 167.847 63.6153 156.384C52.1522 144.921 45.3313 129.625 44.464 113.437H50.2734C51.1851 113.437 52.0594 113.075 52.7041 112.43C53.3487 111.786 53.7109 110.911 53.7109 110C53.7109 109.088 53.3487 108.214 52.7041 107.569C52.0594 106.924 51.1851 106.562 50.2734 106.562H44.464C45.3313 90.3741 52.1522 75.0781 63.6153 63.615C75.0784 52.1519 90.3744 45.331 106.562 44.4638V50.2731C106.562 51.1848 106.925 52.0592 107.569 52.7038C108.214 53.3485 109.088 53.7106 110 53.7106C110.912 53.7106 111.786 53.3485 112.431 52.7038C113.075 52.0592 113.437 51.1848 113.437 50.2731V44.4638C120.12 44.7995 126.711 46.1618 132.98 48.5028C133.407 48.6579 133.861 48.7266 134.315 48.705C134.77 48.6834 135.215 48.5718 135.626 48.3768C136.037 48.1817 136.405 47.9071 136.709 47.5688C137.013 47.2305 137.247 46.8352 137.397 46.4059Z" fill="#E4E4E4"/>
<path id="Vector_2" d="M91.4535 145.852C91.8551 146.061 92.2939 146.188 92.7448 146.227C93.1956 146.265 93.6496 146.214 94.0808 146.077C94.5119 145.94 94.9117 145.718 95.2572 145.426C95.6027 145.134 95.8871 144.777 96.0941 144.374L107.816 121.704C110.816 122.272 113.92 121.667 116.486 120.013C119.053 118.359 120.886 115.782 121.607 112.815C122.328 109.848 121.883 106.717 120.362 104.07C118.842 101.422 116.362 99.4591 113.436 98.5867V63.8164C113.436 62.9047 113.074 62.0304 112.43 61.3857C111.785 60.7411 110.911 60.3789 109.999 60.3789C109.087 60.3789 108.213 60.7411 107.568 61.3857C106.923 62.0304 106.561 62.9047 106.561 63.8164V98.5867C104.565 99.1818 102.76 100.29 101.325 101.801C99.8912 103.312 98.8784 105.172 98.3879 107.197C97.8974 109.221 97.9464 111.339 98.5302 113.339C99.1139 115.339 100.212 117.15 101.714 118.593L89.9754 141.229C89.5597 142.038 89.4819 142.979 89.759 143.846C90.036 144.713 90.6454 145.434 91.4535 145.852ZM109.999 104.946C110.998 104.946 111.975 105.242 112.806 105.798C113.637 106.353 114.285 107.142 114.667 108.065C115.05 108.989 115.15 110.005 114.955 110.985C114.76 111.965 114.279 112.866 113.572 113.572C112.865 114.279 111.965 114.76 110.985 114.955C110.004 115.15 108.988 115.05 108.065 114.668C107.142 114.285 106.353 113.638 105.797 112.807C105.242 111.976 104.946 110.999 104.946 109.999C104.946 108.659 105.478 107.374 106.426 106.426C107.373 105.478 108.659 104.946 109.999 104.946Z" fill="#E4E4E4"/>
<path id="Vector_3" d="M211.767 78.0831C210.89 78.3278 210.146 78.9104 209.698 79.7031C209.25 80.4958 209.135 81.4338 209.378 82.3112C214.694 101.371 214.415 121.558 208.573 140.464C202.731 159.369 191.573 176.195 176.431 188.933C161.289 201.671 142.802 209.784 123.176 212.303C103.549 214.823 83.6123 211.643 65.7437 203.142C47.8751 194.642 32.8294 181.18 22.4016 164.363C11.9739 147.546 6.60451 128.085 6.93413 108.3C7.26374 88.5151 13.2784 69.2429 24.2606 52.7828C35.2427 36.3226 50.7286 23.3695 68.8704 15.4691L64.5907 29.3909C64.4326 29.8289 64.3651 30.2945 64.3924 30.7593C64.4197 31.2242 64.5411 31.6786 64.7493 32.0952C64.9576 32.5117 65.2482 32.8815 65.6037 33.1823C65.9592 33.4831 66.3721 33.7085 66.8173 33.8448C67.2626 33.9812 67.7309 34.0257 68.1938 33.9756C68.6568 33.9255 69.1047 33.7819 69.5105 33.5534C69.9162 33.325 70.2714 33.0164 70.5543 32.6466C70.8372 32.2767 71.042 31.8533 71.1563 31.4019L77.4813 10.7769C77.6139 10.3446 77.66 9.89051 77.6168 9.44048C77.5736 8.99044 77.4421 8.55334 77.2298 8.1542C77.0174 7.75507 76.7284 7.40174 76.3793 7.11445C76.0303 6.82717 75.6279 6.61156 75.1954 6.47999L54.5704 0.15499C53.715 -0.0616207 52.809 0.0590232 52.0401 0.491943C51.2712 0.924863 50.6982 1.6369 50.4398 2.48063C50.1814 3.32435 50.2573 4.23514 50.6519 5.02442C51.0465 5.8137 51.7295 6.42101 52.5595 6.72062L63.7829 10.1581C44.7323 18.9841 28.6055 33.0779 17.3074 50.7747C6.00927 68.4715 0.011831 89.0321 0.0234544 110.028C0.0350777 131.024 6.05528 151.578 17.373 169.262C28.6907 186.946 44.833 201.022 63.8934 209.827C82.9538 218.632 104.136 221.798 124.938 218.951C145.74 216.104 165.293 207.364 181.287 193.762C197.281 180.16 209.048 162.264 215.198 142.19C221.348 122.115 221.625 100.699 215.995 80.4722C215.751 79.5952 215.168 78.8511 214.375 78.4032C213.583 77.9553 212.645 77.8402 211.767 78.0831Z" fill="#E4E4E4"/>
<path id="Vector_4" d="M179.66 60.518C183.115 60.5213 186.493 59.5008 189.369 57.5852C192.244 55.6696 194.487 52.9449 195.815 49.7552C197.142 46.5655 197.495 43.0539 196.828 39.6639C196.161 36.274 194.504 33.1577 192.067 30.7087C189.63 28.2596 186.522 26.5878 183.135 25.9042C179.749 25.2206 176.235 25.5559 173.039 26.8679C169.843 28.1798 167.107 30.4095 165.178 33.2754C163.248 36.1412 162.211 39.5146 162.197 42.9695C162.191 45.2687 162.637 47.5467 163.511 49.6732C164.385 51.7997 165.67 53.7331 167.292 55.3629C168.913 56.9926 170.84 58.2868 172.963 59.1713C175.085 60.0559 177.361 60.5135 179.66 60.518ZM179.66 32.4508C181.762 32.4474 183.817 33.0687 185.565 34.2358C187.313 35.4028 188.675 37.0629 189.478 39.0054C190.28 40.9479 190.488 43.085 190.073 45.1456C189.659 47.2062 188.642 49.0971 187.151 50.5785C185.66 52.0598 183.762 53.0647 181.699 53.4655C179.636 53.8663 177.5 53.645 175.563 52.8297C173.626 52.0144 171.974 50.6418 170.819 48.8862C169.663 47.1306 169.055 45.0712 169.072 42.9695C169.095 40.1749 170.22 37.5022 172.202 35.5324C174.185 33.5627 176.865 32.4552 179.66 32.4508Z" fill="#E4E4E4"/>
<path id="Vector_5" d="M139.563 58.6955C141.155 62.758 143.358 66.5541 146.094 69.9533C146.497 70.4557 147.032 70.8348 147.64 71.0475C148.248 71.2602 148.903 71.298 149.531 71.1564L157.781 69.3346C160.793 71.8428 164.211 73.819 167.888 75.1783L170.431 83.2393C170.624 83.8542 170.985 84.4027 171.475 84.8221C171.964 85.2415 172.561 85.5149 173.198 85.6111C177.505 86.263 181.885 86.263 186.192 85.6111C186.827 85.5163 187.423 85.2455 187.912 84.8293C188.401 84.4131 188.764 83.8682 188.959 83.2564L191.503 75.1955C195.18 73.8362 198.597 71.86 201.609 69.3518L209.859 71.1736C210.488 71.3152 211.143 71.2774 211.751 71.0647C212.358 70.852 212.894 70.4729 213.297 69.9705C216.027 66.5702 218.223 62.7741 219.811 58.7127C220.045 58.1137 220.106 57.4612 219.987 56.8293C219.869 56.1973 219.576 55.6113 219.141 55.1377L213.434 48.8986C214.107 45.0376 214.107 41.0893 213.434 37.2283L219.106 30.9377C219.541 30.4641 219.835 29.8781 219.953 29.2461C220.072 28.6142 220.01 27.9616 219.777 27.3627C218.189 23.3013 215.993 19.5052 213.263 16.1049C212.86 15.6025 212.324 15.2234 211.716 15.0107C211.108 14.798 210.453 14.7602 209.825 14.9018L201.575 16.7236C198.563 14.2154 195.145 12.2392 191.469 10.8799L188.925 2.81895C188.727 2.21036 188.363 1.66911 187.874 1.25613C187.385 0.843159 186.791 0.574861 186.158 0.481446C181.851 -0.166993 177.471 -0.166993 173.164 0.481446C172.527 0.577672 171.93 0.851076 171.44 1.27046C170.951 1.68985 170.589 2.23833 170.397 2.85332L167.853 10.9143C164.177 12.2735 160.759 14.2498 157.747 16.758L149.531 14.9361C148.903 14.7946 148.248 14.8323 147.64 15.045C147.032 15.2578 146.497 15.6369 146.094 16.1393C143.364 19.5396 141.167 23.3357 139.58 27.3971C139.348 27.9884 139.285 28.6322 139.398 29.2572C139.51 29.8822 139.793 30.4638 140.216 30.9377L145.922 37.1768C145.251 41.0379 145.251 44.9859 145.922 48.8471L140.216 55.0861C139.777 55.5647 139.483 56.1577 139.367 56.7964C139.252 57.4352 139.319 58.0936 139.563 58.6955ZM152.969 49.1564C152.045 45.1354 152.045 40.9571 152.969 36.9361C153.092 36.3962 153.083 35.8345 152.942 35.2988C152.801 34.7631 152.533 34.2694 152.161 33.8596L146.781 27.9643C147.742 25.9187 148.893 23.968 150.219 22.1377L158.022 23.8564C158.565 23.9751 159.128 23.9605 159.664 23.8138C160.2 23.6671 160.692 23.3928 161.098 23.0143C164.119 20.2081 167.731 18.117 171.669 16.8955C172.201 16.732 172.686 16.4417 173.081 16.0495C173.476 15.6573 173.77 15.1749 173.938 14.6439L176.344 7.02988C178.585 6.82151 180.84 6.82151 183.081 7.02988L185.488 14.6439C185.655 15.1749 185.949 15.6573 186.344 16.0495C186.739 16.4417 187.224 16.732 187.756 16.8955C191.694 18.117 195.306 20.2081 198.327 23.0143C198.733 23.3928 199.225 23.6671 199.761 23.8138C200.297 23.9605 200.86 23.9751 201.403 23.8564L209.206 22.1377C210.533 23.9676 211.684 25.9184 212.644 27.9643L207.247 33.8596C206.872 34.2712 206.602 34.7679 206.461 35.3068C206.321 35.8457 206.313 36.4108 206.439 36.9533C207.366 40.974 207.366 45.153 206.439 49.1736C206.313 49.7162 206.321 50.2812 206.461 50.8202C206.602 51.3591 206.872 51.8557 207.247 52.2674L212.644 58.1627C211.684 60.2086 210.533 62.1594 209.206 63.9893L201.403 62.2705C200.86 62.1518 200.297 62.1665 199.761 62.3132C199.225 62.4598 198.733 62.7342 198.327 63.1127C195.306 65.9188 191.694 68.01 187.756 69.2314C187.224 69.3949 186.739 69.6853 186.344 70.0775C185.949 70.4697 185.655 70.952 185.488 71.483L183.03 79.0627C180.789 79.2711 178.533 79.2711 176.292 79.0627L173.886 71.4486C173.718 70.9177 173.424 70.4353 173.029 70.0431C172.634 69.6509 172.149 69.3606 171.617 69.1971C167.68 67.9756 164.067 65.8844 161.047 63.0783C160.64 62.6998 160.148 62.4255 159.612 62.2788C159.076 62.1321 158.513 62.1175 157.97 62.2361L150.167 63.9549C148.841 62.1246 147.691 60.1738 146.73 58.1283L152.127 52.233C152.505 51.8264 152.779 51.3341 152.926 50.7983C153.073 50.2625 153.087 49.6991 152.969 49.1564Z" fill="#E4E4E4"/>
</g>
<defs>
<clipPath id="clip0_2593_4522">
<rect width="220" height="220" fill="white"/>
</clipPath>
</defs>
</svg>
