<svg width="18" height="18" viewBox="0 0 18 18" fill="none" xmlns="http://www.w3.org/2000/svg">
<g id="Property 1=Plugin">
<path id="Shape" d="M10.0167 1.50487C9.02423 1.57263 8.22184 2.34036 8.0898 3.32315L8.08373 3.37594L5.75114 3.37641L5.61703 3.38285C4.91086 3.45099 4.35853 4.0517 4.35853 4.78266L4.35784 6.90562L4.30484 6.91129C3.2859 7.05097 2.5 7.93352 2.5 9.00141L2.50482 9.14583C2.57193 10.148 3.33225 10.9582 4.30556 11.0915L4.35784 11.0963L4.35853 13.2203L4.36491 13.3557C4.43239 14.0687 5.0273 14.6264 5.75122 14.6264L7.62136 14.6259L7.6272 14.6779C7.76553 15.7064 8.63956 16.5 9.69715 16.5L9.84018 16.4951C10.8327 16.4274 11.6351 15.6596 11.7671 14.6769L11.7716 14.6259L14.1072 14.6264C14.8765 14.6264 15.5 13.9968 15.5 13.2202L15.4992 10.1706L13.8732 10.1719L13.7591 10.1668C13.1787 10.1189 12.713 9.61134 12.713 9L12.718 8.88437C12.7655 8.29832 13.2681 7.82812 13.8736 7.82812L15.4992 7.82681L15.5 4.78279L15.4936 4.64734C15.4261 3.93412 14.8312 3.37641 14.1073 3.37641L12.2349 3.37594L12.2297 3.32315C12.0914 2.29356 11.2173 1.5 10.1598 1.5L10.0167 1.50487ZM10.1598 2.4375C10.8007 2.4375 11.3203 2.96217 11.3203 3.60938V4.31334L14.1072 4.31391L14.1907 4.32146C14.4073 4.36115 14.5715 4.55254 14.5715 4.78266L14.5708 6.88969L13.8732 6.89062C12.7835 6.89062 11.8792 7.73667 11.7915 8.82752L11.7849 8.98107C11.7846 10.1007 12.6224 11.0138 13.7028 11.1024L13.8548 11.109L14.5708 11.1075L14.5715 13.2203C14.5715 13.479 14.3637 13.6889 14.1073 13.6889L10.8556 13.6884L10.8577 14.392C10.8577 15.0378 10.3381 15.5625 9.69715 15.5625C9.05619 15.5625 8.53658 15.0378 8.53658 14.3906L8.53449 13.6883L5.75112 13.6889C5.49483 13.6889 5.28699 13.479 5.28699 13.2202L5.28617 10.1719L4.58809 10.1733C3.94806 10.1733 3.42846 9.64862 3.42846 9.00141C3.42846 8.3542 3.94806 7.82954 4.58902 7.82954L5.28617 7.82812L5.28699 4.78279C5.28699 4.52378 5.49483 4.31391 5.75122 4.31391L8.99919 4.31336V3.60938C8.99919 2.96217 9.51879 2.4375 10.1598 2.4375Z" fill="#2B2B2B" stroke="#2B2B2B" stroke-width="0.2"/>
</g>
</svg>
