<svg width="18" height="18" viewBox="0 0 18 18" fill="none" xmlns="http://www.w3.org/2000/svg">
<g id="Property 1=Data">
<mask id="mask0_2418_23167" style="mask-type:alpha" maskUnits="userSpaceOnUse" x="0" y="0" width="18" height="18">
<rect id="Bounding box" width="18" height="18" fill="#D9D9D9"/>
</mask>
<g mask="url(#mask0_2418_23167)">
<path id="database" d="M8.99998 15.375C7.17979 15.375 5.66225 15.118 4.44735 14.6041C3.23245 14.0901 2.625 13.4481 2.625 12.6779V5.24998C2.625 4.52596 3.24711 3.90745 4.49134 3.39446C5.73558 2.88149 7.23846 2.625 8.99998 2.625C10.7615 2.625 12.2644 2.88149 13.5086 3.39446C14.7529 3.90745 15.375 4.52596 15.375 5.24998V12.6779C15.375 13.4481 14.7675 14.0901 13.5526 14.6041C12.3377 15.118 10.8202 15.375 8.99998 15.375ZM8.99998 6.71824C10.0932 6.71824 11.194 6.56368 12.3021 6.25455C13.4103 5.94541 14.0524 5.612 14.2283 5.25431C14.0572 4.887 13.4219 4.54445 12.3223 4.22666C11.2228 3.90887 10.1154 3.74998 8.99998 3.74998C7.88652 3.74998 6.78291 3.90455 5.68916 4.21369C4.59541 4.52281 3.95142 4.86007 3.7572 5.22546C3.94662 5.60046 4.58581 5.94301 5.67474 6.25311C6.76368 6.56319 7.87209 6.71824 8.99998 6.71824ZM8.99998 10.4711C9.52017 10.4711 10.0264 10.4461 10.5187 10.3961C11.011 10.3461 11.4815 10.2731 11.93 10.1769C12.3786 10.0808 12.7985 9.96152 13.1899 9.81921C13.5812 9.67689 13.9346 9.51584 14.25 9.33604V6.67494C13.9346 6.85476 13.5812 7.01581 13.1899 7.15811C12.7985 7.30043 12.3786 7.41966 11.93 7.51581C11.4815 7.61197 11.011 7.68505 10.5187 7.73505C10.0264 7.78505 9.52017 7.81005 8.99998 7.81005C8.47017 7.81005 7.95406 7.78384 7.45166 7.73143C6.94926 7.67903 6.47498 7.60476 6.02882 7.50861C5.58267 7.41245 5.16704 7.29441 4.78194 7.15451C4.39686 7.01461 4.05287 6.85476 3.74998 6.67494V9.33604C4.05287 9.51584 4.39686 9.67569 4.78194 9.81561C5.16704 9.95551 5.58267 10.0735 6.02882 10.1697C6.47498 10.2658 6.94926 10.3401 7.45166 10.3925C7.95406 10.4449 8.47017 10.4711 8.99998 10.4711ZM8.99998 14.25C9.60864 14.25 10.2062 14.2098 10.7928 14.1296C11.3793 14.0493 11.913 13.9397 12.3937 13.8007C12.8745 13.6618 13.28 13.5005 13.6103 13.3168C13.9406 13.1332 14.1538 12.9404 14.25 12.7385V10.461C13.9346 10.6408 13.5812 10.8019 13.1899 10.9442C12.7985 11.0865 12.3786 11.2057 11.93 11.3019C11.4815 11.398 11.011 11.4711 10.5187 11.5211C10.0264 11.5711 9.52017 11.5961 8.99998 11.5961C8.47017 11.5961 7.95406 11.5699 7.45166 11.5175C6.94926 11.4651 6.47498 11.3908 6.02882 11.2947C5.58267 11.1985 5.16704 11.0805 4.78194 10.9406C4.39686 10.8007 4.05287 10.6408 3.74998 10.461V12.75C3.84614 12.9567 4.05744 13.1488 4.38388 13.3262C4.71032 13.5036 5.11393 13.6618 5.5947 13.8007C6.07546 13.9397 6.61104 14.0493 7.20143 14.1296C7.7918 14.2098 8.39132 14.25 8.99998 14.25Z" fill="#2B2B2B"/>
</g>
</g>
</svg>
