<svg width="160" height="89" viewBox="0 0 160 89" fill="none" xmlns="http://www.w3.org/2000/svg">
<path d="M79.9987 88.4671C123.905 88.4671 159.497 79.2968 159.497 67.9845C159.497 56.6723 123.905 47.502 79.9987 47.502C36.0928 47.502 0.5 56.6723 0.5 67.9845C0.5 79.2968 36.0928 88.4671 79.9987 88.4671Z" fill="#F9F9F9"/>
<path d="M143.216 61.0057L102.828 67.2976H56.3306L17.6016 61.0057L25.2053 43.8243C25.6522 42.8147 26.4084 41.9519 27.3783 41.3449C28.3482 40.738 29.4883 40.414 30.6545 40.4141H130.163C131.329 40.414 132.469 40.738 133.439 41.3449C134.409 41.9519 135.165 42.8147 135.612 43.8243L143.216 61.0057Z" fill="#D6D6D6"/>
<path d="M25.2053 43.8227L17.6016 61.0041H28.1335V40.9434C26.8092 41.5283 25.7651 42.555 25.2053 43.8227Z" fill="#C1C1C1"/>
<path d="M135.612 43.8227L143.215 61.0041H132.684V40.9434C134.008 41.5283 135.052 42.555 135.612 43.8227Z" fill="#C1C1C1"/>
<path d="M129.528 8.85126C127.505 6.70181 124.642 8.06684 124.642 8.06684C124.439 7.10837 124.359 6.13056 124.405 5.1543H123.284C123.272 6.34117 123.412 7.52512 123.702 8.68063C123.945 9.84629 124.476 10.9422 125.254 11.8799C125.412 12.0761 125.581 12.2643 125.76 12.4439C123.646 11.5339 122.432 8.75646 122.432 8.75646C122.432 8.75646 120.409 12.707 124.086 15.3565C129.123 18.9824 134.276 14.9062 134.276 14.9062C130.595 13.5056 131.556 11.0055 129.528 8.85126Z" fill="#EFEFEF"/>
<path d="M98.4708 62.2244L96.8146 64.7649C96.5718 65.1377 96.2307 65.4458 95.8242 65.6596C95.4177 65.8733 94.9594 65.9855 94.4932 65.9853H66.3239C65.8578 65.9855 65.3995 65.8733 64.993 65.6596C64.5864 65.4458 64.2454 65.1377 64.0026 64.7649L62.3463 62.2244C62.1035 61.8515 61.7625 61.5434 61.356 61.3297C60.9494 61.1159 60.4911 61.0038 60.025 61.0039H17.6016V73.6044C17.6016 74.6335 18.0376 75.6205 18.8138 76.3484C19.59 77.0763 20.6429 77.4856 21.741 77.4862H139.071C140.17 77.4862 141.223 77.0772 142 76.3492C142.777 75.6213 143.213 74.6339 143.213 73.6044V61.0039H100.792C100.326 61.0042 99.868 61.1166 99.4616 61.3303C99.0551 61.5439 98.714 61.8518 98.4708 62.2244Z" fill="#EFEFEF"/>
<mask id="mask0_3545_24331" style="mask-type:luminance" maskUnits="userSpaceOnUse" x="21" y="-16" width="121" height="82">
<path d="M60.0249 61.0047C60.491 61.0046 60.9493 61.1168 61.3558 61.3305C61.7623 61.5442 62.1034 61.8523 62.3462 62.2252L64.0024 64.7657C64.2453 65.1386 64.5863 65.4467 64.9928 65.6604C65.3993 65.8741 65.8577 65.9863 66.3238 65.9862H94.4931C94.9592 65.9863 95.4175 65.8741 95.8241 65.6604C96.2306 65.4467 96.5716 65.1386 96.8144 64.7657L98.4707 62.2252C98.7139 61.8526 99.055 61.5448 99.4614 61.3311C99.8679 61.1174 100.326 61.005 100.792 61.0047H141.167V-15.7949H21.6523V61.0047H60.0249Z" fill="white"/>
</mask>
<g mask="url(#mask0_3545_24331)">
<path d="M72.7016 3.38374C72.9751 2.07224 72.0624 0.801252 70.663 0.544898C69.2637 0.288543 67.9075 1.1439 67.634 2.4554C67.3604 3.7669 68.2731 5.03789 69.6725 5.29425C71.0719 5.5506 72.428 4.69524 72.7016 3.38374Z" fill="#F2F2F2"/>
<path d="M51.0339 50.2636L48.5918 49.8691L45.7272 65.444L48.1693 65.8385L51.0339 50.2636Z" fill="#F2F2F2"/>
<path d="M56.0282 44.2527C56.0282 46.8975 53.7524 51.2698 50.938 51.2698C49.5833 51.2698 48.2841 50.7655 47.3261 49.8677C46.3682 48.97 45.8301 47.7524 45.8301 46.4827C45.8301 45.2131 46.3682 43.9955 47.3261 43.0978C48.2841 42.2 49.5833 41.6957 50.938 41.6957C53.7499 41.6957 56.0282 41.608 56.0282 44.2527Z" fill="#BCBCBC"/>
<path d="M46.4973 71.6272C48.4622 71.6272 50.0551 70.1301 50.0551 68.2833C50.0551 66.4365 48.4622 64.9395 46.4973 64.9395C44.5323 64.9395 42.9395 66.4365 42.9395 68.2833C42.9395 70.1301 44.5323 71.6272 46.4973 71.6272Z" fill="url(#paint0_linear_3545_24331)"/>
<path d="M93.2292 45.6238L93.2988 47.9453L110.156 47.5013L110.086 45.1797L93.2292 45.6238Z" fill="#F2F2F2"/>
<path d="M119.565 27.3471L117.164 26.7715L112.496 43.8714L114.897 44.447L119.565 27.3471Z" fill="#F2F2F2"/>
<path d="M84.1992 44.2527C84.1992 46.8975 86.475 51.2722 89.3071 51.2722C90.6618 51.2722 91.961 50.7679 92.919 49.8701C93.8769 48.9724 94.415 47.7548 94.415 46.4851C94.415 45.2155 93.8769 43.9979 92.919 43.1002C91.961 42.2024 90.6618 41.6981 89.3071 41.6981C86.475 41.6957 84.1992 41.608 84.1992 44.2527Z" fill="#D3D3D3"/>
<path d="M113.68 49.5449C115.614 49.1875 116.872 47.4289 116.49 45.6171C116.109 43.8052 114.233 42.6262 112.299 42.9837C110.366 43.3411 109.108 45.0996 109.489 46.9115C109.871 48.7233 111.747 49.9023 113.68 49.5449Z" fill="#D3D3D3"/>
<path d="M123.296 24.7718C122.957 26.0178 122.104 27.087 120.926 27.7453C119.747 28.4036 118.338 28.5972 117.007 28.2839C114.332 27.6133 114.499 25.452 115.192 22.9091C115.604 21.3995 117.053 20.3189 118.732 19.8283C118.792 19.8108 118.856 19.8087 118.917 19.8224C118.978 19.836 119.034 19.8649 119.079 19.9059C119.124 19.9469 119.156 19.9986 119.173 20.0554C119.189 20.1122 119.189 20.1722 119.172 20.2288L118.284 23.1864C118.197 23.4637 118.224 23.7619 118.362 24.0208C118.499 24.2798 118.736 24.4803 119.025 24.5822C119.179 24.6326 119.341 24.6529 119.503 24.642C119.665 24.631 119.823 24.5891 119.967 24.5187C120.112 24.4483 120.239 24.3509 120.341 24.2326C120.443 24.1144 120.519 23.9777 120.563 23.831L121.713 19.9895C121.749 19.8737 121.831 19.7752 121.942 19.714C122.053 19.6528 122.184 19.6335 122.31 19.6601C125.026 20.3165 123.997 22.2432 123.296 24.7718Z" fill="#D3D3D3"/>
<path d="M74.3919 35.6719H66.543V38.6081H74.3919V35.6719Z" fill="#BCBCBC"/>
<path d="M44.353 14.8398H46.2293V25.9402H44.353C43.3363 25.9402 42.3612 25.5617 41.6423 24.8879C40.9234 24.2142 40.5195 23.3004 40.5195 22.3475V18.4349C40.5192 17.9629 40.6181 17.4955 40.8106 17.0593C41.0031 16.6232 41.2854 16.2268 41.6414 15.893C41.9974 15.5591 42.4201 15.2942 42.8854 15.1135C43.3507 14.9329 43.8494 14.8398 44.353 14.8398Z" fill="#D3D3D3"/>
<path d="M94.1094 14.8398H95.9856C97.0023 14.8398 97.9774 15.2184 98.6963 15.8921C99.4152 16.5659 99.8191 17.4797 99.8191 18.4325V22.3475C99.8191 23.3004 99.4152 24.2142 98.6963 24.8879C97.9774 25.5617 97.0023 25.9402 95.9856 25.9402H94.1094V14.8398Z" fill="#D3D3D3"/>
<path d="M63.6721 2.91992H76.6694C77.2227 2.91992 77.7533 3.12591 78.1446 3.49256C78.5358 3.85922 78.7556 4.35651 78.7556 4.87505V7.00791H61.5859V4.87505C61.5859 4.35651 61.8057 3.85922 62.197 3.49256C62.5882 3.12591 63.1188 2.91992 63.6721 2.91992Z" fill="#F2F2F2"/>
<path d="M80.4983 4.96094H59.8417C50.7474 4.96094 43.375 11.8703 43.375 20.3934C43.375 28.9165 50.7474 35.8258 59.8417 35.8258H80.4983C89.5926 35.8258 96.965 28.9165 96.965 20.3934C96.965 11.8703 89.5926 4.96094 80.4983 4.96094Z" fill="#F2F2F2"/>
<path d="M59.8392 33.5923C56.103 33.5923 52.5199 32.2014 49.878 29.7254C47.2361 27.2495 45.752 23.8914 45.752 20.3899C45.752 16.8884 47.2361 13.5303 49.878 11.0544C52.5199 8.57846 56.103 7.1875 59.8392 7.1875H80.4984C84.2345 7.1875 87.8177 8.57846 90.4595 11.0544C93.1014 13.5303 94.5856 16.8884 94.5856 20.3899C94.5856 23.8914 93.1014 27.2495 90.4595 29.7254C87.8177 32.2014 84.2345 33.5923 80.4984 33.5923H59.8392Z" fill="white"/>
<path d="M59.8381 28.0196C57.7045 27.9843 55.671 27.1652 54.1754 25.7387C52.6798 24.3121 51.8418 22.3921 51.8418 20.3922C51.8418 18.3923 52.6798 16.4723 54.1754 15.0458C55.671 13.6192 57.7045 12.8001 59.8381 12.7649H80.4973C81.5781 12.747 82.652 12.9311 83.6561 13.3064C84.6602 13.6817 85.5744 14.2407 86.3455 14.9507C87.1166 15.6607 87.7291 16.5076 88.1472 17.4419C88.5652 18.3761 88.7806 19.3791 88.7806 20.3922C88.7806 21.4053 88.5652 22.4083 88.1472 23.3426C87.7291 24.2768 87.1166 25.1237 86.3455 25.8337C85.5744 26.5438 84.6602 27.1027 83.6561 27.478C82.652 27.8533 81.5781 28.0374 80.4973 28.0196H59.8381Z" fill="#F2F2F2"/>
<path d="M83.1432 38.6582H57.9374C53.9377 38.6582 50.6953 41.697 50.6953 45.4454V55.041C50.6953 58.7894 53.9377 61.8282 57.9374 61.8282H83.1432C87.1429 61.8282 90.3853 58.7894 90.3853 55.041V45.4454C90.3853 41.697 87.1429 38.6582 83.1432 38.6582Z" fill="#F7F7F7"/>
<path d="M64.9817 20.9492C64.9817 22.4374 63.6921 22.5298 62.1015 22.5298C60.511 22.5298 59.2239 22.4374 59.2239 20.9492C59.2125 20.5881 59.2785 20.2286 59.4181 19.8919C59.5576 19.5552 59.7678 19.2482 60.0363 18.989C60.3047 18.7298 60.626 18.5238 60.9809 18.3831C61.3359 18.2424 61.7174 18.1699 62.1028 18.1699C62.4882 18.1699 62.8697 18.2424 63.2247 18.3831C63.5796 18.5238 63.9009 18.7298 64.1693 18.989C64.4378 19.2482 64.648 19.5552 64.7876 19.8919C64.9271 20.2286 64.9931 20.5881 64.9817 20.9492Z" fill="#D3D3D3"/>
<path d="M81.1049 20.9508C81.1049 22.4391 79.8178 22.5315 78.2272 22.5315C76.6367 22.5315 75.3496 22.4391 75.3496 20.9508C75.3496 20.5966 75.424 20.2459 75.5687 19.9187C75.7133 19.5915 75.9252 19.2942 76.1924 19.0438C76.4597 18.7934 76.7769 18.5947 77.126 18.4592C77.4751 18.3237 77.8493 18.2539 78.2272 18.2539C78.6051 18.2539 78.9793 18.3237 79.3284 18.4592C79.6776 18.5947 79.9948 18.7934 80.262 19.0438C80.5292 19.2942 80.7412 19.5915 80.8858 19.9187C81.0304 20.2459 81.1049 20.5966 81.1049 20.9508Z" fill="#D3D3D3"/>
</g>
<path d="M100.078 23.4875L79.677 56.6061C79.212 57.3599 78.9671 58.2151 78.9668 59.0858C78.9665 59.9565 79.2109 60.8118 79.6753 61.5659C80.1398 62.3199 80.8079 62.9461 81.6126 63.3813C82.4172 63.8165 83.3299 64.0454 84.2589 64.0451H125.064C125.993 64.0447 126.905 63.8153 127.709 63.3799C128.513 62.9445 129.181 62.3185 129.645 61.5647C130.11 60.8109 130.354 59.9559 130.354 59.0855C130.354 58.2151 130.11 57.36 129.646 56.6061L109.245 23.4875C108.78 22.7336 108.112 22.1075 107.308 21.6722C106.503 21.237 105.59 21.0078 104.661 21.0078C103.733 21.0078 102.82 21.237 102.015 21.6722C101.211 22.1075 100.543 22.7336 100.078 23.4875Z" fill="#BCBCBC"/>
<path d="M104.66 51.7974C104.148 51.7954 103.656 51.6117 103.283 51.2832C102.91 50.9547 102.684 50.5058 102.65 50.0271L101.664 35.2985C101.639 34.9152 101.697 34.5311 101.837 34.1699C101.976 33.8087 102.193 33.4781 102.473 33.1983C102.754 32.9186 103.093 32.6957 103.469 32.5433C103.845 32.391 104.251 32.3124 104.66 32.3125C105.071 32.3124 105.476 32.3911 105.853 32.5437C106.229 32.6963 106.569 32.9197 106.849 33.2C107.13 33.4802 107.347 33.8115 107.486 34.1732C107.624 34.535 107.683 34.9196 107.657 35.3032L106.673 50.0318C106.638 50.5101 106.411 50.9581 106.037 51.2857C105.664 51.6133 105.172 51.7961 104.66 51.7974Z" fill="#F9F9F9"/>
<path d="M104.661 59.4196C106.169 59.4196 107.392 58.2738 107.392 56.8602C107.392 55.4467 106.169 54.3008 104.661 54.3008C103.152 54.3008 101.93 55.4467 101.93 56.8602C101.93 58.2738 103.152 59.4196 104.661 59.4196Z" fill="#F9F9F9"/>
<path d="M25.6523 30.7324H35.9137V33.6592C35.9137 34.1765 35.6944 34.6725 35.3041 35.0383C34.9139 35.4041 34.3845 35.6096 33.8326 35.6096H27.736C27.184 35.6096 26.6547 35.4041 26.2644 35.0383C25.8741 34.6725 25.6549 34.1765 25.6549 33.6592V30.7324H25.6523Z" fill="#F2F2F2"/>
<path d="M34.734 23.2677H31.0371V21.8458C31.2899 21.7878 31.5113 21.6451 31.6595 21.4445C31.8076 21.2439 31.8723 20.9995 31.8411 20.7573C31.81 20.5151 31.6852 20.292 31.4905 20.1301C31.2958 19.9683 31.0445 19.8789 30.7842 19.8789C30.5239 19.8789 30.2726 19.9683 30.0779 20.1301C29.8831 20.292 29.7584 20.5151 29.7273 20.7573C29.6961 20.9995 29.7608 21.2439 29.9089 21.4445C30.0571 21.6451 30.2785 21.7878 30.5313 21.8458V23.2677H26.8369C25.6546 23.2677 24.5207 23.7079 23.6846 24.4914C22.8486 25.2749 22.3789 26.3376 22.3789 27.4457C22.3796 28.5534 22.8496 29.6155 23.6855 30.3985C24.5215 31.1815 25.655 31.6214 26.8369 31.6214H34.734C35.9156 31.6214 37.0489 31.1815 37.8845 30.3984C38.7201 29.6153 39.1895 28.5532 39.1895 27.4457C39.1898 26.8972 39.0748 26.3539 38.8511 25.847C38.6273 25.3401 38.2992 24.8795 37.8854 24.4915C37.4716 24.1035 36.9803 23.7957 36.4396 23.5858C35.8989 23.3758 35.3193 23.2677 34.734 23.2677Z" fill="#F2F2F2"/>
<path d="M34.8744 24.2793H26.6967C24.8309 24.2793 23.3184 25.6968 23.3184 27.4454C23.3184 29.194 24.8309 30.6115 26.6967 30.6115H34.8744C36.7401 30.6115 38.2527 29.194 38.2527 27.4454C38.2527 25.6968 36.7401 24.2793 34.8744 24.2793Z" fill="white"/>
<path d="M27.1523 28.7558C27.9245 28.7558 28.5506 28.1691 28.5506 27.4453C28.5506 26.7215 27.9245 26.1348 27.1523 26.1348C26.38 26.1348 25.7539 26.7215 25.7539 27.4453C25.7539 28.1691 26.38 28.7558 27.1523 28.7558Z" fill="#F2F2F2"/>
<path d="M34.4179 28.7558C35.1902 28.7558 35.8162 28.1691 35.8162 27.4453C35.8162 26.7215 35.1902 26.1348 34.4179 26.1348C33.6456 26.1348 33.0195 26.7215 33.0195 27.4453C33.0195 28.1691 33.6456 28.7558 34.4179 28.7558Z" fill="#F2F2F2"/>
<path d="M26.8457 31.623H34.72V33.1445C34.72 33.553 34.5468 33.9448 34.2386 34.2337C33.9303 34.5226 33.5123 34.6849 33.0763 34.6849H28.4893C28.0534 34.6849 27.6354 34.5226 27.3271 34.2337C27.0189 33.9448 26.8457 33.553 26.8457 33.1445V31.623Z" fill="white"/>
<path d="M111.484 11.832L116.23 7.38463L117.675 8.73862C117.93 8.97773 118.073 9.30202 118.073 9.64017C118.073 9.97831 117.93 10.3026 117.675 10.5417L114.855 13.1843C114.6 13.4235 114.254 13.5578 113.893 13.5578C113.532 13.5578 113.186 13.4235 112.931 13.1843L111.486 11.8304L111.484 11.832Z" fill="#F2F2F2"/>
<path d="M111.999 4.44394L110.289 6.04596L109.591 5.39425C109.679 5.25854 109.711 5.09734 109.681 4.94113C109.651 4.78492 109.56 4.64452 109.427 4.54648C109.294 4.44845 109.127 4.39956 108.958 4.40907C108.789 4.41858 108.629 4.48582 108.509 4.59809C108.389 4.71036 108.318 4.85987 108.308 5.01835C108.297 5.17684 108.35 5.33331 108.454 5.4582C108.559 5.58308 108.709 5.66772 108.875 5.69611C109.042 5.7245 109.214 5.69468 109.359 5.61228L110.057 6.26399L108.347 7.866C107.801 8.37838 107.494 9.07308 107.494 9.79743C107.494 10.5218 107.801 11.2165 108.347 11.7289C108.894 12.2409 109.635 12.5285 110.408 12.5285C111.181 12.5285 111.922 12.2409 112.469 11.7289L116.118 8.30679C116.389 8.05341 116.604 7.75237 116.751 7.42095C116.898 7.08952 116.973 6.73421 116.973 6.37537C116.973 6.01653 116.898 5.66122 116.751 5.32979C116.604 4.99836 116.389 4.69733 116.118 4.44394C115.572 3.93208 114.831 3.64453 114.058 3.64453C113.286 3.64453 112.545 3.93208 111.999 4.44394Z" fill="#F2F2F2"/>
<path d="M112.561 4.85032L108.78 8.3945C107.918 9.20245 107.918 10.5124 108.78 11.3203L108.781 11.322C109.644 12.13 111.041 12.13 111.903 11.322L115.685 7.77783C116.547 6.96989 116.547 5.65994 115.685 4.852L115.683 4.85032C114.821 4.04238 113.423 4.04238 112.561 4.85032Z" fill="white"/>
<path d="M110.553 10.5157C111.058 10.5157 111.466 10.1327 111.466 9.6602C111.466 9.18771 111.058 8.80469 110.553 8.80469C110.049 8.80469 109.641 9.18771 109.641 9.6602C109.641 10.1327 110.049 10.5157 110.553 10.5157Z" fill="#F2F2F2"/>
<path d="M113.913 7.36728C114.417 7.36728 114.826 6.98425 114.826 6.51177C114.826 6.03928 114.417 5.65625 113.913 5.65625C113.409 5.65625 113 6.03928 113 6.51177C113 6.98425 113.409 7.36728 113.913 7.36728Z" fill="#F2F2F2"/>
<path d="M112.473 11.7246L116.113 8.31281L116.864 9.01662C117.066 9.20551 117.179 9.46169 117.179 9.72881C117.179 9.99593 117.066 10.2521 116.864 10.441L114.743 12.4284C114.542 12.6173 114.269 12.7234 113.984 12.7234C113.699 12.7234 113.425 12.6173 113.224 12.4284L112.473 11.7246Z" fill="white"/>
<defs>
<linearGradient id="paint0_linear_3545_24331" x1="43.0954" y1="66.859" x2="50.1095" y2="68.1442" gradientUnits="userSpaceOnUse">
<stop stop-color="#00DEFF"/>
<stop offset="1" stop-color="#00ACFF"/>
</linearGradient>
</defs>
</svg>
