<svg width="18" height="18" viewBox="0 0 18 18" fill="none" xmlns="http://www.w3.org/2000/svg">
<path d="M2.7998 6.6998L3.8998 7.6998C3.9998 7.6998 4.0998 7.79981 4.0998 7.89981C4.6998 8.59981 4.6998 9.7998 3.8998 10.3998L2.7998 11.3998C2.9998 11.9998 3.3998 12.6998 3.8998 13.1998L5.2998 12.6998C5.3998 12.6998 5.4998 12.5998 5.5998 12.5998C6.5998 12.3998 7.4998 13.0998 7.6998 13.9998L7.9998 15.4998C8.3998 15.5998 8.6998 15.5998 9.0998 15.5998C9.4998 15.5998 9.7998 15.5998 10.1998 15.4998L10.4998 13.9998C10.4998 13.8998 10.4998 13.7998 10.5998 13.6998C10.8998 12.7998 11.9998 12.2998 12.8998 12.5998L14.2998 13.0998C14.7998 12.4998 15.0998 11.8998 15.3998 11.1998L14.2998 10.1998C14.1998 10.0998 14.1998 10.0998 14.0998 9.9998C13.4998 9.2998 13.5998 8.0998 14.2998 7.4998L15.3998 6.4998C14.9998 5.9998 14.5998 5.2998 14.0998 4.6998L12.6998 5.1998C12.5998 5.1998 12.4998 5.2998 12.3998 5.2998C11.3998 5.4998 10.4998 4.8998 10.2998 3.8998L9.9998 2.3998C9.6998 2.3998 9.3998 2.2998 8.9998 2.2998C8.5998 2.2998 8.29981 2.2998 7.89981 2.3998L7.5998 3.8998C7.5998 3.9998 7.5998 4.0998 7.4998 4.1998C7.1998 5.0998 6.1998 5.5998 5.2998 5.2998L3.8998 4.7998C3.3998 5.2998 2.9998 5.9998 2.7998 6.6998Z" stroke="#777777" stroke-width="1.3" stroke-linecap="round" stroke-linejoin="round"/>
<path d="M6.89941 8.99941C6.89941 10.0994 7.79941 11.0994 8.99941 11.0994C10.0994 11.0994 11.0994 10.1994 11.0994 8.99941C11.0994 7.79941 10.1994 6.89941 8.99941 6.89941C7.89941 6.89941 6.89941 7.89941 6.89941 8.99941Z" stroke="#777777" stroke-width="1.3" stroke-linecap="round" stroke-linejoin="round"/>
</svg>
