<svg width="18" height="18" viewBox="0 0 18 18" fill="none" xmlns="http://www.w3.org/2000/svg">
<g id="Property 1=Settings" clip-path="url(#clip0_2418_23170)">
<path id="Shape" d="M0.910992 6.38266C1.28028 5.24053 1.88863 4.19213 2.69133 3.30364C2.82707 3.15339 3.04002 3.09984 3.23069 3.16802L5.14897 3.85392C5.66905 4.03977 6.24131 3.76883 6.42716 3.24875C6.44544 3.19762 6.45952 3.14507 6.46925 3.09173L6.83471 1.08573C6.87104 0.886273 7.02422 0.728505 7.22251 0.686297C7.8027 0.562802 8.39758 0.5 9.00026 0.5C9.60256 0.5 10.1971 0.562725 10.7769 0.686072C10.9752 0.728241 11.1284 0.88591 11.1648 1.08529L11.5313 3.09165C11.6303 3.63497 12.1511 3.9951 12.6944 3.89601C12.7479 3.88627 12.8004 3.87219 12.8515 3.85395L14.7698 3.16802C14.9605 3.09984 15.1734 3.15339 15.3092 3.30364C16.1119 4.19213 16.7202 5.24053 17.0895 6.38266C17.1518 6.57534 17.0918 6.78658 16.9374 6.91764L15.3825 8.23773C14.9615 8.5952 14.9101 9.22627 15.2675 9.64726C15.3027 9.68865 15.3411 9.72712 15.3825 9.76225L16.9374 11.0824C17.0918 11.2134 17.1518 11.4247 17.0895 11.6173C16.7202 12.7595 16.1119 13.8079 15.3092 14.6964C15.1734 14.8466 14.9605 14.9002 14.7698 14.832L12.8515 14.1461C12.3315 13.9602 11.7592 14.2312 11.5733 14.7512C11.5551 14.8024 11.541 14.8549 11.5312 14.9085L11.1648 16.9147C11.1284 17.1141 10.9752 17.2718 10.7769 17.3139C10.1971 17.4373 9.60256 17.5 9.00026 17.5C8.39758 17.5 7.8027 17.4372 7.22251 17.3137C7.02422 17.2715 6.87104 17.1137 6.83471 16.9143L6.46926 14.9084C6.37018 14.365 5.8494 14.0049 5.30608 14.104C5.25265 14.1137 5.20011 14.1278 5.14906 14.1461L3.23069 14.832C3.04002 14.9002 2.82707 14.8466 2.69133 14.6964C1.88863 13.8079 1.28028 12.7595 0.910992 11.6173C0.848691 11.4247 0.908763 11.2134 1.06313 11.0824L2.61798 9.76227C3.03897 9.4048 3.09046 8.77373 2.73299 8.35274C2.69784 8.31135 2.65937 8.27288 2.618 8.23775L1.06313 6.91764C0.908763 6.78658 0.848691 6.57534 0.910992 6.38266ZM1.97154 6.37709L3.26523 7.47546C3.34803 7.54576 3.42496 7.62269 3.49526 7.70548C4.2102 8.54746 4.10721 9.8096 3.26521 10.5246L1.97154 11.6229C2.26359 12.4051 2.68504 13.1322 3.21648 13.7751L4.81246 13.2044C4.91473 13.1679 5.01982 13.1397 5.12667 13.1202C6.21332 12.922 7.25487 13.6423 7.45305 14.729L7.75702 16.3975C8.16489 16.4655 8.58024 16.5 9.00026 16.5C9.41999 16.5 9.83506 16.4656 10.2427 16.3976L10.5475 14.7289C10.567 14.6221 10.5951 14.517 10.6317 14.4147C11.0034 13.3746 12.1479 12.8327 13.1881 13.2044L14.784 13.7751C15.3155 13.1322 15.7369 12.4051 16.029 11.6229L14.7353 10.5245C14.6525 10.4542 14.5756 10.3773 14.5053 10.2945C13.7903 9.45254 13.8933 8.1904 14.7353 7.47544L16.029 6.37709C15.7369 5.59486 15.3155 4.86783 14.784 4.22494L13.1881 4.79559C13.0858 4.83214 12.9807 4.8603 12.8738 4.87979C11.7872 5.07796 10.7456 4.3577 10.5475 3.27119L10.2427 1.60235C9.83506 1.53443 9.41999 1.5 9.00026 1.5C8.58024 1.5 8.16489 1.53448 7.75702 1.60249L7.45304 3.27105C7.43355 3.37791 7.40539 3.48299 7.36884 3.58527C6.99714 4.62542 5.8526 5.1673 4.81237 4.79556L3.21648 4.22494C2.68504 4.86783 2.26359 5.59486 1.97154 6.37709ZM6.50026 9C6.50026 7.61929 7.61954 6.5 9.00026 6.5C10.381 6.5 11.5003 7.61929 11.5003 9C11.5003 10.3807 10.381 11.5 9.00026 11.5C7.61954 11.5 6.50026 10.3807 6.50026 9ZM7.50026 9C7.50026 9.82843 8.17183 10.5 9.00026 10.5C9.82868 10.5 10.5003 9.82843 10.5003 9C10.5003 8.17157 9.82868 7.5 9.00026 7.5C8.17183 7.5 7.50026 8.17157 7.50026 9Z" fill="#2B2B2B" stroke="#2B2B2B" stroke-width="0.2"/>
</g>
<defs>
<clipPath id="clip0_2418_23170">
<rect width="18" height="18" fill="white"/>
</clipPath>
</defs>
</svg>
