<svg width="18" height="18" viewBox="0 0 18 18" fill="none" xmlns="http://www.w3.org/2000/svg">
<g id="Frame">
<path id="Vector" d="M14.5726 9.735C14.6026 9.495 14.6251 9.255 14.6251 9C14.6251 8.745 14.6026 8.505 14.5726 8.265L16.1551 7.0275C16.2976 6.915 16.3351 6.7125 16.2451 6.5475L14.7451 3.9525C14.6776 3.8325 14.5501 3.765 14.4151 3.765C14.3701 3.765 14.3251 3.7725 14.2876 3.7875L12.4201 4.5375C12.0301 4.2375 11.6101 3.99 11.1526 3.8025L10.8676 1.815C10.8451 1.635 10.6876 1.5 10.5001 1.5H7.50012C7.31262 1.5 7.15512 1.635 7.13262 1.815L6.84762 3.8025C6.39012 3.99 5.97012 4.245 5.58012 4.5375L3.71262 3.7875C3.66762 3.7725 3.62262 3.765 3.57762 3.765C3.45012 3.765 3.32262 3.8325 3.25512 3.9525L1.75512 6.5475C1.65762 6.7125 1.70262 6.915 1.84512 7.0275L3.42762 8.265C3.39762 8.505 3.37512 8.7525 3.37512 9C3.37512 9.2475 3.39762 9.495 3.42762 9.735L1.84512 10.9725C1.70262 11.085 1.66512 11.2875 1.75512 11.4525L3.25512 14.0475C3.32262 14.1675 3.45012 14.235 3.58512 14.235C3.63012 14.235 3.67512 14.2275 3.71262 14.2125L5.58012 13.4625C5.97012 13.7625 6.39012 14.01 6.84762 14.1975L7.13262 16.185C7.15512 16.365 7.31262 16.5 7.50012 16.5H10.5001C10.6876 16.5 10.8451 16.365 10.8676 16.185L11.1526 14.1975C11.6101 14.01 12.0301 13.755 12.4201 13.4625L14.2876 14.2125C14.3326 14.2275 14.3776 14.235 14.4226 14.235C14.5501 14.235 14.6776 14.1675 14.7451 14.0475L16.2451 11.4525C16.3351 11.2875 16.2976 11.085 16.1551 10.9725L14.5726 9.735ZM13.0876 8.4525C13.1176 8.685 13.1251 8.8425 13.1251 9C13.1251 9.1575 13.1101 9.3225 13.0876 9.5475L12.9826 10.395L13.6501 10.92L14.4601 11.55L13.9351 12.4575L12.9826 12.075L12.2026 11.76L11.5276 12.27C11.2051 12.51 10.8976 12.69 10.5901 12.8175L9.79512 13.14L9.67512 13.9875L9.52512 15H8.47512L8.33262 13.9875L8.21262 13.14L7.41762 12.8175C7.09512 12.6825 6.79512 12.51 6.49512 12.285L5.81262 11.76L5.01762 12.0825L4.06512 12.465L3.54012 11.5575L4.35012 10.9275L5.01762 10.4025L4.91262 9.555C4.89012 9.3225 4.87512 9.15 4.87512 9C4.87512 8.85 4.89012 8.6775 4.91262 8.4525L5.01762 7.605L4.35012 7.08L3.54012 6.45L4.06512 5.5425L5.01762 5.925L5.79762 6.24L6.47262 5.73C6.79512 5.49 7.10262 5.31 7.41012 5.1825L8.20512 4.86L8.32512 4.0125L8.47512 3H9.51762L9.66012 4.0125L9.78012 4.86L10.5751 5.1825C10.8976 5.3175 11.1976 5.49 11.4976 5.715L12.1801 6.24L12.9751 5.9175L13.9276 5.535L14.4526 6.4425L13.6501 7.08L12.9826 7.605L13.0876 8.4525ZM9.00012 6C7.34262 6 6.00012 7.3425 6.00012 9C6.00012 10.6575 7.34262 12 9.00012 12C10.6576 12 12.0001 10.6575 12.0001 9C12.0001 7.3425 10.6576 6 9.00012 6ZM9.00012 10.5C8.17512 10.5 7.50012 9.825 7.50012 9C7.50012 8.175 8.17512 7.5 9.00012 7.5C9.82512 7.5 10.5001 8.175 10.5001 9C10.5001 9.825 9.82512 10.5 9.00012 10.5Z" fill="#777777"/>
</g>
</svg>
