<svg width="14" height="14" viewBox="0 0 14 14" fill="none" xmlns="http://www.w3.org/2000/svg">
<path d="M1.71118 3.88891H4.20007L5.67785 2.41113H7.62229" stroke="#777777" stroke-width="1.01111" stroke-miterlimit="10" stroke-linecap="round" stroke-linejoin="round"/>
<path d="M1.71118 6.06641H4.27785L7.15563 8.94418H8.78896" stroke="#777777" stroke-width="1.01111" stroke-miterlimit="10" stroke-linecap="round" stroke-linejoin="round"/>
<path d="M1.71118 8.24449H4.4334L7.77785 4.82227H10.5778" stroke="#777777" stroke-width="1.01111" stroke-miterlimit="10" stroke-linecap="round" stroke-linejoin="round"/>
<path d="M1.71118 10.3442H6.68896L7.9334 11.5887H10.3445" stroke="#777777" stroke-width="1.01111" stroke-miterlimit="10" stroke-linecap="round" stroke-linejoin="round"/>
<path d="M8.63339 3.26678C9.1059 3.26678 9.48894 2.88373 9.48894 2.41122C9.48894 1.93871 9.1059 1.55566 8.63339 1.55566C8.16088 1.55566 7.77783 1.93871 7.77783 2.41122C7.77783 2.88373 8.16088 3.26678 8.63339 3.26678Z" stroke="#777777" stroke-width="1.01111" stroke-miterlimit="10" stroke-linecap="round" stroke-linejoin="round"/>
<path d="M11.4332 5.67791C11.9057 5.67791 12.2887 5.29486 12.2887 4.82235C12.2887 4.34984 11.9057 3.9668 11.4332 3.9668C10.9607 3.9668 10.5776 4.34984 10.5776 4.82235C10.5776 5.29486 10.9607 5.67791 11.4332 5.67791Z" stroke="#777777" stroke-width="1.01111" stroke-miterlimit="10" stroke-linecap="round" stroke-linejoin="round"/>
<path d="M9.72226 9.87761C10.1948 9.87761 10.5778 9.49457 10.5778 9.02206C10.5778 8.54955 10.1948 8.1665 9.72226 8.1665C9.24974 8.1665 8.8667 8.54955 8.8667 9.02206C8.8667 9.49457 9.24974 9.87761 9.72226 9.87761Z" stroke="#777777" stroke-width="1.01111" stroke-miterlimit="10" stroke-linecap="round" stroke-linejoin="round"/>
<path d="M11.4332 12.4445C11.9057 12.4445 12.2887 12.0615 12.2887 11.589C12.2887 11.1164 11.9057 10.7334 11.4332 10.7334C10.9607 10.7334 10.5776 11.1164 10.5776 11.589C10.5776 12.0615 10.9607 12.4445 11.4332 12.4445Z" stroke="#777777" stroke-width="1.01111" stroke-miterlimit="10" stroke-linecap="round" stroke-linejoin="round"/>
</svg>
