<svg width="26" height="28" viewBox="0 0 26 28" fill="none" xmlns="http://www.w3.org/2000/svg">
<path d="M22.8652 11.0535C22.2335 11.0536 21.6185 11.2565 21.1109 11.6325C20.6032 12.0085 20.2298 12.5376 20.0456 13.1419H16.7966C16.7033 12.7296 16.5431 12.3353 16.3222 11.9749L19.0395 9.25755C19.5352 9.47094 20.0897 9.50494 20.6077 9.35368C21.1257 9.20242 21.5748 8.87537 21.8778 8.42878C22.1808 7.98219 22.3186 7.44399 22.2676 6.90675C22.2167 6.36951 21.9801 5.86682 21.5986 5.48516C21.2171 5.1035 20.7145 4.86672 20.1772 4.81555C19.64 4.76439 19.1018 4.90204 18.6551 5.20483C18.2084 5.50761 17.8811 5.95661 17.7297 6.47457C17.5782 6.99253 17.612 7.54708 17.8252 8.04283L15.1235 10.7445C14.7396 10.4942 14.3141 10.3143 13.8671 10.2133V5.76695C14.5429 5.5611 15.1223 5.11935 15.4998 4.52216C15.8772 3.92497 16.0276 3.21206 15.9236 2.51329C15.8195 1.81451 15.4679 1.17636 14.9328 0.715061C14.3977 0.25376 13.7148 0 13.0083 0C12.3018 0 11.6188 0.25376 11.0837 0.715061C10.5487 1.17636 10.1971 1.81451 10.093 2.51329C9.98896 3.21206 10.1394 3.92497 10.5168 4.52216C10.8943 5.11935 11.4737 5.5611 12.1495 5.76695V10.2133C11.7374 10.3063 11.3433 10.4663 10.9829 10.6868L8.26514 7.96949C8.4784 7.47388 8.51228 6.91944 8.36096 6.40156C8.20963 5.88367 7.88256 5.43471 7.436 5.1319C6.98944 4.82909 6.45132 4.69136 5.91419 4.74241C5.37707 4.79347 4.87453 5.0301 4.49301 5.41162C4.1115 5.79313 3.87486 6.29567 3.82381 6.8328C3.77276 7.36992 3.91048 7.90804 4.21329 8.3546C4.5161 8.80116 4.96507 9.12823 5.48295 9.27956C6.00084 9.43089 6.55527 9.39701 7.05088 9.18375L9.75214 11.885C9.50217 12.2692 9.32244 12.6948 9.22134 13.1419H5.95351C5.74767 12.4662 5.30597 11.8869 4.70887 11.5095C4.11177 11.1322 3.39898 10.9818 2.70033 11.0859C2.00168 11.1899 1.36364 11.5415 0.902427 12.0765C0.441212 12.6115 0.1875 13.2943 0.1875 14.0007C0.1875 14.707 0.441212 15.3899 0.902427 15.9249C1.36364 16.4599 2.00168 16.8114 2.70033 16.9155C3.39898 17.0196 4.11177 16.8692 4.70887 16.4918C5.30597 16.1145 5.74767 15.5352 5.95351 14.8595H9.22271C9.31557 15.2716 9.47537 15.6657 9.69576 16.0261L6.97846 18.7438C6.48285 18.5306 5.92841 18.4967 5.41053 18.648C4.89264 18.7993 4.44368 19.1264 4.14087 19.573C3.83806 20.0195 3.70033 20.5577 3.75139 21.0948C3.80244 21.6319 4.03907 22.1344 4.42059 22.516C4.8021 22.8975 5.30465 23.1341 5.84177 23.1852C6.37889 23.2362 6.91702 23.0985 7.36357 22.7957C7.81013 22.4929 8.1372 22.0439 8.28853 21.526C8.43986 21.0081 8.40598 20.4537 8.19272 19.9581L10.8944 17.2568C11.2785 17.5066 11.704 17.686 12.1509 17.7867V22.2331C11.475 22.4389 10.8956 22.8806 10.5182 23.4778C10.1407 24.075 9.99033 24.7879 10.0944 25.4867C10.1984 26.1855 10.55 26.8236 11.0851 27.2849C11.6202 27.7462 12.3032 28 13.0097 28C13.7161 28 14.3991 27.7462 14.9342 27.2849C15.4693 26.8236 15.8209 26.1855 15.9249 25.4867C16.029 24.7879 15.8786 24.075 15.5011 23.4778C15.1237 22.8806 14.5443 22.4389 13.8684 22.2331V17.7867C14.2808 17.6939 14.6751 17.5339 15.0355 17.3132L17.7528 20.0328C17.5398 20.5284 17.5061 21.0827 17.6575 21.6004C17.809 22.1181 18.1361 22.5668 18.5826 22.8695C19.0291 23.1721 19.5671 23.3096 20.1041 23.2585C20.6411 23.2073 21.1435 22.9706 21.5248 22.5891C21.9062 22.2076 22.1426 21.7052 22.1936 21.1682C22.2446 20.6312 22.1068 20.0932 21.804 19.6468C21.5012 19.2004 21.0524 18.8735 20.5346 18.7222C20.0168 18.571 19.4625 18.6049 18.9671 18.8181L16.2658 16.1168C16.5161 15.733 16.6959 15.3075 16.7966 14.8604H20.0456C20.2044 15.3828 20.5052 15.8508 20.9144 16.2122C21.3236 16.5737 21.8251 16.8144 22.3631 16.9075C22.9011 17.0006 23.4544 16.9424 23.9612 16.7394C24.4681 16.5365 24.9086 16.1968 25.2337 15.7581C25.5588 15.3195 25.7556 14.7991 25.8023 14.2552C25.849 13.7112 25.7436 13.1649 25.498 12.6773C25.2524 12.1897 24.8762 11.7799 24.4113 11.4936C23.9464 11.2073 23.4111 11.0557 22.8652 11.0558V11.0535Z" fill="#02855B"/>
<path d="M13.0081 16.2941C14.2747 16.2941 15.3014 15.2674 15.3014 14.0008C15.3014 12.7343 14.2747 11.7075 13.0081 11.7075C11.7416 11.7075 10.7148 12.7343 10.7148 14.0008C10.7148 15.2674 11.7416 16.2941 13.0081 16.2941Z" fill="white"/>
<path d="M13.0095 4.24711C13.7267 4.24711 14.3081 3.66571 14.3081 2.94851C14.3081 2.23131 13.7267 1.6499 13.0095 1.6499C12.2923 1.6499 11.7109 2.23131 11.7109 2.94851C11.7109 3.66571 12.2923 4.24711 13.0095 4.24711Z" fill="white"/>
<path d="M6.13654 7.66077C6.47299 7.66077 6.74573 7.38803 6.74573 7.05158C6.74573 6.71513 6.47299 6.44238 6.13654 6.44238C5.80009 6.44238 5.52734 6.71513 5.52734 7.05158C5.52734 7.38803 5.80009 7.66077 6.13654 7.66077Z" fill="white"/>
<path d="M6.06232 21.4845C6.39877 21.4845 6.67151 21.2118 6.67151 20.8753C6.67151 20.5389 6.39877 20.2661 6.06232 20.2661C5.72587 20.2661 5.45312 20.5389 5.45312 20.8753C5.45312 21.2118 5.72587 21.4845 6.06232 21.4845Z" fill="white"/>
<path d="M19.8826 21.5577C20.2191 21.5577 20.4918 21.285 20.4918 20.9485C20.4918 20.6121 20.2191 20.3394 19.8826 20.3394C19.5462 20.3394 19.2734 20.6121 19.2734 20.9485C19.2734 21.285 19.5462 21.5577 19.8826 21.5577Z" fill="white"/>
<path d="M19.9569 7.73548C20.2933 7.73548 20.566 7.46273 20.566 7.12628C20.566 6.78983 20.2933 6.51709 19.9569 6.51709C19.6204 6.51709 19.3477 6.78983 19.3477 7.12628C19.3477 7.46273 19.6204 7.73548 19.9569 7.73548Z" fill="white"/>
<path d="M3.13454 15.2994C3.85174 15.2994 4.43315 14.718 4.43315 14.0008C4.43315 13.2836 3.85174 12.7021 3.13454 12.7021C2.41734 12.7021 1.83594 13.2836 1.83594 14.0008C1.83594 14.718 2.41734 15.2994 3.13454 15.2994Z" fill="white"/>
<path d="M13.0095 26.3511C13.7267 26.3511 14.3081 25.7697 14.3081 25.0525C14.3081 24.3353 13.7267 23.7539 13.0095 23.7539C12.2923 23.7539 11.7109 24.3353 11.7109 25.0525C11.7109 25.7697 12.2923 26.3511 13.0095 26.3511Z" fill="white"/>
<path d="M22.865 15.2994C23.5822 15.2994 24.1636 14.718 24.1636 14.0008C24.1636 13.2836 23.5822 12.7021 22.865 12.7021C22.1478 12.7021 21.5664 13.2836 21.5664 14.0008C21.5664 14.718 22.1478 15.2994 22.865 15.2994Z" fill="white"/>
</svg>
