<svg width="17" height="18" viewBox="0 0 17 18" fill="none" xmlns="http://www.w3.org/2000/svg">
<path d="M14.5785 7.10582C14.1724 7.10586 13.7771 7.23635 13.4507 7.47806C13.1244 7.71977 12.8843 8.05991 12.7659 8.44837H10.6773C10.6173 8.18329 10.5143 7.92985 10.3723 7.69812L12.1191 5.95128C12.4378 6.08846 12.7943 6.11032 13.1273 6.01308C13.4603 5.91584 13.749 5.70559 13.9438 5.4185C14.1385 5.13141 14.2271 4.78542 14.1944 4.44005C14.1616 4.09468 14.0095 3.77153 13.7643 3.52617C13.519 3.28082 13.1959 3.1286 12.8505 3.09571C12.5052 3.06282 12.1592 3.15131 11.872 3.34596C11.5848 3.54061 11.3745 3.82925 11.2771 4.16222C11.1798 4.4952 11.2015 4.85169 11.3385 5.17039L9.60172 6.90721C9.35493 6.74625 9.08141 6.6306 8.79401 6.56568V3.70732C9.22847 3.57499 9.60094 3.29101 9.84359 2.9071C10.0862 2.52319 10.1829 2.0649 10.116 1.61569C10.0491 1.16647 9.82312 0.756233 9.47914 0.459682C9.13515 0.163131 8.6961 0 8.24193 0C7.78777 0 7.34871 0.163131 7.00473 0.459682C6.66075 0.756233 6.43473 1.16647 6.36783 1.61569C6.30094 2.0649 6.39762 2.52319 6.64027 2.9071C6.88292 3.29101 7.2554 3.57499 7.68986 3.70732V6.56568C7.42492 6.62548 7.17157 6.72831 6.93991 6.87008L5.19277 5.12324C5.32987 4.80464 5.35165 4.44821 5.25437 4.11529C5.15708 3.78236 4.94682 3.49374 4.65975 3.29908C4.37268 3.10441 4.02674 3.01588 3.68145 3.04869C3.33615 3.08151 3.01309 3.23364 2.76783 3.4789C2.52257 3.72416 2.37045 4.04722 2.33763 4.39251C2.30481 4.73781 2.39335 5.08374 2.58801 5.37082C2.78267 5.65789 3.07129 5.86815 3.40422 5.96543C3.73715 6.06271 4.09357 6.04093 4.41217 5.90384L6.1487 7.64036C5.988 7.88737 5.87246 8.16095 5.80747 8.44837H3.70672C3.57439 8.01399 3.29045 7.64159 2.90659 7.39899C2.52274 7.1564 2.06452 7.05974 1.61539 7.12664C1.16626 7.19353 0.756092 7.41952 0.459596 7.76345C0.1631 8.10737 0 8.54636 0 9.00044C0 9.45453 0.1631 9.89351 0.459596 10.2374C0.756092 10.5814 1.16626 10.8074 1.61539 10.8742C2.06452 10.9411 2.52274 10.8445 2.90659 10.6019C3.29045 10.3593 3.57439 9.9869 3.70672 9.55252H5.80835C5.86804 9.81744 5.97078 10.0708 6.11246 10.3025L4.36562 12.0496C4.04701 11.9125 3.69059 11.8907 3.35766 11.988C3.02473 12.0853 2.73611 12.2956 2.54145 12.5826C2.34679 12.8697 2.25825 13.2156 2.29107 13.5609C2.32389 13.9062 2.47601 14.2293 2.72127 14.4745C2.96653 14.7198 3.28959 14.8719 3.63489 14.9047C3.98018 14.9376 4.32612 14.849 4.61319 14.6544C4.90026 14.4597 5.11052 14.1711 5.20781 13.8382C5.30509 13.5052 5.28331 13.1488 5.14621 12.8302L6.88303 11.0937C7.12994 11.2542 7.40344 11.3696 7.69074 11.4343V14.2927C7.25628 14.425 6.88381 14.709 6.64115 15.0929C6.3985 15.4768 6.30182 15.9351 6.36871 16.3843C6.43561 16.8335 6.66163 17.2438 7.00561 17.5403C7.34959 17.8369 7.78865 18 8.24282 18C8.69698 18 9.13604 17.8369 9.48002 17.5403C9.824 17.2438 10.05 16.8335 10.1169 16.3843C10.1838 15.9351 10.0871 15.4768 9.84448 15.0929C9.60183 14.709 9.22935 14.425 8.79489 14.2927V11.4343C9.05997 11.3747 9.31343 11.2718 9.54514 11.1299L11.292 12.8782C11.155 13.1968 11.1334 13.5531 11.2307 13.886C11.3281 14.2188 11.5384 14.5073 11.8254 14.7018C12.1125 14.8963 12.4583 14.9848 12.8035 14.9519C13.1487 14.919 13.4717 14.7668 13.7168 14.5216C13.962 14.2763 14.114 13.9533 14.1468 13.6081C14.1795 13.2629 14.091 12.9171 13.8963 12.6301C13.7017 12.3431 13.4131 12.1329 13.0803 12.0357C12.7474 11.9385 12.3911 11.9603 12.0726 12.0973L10.336 10.3608C10.497 10.114 10.6125 9.84052 10.6773 9.55311H12.7659C12.868 9.88892 13.0614 10.1898 13.3244 10.4221C13.5875 10.6545 13.9099 10.8092 14.2558 10.8691C14.6016 10.9289 14.9573 10.8915 15.2831 10.7611C15.6089 10.6306 15.8921 10.4122 16.1011 10.1302C16.3101 9.84823 16.4366 9.51373 16.4666 9.16403C16.4967 8.81433 16.4289 8.46317 16.271 8.1497C16.1132 7.83624 15.8713 7.57279 15.5724 7.38873C15.2736 7.20467 14.9295 7.10724 14.5785 7.1073V7.10582Z" fill="#087443"/>
<path d="M8.24276 10.4744C9.05697 10.4744 9.71702 9.81436 9.71702 9.00014C9.71702 8.18593 9.05697 7.52588 8.24276 7.52588C7.42854 7.52588 6.76849 8.18593 6.76849 9.00014C6.76849 9.81436 7.42854 10.4744 8.24276 10.4744Z" fill="white"/>
<path d="M8.24308 2.73018C8.70414 2.73018 9.0779 2.35642 9.0779 1.89536C9.0779 1.43431 8.70414 1.06055 8.24308 1.06055C7.78202 1.06055 7.40826 1.43431 7.40826 1.89536C7.40826 2.35642 7.78202 2.73018 8.24308 2.73018Z" fill="white"/>
<path d="M3.82333 4.92534C4.03961 4.92534 4.21495 4.75 4.21495 4.53371C4.21495 4.31743 4.03961 4.14209 3.82333 4.14209C3.60704 4.14209 3.4317 4.31743 3.4317 4.53371C3.4317 4.75 3.60704 4.92534 3.82333 4.92534Z" fill="white"/>
<path d="M3.77633 13.8111C3.99262 13.8111 4.16795 13.6357 4.16795 13.4195C4.16795 13.2032 3.99262 13.0278 3.77633 13.0278C3.56004 13.0278 3.3847 13.2032 3.3847 13.4195C3.3847 13.6357 3.56004 13.8111 3.77633 13.8111Z" fill="white"/>
<path d="M12.6621 13.8589C12.8784 13.8589 13.0537 13.6836 13.0537 13.4673C13.0537 13.251 12.8784 13.0757 12.6621 13.0757C12.4458 13.0757 12.2704 13.251 12.2704 13.4673C12.2704 13.6836 12.4458 13.8589 12.6621 13.8589Z" fill="white"/>
<path d="M12.7099 4.9727C12.9262 4.9727 13.1015 4.79737 13.1015 4.58108C13.1015 4.36479 12.9262 4.18945 12.7099 4.18945C12.4936 4.18945 12.3183 4.36479 12.3183 4.58108C12.3183 4.79737 12.4936 4.9727 12.7099 4.9727Z" fill="white"/>
<path d="M1.89347 9.83565C2.35453 9.83565 2.72829 9.46189 2.72829 9.00083C2.72829 8.53978 2.35453 8.16602 1.89347 8.16602C1.43242 8.16602 1.05865 8.53978 1.05865 9.00083C1.05865 9.46189 1.43242 9.83565 1.89347 9.83565Z" fill="white"/>
<path d="M8.24308 16.9401C8.70414 16.9401 9.0779 16.5664 9.0779 16.1053C9.0779 15.6443 8.70414 15.2705 8.24308 15.2705C7.78202 15.2705 7.40826 15.6443 7.40826 16.1053C7.40826 16.5664 7.78202 16.9401 8.24308 16.9401Z" fill="white"/>
<path d="M14.579 9.83565C15.04 9.83565 15.4138 9.46189 15.4138 9.00083C15.4138 8.53978 15.04 8.16602 14.579 8.16602C14.1179 8.16602 13.7441 8.53978 13.7441 9.00083C13.7441 9.46189 14.1179 9.83565 14.579 9.83565Z" fill="white"/>
</svg>
