<svg width="18" height="18" viewBox="0 0 18 18" fill="none" xmlns="http://www.w3.org/2000/svg">
<path d="M5.3001 15.1002C5.96284 15.1002 6.5001 14.5629 6.5001 13.9002C6.5001 13.2375 5.96284 12.7002 5.3001 12.7002C4.63736 12.7002 4.1001 13.2375 4.1001 13.9002C4.1001 14.5629 4.63736 15.1002 5.3001 15.1002Z" stroke="#777777" stroke-width="1.3" stroke-miterlimit="10" stroke-linecap="round" stroke-linejoin="round"/>
<path d="M14.2 13.6998C14.8627 13.6998 15.4 13.1625 15.4 12.4998C15.4 11.8371 14.8627 11.2998 14.2 11.2998C13.5373 11.2998 13 11.8371 13 12.4998C13 13.1625 13.5373 13.6998 14.2 13.6998Z" stroke="#777777" stroke-width="1.3" stroke-miterlimit="10" stroke-linecap="round" stroke-linejoin="round"/>
<path d="M13.4002 4.6998C14.0629 4.6998 14.6002 4.16255 14.6002 3.4998C14.6002 2.83706 14.0629 2.2998 13.4002 2.2998C12.7375 2.2998 12.2002 2.83706 12.2002 3.4998C12.2002 4.16255 12.7375 4.6998 13.4002 4.6998Z" stroke="#777777" stroke-width="1.3" stroke-miterlimit="10" stroke-linecap="round" stroke-linejoin="round"/>
<path d="M6.4002 6.80039C7.06294 6.80039 7.6002 6.26313 7.6002 5.60039C7.6002 4.93765 7.06294 4.40039 6.4002 4.40039C5.73745 4.40039 5.2002 4.93765 5.2002 5.60039C5.2002 6.26313 5.73745 6.80039 6.4002 6.80039Z" stroke="#777777" stroke-width="1.3" stroke-miterlimit="10" stroke-linecap="round" stroke-linejoin="round"/>
<path d="M12.5002 7.3002C12.942 7.3002 13.3002 6.94202 13.3002 6.5002C13.3002 6.05837 12.942 5.7002 12.5002 5.7002C12.0584 5.7002 11.7002 6.05837 11.7002 6.5002C11.7002 6.94202 12.0584 7.3002 12.5002 7.3002Z" fill="#777777"/>
<path d="M15.4001 6.8002C15.8419 6.8002 16.2001 6.44202 16.2001 6.0002C16.2001 5.55837 15.8419 5.2002 15.4001 5.2002C14.9583 5.2002 14.6001 5.55837 14.6001 6.0002C14.6001 6.44202 14.9583 6.8002 15.4001 6.8002Z" fill="#777777"/>
<path d="M4.10029 11.8998C4.54212 11.8998 4.90029 11.5416 4.90029 11.0998C4.90029 10.658 4.54212 10.2998 4.10029 10.2998C3.65847 10.2998 3.30029 10.658 3.30029 11.0998C3.30029 11.5416 3.65847 11.8998 4.10029 11.8998Z" fill="#777777"/>
<path d="M7.10029 11.2006C7.54212 11.2006 7.90029 10.8424 7.90029 10.4006C7.90029 9.95876 7.54212 9.60059 7.10029 9.60059C6.65846 9.60059 6.30029 9.95876 6.30029 10.4006C6.30029 10.8424 6.65846 11.2006 7.10029 11.2006Z" fill="#777777"/>
<path d="M11.4001 14.8998C11.8419 14.8998 12.2001 14.5416 12.2001 14.0998C12.2001 13.658 11.8419 13.2998 11.4001 13.2998C10.9583 13.2998 10.6001 13.658 10.6001 14.0998C10.6001 14.5416 10.9583 14.8998 11.4001 14.8998Z" fill="#777777"/>
<path d="M11.4001 11.2006C11.8419 11.2006 12.2001 10.8424 12.2001 10.4006C12.2001 9.95876 11.8419 9.60059 11.4001 9.60059C10.9583 9.60059 10.6001 9.95876 10.6001 10.4006C10.6001 10.8424 10.9583 11.2006 11.4001 11.2006Z" fill="#777777"/>
<path d="M6.8 3.3002C7.24183 3.3002 7.6 2.94202 7.6 2.5002C7.6 2.05837 7.24183 1.7002 6.8 1.7002C6.35817 1.7002 6 2.05837 6 2.5002C6 2.94202 6.35817 3.3002 6.8 3.3002Z" fill="#777777"/>
<path d="M3.0002 6.8002C3.44202 6.8002 3.8002 6.44202 3.8002 6.0002C3.8002 5.55837 3.44202 5.2002 3.0002 5.2002C2.55837 5.2002 2.2002 5.55837 2.2002 6.0002C2.2002 6.44202 2.55837 6.8002 3.0002 6.8002Z" fill="#777777"/>
<path d="M2.80029 8.40039H16.2003" stroke="#777777" stroke-width="1.2426" stroke-miterlimit="10" stroke-linecap="round" stroke-linejoin="round"/>
<path d="M9.5 15.1002V1.7002" stroke="#777777" stroke-width="1.2426" stroke-miterlimit="10" stroke-linecap="round" stroke-linejoin="round"/>
</svg>
