<svg width="18" height="18" viewBox="0 0 18 18" fill="none" xmlns="http://www.w3.org/2000/svg">
<path d="M12.1006 9.10059L14.1006 11.1006C14.4006 11.4006 14.4006 11.9006 14.1006 12.2006L12.2006 14.1006C11.9006 14.4006 11.4006 14.4006 11.1006 14.1006L9.10059 12.1006" stroke="#777777" stroke-width="1.3" stroke-linecap="round" stroke-linejoin="round"/>
<path d="M5.90059 8.90059L4.10059 7.10059L7.10059 4.10059L9.00059 6.00059" stroke="#777777" stroke-width="1.3" stroke-linecap="round" stroke-linejoin="round"/>
<path d="M3.10059 3.10059L4.10059 7.10059L7.10059 4.10059L3.10059 3.10059Z" stroke="#777777" stroke-width="1.3" stroke-linecap="round" stroke-linejoin="round"/>
<path d="M3.00039 12.0004L12.0004 3.00039C12.3004 2.70039 12.8004 2.70039 13.1004 3.00039L15.1004 5.00039C15.4004 5.30039 15.4004 5.80039 15.1004 6.10039L6.10039 15.1004C5.80039 15.4004 5.30039 15.4004 5.00039 15.1004L3.00039 13.1004C2.70039 12.8004 2.70039 12.3004 3.00039 12.0004Z" stroke="#777777" stroke-width="1.3" stroke-linecap="round" stroke-linejoin="round"/>
<path d="M4.30078 10.7002L5.70078 12.1002" stroke="#777777" stroke-width="1.3" stroke-linecap="round" stroke-linejoin="round"/>
<path d="M6.40039 8.60059L7.40039 9.60059" stroke="#777777" stroke-width="1.3" stroke-linecap="round" stroke-linejoin="round"/>
<path d="M8.60059 6.5L9.90059 7.9" stroke="#777777" stroke-width="1.3" stroke-linecap="round" stroke-linejoin="round"/>
<path d="M10.7002 4.30078L11.7002 5.40078" stroke="#777777" stroke-width="1.3" stroke-linecap="round" stroke-linejoin="round"/>
</svg>
