<svg width="32" height="32" viewBox="0 0 32 32" fill="none" xmlns="http://www.w3.org/2000/svg">
<path d="M0.5 6C0.5 2.96243 2.96243 0.5 6 0.5H26C29.0376 0.5 31.5 2.96243 31.5 6V26C31.5 29.0376 29.0376 31.5 26 31.5H6C2.96243 31.5 0.5 29.0376 0.5 26V6Z" fill="#FAFAFA"/>
<path d="M0.5 6C0.5 2.96243 2.96243 0.5 6 0.5H26C29.0376 0.5 31.5 2.96243 31.5 6V26C31.5 29.0376 29.0376 31.5 26 31.5H6C2.96243 31.5 0.5 29.0376 0.5 26V6Z" stroke="#E4E4E4"/>
<path d="M19.7887 16.1221L22.2332 18.5665C22.5998 18.9332 22.5998 19.5443 22.2332 19.911L19.911 22.2332C19.5443 22.5998 18.9332 22.5998 18.5665 22.2332L16.1221 19.7887" stroke="#087443" stroke-width="1.3" stroke-linecap="round" stroke-linejoin="round"/>
<path d="M12.2107 15.8774L10.0107 13.6774L13.6774 10.0107L15.9996 12.333" stroke="#087443" stroke-width="1.3" stroke-linecap="round" stroke-linejoin="round"/>
<path d="M8.78906 8.78906L10.0113 13.678L13.678 10.0113L8.78906 8.78906Z" stroke="#087443" stroke-width="1.3" stroke-linecap="round" stroke-linejoin="round"/>
<path d="M8.6666 19.6666L19.6666 8.6666C20.0333 8.29993 20.6444 8.29993 21.011 8.6666L23.4555 11.111C23.8222 11.4777 23.8222 12.0888 23.4555 12.4555L12.4555 23.4555C12.0888 23.8222 11.4777 23.8222 11.111 23.4555L8.6666 21.011C8.29993 20.6444 8.29993 20.0333 8.6666 19.6666Z" stroke="#087443" stroke-width="1.3" stroke-linecap="round" stroke-linejoin="round"/>
<path d="M10.2559 18.0781L11.967 19.7892" stroke="#087443" stroke-width="1.3" stroke-linecap="round" stroke-linejoin="round"/>
<path d="M12.8223 15.5107L14.0445 16.733" stroke="#087443" stroke-width="1.3" stroke-linecap="round" stroke-linejoin="round"/>
<path d="M15.5107 12.9443L17.0996 14.6554" stroke="#087443" stroke-width="1.3" stroke-linecap="round" stroke-linejoin="round"/>
<path d="M18.0781 10.2559L19.3003 11.6003" stroke="#087443" stroke-width="1.3" stroke-linecap="round" stroke-linejoin="round"/>
</svg>
