<svg width="14" height="14" viewBox="0 0 14 14" fill="none" xmlns="http://www.w3.org/2000/svg">
<path d="M10.0977 7.1001L12.0977 9.1001C12.3977 9.4001 12.3977 9.9001 12.0977 10.2001L10.1977 12.1001C9.89766 12.4001 9.39766 12.4001 9.09766 12.1001L7.09766 10.1001" stroke="#2B2B2B" stroke-width="1.3" stroke-linecap="round" stroke-linejoin="round"/>
<path d="M3.89766 6.9001L2.09766 5.1001L5.09766 2.1001L6.99766 4.0001" stroke="#2B2B2B" stroke-width="1.3" stroke-linecap="round" stroke-linejoin="round"/>
<path d="M1.09766 1.1001L2.09766 5.1001L5.09766 2.1001L1.09766 1.1001Z" stroke="#2B2B2B" stroke-width="1.3" stroke-linecap="round" stroke-linejoin="round"/>
<path d="M0.998438 9.9999L9.99844 0.999902C10.2984 0.699902 10.7984 0.699902 11.0984 0.999902L13.0984 2.9999C13.3984 3.2999 13.3984 3.7999 13.0984 4.0999L4.09844 13.0999C3.79844 13.3999 3.29844 13.3999 2.99844 13.0999L0.998438 11.0999C0.698437 10.7999 0.698437 10.2999 0.998438 9.9999Z" stroke="#2B2B2B" stroke-width="1.3" stroke-linecap="round" stroke-linejoin="round"/>
<path d="M2.29688 8.69971L3.69687 10.0997" stroke="#2B2B2B" stroke-width="1.3" stroke-linecap="round" stroke-linejoin="round"/>
<path d="M4.39844 6.6001L5.39844 7.6001" stroke="#2B2B2B" stroke-width="1.3" stroke-linecap="round" stroke-linejoin="round"/>
<path d="M6.59766 4.5L7.89766 5.9" stroke="#2B2B2B" stroke-width="1.3" stroke-linecap="round" stroke-linejoin="round"/>
<path d="M8.69922 2.2998L9.69922 3.3998" stroke="#2B2B2B" stroke-width="1.3" stroke-linecap="round" stroke-linejoin="round"/>
</svg>
