<svg width="18" height="18" viewBox="0 0 18 18" fill="none" xmlns="http://www.w3.org/2000/svg">
<path d="M13.765 16.4902H4.33487C3.52986 16.4902 2.83984 15.8002 2.83984 14.9952V3.49503C2.83984 2.69001 3.52986 2 4.33487 2H13.765C14.57 2 15.2601 2.69001 15.2601 3.49503V14.9952C15.1451 15.8002 14.57 16.4902 13.765 16.4902Z" stroke="#777777" stroke-width="1.3" stroke-miterlimit="10" stroke-linecap="round" stroke-linejoin="round"/>
<path d="M15.8353 7.63513H2.26502C1.57501 7.63513 1 8.21014 1 8.90015V12.8102C1 13.5002 1.57501 14.0752 2.26502 14.0752H15.7203C16.4103 14.0752 16.9853 13.5002 16.9853 12.8102V8.90015C17.1003 8.21014 16.5253 7.63513 15.8353 7.63513ZM7.32511 10.0502H6.52009V12.5802H5.83008V10.0502H4.91007V9.36016H7.32511V10.0502ZM9.62515 12.4652L9.05014 11.4302L8.47513 12.4652H7.55511L8.59013 10.8552L7.67011 9.36016H8.47513L9.05014 10.2802L9.62515 9.36016H10.4302L9.51015 10.8552L10.5452 12.4652H9.62515ZM13.1902 10.0502H12.2702V12.5802H11.5802V10.0502H10.6602V9.36016H13.0752V10.0502H13.1902Z" fill="#B9B9B9"/>
<path d="M5.94531 4.99005H7.78534" stroke="#777777" stroke-width="1.3" stroke-miterlimit="10" stroke-linecap="round" stroke-linejoin="round"/>
<path d="M10.3164 4.99005H12.1564" stroke="#777777" stroke-width="1.3" stroke-miterlimit="10" stroke-linecap="round" stroke-linejoin="round"/>
</svg>
