<svg width="18" height="18" viewBox="0 0 18 18" fill="none" xmlns="http://www.w3.org/2000/svg">
<path d="M9.48 7.33988C9.7451 7.33988 9.96 7.12498 9.96 6.85988C9.96 6.59479 9.7451 6.37988 9.48 6.37988C9.2149 6.37988 9 6.59479 9 6.85988C9 7.12498 9.2149 7.33988 9.48 7.33988Z" stroke="#2B2B2B" stroke-width="1.3" stroke-linecap="round" stroke-linejoin="round"/>
<path d="M14.31 4.05957H3.69C3.03278 4.05957 2.5 4.59235 2.5 5.24957V12.7496C2.5 13.4068 3.03278 13.9396 3.69 13.9396H14.31C14.9672 13.9396 15.5 13.4068 15.5 12.7496V5.24957C15.5 4.59235 14.9672 4.05957 14.31 4.05957Z" stroke="#2B2B2B" stroke-width="1.3" stroke-linecap="round" stroke-linejoin="round"/>
<path d="M2.5 10.3494L5.39 6.85938L8.24 11.5394L12.19 9.19937L15.5 11.3494" stroke="#2B2B2B" stroke-width="1.3" stroke-linecap="round" stroke-linejoin="round"/>
</svg>
