<svg width="14" height="14" viewBox="0 0 14 14" fill="none" xmlns="http://www.w3.org/2000/svg">
<path d="M11.2001 12.4446H2.80011C2.10011 12.4446 1.55566 11.9001 1.55566 11.2001V2.80011C1.55566 2.10011 2.10011 1.55566 2.80011 1.55566H11.2001C11.9001 1.55566 12.4446 2.10011 12.4446 2.80011V11.2001C12.4446 11.9001 11.9001 12.4446 11.2001 12.4446Z" stroke="#777777" stroke-width="1.01111" stroke-miterlimit="10" stroke-linecap="round" stroke-linejoin="round"/>
<path d="M1.55566 10.0337L3.73344 7.46702C4.04455 7.15591 4.51122 7.07814 4.90011 7.31147L6.689 8.47814C7.07789 8.71147 7.62233 8.63369 7.85566 8.2448L9.489 5.83369C9.80011 5.36702 10.5001 5.28925 10.8112 5.75591L12.4446 7.46702" stroke="#777777" stroke-width="1.01111" stroke-miterlimit="10" stroke-linecap="round" stroke-linejoin="round"/>
<path d="M6.7667 6.0666C7.5399 6.0666 8.1667 5.4398 8.1667 4.6666C8.1667 3.8934 7.5399 3.2666 6.7667 3.2666C5.9935 3.2666 5.3667 3.8934 5.3667 4.6666C5.3667 5.4398 5.9935 6.0666 6.7667 6.0666Z" stroke="#777777" stroke-width="1.01111" stroke-miterlimit="10" stroke-linecap="round" stroke-linejoin="round"/>
</svg>
