<svg width="18" height="18" viewBox="0 0 18 18" fill="none" xmlns="http://www.w3.org/2000/svg">
<path d="M9 16C12.866 16 16 12.866 16 9C16 5.13401 12.866 2 9 2C5.13401 2 2 5.13401 2 9C2 12.866 5.13401 16 9 16Z" stroke="#777777" stroke-width="1.2" stroke-miterlimit="10" stroke-linecap="round" stroke-linejoin="round"/>
<path d="M12.5 11.0328C12.0484 13.9683 10.5806 16.0005 9 16.0005C7.41935 16.0005 5.95161 13.8554 5.5 11.0328" stroke="#777777" stroke-width="1.2" stroke-miterlimit="10" stroke-linecap="round" stroke-linejoin="round"/>
<path d="M5.5 6.96774C5.95161 4.03226 7.30645 2 9 2C10.6935 2 12.0484 4.14516 12.5 6.96774" stroke="#777777" stroke-width="1.2" stroke-miterlimit="10" stroke-linecap="round" stroke-linejoin="round"/>
<path d="M13.8542 3.91937C12.6123 5.0484 10.9187 5.83873 8.99937 5.83873C7.08002 5.83873 5.38647 5.16131 4.14453 3.91937" stroke="#777777" stroke-width="1.2" stroke-miterlimit="10" stroke-linecap="round" stroke-linejoin="round"/>
<path d="M13.8542 14.0812C12.6123 12.9522 10.9187 12.1619 8.99937 12.1619C7.08002 12.1619 5.38647 12.8393 4.14453 14.0812" stroke="#777777" stroke-width="1.2" stroke-miterlimit="10" stroke-linecap="round" stroke-linejoin="round"/>
<path d="M16.04 7H1.96C1.42667 7 1 7.42667 1 7.96V9.98667C1 10.52 1.42667 10.9467 1.96 10.9467H16.04C16.5733 10.9467 17 10.52 17 9.98667V7.96C17 7.42667 16.5733 7 16.04 7ZM6.12 10.0933H5.69333L5.37333 9.02667L5.26667 8.81333L5.16 9.02667L4.84 9.98667H4.41333L3.77333 7.74667H4.30667L4.62667 8.92L4.73333 9.24V9.02667L5.05333 8.17333H5.48L5.8 9.02667L5.90667 9.34667V9.02667L6.22667 7.85333H6.76L6.12 10.0933ZM9.85333 10.0933H9.42667L9.10667 9.02667L9 8.81333L8.89333 9.02667L8.57333 9.98667H8.14667L7.50667 7.74667H8.04L8.36 8.92L8.46667 9.24L8.57333 8.92L8.89333 8.06667H9.32L9.64 8.92L9.74667 9.24V8.92L10.0667 7.74667H10.6L9.85333 10.0933ZM13.5867 10.0933H13.16L12.84 9.13333L12.7333 8.81333L12.6267 9.13333L12.3067 10.0933H11.88L11.24 7.85333H11.7733L12.0933 9.02667L12.2 9.34667V9.02667L12.52 8.17333H12.9467L13.2667 9.02667V9.24V8.92L13.5867 7.74667H14.12L13.5867 10.0933Z" fill="#8D52EC"/>
</svg>
