<svg width="18" height="18" viewBox="0 0 18 18" fill="none" xmlns="http://www.w3.org/2000/svg">
<path d="M8.33461 7.54283L6.92041 8.95703L9.04171 11.0783L10.4559 9.66413L8.33461 7.54283Z" stroke="#777777" stroke-width="1.3" stroke-linecap="round" stroke-linejoin="round"/>
<path d="M10.4948 9.64146L9.08057 11.0557L13.2525 15.2276L14.6667 13.8134L10.4948 9.64146Z" stroke="#777777" stroke-width="1.3" stroke-linecap="round" stroke-linejoin="round"/>
<path d="M9.59981 4.90059L10.0998 5.20059C10.1998 5.20059 10.1998 5.40059 10.1998 5.50059C10.1998 5.50059 10.1998 5.60059 10.0998 5.60059L9.59981 5.70059C9.59981 5.70059 9.4998 5.70059 9.4998 5.80059L9.1998 6.30059C9.1998 6.40059 8.9998 6.40059 8.8998 6.40059C8.8998 6.40059 8.7998 6.40059 8.7998 6.30059L8.59981 5.80059C8.59981 5.80059 8.5998 5.70059 8.4998 5.70059L7.9998 5.50059C7.8998 5.40059 7.8998 5.30059 7.9998 5.20059C7.9998 5.20059 7.99981 5.20059 8.09981 5.10059L8.59981 4.80059L8.6998 4.70059L8.9998 4.20059C9.0998 4.10059 9.1998 4.10059 9.2998 4.10059C9.2998 4.10059 9.2998 4.10059 9.3998 4.20059L9.6998 4.70059C9.4998 4.80059 9.49981 4.80059 9.59981 4.90059Z" fill="#777777"/>
<path d="M6.1999 11.5L6.5999 11.7C6.6999 11.7 6.6999 11.8 6.6999 11.9C6.6999 11.9 6.6999 11.9 6.5999 12L6.1999 12.2C6.1999 12.2 6.1999 12.2 6.0999 12.2L5.9999 12.6C5.9999 12.7 5.8999 12.7 5.7999 12.7C5.7999 12.7 5.7999 12.7 5.6999 12.6L5.4999 12.2L5.0999 12C4.9999 12 4.9999 11.9 5.0999 11.8L5.4999 11.6C5.4999 11.6 5.4999 11.6 5.5999 11.5L5.7999 11.1C5.7999 11 5.8999 11 5.9999 11C5.9999 11 5.9999 11 6.0999 11.1L6.1999 11.5Z" fill="#777777"/>
<path d="M6.1999 6.1002L6.5999 6.3002C6.6999 6.3002 6.6999 6.4002 6.6999 6.5002C6.6999 6.5002 6.6999 6.5002 6.5999 6.6002L6.1999 6.8002C6.1999 6.8002 6.0999 6.8002 6.0999 6.9002L5.9999 7.1002C5.9999 7.2002 5.8999 7.2002 5.7999 7.2002C5.7999 7.2002 5.6999 7.2002 5.6999 7.1002L5.4999 6.8002V6.7002L5.0999 6.6002C4.9999 6.5002 4.9999 6.4002 5.0999 6.4002L5.4999 6.2002H5.5999L5.7999 5.8002C5.7999 5.7002 5.8999 5.7002 5.9999 5.7002C5.9999 5.7002 5.9999 5.7002 6.0999 5.8002L6.1999 6.1002Z" fill="#777777"/>
<path d="M13.9999 9.0002V6.7002L9.9999 2.7002H4.3999C3.7999 2.7002 3.3999 3.2002 3.3999 3.7002V13.5002C3.3999 14.1002 3.8999 14.5002 4.3999 14.5002H8.4999" stroke="#777777" stroke-width="1.3" stroke-linecap="round" stroke-linejoin="round"/>
</svg>
