<svg width="24" height="24" viewBox="0 0 24 24" fill="none" xmlns="http://www.w3.org/2000/svg">
<g clip-path="url(#clip0_3537_26483)">
<path d="M7.96213 18.2656C7.61747 17.9836 7.46081 17.6077 7.42947 17.169C7.39814 16.6677 7.52347 16.2604 7.8368 15.8844C8.08746 15.6337 8.36945 15.4457 8.71411 15.383C8.96477 15.3204 9.21543 15.3204 9.46609 15.2264C10.0614 14.9444 10.3434 14.2237 10.0927 13.6284C9.99875 13.4091 9.87342 13.2524 9.77942 13.0331C9.59142 12.6571 9.56009 12.2498 9.56009 11.8111C9.59142 11.3725 9.74808 10.9965 9.96741 10.6205C10.1554 10.3072 10.2181 9.93117 10.1241 9.55518C9.93608 9.02252 9.52876 8.74053 8.9961 8.64653C8.46345 8.58387 8.02479 8.36454 7.71147 7.92588C7.49214 7.64389 7.42947 7.29923 7.42947 6.95457C7.42947 6.57858 7.5548 6.23392 7.77413 5.9206C7.99346 5.60727 8.30679 5.45061 8.65144 5.35661C8.80811 5.32528 8.96477 5.29395 9.15277 5.29395C9.71675 5.32528 10.1554 5.57594 10.4687 6.01459C10.6567 6.29659 10.7507 6.60991 10.7821 6.95457C10.7821 7.20523 10.7194 7.48723 10.6254 7.73789C10.3747 8.30187 10.5314 9.02252 11.0327 9.36718C11.252 9.49251 11.4714 9.58651 11.722 9.58651C12.004 9.58651 12.3174 9.58651 12.5994 9.64917C12.8813 9.74317 13.1633 9.83717 13.414 10.0252C13.79 10.3072 14.072 10.6518 14.26 11.0905C14.354 11.3098 14.4166 11.5605 14.4166 11.8111C14.4166 11.9051 14.4166 11.9991 14.4166 12.0618C14.4166 12.7824 14.1346 13.3464 13.602 13.8164C13.2573 14.1297 12.8187 14.3177 12.3487 14.3804C12.1607 14.4117 11.9727 14.4117 11.7847 14.4117C11.534 14.4117 11.2834 14.4744 11.0954 14.6311C10.6254 14.9444 10.3434 15.5084 10.5314 16.0724C10.6254 16.3857 10.8761 16.605 11.1267 16.7617C11.346 16.887 11.5654 17.0123 11.8474 17.0123C11.8787 17.0123 11.91 17.0123 11.91 17.0437C11.8474 17.1063 11.7847 17.1063 11.6907 17.1063C11.1581 17.2003 10.7821 17.5137 10.5001 17.9523C10.3121 18.2656 10.0301 18.4536 9.71675 18.579C9.40343 18.7043 9.0901 18.7356 8.77677 18.6416C8.46345 18.6103 8.18145 18.485 7.96213 18.2656Z" fill="#0095FF"/>
<path d="M16.6096 6.98681C16.6409 7.92679 15.8576 8.71011 14.9176 8.67877C13.8837 8.64744 13.1943 7.92679 13.1943 6.98681C13.1943 5.98417 13.9777 5.29485 14.9176 5.29485C15.8263 5.26352 16.6409 6.04684 16.6096 6.98681Z" fill="#0095FF"/>
<path d="M6.20856 13.6915C5.26858 13.7229 4.5166 12.9396 4.5166 11.9996C4.5166 11.0283 5.20592 10.3076 6.20856 10.3076C7.11721 10.3076 7.90052 10.9969 7.90052 12.0309C7.90052 12.9082 7.14854 13.7229 6.20856 13.6915Z" fill="#0095FF"/>
<path d="M17.8003 10.3075C18.7403 10.2762 19.4923 11.0595 19.4923 11.9995C19.4923 12.9395 18.7403 13.6915 17.769 13.6915C16.8604 13.6915 16.0457 12.9082 16.077 11.9055C16.1397 11.0909 16.8604 10.2762 17.8003 10.3075Z" fill="#0095FF"/>
<path d="M12.0048 2.50586C12.6001 2.53719 13.0701 2.97585 13.0387 3.57117C13.0387 4.16649 12.6314 4.60514 11.9734 4.60514C11.3781 4.60514 10.9395 4.10382 10.9395 3.53983C10.9708 2.97585 11.4408 2.50586 12.0048 2.50586Z" fill="#0095FF"/>
<path d="M20.3698 16.2298C20.3698 16.8251 19.8998 17.2638 19.3045 17.2638C18.7405 17.2638 18.2705 16.8251 18.2705 16.1985C18.2705 15.6345 18.7092 15.1331 19.3358 15.1645C19.8998 15.1645 20.3698 15.6345 20.3698 16.2298Z" fill="#0095FF"/>
<path d="M10.9697 20.4276C10.9697 19.8636 11.4397 19.3623 12.0037 19.3623C12.6304 19.3936 13.069 19.801 13.069 20.3963C13.069 20.9916 12.6617 21.4303 12.0037 21.4616C11.4084 21.4929 10.9697 21.0229 10.9697 20.4276Z" fill="#0095FF"/>
<path d="M5.73787 16.2294C5.76921 16.8247 5.20522 17.2947 4.7039 17.2633C4.10858 17.2633 3.66992 16.7934 3.66992 16.2294C3.66992 15.6027 4.13991 15.1641 4.7039 15.1641C5.29922 15.1641 5.76921 15.6341 5.73787 16.2294Z" fill="#0095FF"/>
<path d="M19.3353 6.7355C19.8366 6.67284 20.4006 7.20549 20.3692 7.76948C20.3379 8.3648 19.8992 8.83478 19.3353 8.80345C18.7399 8.80345 18.3013 8.3648 18.2699 7.76948C18.2386 7.23682 18.7399 6.70417 19.3353 6.7355Z" fill="#0095FF"/>
<path d="M4.703 6.73586C5.23566 6.70452 5.73698 7.17451 5.73698 7.76983C5.73698 8.33382 5.26699 8.83514 4.67167 8.83514C4.07635 8.83514 3.6377 8.36515 3.6377 7.80116C3.6377 7.20584 4.13902 6.70452 4.703 6.73586Z" fill="#0095FF"/>
<path d="M7.96191 18.2664C8.14991 18.3918 8.30657 18.5171 8.5259 18.5798C8.77656 18.6738 9.02722 18.7051 9.27788 18.6738C9.62254 18.6424 9.93587 18.5171 10.2179 18.2664C10.4059 18.1098 10.5312 17.8591 10.6878 17.6711C10.9385 17.3578 11.2518 17.1698 11.6278 17.0758C11.6905 17.0758 11.7845 17.0445 11.8785 17.0131C11.6278 16.9818 11.4398 16.9191 11.2518 16.8251C10.9698 16.6685 10.7505 16.4491 10.5625 16.1671C10.4059 15.9478 10.4372 15.6658 10.4999 15.4152C10.6565 14.7885 11.2205 14.3185 11.9098 14.3499C12.3798 14.3812 12.8498 14.2872 13.2571 14.0365C13.8211 13.6919 14.1971 13.2219 14.3538 12.5639C14.4791 11.9999 14.4478 11.4359 14.1971 10.9033C13.9464 10.3706 13.5391 9.99463 13.0065 9.7753C12.6618 9.61864 12.2858 9.55597 11.9098 9.58731C11.6278 9.58731 11.3772 9.55597 11.1578 9.39931C10.7192 9.14865 10.4999 8.58466 10.5312 8.14601C10.5625 7.86401 10.6878 7.64468 10.7505 7.39402C10.9698 6.51671 10.5312 5.67073 9.68521 5.38874C8.87056 5.10675 7.86792 5.57673 7.58592 6.39138C7.24127 7.36269 7.80525 8.30267 8.68256 8.55333C8.90189 8.616 9.15255 8.616 9.37188 8.70999C9.74787 8.83532 10.0299 9.11732 10.1865 9.46198C10.1865 9.49331 10.2179 9.52464 10.1865 9.55597C10.0925 9.39931 10.0299 9.21132 9.8732 9.08598C9.62254 8.83532 9.34055 8.70999 8.99589 8.67866C8.27524 8.616 7.61726 8.08334 7.49193 7.36269C7.30393 6.45405 7.77392 5.57673 8.74523 5.32607C9.59121 5.10675 10.4372 5.5454 10.7505 6.29738C10.9385 6.76737 10.9385 7.20603 10.7505 7.67602C10.5625 8.11467 10.5312 8.55333 10.7818 8.99199C11.0012 9.39931 11.3772 9.55597 11.8472 9.58731C12.1291 9.58731 12.4111 9.58731 12.6931 9.64997C13.1005 9.7753 13.4765 9.9633 13.7898 10.2766C14.2598 10.7779 14.5104 11.3733 14.5104 12.0626C14.5104 12.7519 14.2598 13.3159 13.7898 13.7859C13.2885 14.2559 12.6618 14.5065 11.9725 14.4439C11.3458 14.4125 10.8132 14.8198 10.6252 15.3525C10.4685 15.8225 10.5939 16.2298 11.0012 16.6058C11.7845 17.2638 12.8811 17.0758 13.4451 16.2611C13.6644 15.9478 13.8838 15.6658 14.2284 15.5092C15.1371 15.0705 16.2964 15.5092 16.5784 16.5431C16.8604 17.4831 16.3904 18.3918 15.4817 18.7051C14.7611 18.9244 13.9778 18.7051 13.5391 18.0158C13.3198 17.6711 13.0378 17.3891 12.6305 17.2638C11.7845 16.9505 10.9385 17.3891 10.5939 18.0158C10.2805 18.5798 9.46588 18.9244 8.80789 18.7364C8.4319 18.6111 8.14991 18.5171 7.96191 18.2664Z" fill="#0095FF"/>
<path d="M7.36773 21.1492C7.36773 21.4939 7.08573 21.8072 6.70974 21.8072C6.36508 21.8072 6.05176 21.5252 6.05176 21.1492C6.05176 20.7732 6.33375 20.4912 6.70974 20.4912C7.08573 20.4912 7.36773 20.7732 7.36773 21.1492Z" fill="#0095FF"/>
<path d="M6.74107 2.22363C7.11707 2.22363 7.36773 2.50563 7.36773 2.85028C7.36773 3.22628 7.08573 3.50827 6.70974 3.50827C6.36508 3.50827 6.05176 3.19494 6.05176 2.85028C6.08309 2.50563 6.36508 2.22363 6.74107 2.22363Z" fill="#0095FF"/>
<path d="M16.6414 2.85037C16.6414 2.47438 16.892 2.22372 17.268 2.19238C17.6127 2.19238 17.926 2.47438 17.926 2.85037C17.926 3.25769 17.6127 3.47702 17.268 3.50835C17.0173 3.53968 16.61 3.22636 16.6414 2.85037Z" fill="#0095FF"/>
<path d="M23.1899 11.9991C23.1899 12.3751 22.9079 12.6571 22.5319 12.6571C22.1873 12.6571 21.9053 12.3438 21.9053 11.9991C21.9053 11.6545 22.1873 11.3725 22.5319 11.3725C22.9392 11.3412 23.1899 11.6232 23.1899 11.9991Z" fill="#0095FF"/>
<path d="M2.07175 11.9999C2.10308 12.3445 1.78975 12.6265 1.44509 12.6265C1.10044 12.6265 0.787109 12.3445 0.787109 11.9685C0.787109 11.5925 1.0691 11.3419 1.44509 11.3105C1.75842 11.3419 2.13441 11.6239 2.07175 11.9999Z" fill="#0095FF"/>
<path d="M16.6417 21.3048C16.6417 21.1481 16.6104 20.9601 16.7044 20.8034C16.8297 20.5841 17.1117 20.4588 17.3624 20.4901C17.5817 20.5214 17.8324 20.7094 17.8637 20.9288C17.9577 21.1168 17.895 21.3048 17.801 21.4928C17.519 21.9314 16.8611 21.8687 16.6417 21.3048Z" fill="#0095FF"/>
<path d="M2.07172 17.8893C2.07172 18.0146 1.94639 18.1399 1.82106 18.1399C1.69573 18.1399 1.53906 17.9833 1.53906 17.8893C1.53906 17.764 1.66439 17.6386 1.78972 17.6386C1.97772 17.6073 2.07172 17.7326 2.07172 17.8893Z" fill="#0095FF"/>
<path d="M2.07163 6.13928C2.07163 6.26461 1.9463 6.38994 1.82097 6.38994C1.69564 6.38994 1.57031 6.26461 1.57031 6.13928C1.57031 5.98262 1.66431 5.88862 1.82097 5.88862C1.97764 5.85729 2.07163 5.98262 2.07163 6.13928Z" fill="#0095FF"/>
<path d="M12.2542 23.7487C12.2542 23.874 12.1602 23.9994 12.0348 23.9994C11.9095 23.9994 11.7842 23.874 11.7842 23.7487C11.7842 23.592 11.9095 23.498 12.0348 23.498C12.1288 23.498 12.2542 23.592 12.2542 23.7487Z" fill="#0095FF"/>
<path d="M12.2552 0.249684C12.2552 0.406347 12.1612 0.500345 12.0046 0.500345C11.8792 0.500345 11.7539 0.375015 11.7539 0.249684C11.7539 0.124354 11.8792 -0.000976562 12.0046 -0.000976562C12.1299 -0.000976562 12.2552 0.124354 12.2552 0.249684Z" fill="#0095FF"/>
<path d="M22.4065 6.10906C22.4065 6.26572 22.3125 6.35972 22.1872 6.35972C22.0305 6.35972 21.9365 6.26572 21.9365 6.10906C21.9365 5.9524 22.0305 5.8584 22.1872 5.8584C22.3438 5.8584 22.4065 5.9524 22.4065 6.10906Z" fill="#0095FF"/>
<path d="M22.1872 18.0784C21.9992 18.0784 21.9365 18.0157 21.9365 17.8591C21.9365 17.7024 22.0305 17.6084 22.1872 17.6084C22.3125 17.6084 22.4378 17.7337 22.4378 17.8591C22.4378 18.0157 22.3438 18.0784 22.1872 18.0784Z" fill="#0095FF"/>
<path d="M16.6406 21.3057C16.672 21.3683 16.7033 21.3997 16.7346 21.4623C16.9539 21.807 17.3926 21.8697 17.7059 21.5563C17.7373 21.525 17.7686 21.4937 17.7999 21.4623C17.6433 21.807 17.1106 21.901 16.7973 21.619C16.7346 21.5563 16.672 21.4623 16.6406 21.3057Z" fill="#0095FF"/>
<path d="M17.832 21.4937C17.8947 21.3057 17.9574 21.1177 17.8947 20.9297C17.9887 21.0864 17.9574 21.337 17.832 21.4937Z" fill="#0095FF"/>
<path d="M12.1611 17.0439C12.4118 16.9812 12.6311 16.9185 12.8191 16.8245C13.0384 16.6992 13.2264 16.5425 13.3518 16.3232C13.4771 16.1352 13.5711 15.9472 13.7591 15.8219C14.1664 15.4772 14.6051 15.3206 15.1377 15.4146C15.7017 15.5086 16.109 15.8219 16.3597 16.2919C16.6104 16.7932 16.6104 17.2945 16.3597 17.7958C16.1717 18.1718 15.8584 18.4538 15.4511 18.6105C15.2317 18.6731 14.9811 18.7358 14.7617 18.7045C14.1664 18.6418 13.7278 18.3285 13.4144 17.8272C13.1638 17.4512 12.8191 17.2005 12.3805 17.1065C12.3178 17.1065 12.2551 17.0752 12.1611 17.0439Z" fill="#0095FF"/>
</g>
<defs>
<clipPath id="clip0_3537_26483">
<rect width="24" height="24" fill="white"/>
</clipPath>
</defs>
</svg>
