<svg width="24" height="24" viewBox="0 0 24 24" fill="none" xmlns="http://www.w3.org/2000/svg">
<g clip-path="url(#clip0_6551_27559)">
<path d="M3.59969 15.8212L1.78134 23.657C1.74385 23.8257 1.87507 23.9944 2.04379 23.9944H5.68049C5.8492 23.9944 5.98042 23.8257 5.94293 23.657L4.12458 15.8212C4.06834 15.5401 3.65593 15.5401 3.59969 15.8212Z" fill="#37E2E2"/>
<path d="M7.33017 7.29195L3.52475 23.6571C3.48726 23.8258 3.61848 23.9945 3.78719 23.9945H11.3793C11.548 23.9945 11.6792 23.8258 11.6417 23.6571L7.8738 7.29195C7.79881 7.01076 7.40515 7.01076 7.33017 7.29195Z" fill="#1678FF"/>
<path d="M18.8402 11.3974L15.9908 23.6572C15.9533 23.8259 16.0845 23.9946 16.2533 23.9946H21.952C22.1207 23.9946 22.2519 23.8259 22.2144 23.6572L19.3651 11.3974C19.3088 11.1162 18.8964 11.1162 18.8402 11.3974Z" fill="#37E2E2"/>
<path d="M13.7225 0.206008L8.28623 23.6571C8.24873 23.8258 8.37996 23.9945 8.54867 23.9945H19.44C19.6087 23.9945 19.74 23.8258 19.7025 23.6571L14.2662 0.206008C14.2099 -0.0751799 13.7975 -0.0751799 13.7225 0.206008Z" fill="#1678FF"/>
<path d="M10.1795 9.11031L6.80527 23.6571C6.76778 23.8258 6.899 23.9945 7.06771 23.9945H13.8162C13.9849 23.9945 14.1162 23.8258 14.0787 23.6571L10.7044 9.11031C10.6482 8.82912 10.2545 8.82912 10.1795 9.11031Z" fill="#37E2E2"/>
</g>
<defs>
<clipPath id="clip0_6551_27559">
<rect width="24" height="24" fill="white"/>
</clipPath>
</defs>
</svg>
