<svg width="24" height="24" viewBox="0 0 24 24" fill="none" xmlns="http://www.w3.org/2000/svg">
<path d="M10.6 18.2C14.7974 18.2 18.2 14.7974 18.2 10.6C18.2 6.40264 14.7974 3 10.6 3C6.40264 3 3 6.40264 3 10.6C3 14.7974 6.40264 18.2 10.6 18.2Z" stroke="#3E4D7E" stroke-width="1.7" stroke-miterlimit="10" stroke-linecap="round" stroke-linejoin="round"/>
<path d="M21 20.9996L16.1 16.0996" stroke="#3E4D7E" stroke-width="1.7" stroke-miterlimit="10" stroke-linecap="round" stroke-linejoin="round"/>
<path d="M12.3 8.79961C12.3 8.69961 12.4 8.49961 12.4 8.29961C12.4 7.39961 11.6 6.59961 10.7 6.59961C9.79995 6.59961 8.99995 7.39961 8.99995 8.29961C8.99995 8.49961 8.99995 8.59961 8.99995 8.79961C8.19995 9.29961 7.69995 10.1996 7.69995 11.1996C7.69995 12.7996 8.99995 14.0996 10.6 14.0996C12.2 14.0996 13.5 12.7996 13.5 11.1996C13.6 10.1996 13.1 9.29961 12.3 8.79961Z" fill="#F58A29"/>
<path d="M6 11.1992H15.3" stroke="#F58A29" stroke-miterlimit="10" stroke-linecap="round" stroke-linejoin="round"/>
<path d="M14.1 7.7998C14.1 9.6998 12.6 11.1998 10.7 11.1998C8.79995 11.1998 7.19995 9.6998 7.19995 7.7998" stroke="#F58A29" stroke-miterlimit="10" stroke-linecap="round" stroke-linejoin="round"/>
<path d="M7.19995 14.6998C7.19995 12.7998 8.69995 11.2998 10.6 11.2998C12.5 11.2998 14 12.7998 14 14.6998" stroke="#F58A29" stroke-miterlimit="10" stroke-linecap="round" stroke-linejoin="round"/>
</svg>
