<svg width="24" height="24" viewBox="0 0 24 24" fill="none" xmlns="http://www.w3.org/2000/svg">
<g clip-path="url(#clip0_3933_30659)">
<path fill-rule="evenodd" clip-rule="evenodd" d="M12.0595 0C12.2932 0 12.5201 0.123632 12.6438 0.329686L14.0047 2.66496H20.0397C20.2734 2.66496 20.5002 2.78859 20.6239 2.99464L22.3354 5.9206C22.4591 6.12666 22.4591 6.38766 22.3354 6.59371L22.3011 6.64866C22.2736 6.68987 22.2392 6.73108 22.198 6.76542L20.8439 9.08696L23.8407 14.2383L23.9163 14.3482C24.0057 14.5542 24.0263 14.8152 23.9644 15.0007L22.3904 17.6931C22.2667 17.8992 22.0467 18.0228 21.8062 18.0228L19.0774 18.0365L16.0668 23.236C15.9431 23.442 15.7231 23.5656 15.4825 23.5656L12.0733 23.5794H12.0252C11.8052 23.5656 11.5922 23.442 11.4822 23.2497L10.0181 20.7427H4.0588C4.01068 20.7565 3.96944 20.7564 3.92133 20.7564C3.68763 20.7564 3.4608 20.6328 3.33708 20.4268L1.76305 17.7343C1.63933 17.5351 1.63933 17.281 1.76305 17.0681L3.11713 14.7191L0.0927922 9.52654C-0.0309307 9.32735 -0.0309307 9.07322 0.0927922 8.8603L1.7768 5.9206C1.88677 5.71455 2.1136 5.59092 2.36105 5.59092C2.42291 5.57718 2.47102 5.59092 2.51914 5.60465H5.30978L8.29287 0.453318C8.30662 0.412107 8.31349 0.377765 8.33411 0.350291L8.34786 0.329686C8.47158 0.123632 8.69154 0 8.93211 0H12.0664H12.0595ZM8.88399 0.714319L5.64658 6.29837H2.33355L8.78089 17.3772H5.49536L3.90758 20.1177H10.3755L12.0252 22.9612L18.4725 11.8549L20.1222 14.6847L23.3046 14.671L20.0603 9.08696L21.6962 6.27089L8.84275 6.28463L10.4924 3.45483L8.89087 0.714319H8.88399ZM15.8606 9.65704L12.0046 16.2851L8.14853 9.65704H15.8606Z" fill="url(#paint0_linear_3933_30659)"/>
</g>
<defs>
<linearGradient id="paint0_linear_3933_30659" x1="1841.29" y1="981.069" x2="446.546" y2="1561.89" gradientUnits="userSpaceOnUse">
<stop stop-color="#797BEB"/>
<stop offset="1" stop-color="#373080"/>
</linearGradient>
<clipPath id="clip0_3933_30659">
<rect width="24" height="24" fill="white"/>
</clipPath>
</defs>
</svg>
