<svg width="24" height="24" viewBox="0 0 24 24" fill="none" xmlns="http://www.w3.org/2000/svg">
<g clip-path="url(#clip0_4427_24841)">
<path d="M19.5 0H4.5C2.01472 0 0 2.01472 0 4.5V19.5C0 21.9853 2.01472 24 4.5 24H19.5C21.9853 24 24 21.9853 24 19.5V4.5C24 2.01472 21.9853 0 19.5 0Z" fill="white"/>
<path d="M10.17 6.00035C10.74 5.68035 11.36 5.47035 12.03 5.48035C12.7 5.48035 13.31 5.70035 13.88 6.03035C13.95 5.68035 14 5.35035 14.09 5.02035C14.2 4.58035 14.37 4.16035 14.66 3.81035C14.96 3.45035 15.32 3.25035 15.81 3.35035C16.1 3.41035 16.32 3.59035 16.5 3.81035C16.84 4.24035 17 4.75035 17.1 5.28035C17.25 6.06035 17.26 6.85035 17.13 7.64035C17.1 7.82035 17.14 7.91035 17.26 8.02035C17.61 8.34035 17.96 8.67035 18.17 9.10035C18.47 9.73035 18.63 10.4004 18.6 11.1104C18.57 11.7704 18.38 12.3804 18.03 12.9304C18.01 12.9704 18 13.0404 18.03 13.0804C18.45 13.8904 18.61 14.7504 18.54 15.6504C18.49 16.3104 18.31 16.9304 17.95 17.4904C17.92 17.5304 17.91 17.6104 17.93 17.6404C18.2 18.0704 18.31 18.5504 18.37 19.0504C18.43 19.5404 18.42 20.0304 18.32 20.5204C18.27 20.7304 18.28 20.7304 18.07 20.7304C17.84 20.7304 17.61 20.7304 17.38 20.7304C17.26 20.7304 17.24 20.6704 17.25 20.5804C17.25 20.5304 17.27 20.4904 17.28 20.4404C17.46 19.9204 17.42 19.3904 17.32 18.8604C17.26 18.5204 17.12 18.2204 16.94 17.9304C16.74 17.6204 16.78 17.3404 17 17.0604C17.37 16.6004 17.51 16.0504 17.54 15.4804C17.58 14.6904 17.4 13.9604 16.97 13.2904C16.82 13.0504 16.84 12.7604 17.04 12.5604C17.35 12.2404 17.5 11.8304 17.57 11.3904C17.77 10.3004 17.23 9.10035 16.28 8.53035C15.84 8.27035 15.37 8.16035 14.85 8.23035C14.6 8.27035 14.48 8.25035 14.35 7.96035C14.02 7.23035 13.42 6.81035 12.67 6.59035C11.7 6.30035 10.5 6.74035 9.93003 7.57035C9.82003 7.72035 9.74003 7.89035 9.66003 8.06035C9.60003 8.18035 9.52003 8.24035 9.39003 8.24035C9.34003 8.24035 9.29003 8.24035 9.24003 8.24035C8.27003 8.12035 7.54003 8.52035 6.99003 9.27035C6.32003 10.1804 6.27003 11.4204 6.83003 12.3104C6.89003 12.4104 6.97003 12.4904 7.06003 12.5704C7.25003 12.7404 7.29003 13.0104 7.15003 13.2304C6.84003 13.7004 6.65003 14.2104 6.58003 14.7704C6.48003 15.6204 6.58003 16.4104 7.13003 17.1104C7.32003 17.3604 7.35003 17.6104 7.18003 17.8704C6.85003 18.3804 6.69003 18.9404 6.70003 19.5404C6.70003 19.8004 6.76003 20.0704 6.79003 20.3304C6.79003 20.3804 6.82003 20.4304 6.83003 20.4804C6.88003 20.6704 6.85003 20.7104 6.66003 20.7104C6.43003 20.7104 6.20003 20.7104 5.97003 20.7104C5.86003 20.7104 5.81003 20.6704 5.79003 20.5704C5.75003 20.3004 5.70003 20.0304 5.69003 19.7604C5.67003 19.1304 5.75003 18.5204 6.00003 17.9304C6.02003 17.8904 6.03003 17.8504 6.05003 17.8204C6.22003 17.6304 6.15003 17.4804 6.04003 17.2804C5.66003 16.6404 5.53003 15.9204 5.54003 15.1804C5.55003 14.4404 5.72003 13.7504 6.05003 13.0904C6.07003 13.0504 6.06003 12.9804 6.05003 12.9404C5.23003 11.6004 5.25003 10.2404 6.05003 8.91035C6.25003 8.57035 6.58003 8.29035 6.85003 8.00035C6.95003 7.90035 7.00003 7.82035 6.97003 7.65035C6.85003 7.04035 6.85003 6.42035 6.91003 5.80035C6.97003 5.24035 7.08003 4.69035 7.35003 4.19035C7.45003 4.01035 7.56003 3.83035 7.70003 3.69035C8.17003 3.20035 8.81003 3.20035 9.29003 3.67035C9.62003 3.99035 9.81003 4.40035 9.93003 4.84035C10.04 5.22035 10.11 5.61035 10.2 6.01035L10.17 6.00035ZM7.89003 7.32035C8.27003 7.28035 8.64003 7.23035 9.01003 7.19035C9.04003 7.19035 9.08003 7.15035 9.10003 7.13035C9.21003 6.99035 9.19003 6.82035 9.18003 6.66035C9.17003 6.11035 9.11003 5.56035 8.92003 5.03035C8.85003 4.83035 8.74003 4.63035 8.62003 4.45035C8.51003 4.28035 8.44003 4.29035 8.33003 4.45035C8.24003 4.58035 8.17003 4.71035 8.11003 4.86035C7.82003 5.67035 7.78003 6.50035 7.89003 7.33035V7.32035ZM16.16 7.33035C16.26 6.64035 16.23 5.94035 16.07 5.26035C16 4.96035 15.91 4.67035 15.72 4.43035C15.61 4.29035 15.55 4.28035 15.45 4.43035C15.33 4.62035 15.21 4.82035 15.14 5.04035C14.92 5.64035 14.88 6.26035 14.87 6.89035C14.87 7.08035 14.98 7.20035 15.17 7.20035C15.21 7.20035 15.24 7.20035 15.28 7.20035C15.57 7.24035 15.87 7.29035 16.17 7.33035H16.16Z" fill="black"/>
<path d="M12.0101 14.7902C11.5401 14.8102 11.0701 14.7902 10.6301 14.6002C9.98006 14.3202 9.50005 13.8802 9.36005 13.1602C9.23005 12.4802 9.45006 11.9002 9.93006 11.4202C10.5501 10.8002 11.3101 10.5702 12.1701 10.6002C12.9201 10.6302 13.5801 10.8802 14.1101 11.4202C15.1201 12.4502 14.8301 13.9502 13.5201 14.5502C13.1701 14.7102 12.7901 14.7902 12.4001 14.7902C12.2701 14.7902 12.1401 14.7902 12.0101 14.7902ZM12.0201 14.1302C12.1301 14.1302 12.2401 14.1302 12.3601 14.1302C12.8701 14.1202 13.3401 13.9902 13.7101 13.6102C14.0701 13.2502 14.1501 12.7402 13.9101 12.2902C13.8101 12.1102 13.6801 11.9302 13.5201 11.8002C12.9601 11.3202 12.2901 11.1802 11.5801 11.3102C11.0201 11.4102 10.5401 11.6602 10.2201 12.1402C10.0601 12.3702 9.97005 12.6302 10.0001 12.9202C10.0701 13.4702 10.4301 13.7902 10.9201 13.9902C11.2801 14.1302 11.6501 14.1402 12.0201 14.1302Z" fill="black"/>
<path d="M9.32003 11.35C9.32003 11.73 8.99003 12.1 8.65003 12.1C8.26003 12.1 7.98003 11.83 8.00003 11.45C8.02003 11.07 8.28003 10.71 8.69003 10.71C9.05003 10.71 9.32003 10.99 9.32003 11.34V11.35Z" fill="black"/>
<path d="M14.73 11.3307C14.73 10.9807 15.01 10.7207 15.36 10.7207C15.78 10.7207 16.05 11.1107 16.05 11.4907C16.05 11.8407 15.77 12.1107 15.39 12.1107C15.05 12.1107 14.72 11.7307 14.72 11.3407L14.73 11.3307Z" fill="black"/>
<path d="M12.01 13.4305C11.76 13.4305 11.67 13.3205 11.72 13.0805C11.73 13.0305 11.75 12.9805 11.75 12.9305C11.75 12.8805 11.72 12.8205 11.68 12.7805C11.63 12.7305 11.56 12.6905 11.5 12.6405C11.39 12.5305 11.37 12.4005 11.45 12.2805C11.52 12.1705 11.66 12.1305 11.8 12.1805C12.01 12.2505 12.03 12.2505 12.22 12.1805C12.36 12.1305 12.5 12.1705 12.57 12.2805C12.64 12.3805 12.62 12.5305 12.52 12.6405C12.5 12.6605 12.47 12.6905 12.45 12.7005C12.26 12.7805 12.26 12.9105 12.3 13.0805C12.35 13.3105 12.25 13.4205 12.01 13.4205V13.4305Z" fill="black"/>
</g>
<defs>
<clipPath id="clip0_4427_24841">
<rect width="24" height="24" fill="white"/>
</clipPath>
</defs>
</svg>
