<svg width="24" height="24" viewBox="0 0 24 24" fill="none" xmlns="http://www.w3.org/2000/svg">
<rect width="24" height="24" rx="4" fill="white"/>
<path d="M20.2256 10.2572C20.4402 9.61073 20.5145 8.92587 20.4433 8.24838C20.3722 7.5709 20.1573 6.9164 19.813 6.3286C19.3026 5.44014 18.5232 4.73673 17.5872 4.31977C16.6513 3.90281 15.6071 3.79386 14.6052 4.00861C14.036 3.37546 13.3102 2.90323 12.5007 2.63934C11.6913 2.37545 10.8266 2.3292 9.99365 2.50523C9.16066 2.68126 8.38865 3.07338 7.75516 3.64219C7.12167 4.21101 6.649 4.9365 6.38463 5.7458C5.71717 5.88267 5.0866 6.16043 4.53508 6.56051C3.98356 6.9606 3.52378 7.47379 3.18648 8.06579C2.67051 8.95277 2.44999 9.98086 2.5568 11.0014C2.6636 12.022 3.09221 12.9821 3.78064 13.7431C3.56517 14.3892 3.49018 15.074 3.56068 15.7515C3.63118 16.429 3.84555 17.0836 4.18944 17.6716C4.70051 18.5604 5.48057 19.264 6.4172 19.6809C7.35383 20.0979 8.39866 20.2067 9.4011 19.9917C9.85331 20.5009 10.409 20.9078 11.0309 21.1852C11.6529 21.4626 12.3269 21.6041 13.008 21.6003C14.0349 21.6013 15.0355 21.2759 15.8655 20.6711C16.6954 20.0663 17.3117 19.2135 17.6254 18.2357C18.2928 18.0986 18.9233 17.8207 19.4747 17.4206C20.0262 17.0206 20.4861 16.5075 20.8236 15.9156C21.3334 15.0299 21.5502 14.0057 21.4427 12.9894C21.3353 11.9731 20.9093 11.0168 20.2256 10.2572ZM13.008 20.3437C12.167 20.345 11.3523 20.0502 10.7069 19.511L10.8204 19.4467L14.643 17.2402C14.7382 17.1844 14.8171 17.1048 14.8722 17.0092C14.9273 16.9137 14.9566 16.8054 14.9572 16.6951V11.3056L16.5732 12.2405C16.5812 12.2445 16.5881 12.2504 16.5934 12.2577C16.5986 12.2649 16.6021 12.2733 16.6036 12.2821V16.7482C16.6015 17.7011 16.2221 18.6145 15.5482 19.2884C14.8743 19.9622 13.961 20.3417 13.008 20.3437ZM5.27944 17.0434C4.85765 16.3151 4.70621 15.4614 4.85176 14.6324L4.96536 14.7006L8.79175 16.9071C8.88642 16.9627 8.99421 16.992 9.10399 16.992C9.21376 16.992 9.32155 16.9627 9.41622 16.9071L14.0905 14.2123V16.0783C14.09 16.0879 14.0874 16.0974 14.0828 16.1059C14.0782 16.1144 14.0717 16.1218 14.0639 16.1275L10.1921 18.3605C9.36577 18.8365 8.38434 18.9651 7.46328 18.7182C6.54221 18.4713 5.75678 17.8689 5.27944 17.0434ZM4.27272 8.71683C4.69742 7.98385 5.36778 7.42478 6.16511 7.1386V11.6803C6.16367 11.7901 6.19171 11.8982 6.24629 11.9934C6.30088 12.0886 6.38001 12.1674 6.47543 12.2215L11.1269 14.905L9.51086 15.8398C9.50212 15.8444 9.49237 15.8468 9.48246 15.8468C9.47256 15.8468 9.46281 15.8444 9.45406 15.8398L5.58983 13.6106C4.76509 13.1325 4.1634 12.3471 3.91653 11.4263C3.66967 10.5056 3.79774 9.52449 4.27272 8.69795V8.71683ZM17.5497 11.8015L12.8831 9.09155L14.4954 8.16035C14.5042 8.15571 14.5139 8.15328 14.5238 8.15328C14.5337 8.15328 14.5435 8.15571 14.5522 8.16035L18.4164 10.3934C19.0073 10.7343 19.4889 11.2363 19.8052 11.8407C20.1215 12.4451 20.2593 13.127 20.2025 13.8067C20.1458 14.4865 19.8968 15.1361 19.4847 15.6797C19.0726 16.2233 18.5144 16.6385 17.8752 16.8767V12.335C17.8719 12.2254 17.8401 12.1187 17.783 12.0251C17.7259 11.9316 17.6456 11.8545 17.5497 11.8015ZM19.1583 9.38299L19.0447 9.31483L15.2259 7.0894C15.1306 7.0335 15.0222 7.00403 14.9117 7.00403C14.8013 7.00403 14.6928 7.0335 14.5976 7.0894L9.92726 9.78411V7.91828C9.92627 7.90879 9.92785 7.89921 9.93185 7.89055C9.93585 7.88189 9.94212 7.87447 9.94998 7.86908L13.8142 5.6398C14.4065 5.29862 15.0836 5.13311 15.7665 5.16265C16.4493 5.19218 17.1097 5.41554 17.6702 5.80659C18.2308 6.19764 18.6685 6.74021 18.932 7.37086C19.1955 8.00151 19.274 8.69416 19.1584 9.36779L19.1583 9.38299ZM9.04527 12.6907L7.42927 11.7597C7.42119 11.7548 7.41427 11.7482 7.40902 11.7404C7.40376 11.7326 7.4003 11.7237 7.39887 11.7143V7.25972C7.39976 6.57634 7.59518 5.90733 7.96227 5.33092C8.32936 4.75451 8.85297 4.29452 9.47186 4.00472C10.0907 3.71492 10.7793 3.6073 11.4572 3.69443C12.135 3.78156 12.7739 4.05986 13.2994 4.49677L13.1858 4.56116L9.36327 6.76756C9.26812 6.82336 9.18914 6.90294 9.13406 6.9985C9.07898 7.09406 9.0497 7.2023 9.04911 7.3126L9.04527 12.6907ZM9.92334 10.7984L12.0049 9.59859L14.0905 10.7984V13.1979L12.0125 14.3977L9.92718 13.1979L9.92334 10.7984Z" fill="black"/>
</svg>
