<svg width="24" height="24" viewBox="0 0 24 24" fill="none" xmlns="http://www.w3.org/2000/svg">
<g clip-path="url(#clip0_5760_62529)">
<path d="M24 0H0V24H24V0Z" fill="url(#paint0_linear_5760_62529)"/>
<path d="M8.38993 16.8398H7.92993V19.1198H8.38993V16.8398Z" fill="white"/>
<path d="M11.54 16.8398H11.08V19.1198H11.54V16.8398Z" fill="white"/>
<path d="M6.92994 16.8398L6.43994 17.5298L5.94994 16.8398H5.43994V19.1298H5.88994V17.5498L6.15994 17.9198L6.32994 18.1598H6.54994L6.71994 17.9198L6.98994 17.5498V19.1298H7.44994V16.8398H6.92994Z" fill="white"/>
<path d="M13.47 16.8398L12.98 17.5298L12.48 16.8398H11.97V19.1298H12.43V17.5498L12.7 17.9198L12.87 18.1598H13.09L13.26 17.9198L13.52 17.5498V19.1298H13.98V16.8398H13.47Z" fill="white"/>
<path d="M9.26994 19.1298V17.6498L10.1799 19.1298H10.6799V16.8398H10.2199V18.3198L9.30994 16.8398H8.80994V19.1298H9.26994Z" fill="white"/>
<path d="M16.61 19.1298H17.15L17.59 18.4198L18.03 19.1298H18.56L17.86 17.9898L18.56 16.8398H18.02L17.59 17.5498L17.15 16.8398H16.62L17.32 17.9898L16.61 19.1298Z" fill="white"/>
<path d="M15.9099 19.1296H16.3899L15.6299 16.8496H15.0199L14.2999 19.1296H14.7799L14.8799 18.7796H15.7899L15.8999 19.1296H15.9099ZM14.9999 18.3796L15.3199 17.2896L15.6699 18.3796H14.9999Z" fill="white"/>
<path d="M9.47989 14.1901C8.90989 14.1901 8.44989 13.7301 8.44989 13.1601V8.51012C8.44989 8.27012 8.24989 8.07012 8.00989 8.07012C7.76989 8.07012 7.56989 8.27012 7.56989 8.51012V10.4401C7.56989 11.0101 7.10989 11.4701 6.53989 11.4701C5.96989 11.4701 5.50989 11.0101 5.50989 10.4401V9.64012C5.50989 9.48012 5.63989 9.35012 5.79989 9.35012C5.95989 9.35012 6.08989 9.48012 6.08989 9.64012V10.4401C6.08989 10.6901 6.28989 10.8901 6.53989 10.8901C6.78989 10.8901 6.98989 10.6901 6.98989 10.4401V8.51012C6.98989 7.95012 7.43989 7.50012 7.99989 7.50012C8.55989 7.50012 9.00989 7.95012 9.00989 8.51012V13.1601C9.00989 13.4101 9.20989 13.6101 9.45989 13.6101C9.70989 13.6101 9.90989 13.4101 9.90989 13.1601V5.90012C9.90989 5.33012 10.3699 4.87012 10.9399 4.87012C11.5099 4.87012 11.9699 5.33012 11.9699 5.90012V11.9001C11.9699 12.0601 11.8399 12.1901 11.6799 12.1901C11.5199 12.1901 11.3899 12.0601 11.3899 11.9001V5.90012C11.3899 5.65012 11.1899 5.45012 10.9399 5.45012C10.6899 5.45012 10.4899 5.65012 10.4899 5.90012V13.1601C10.4899 13.7301 10.0299 14.1901 9.45989 14.1901H9.47989Z" fill="white"/>
<path d="M12.4399 15.1301C11.8699 15.1301 11.4099 14.6701 11.4099 14.1001V13.0901C11.4099 12.9301 11.5399 12.8001 11.6999 12.8001C11.8599 12.8001 11.9899 12.9301 11.9899 13.0901V14.1001C11.9899 14.3501 12.1899 14.5501 12.4399 14.5501C12.6899 14.5501 12.8899 14.3501 12.8899 14.1001V5.90012C12.8899 5.33012 13.3499 4.87012 13.9199 4.87012C14.4899 4.87012 14.9499 5.33012 14.9499 5.90012V12.3601C14.9499 12.6101 15.1499 12.8101 15.3999 12.8101C15.6499 12.8101 15.8499 12.6101 15.8499 12.3601V8.52012C15.8499 7.95012 16.3099 7.49012 16.8799 7.49012C17.4499 7.49012 17.9099 7.95012 17.9099 8.52012V12.1201C17.9099 12.2801 17.7799 12.4101 17.6199 12.4101C17.4599 12.4101 17.3299 12.2801 17.3299 12.1201V8.52012C17.3299 8.27012 17.1299 8.07012 16.8799 8.07012C16.6299 8.07012 16.4299 8.27012 16.4299 8.52012V12.3601C16.4299 12.9301 15.9699 13.3901 15.3999 13.3901C14.8299 13.3901 14.3699 12.9301 14.3699 12.3601V5.90012C14.3699 5.65012 14.1699 5.45012 13.9199 5.45012C13.6699 5.45012 13.4699 5.65012 13.4699 5.90012V14.1101C13.4699 14.6801 13.0099 15.1401 12.4399 15.1401V15.1301Z" fill="white"/>
</g>
<defs>
<linearGradient id="paint0_linear_5760_62529" x1="0" y1="12" x2="24" y2="12" gradientUnits="userSpaceOnUse">
<stop stop-color="#E21780"/>
<stop offset="1" stop-color="#FF613A"/>
</linearGradient>
<clipPath id="clip0_5760_62529">
<rect width="24" height="24" fill="white"/>
</clipPath>
</defs>
</svg>
