<svg width="24" height="24" viewBox="0 0 24 24" fill="none" xmlns="http://www.w3.org/2000/svg">
<g clip-path="url(#clip0_6561_27159)">
<path d="M14.3006 6.40359L9.14438 3.42609C8.32125 2.95172 7.30875 2.95172 6.48563 3.42609L1.32938 6.40359C0.50625 6.87797 0 7.75547 0 8.70609V14.6611C0 15.6117 0.50625 16.4892 1.32938 16.9636L6.48563 19.9411C7.30875 20.4155 8.32125 20.4155 9.14438 19.9411L14.3006 16.9636C15.1237 16.4892 15.63 15.6117 15.63 14.6611V8.70609C15.63 7.75547 15.1237 6.87797 14.3006 6.40359ZM13.1813 14.2655C13.1813 14.5842 13.0106 14.8805 12.735 15.0398L8.26125 17.6217C7.98375 17.7811 7.64438 17.7811 7.36688 17.6217L2.89313 15.0398C2.61563 14.8805 2.44688 14.5842 2.44688 14.2655V9.09984C2.44688 8.78109 2.6175 8.48484 2.89313 8.32547L7.36688 5.74359C7.64438 5.58422 7.98375 5.58422 8.26125 5.74359L12.735 8.32547C13.0125 8.48484 13.1813 8.78109 13.1813 9.09984V14.2655Z" fill="#2F80ED"/>
<path d="M22.6707 6.40359L17.5144 3.42609C16.6913 2.95172 15.6788 2.95172 14.8557 3.42609L12 5.07422L14.4488 6.48797L15.7388 5.74359C16.0163 5.58422 16.3557 5.58422 16.6332 5.74359L21.1069 8.32547C21.3844 8.48484 21.5532 8.78109 21.5532 9.09984V14.2655C21.5532 14.5842 21.3825 14.8805 21.1069 15.0398L16.6332 17.6217C16.3557 17.7811 16.0163 17.7811 15.7388 17.6217L11.265 15.0398C10.9875 14.8805 10.8188 14.5842 10.8188 14.2655V9.09984C10.8188 8.78109 10.9894 8.48484 11.265 8.32547L12 7.90172L9.55691 6.49172C8.81816 6.98297 8.36816 7.81172 8.36816 8.70609V14.6611C8.36816 15.6117 8.87441 16.4892 9.69754 16.9636L14.8538 19.9411C15.6769 20.4155 16.6894 20.4155 17.5125 19.9411L22.6688 16.9636C23.4919 16.4892 23.9982 15.6117 23.9982 14.6611V8.70609C23.9982 7.75547 23.4919 6.87797 22.6688 6.40359H22.6707Z" fill="#2D9CDB"/>
<path d="M14.445 6.4903C14.4338 6.48467 14.43 6.4828 14.4431 6.4903H14.445Z" fill="#2D9CDB"/>
</g>
<defs>
<clipPath id="clip0_6561_27159">
<rect width="24" height="24" fill="white"/>
</clipPath>
</defs>
</svg>
