<svg width="24" height="24" viewBox="0 0 24 24" fill="none" xmlns="http://www.w3.org/2000/svg">
<rect width="24" height="24" rx="4" fill="white"/>
<path d="M20.7001 7.7002C20.5001 7.8002 20.4001 7.9002 20.2001 8.0002C19.6001 8.3002 19.1 8.6002 18.5 9.0002C17.8 9.4002 17.1 9.8002 16.4 10.2002C16.2 10.3002 15.9 10.5002 15.7 10.6002C15.6 10.7002 15.5 10.7002 15.5 10.5002C15.5 10.1002 15.5 9.7002 15.5 9.4002C15.5 9.3002 15.5 9.3002 15.5 9.2002C15.5 9.1002 15.5 9.1002 15.4 9.1002C15.3 9.1002 15.3 9.1002 15.2 9.1002C15 9.1002 14.7 9.1002 14.5 9.1002C14.1 9.1002 13.8 9.1002 13.4 9.2002C13.2 9.2002 13 9.3002 12.9 9.3002C12.5 9.4002 12.2 9.5002 11.8 9.7002C11.3 10.0002 10.8 10.3002 10.4 10.6002C9.90005 11.0002 9.40005 11.3002 8.90005 11.6002C8.70005 11.7002 8.60005 11.8002 8.40005 11.9002C8.40005 11.9002 8.30005 11.9002 8.30005 12.0002C8.20005 12.0002 8.20005 12.1002 8.30005 12.1002C8.50005 12.2002 8.70005 12.3002 8.80005 12.4002C9.10005 12.6002 9.30005 12.8002 9.60005 13.0002C10.1 13.4002 10.6 13.7002 11.1 14.1002C11.6 14.4002 12.1 14.6002 12.6 14.8002C12.9 14.9002 13.3 15.0002 13.7 15.0002C14.2 15.0002 14.7 15.0002 15.2 15.0002C15.4 15.0002 15.4 15.0002 15.4 14.8002C15.4 14.4002 15.4 14.0002 15.4 13.6002C15.4 13.4002 15.4 13.4002 15.6 13.5002C16 13.7002 16.4 14.0002 16.8 14.2002C17.4 14.6002 18 14.9002 18.6 15.2002C19.1 15.5002 19.5 15.7002 20 16.0002C20.2 16.1002 20.3 16.2002 20.5 16.3002C20.5 16.3002 20.6 16.3002 20.6 16.4002V16.5002C20.6 16.5002 20.5 16.5002 20.5 16.6002C19.7 17.1002 18.9 17.5002 18.1 18.0002C17.3 18.4002 16.6 18.9002 15.8 19.3002C15.7 19.4002 15.6 19.4002 15.5 19.5002C15.4 19.5002 15.4 19.5002 15.4 19.4002C15.4 19.2002 15.4 19.1002 15.4 18.9002C15.4 18.7002 15.4 18.5002 15.4 18.3002C15.4 18.2002 15.4 18.2002 15.3 18.2002C14.6 18.2002 13.9 18.2002 13.3 18.1002C13.1 18.1002 12.8 18.0002 12.6 18.0002C12.2 17.9002 11.9 17.8002 11.6 17.7002C11 17.5002 10.4 17.2002 9.90005 16.9002C9.50005 16.6002 9.10005 16.3002 8.70005 16.0002C8.20005 15.6002 7.70005 15.3002 7.20005 15.0002C6.80005 14.8002 6.40005 14.5002 6.00005 14.3002C5.50005 14.1002 5.30005 14.0002 5.00005 13.9002C4.70005 13.8002 4.40005 13.7002 4.10005 13.7002C3.90005 13.6002 3.70005 13.6002 3.40005 13.6002C3.30005 13.6002 3.30005 13.6002 3.30005 13.5002V13.4002C3.30005 12.5002 3.30005 11.6002 3.30005 10.8002C3.30005 10.6002 3.30005 10.6002 3.50005 10.6002C3.70005 10.6002 3.80005 10.5002 4.00005 10.5002C4.20005 10.4002 4.50005 10.4002 4.70005 10.3002C5.50005 10.0002 6.10005 9.7002 6.70005 9.4002C7.10005 9.2002 7.40005 8.9002 7.80005 8.7002C8.30005 8.4002 8.70005 8.1002 9.20005 7.7002C9.60005 7.4002 10.1 7.1002 10.5 6.9002C11 6.7002 11.5 6.5002 12 6.3002C12.3 6.2002 12.6 6.2002 13 6.1002C13.2 6.1002 13.5 6.1002 13.7 6.0002C13.8 6.0002 13.9 6.0002 14.1 6.0002C14.5 6.0002 14.9 6.0002 15.3 6.0002H15.4C15.5 6.0002 15.5 6.0002 15.5 5.9002V5.8002C15.5 5.5002 15.5 5.2002 15.5 4.9002V4.8002C15.5 4.7002 15.5 4.7002 15.6 4.7002C16 4.9002 16.3 5.1002 16.7 5.3002C17.2 5.6002 17.7 5.9002 18.2 6.2002C18.5 6.4002 18.9 6.6002 19.2 6.8002C19.6 7.0002 20.1 7.3002 20.5 7.5002C20.6 7.6002 20.6001 7.6002 20.7001 7.7002Z" fill="#94A3B8"/>
</svg>
