
<svg width="24" height="24" viewBox="0 0 24 24" fill="none" xmlns="http://www.w3.org/2000/svg">
<g clip-path="url(#clip0_4534_26047)">
<path d="M24 0H0V24H24V0Z" fill="#F54F35"/>
<path d="M12.0301 4.59991C9.23005 4.56991 6.94005 6.81991 6.92005 9.61991C6.90005 12.4199 9.14005 14.7099 11.9401 14.7299H13.7001V12.8299H12.0301C10.2801 12.8499 8.85005 11.4499 8.83005 9.69991C8.81005 7.94991 10.2101 6.51991 11.9601 6.49991H12.0301C13.7801 6.49991 15.2001 7.91991 15.2001 9.66991V14.3399C15.2001 16.0699 13.7901 17.4899 12.0601 17.5099C11.2301 17.5099 10.4401 17.1699 9.86005 16.5799L8.51005 17.9299C9.44005 18.8699 10.7001 19.3999 12.0201 19.4199H12.0901C14.8501 19.3799 17.0701 17.1399 17.0901 14.3699V9.55991C17.0201 6.80991 14.7801 4.60991 12.0301 4.60991V4.59991Z" fill="white"/>
</g>
<defs>
<clipPath id="clip0_4534_26047">
<rect width="24" height="24" fill="white"/>
</clipPath>
</defs>
</svg>
