<svg width="24" height="24" viewBox="0 0 24 24" fill="none" xmlns="http://www.w3.org/2000/svg">
<g clip-path="url(#clip0_4955_9014)">
<path d="M24 0H0V24H24V0Z" fill="black"/>
<path d="M8.2999 9.99985C7.9999 9.99985 7.6999 9.89985 7.4999 9.69985L3.4999 4.59985C3.1999 4.19985 3.1999 3.59985 3.6999 3.19985C3.9999 2.89985 4.6999 2.89985 4.9999 3.39985L8.9999 8.49985C9.2999 8.89985 9.2999 9.49985 8.7999 9.89985C8.6999 9.99985 8.4999 9.99985 8.2999 9.99985Z" fill="white"/>
<path d="M11.2998 20.8C10.7998 20.8 10.2998 20.4 10.2998 19.8V11.3C10.2998 11.1 10.3998 10.9 10.4998 10.7L16.0998 3.79995C16.3998 3.39995 17.0998 3.29995 17.4998 3.69995C17.9998 3.99995 17.9998 4.59995 17.6998 4.99995L12.2998 11.6V19.8C12.2998 20.4 11.7998 20.8 11.2998 20.8Z" fill="white"/>
<path d="M18 20.9998C17.5 20.9998 17 20.5998 17 19.9998V14.7998C17 14.2998 17.4 13.7998 18 13.7998C18.6 13.7998 19 14.1998 19 14.7998V19.9998C19 20.5998 18.5 20.9998 18 20.9998Z" fill="white"/>
<path opacity="0.59" d="M19.4 12.3C20.1732 12.3 20.8 11.6732 20.8 10.9C20.8 10.1268 20.1732 9.5 19.4 9.5C18.6268 9.5 18 10.1268 18 10.9C18 11.6732 18.6268 12.3 19.4 12.3Z" fill="#00FF00"/>
</g>
<defs>
<clipPath id="clip0_4955_9014">
<rect width="24" height="24" fill="white"/>
</clipPath>
</defs>
</svg>
