<svg width="24" height="24" viewBox="0 0 24 24" fill="none" xmlns="http://www.w3.org/2000/svg">
<path d="M24 0H0V24H24V0Z" fill="black"/>
<path d="M1.63 16.3801C2.53022 16.3801 3.26 15.6503 3.26 14.7501C3.26 13.8499 2.53022 13.1201 1.63 13.1201C0.729776 13.1201 0 13.8499 0 14.7501C0 15.6503 0.729776 16.3801 1.63 16.3801Z" fill="white"/>
<path d="M10.1901 9.30004C11.0903 9.30004 11.8201 8.57026 11.8201 7.67004C11.8201 6.76982 11.0903 6.04004 10.1901 6.04004C9.28983 6.04004 8.56006 6.76982 8.56006 7.67004C8.56006 8.57026 9.28983 9.30004 10.1901 9.30004Z" fill="white"/>
<path d="M4.23003 9.82031H6.48003C6.73003 9.82031 6.94003 10.0303 6.94003 10.2803V13.2203C6.94003 14.9703 5.52003 16.3803 3.78003 16.3803V10.2803C3.78003 10.0303 3.99003 9.82031 4.24003 9.82031H4.23003Z" fill="white"/>
<path d="M11.3 9.82031H9.05998C8.80592 9.82031 8.59998 10.0263 8.59998 10.2803V14.3503C8.59998 14.6044 8.80592 14.8103 9.05998 14.8103H11.3C11.554 14.8103 11.76 14.6044 11.76 14.3503V10.2803C11.76 10.0263 11.554 9.82031 11.3 9.82031Z" fill="white"/>
<path d="M13.85 9.82031H15.2C16.75 9.82031 18.01 11.0803 18.01 12.6303V14.3503C18.01 14.6003 17.8 14.8103 17.55 14.8103H13.85C13.6 14.8103 13.39 14.6003 13.39 14.3503V10.2803C13.39 10.0303 13.6 9.82031 13.85 9.82031Z" fill="white"/>
<path d="M21.57 9.82031C22.91 9.82031 24 10.9103 24 12.2503V14.3403C24 14.5903 23.79 14.8003 23.54 14.8003H21.57C20.23 14.8003 19.14 13.7103 19.14 12.3703V12.2503C19.14 10.9103 20.23 9.82031 21.57 9.82031Z" fill="white"/>
</svg>
