<svg width="24" height="24" viewBox="0 0 24 24" fill="none" xmlns="http://www.w3.org/2000/svg">
<path d="M2.62 15.5904L2.3 16.7204H0L0.06 16.5404C1.09333 13.5137 2.11667 10.4804 3.13 7.4404C3.14206 7.38548 3.17468 7.33727 3.22117 7.30565C3.26767 7.27404 3.3245 7.26143 3.38 7.2704C4 7.2704 4.63 7.2704 5.26 7.2704C5.30099 7.26457 5.34265 7.27485 5.37622 7.2991C5.40979 7.32334 5.43265 7.35965 5.44 7.4004L8.57 16.5904C8.57 16.5904 8.57 16.6704 8.57 16.7304H8.42C7.78 16.7304 7.14 16.7304 6.51 16.7304C6.34 16.7304 6.28 16.6804 6.25 16.5304C6.22 16.3804 6.1 16.0004 6 15.7004C6 15.7004 5.91 15.5804 5.86 15.5804H2.62V15.5904ZM5.5 13.8604L4.32 9.7204L3.11 13.8604H5.5Z" fill="black"/>
<path d="M14.9999 14.9999H19.3199V16.7599H12.3199V16.2699C12.3399 15.5816 12.4891 14.9031 12.7599 14.2699C13.1183 13.5127 13.7156 12.8943 14.4599 12.5099C14.9899 12.2099 15.5399 11.9299 16.0799 11.6499C16.4612 11.47 16.7837 11.1857 17.0099 10.8299C17.1053 10.6906 17.1698 10.5326 17.1994 10.3664C17.229 10.2002 17.2228 10.0297 17.1814 9.86602C17.14 9.70239 17.0642 9.54944 16.9592 9.41732C16.8541 9.28521 16.7221 9.17696 16.572 9.09976C16.4219 9.02257 16.2571 8.97818 16.0885 8.96957C15.92 8.96095 15.7515 8.9883 15.5943 9.04979C15.4371 9.11128 15.2948 9.20551 15.1768 9.32622C15.0588 9.44693 14.9678 9.59136 14.9099 9.74992C14.8144 10.0338 14.7408 10.3247 14.6899 10.6199H12.4799C12.4377 9.92225 12.6404 9.23173 13.053 8.66758C13.4656 8.10342 14.0623 7.70105 14.7399 7.52992C15.7864 7.21452 16.9114 7.2855 17.9099 7.72992C18.3438 7.90684 18.7143 8.21046 18.9729 8.60114C19.2316 8.99182 19.3665 9.45141 19.3599 9.91992C19.3949 10.488 19.2642 11.054 18.9838 11.5493C18.7033 12.0445 18.2851 12.4477 17.7799 12.7099C17.1999 13.0599 16.5799 13.3699 15.9799 13.7099C15.7439 13.8211 15.5333 13.9797 15.3613 14.1758C15.1892 14.372 15.0594 14.6014 14.9799 14.8499C14.981 14.9005 14.9877 14.9508 14.9999 14.9999Z" fill="black"/>
<path d="M19.92 9.2298C20.27 9.2298 20.6 9.1798 20.92 9.1198C21.163 9.10246 21.3953 9.01337 21.5876 8.86383C21.7799 8.71429 21.9234 8.51102 22 8.2798C22.0454 8.11627 22.0755 7.94889 22.09 7.7798C22.0954 7.70323 22.0954 7.62638 22.09 7.5498H24V16.7098H21.85V10.9198H19.92V9.2298Z" fill="black"/>
<path d="M9.15002 7.28027H11.3V16.7203H9.15002V7.28027Z" fill="black"/>
</svg>
