<svg width="24" height="24" viewBox="0 0 24 24" fill="none" xmlns="http://www.w3.org/2000/svg">
<rect width="24" height="24" rx="4" fill="white"/>
<path d="M4.4959 14.8614L4.2399 15.7654H2.3999L2.4479 15.6214C3.27457 13.2 4.09323 10.7734 4.9039 8.34138C4.91354 8.29745 4.93964 8.25888 4.97684 8.23359C5.01403 8.20829 5.0595 8.1982 5.1039 8.20538C5.5999 8.20538 6.1039 8.20538 6.6079 8.20538C6.64069 8.20072 6.67402 8.20894 6.70087 8.22834C6.72772 8.24773 6.74601 8.27678 6.75189 8.30938L9.25589 15.6614C9.25589 15.6614 9.25589 15.7254 9.25589 15.7734H9.13589C8.62389 15.7734 8.11189 15.7734 7.60789 15.7734C7.47189 15.7734 7.42389 15.7334 7.39989 15.6134C7.37589 15.4934 7.27989 15.1894 7.19989 14.9494C7.19989 14.9494 7.12789 14.8534 7.08789 14.8534H4.4959V14.8614ZM6.79989 13.4774L5.8559 10.1654L4.8879 13.4774H6.79989Z" fill="black"/>
<path d="M14.3999 14.389H17.8558V15.797H12.2559V15.405C12.2718 14.8543 12.3912 14.3115 12.6079 13.805C12.8945 13.1992 13.3724 12.7045 13.9679 12.397C14.3919 12.157 14.8319 11.933 15.2639 11.709C15.5689 11.5651 15.8269 11.3376 16.0079 11.053C16.0841 10.9415 16.1358 10.8151 16.1594 10.6822C16.1831 10.5492 16.1782 10.4128 16.145 10.2819C16.1119 10.151 16.0513 10.0286 15.9672 9.92292C15.8832 9.81723 15.7776 9.73063 15.6575 9.66887C15.5374 9.60711 15.4056 9.57161 15.2707 9.56471C15.1359 9.55782 15.0011 9.5797 14.8753 9.62889C14.7496 9.67808 14.6357 9.75346 14.5413 9.85003C14.4469 9.9466 14.3742 10.0621 14.3279 10.189C14.2514 10.4161 14.1926 10.6488 14.1519 10.885H12.3839C12.3501 10.3269 12.5122 9.77445 12.8423 9.32312C13.1724 8.8718 13.6497 8.5499 14.1919 8.413C15.029 8.16068 15.929 8.21746 16.7279 8.573C17.0749 8.71453 17.3713 8.95743 17.5782 9.26997C17.7852 9.58251 17.8931 9.95019 17.8879 10.325C17.9158 10.7795 17.8113 11.2323 17.5869 11.6285C17.3625 12.0247 17.028 12.3472 16.6239 12.557C16.1599 12.837 15.6639 13.085 15.1839 13.357C14.995 13.4459 14.8266 13.5728 14.6889 13.7297C14.5513 13.8866 14.4474 14.0702 14.3839 14.269C14.3847 14.3095 14.3901 14.3497 14.3999 14.389Z" fill="black"/>
<path d="M18.3359 9.77271C18.6159 9.77271 18.8799 9.73271 19.1359 9.68471C19.3303 9.67083 19.5162 9.59956 19.67 9.47993C19.8238 9.36029 19.9386 9.19768 19.9999 9.01271C20.0362 8.88188 20.0603 8.74798 20.0719 8.61271C20.0762 8.55145 20.0762 8.48997 20.0719 8.42871H21.5999V15.7567H19.8799V11.1247H18.3359V9.77271Z" fill="black"/>
<path d="M9.71997 8.21387H11.44V15.7659H9.71997V8.21387Z" fill="black"/>
</svg>
