<svg width="24" height="24" viewBox="0 0 24 24" fill="none" xmlns="http://www.w3.org/2000/svg">
<path d="M0.0863042 11.3517C0.455679 9.34731 1.44193 7.72543 3.16505 6.59481C4.46255 5.74356 5.93443 5.46418 7.44568 5.62731C8.49005 5.73981 9.4388 5.59356 10.3951 5.21856C11.0101 4.97856 11.6607 4.88106 12.3282 4.97481C12.5026 4.99918 12.7257 4.97481 12.7688 5.18481C12.8082 5.37043 12.5757 5.40793 12.4613 5.49793C11.8144 6.01356 11.7319 6.77106 12.3582 7.18918C13.5526 7.98606 14.5163 9.02481 15.5307 10.0129C16.0144 10.4836 16.5357 10.9073 17.1657 11.1773C17.3119 11.2411 17.4544 11.3348 17.6082 11.2036C17.9513 10.9111 17.9213 10.0767 17.5576 9.78981C16.0632 8.60668 15.5663 6.63606 16.3163 4.92606C16.4269 4.67668 16.5451 4.48543 16.8544 4.52856C16.9257 4.66918 17.0232 4.80231 17.0626 4.95043C17.2276 5.55793 17.5951 5.95168 18.1857 6.19918C18.7894 6.45231 19.2882 6.84418 19.4588 7.52856C19.5132 7.74606 19.6051 7.77606 19.7813 7.61481C20.3044 7.14043 20.9363 6.96043 21.6357 6.96793C22.2826 6.97356 22.7963 6.70356 23.2163 6.22168C23.3494 6.06981 23.4901 5.85606 23.7488 5.99293C23.9907 6.12043 24.0169 6.35481 23.9869 6.59293C23.7676 8.44543 22.9144 10.0242 20.6044 10.4498C20.2276 10.5192 20.1169 10.6767 20.1169 11.0929C20.1132 12.3567 19.7551 13.5604 19.3201 14.7398C18.8344 16.0561 18.0188 17.1586 17.0719 18.1804C16.6594 18.6267 16.6819 18.6323 17.2594 18.8479C17.7076 19.0148 18.1444 19.2079 18.5832 19.3973C18.7951 19.4892 19.0313 19.5773 18.9976 19.8754C18.9638 20.1736 18.7726 20.3648 18.4932 20.4229C18.0957 20.5054 17.6888 20.5786 17.2838 20.5954C16.5544 20.6254 15.8232 20.5542 15.1444 20.2729C14.8632 20.1567 14.7376 20.3386 14.5913 20.4529C13.5469 21.2667 12.3732 21.7654 11.0588 21.9267C7.9463 22.3111 5.19005 21.6098 2.8913 19.3673C1.32755 17.8429 0.296304 16.0429 0.0769292 13.8773C-0.101196 12.1092 0.0863042 11.3517 0.0863042 11.3517ZM14.5407 20.0329C14.4113 19.9092 14.3551 19.8454 14.2894 19.7948C13.0744 18.9004 12.1332 17.7567 11.3044 16.5154C10.2019 14.8636 9.06193 13.2492 7.30318 12.1936C5.73568 11.2542 4.08568 10.6448 2.21443 10.8304C1.7663 10.8754 1.53568 11.0498 1.57693 11.5354C1.84693 14.7792 3.21568 17.3854 6.05443 19.1179C6.5963 19.4479 7.22068 19.6598 7.88255 19.4329C8.24443 19.3092 8.40568 19.0992 8.14693 18.7111C7.99318 18.4804 7.88068 18.2086 7.80568 17.9404C7.65193 17.3967 7.86568 17.1848 8.40193 17.3404C8.61943 17.4042 8.82568 17.5204 9.02443 17.6348C9.78005 18.0679 10.4963 18.5611 11.1582 19.1217C12.1144 19.9336 13.2151 20.1717 14.5407 20.0329ZM13.7438 13.2548C13.7213 13.9973 13.8432 14.2448 14.4019 14.5748C14.8163 14.8186 15.2307 14.8186 15.6638 14.6011C15.9451 14.4586 16.0051 14.2842 15.8719 14.0048C15.5044 13.2323 15.0282 12.5386 14.3757 11.9798C13.9932 11.6517 13.5526 11.4192 13.0219 11.4867C12.7744 11.5186 12.5007 11.6086 12.4669 11.8973C12.4294 12.2311 12.7313 12.1992 12.9488 12.2461C13.6369 12.3979 13.7626 12.5611 13.7419 13.2548H13.7438ZM12.8701 13.2904C13.0557 13.2773 13.1794 13.1854 13.1701 12.9998C13.1607 12.8254 13.0388 12.6979 12.8607 12.7054C12.7163 12.7111 12.5963 12.8142 12.5926 12.9792C12.5888 13.1592 12.6751 13.2773 12.8682 13.2904H12.8701Z" fill="#506BFC"/>
</svg>
