<svg width="24" height="24" viewBox="0 0 24 24" fill="none" xmlns="http://www.w3.org/2000/svg">
<g clip-path="url(#clip0_1210_11203)">
<path d="M8.3346 1.63599H14.8441L8.0866 21.6577C8.01715 21.8635 7.88492 22.0423 7.70854 22.1689C7.53215 22.2956 7.32049 22.3637 7.10335 22.3637H2.03735C1.87282 22.3638 1.71066 22.3246 1.56427 22.2495C1.41789 22.1744 1.29148 22.0656 1.19552 21.9319C1.09955 21.7983 1.03679 21.6437 1.01241 21.481C0.988038 21.3183 1.00276 21.1521 1.05535 20.9962L7.3511 2.34199C7.42052 2.13617 7.55277 1.95731 7.7292 1.83061C7.90564 1.70391 8.11738 1.636 8.3346 1.63599Z" fill="url(#paint0_linear_1210_11203)"/>
<path d="M17.7939 15.0654H7.47144C7.37547 15.0653 7.2817 15.0941 7.20233 15.1481C7.12297 15.202 7.06169 15.2786 7.02648 15.3679C6.99127 15.4572 6.98376 15.555 7.00494 15.6486C7.02611 15.7422 7.07499 15.8273 7.14519 15.8927L13.7782 22.0837C13.9713 22.2638 14.2256 22.364 14.4897 22.3639H20.3347L17.7939 15.0654Z" fill="#0078D4"/>
<path d="M8.33425 1.63575C8.11466 1.63491 7.90056 1.7043 7.72321 1.83379C7.54586 1.96328 7.41457 2.14608 7.3485 2.3555L1.06275 20.979C1.00662 21.1355 0.988998 21.3031 1.01137 21.4678C1.03375 21.6325 1.09547 21.7894 1.19131 21.9252C1.28714 22.0611 1.41428 22.1718 1.56196 22.2481C1.70965 22.3244 1.87353 22.3639 2.03975 22.3635H7.2365C7.43005 22.3289 7.61095 22.2436 7.76073 22.1162C7.9105 21.9888 8.02378 21.824 8.089 21.6385L9.3425 17.9442L13.82 22.1205C14.0076 22.2757 14.243 22.3615 14.4865 22.3635H20.3097L17.7558 15.065L10.3105 15.0667L14.8673 1.63575H8.33425Z" fill="url(#paint1_linear_1210_11203)"/>
<path d="M16.6489 2.34074C16.5795 2.13525 16.4475 1.95669 16.2713 1.83021C16.0951 1.70373 15.8837 1.63572 15.6669 1.63574H8.41211C8.62897 1.63575 8.84037 1.70379 9.01653 1.83026C9.19269 1.95673 9.32475 2.13527 9.39411 2.34074L15.6901 20.9957C15.7427 21.1517 15.7575 21.3179 15.7331 21.4806C15.7088 21.6434 15.646 21.798 15.5501 21.9317C15.4541 22.0654 15.3277 22.1743 15.1813 22.2494C15.0349 22.3245 14.8727 22.3637 14.7081 22.3637H21.9631C22.1277 22.3637 22.2898 22.3245 22.4362 22.2493C22.5826 22.1742 22.709 22.0653 22.8049 21.9316C22.9008 21.7979 22.9636 21.6433 22.9879 21.4806C23.0122 21.3178 22.9975 21.1516 22.9449 20.9957L16.6489 2.34074Z" fill="url(#paint2_linear_1210_11203)"/>
</g>
<defs>
<linearGradient id="paint0_linear_1210_11203" x1="10.7071" y1="3.17199" x2="3.94685" y2="23.1435" gradientUnits="userSpaceOnUse">
<stop stop-color="#114A8B"/>
<stop offset="1" stop-color="#0669BC"/>
</linearGradient>
<linearGradient id="paint1_linear_1210_11203" x1="12.8185" y1="12.479" x2="11.2547" y2="13.0077" gradientUnits="userSpaceOnUse">
<stop stop-opacity="0.3"/>
<stop offset="0.071" stop-opacity="0.2"/>
<stop offset="0.321" stop-opacity="0.1"/>
<stop offset="0.623" stop-opacity="0.05"/>
<stop offset="1" stop-opacity="0"/>
</linearGradient>
<linearGradient id="paint2_linear_1210_11203" x1="11.9589" y1="2.58924" x2="19.3796" y2="22.3595" gradientUnits="userSpaceOnUse">
<stop stop-color="#3CCBF4"/>
<stop offset="1" stop-color="#2892DF"/>
</linearGradient>
<clipPath id="clip0_1210_11203">
<rect width="24" height="24" fill="white"/>
</clipPath>
</defs>
</svg>
