<svg width="24" height="24" viewBox="0 0 24 24" fill="none" xmlns="http://www.w3.org/2000/svg">
<g clip-path="url(#clip0_5759_62515)">
<path d="M24 0H0V24H24V0Z" fill="#000C14"/>
<path d="M12 22C6.49 22 2 17.51 2 12C2 6.49 6.49 2 12 2C17.51 2 22 6.49 22 12C22 17.51 17.51 22 12 22ZM12 3.5C7.31 3.5 3.5 7.31 3.5 12C3.5 16.69 7.31 20.5 12 20.5C16.69 20.5 20.5 16.69 20.5 12C20.5 7.31 16.69 3.5 12 3.5Z" fill="#0473B3"/>
<path d="M15.9701 6.5H6.82007V17H8.32007V13.13H12.1301L15.5101 17H17.6701L14.1301 13.13H15.9701C16.7101 13.13 17.3001 12.53 17.3001 11.8V7.83C17.3001 7.09 16.7001 6.5 15.9701 6.5ZM15.8001 11.63H8.32007V8H15.8001V11.63Z" fill="white"/>
</g>
<defs>
<clipPath id="clip0_5759_62515">
<rect width="24" height="24" fill="white"/>
</clipPath>
</defs>
</svg>
